<?xml version="1.0" encoding="utf-8" standalone="no"?>
<!DOCTYPE svg PUBLIC "-//W3C//DTD SVG 1.1//EN"
  "http://www.w3.org/Graphics/SVG/1.1/DTD/svg11.dtd">
<svg xmlns:xlink="http://www.w3.org/1999/xlink" width="154.027828pt" height="188.001664pt" viewBox="0 0 154.027828 188.001664" xmlns="http://www.w3.org/2000/svg" version="1.1">
 <metadata>
  <rdf:RDF xmlns:dc="http://purl.org/dc/elements/1.1/" xmlns:cc="http://creativecommons.org/ns#" xmlns:rdf="http://www.w3.org/1999/02/22-rdf-syntax-ns#">
   <cc:Work>
    <dc:type rdf:resource="http://purl.org/dc/dcmitype/StillImage"/>
    <dc:date>2025-03-10T16:00:50.433523</dc:date>
    <dc:format>image/svg+xml</dc:format>
    <dc:creator>
     <cc:Agent>
      <dc:title>Matplotlib v3.7.1, https://matplotlib.org/</dc:title>
     </cc:Agent>
    </dc:creator>
   </cc:Work>
  </rdf:RDF>
 </metadata>
 <defs>
  <style type="text/css">*{stroke-linejoin: round; stroke-linecap: butt}</style>
 </defs>
 <g id="figure_1">
  <g id="patch_1">
   <path d="M 0 188.001664 
L 154.027828 188.001664 
L 154.027828 0 
L 0 0 
z
" style="fill: #ffffff"/>
  </g>
  <g id="axes_1">
   <g id="patch_2">
    <path d="M 35.227828 148.555758 
L 146.827828 148.555758 
L 146.827828 9.955758 
L 35.227828 9.955758 
z
" style="fill: #ffffff"/>
   </g>
   <g id="patch_3">
    <path d="M 44.084971 148.555758 
L 48.808781 148.555758 
L 48.808781 148.555758 
L 44.084971 148.555758 
z
" clip-path="url(#p39b73dbb9b)" style="fill: #648fff; stroke: #000000; stroke-width: 0.5; stroke-linejoin: miter"/>
   </g>
   <g id="patch_4">
    <path d="M 79.513542 148.555758 
L 84.237352 148.555758 
L 84.237352 137.586954 
L 79.513542 137.586954 
z
" clip-path="url(#p39b73dbb9b)" style="fill: #648fff; stroke: #000000; stroke-width: 0.5; stroke-linejoin: miter"/>
   </g>
   <g id="patch_5">
    <path d="M 114.942114 148.555758 
L 119.665923 148.555758 
L 119.665923 124.841298 
L 114.942114 124.841298 
z
" clip-path="url(#p39b73dbb9b)" style="fill: #648fff; stroke: #000000; stroke-width: 0.5; stroke-linejoin: miter"/>
   </g>
   <g id="patch_6">
    <path d="M 48.808781 148.555758 
L 53.53259 148.555758 
L 53.53259 148.555758 
L 48.808781 148.555758 
z
" clip-path="url(#p39b73dbb9b)" style="fill: #fe6100; stroke: #000000; stroke-width: 0.5; stroke-linejoin: miter"/>
   </g>
   <g id="patch_7">
    <path d="M 84.237352 148.555758 
L 88.961161 148.555758 
L 88.961161 135.39846 
L 84.237352 135.39846 
z
" clip-path="url(#p39b73dbb9b)" style="fill: #fe6100; stroke: #000000; stroke-width: 0.5; stroke-linejoin: miter"/>
   </g>
   <g id="patch_8">
    <path d="M 119.665923 148.555758 
L 124.389733 148.555758 
L 124.389733 118.799724 
L 119.665923 118.799724 
z
" clip-path="url(#p39b73dbb9b)" style="fill: #fe6100; stroke: #000000; stroke-width: 0.5; stroke-linejoin: miter"/>
   </g>
   <g id="patch_9">
    <path d="M 53.53259 148.555758 
L 58.2564 148.555758 
L 58.2564 148.555758 
L 53.53259 148.555758 
z
" clip-path="url(#p39b73dbb9b)" style="fill: #785ef0; stroke: #000000; stroke-width: 0.5; stroke-linejoin: miter"/>
   </g>
   <g id="patch_10">
    <path d="M 88.961161 148.555758 
L 93.684971 148.555758 
L 93.684971 136.523892 
L 88.961161 136.523892 
z
" clip-path="url(#p39b73dbb9b)" style="fill: #785ef0; stroke: #000000; stroke-width: 0.5; stroke-linejoin: miter"/>
   </g>
   <g id="patch_11">
    <path d="M 124.389733 148.555758 
L 129.113542 148.555758 
L 129.113542 123.484404 
L 124.389733 123.484404 
z
" clip-path="url(#p39b73dbb9b)" style="fill: #785ef0; stroke: #000000; stroke-width: 0.5; stroke-linejoin: miter"/>
   </g>
   <g id="patch_12">
    <path d="M 58.2564 148.555758 
L 62.980209 148.555758 
L 62.980209 148.555758 
L 58.2564 148.555758 
z
" clip-path="url(#p39b73dbb9b)" style="fill: #dc267f; stroke: #000000; stroke-width: 0.5; stroke-linejoin: miter"/>
   </g>
   <g id="patch_13">
    <path d="M 93.684971 148.555758 
L 98.408781 148.555758 
L 98.408781 136.52112 
L 93.684971 136.52112 
z
" clip-path="url(#p39b73dbb9b)" style="fill: #dc267f; stroke: #000000; stroke-width: 0.5; stroke-linejoin: miter"/>
   </g>
   <g id="patch_14">
    <path d="M 129.113542 148.555758 
L 133.837352 148.555758 
L 133.837352 118.152462 
L 129.113542 118.152462 
z
" clip-path="url(#p39b73dbb9b)" style="fill: #dc267f; stroke: #000000; stroke-width: 0.5; stroke-linejoin: miter"/>
   </g>
   <g id="patch_15">
    <path d="M 62.980209 148.555758 
L 67.704019 148.555758 
L 67.704019 148.555758 
L 62.980209 148.555758 
z
" clip-path="url(#p39b73dbb9b)" style="fill: #ffb000; stroke: #000000; stroke-width: 0.5; stroke-linejoin: miter"/>
   </g>
   <g id="patch_16">
    <path d="M 98.408781 148.555758 
L 103.13259 148.555758 
L 103.13259 131.013156 
L 98.408781 131.013156 
z
" clip-path="url(#p39b73dbb9b)" style="fill: #ffb000; stroke: #000000; stroke-width: 0.5; stroke-linejoin: miter"/>
   </g>
   <g id="patch_17">
    <path d="M 133.837352 148.555758 
L 138.561161 148.555758 
L 138.561161 108.119208 
L 133.837352 108.119208 
z
" clip-path="url(#p39b73dbb9b)" style="fill: #ffb000; stroke: #000000; stroke-width: 0.5; stroke-linejoin: miter"/>
   </g>
   <g id="patch_18">
    <path d="M 67.704019 148.555758 
L 72.427828 148.555758 
L 72.427828 148.555758 
L 67.704019 148.555758 
z
" clip-path="url(#p39b73dbb9b)" style="fill: url(#hb2d267f98d); stroke: #000000; stroke-width: 0.5; stroke-linejoin: miter"/>
   </g>
   <g id="patch_19">
    <path d="M 103.13259 148.555758 
L 107.8564 148.555758 
L 107.8564 132.864852 
L 103.13259 132.864852 
z
" clip-path="url(#p39b73dbb9b)" style="fill: url(#hb2d267f98d); stroke: #000000; stroke-width: 0.5; stroke-linejoin: miter"/>
   </g>
   <g id="patch_20">
    <path d="M 138.561161 148.555758 
L 143.284971 148.555758 
L 143.284971 78.058254 
L 138.561161 78.058254 
z
" clip-path="url(#p39b73dbb9b)" style="fill: url(#hb2d267f98d); stroke: #000000; stroke-width: 0.5; stroke-linejoin: miter"/>
   </g>
   <g id="PathCollection_1"/>
   <g id="PathCollection_2"/>
   <g id="PathCollection_3"/>
   <g id="PathCollection_4"/>
   <g id="PathCollection_5"/>
   <g id="PathCollection_6"/>
   <g id="matplotlib.axis_1">
    <g id="xtick_1">
     <g id="line2d_1">
      <defs>
       <path id="m5b6d1139b9" d="M 0 5 
L 0 -5 
" style="stroke: #262626; stroke-width: 0.5"/>
      </defs>
      <g>
       <use xlink:href="#m5b6d1139b9" x="58.2564" y="148.555758" style="fill: #262626; stroke: #262626; stroke-width: 0.5"/>
      </g>
     </g>
     <g id="text_1">
      <!-- 24 -->
      <g style="fill: #262626" transform="translate(60.24697 169.119602) rotate(-90) scale(0.077 -0.077)">
       <defs>
        <path id="Arial-ItalicMT-32" d="M 375 0 
Q 463 409 617 686 
Q 772 963 1028 1211 
Q 1284 1459 2016 2044 
Q 2459 2397 2622 2566 
Q 2856 2809 2963 3044 
Q 3034 3203 3034 3391 
Q 3034 3706 2811 3926 
Q 2588 4147 2263 4147 
Q 1941 4147 1700 3923 
Q 1459 3700 1356 3206 
L 803 3288 
Q 884 3897 1276 4248 
Q 1669 4600 2253 4600 
Q 2644 4600 2961 4437 
Q 3278 4275 3437 3981 
Q 3597 3688 3597 3375 
Q 3597 2919 3272 2497 
Q 3072 2234 2097 1463 
Q 1678 1131 1473 918 
Q 1269 706 1166 519 
L 3216 519 
L 3106 0 
L 375 0 
z
" transform="scale(0.015625)"/>
        <path id="Arial-ItalicMT-34" d="M 1913 0 
L 2159 1169 
L 291 1169 
L 409 1728 
L 2975 4581 
L 3438 4581 
L 2828 1669 
L 3472 1669 
L 3369 1169 
L 2725 1169 
L 2478 0 
L 1913 0 
z
M 2263 1669 
L 2663 3581 
L 956 1669 
L 2263 1669 
z
" transform="scale(0.015625)"/>
       </defs>
       <use xlink:href="#Arial-ItalicMT-32"/>
       <use xlink:href="#Arial-ItalicMT-34" x="55.615234"/>
      </g>
     </g>
    </g>
    <g id="xtick_2">
     <g id="line2d_2">
      <g>
       <use xlink:href="#m5b6d1139b9" x="93.684971" y="148.555758" style="fill: #262626; stroke: #262626; stroke-width: 0.5"/>
      </g>
     </g>
     <g id="text_2">
      <!-- 48 -->
      <g style="fill: #262626" transform="translate(95.675541 169.119602) rotate(-90) scale(0.077 -0.077)">
       <defs>
        <path id="Arial-ItalicMT-38" d="M 1444 2519 
Q 1188 2659 1059 2879 
Q 931 3100 931 3353 
Q 931 3769 1231 4122 
Q 1631 4600 2316 4600 
Q 2919 4600 3266 4276 
Q 3613 3953 3613 3484 
Q 3613 3150 3425 2881 
Q 3238 2613 2838 2453 
Q 3113 2281 3231 2088 
Q 3384 1834 3384 1497 
Q 3384 881 2948 400 
Q 2513 -81 1788 -81 
Q 1209 -81 843 275 
Q 478 631 478 1166 
Q 478 1669 737 2030 
Q 997 2391 1444 2519 
z
M 1488 3328 
Q 1488 3034 1677 2854 
Q 1866 2675 2197 2675 
Q 2584 2675 2826 2911 
Q 3069 3147 3069 3491 
Q 3069 3781 2880 3964 
Q 2691 4147 2359 4147 
Q 2109 4147 1900 4031 
Q 1691 3916 1589 3717 
Q 1488 3519 1488 3328 
z
M 1047 1119 
Q 1047 928 1139 753 
Q 1231 578 1418 475 
Q 1606 372 1847 372 
Q 2306 372 2591 803 
Q 2816 1141 2816 1531 
Q 2816 1850 2608 2053 
Q 2400 2256 2063 2256 
Q 1638 2256 1342 1940 
Q 1047 1625 1047 1119 
z
" transform="scale(0.015625)"/>
       </defs>
       <use xlink:href="#Arial-ItalicMT-34"/>
       <use xlink:href="#Arial-ItalicMT-38" x="55.615234"/>
      </g>
     </g>
    </g>
    <g id="xtick_3">
     <g id="line2d_3">
      <g>
       <use xlink:href="#m5b6d1139b9" x="129.113542" y="148.555758" style="fill: #262626; stroke: #262626; stroke-width: 0.5"/>
      </g>
     </g>
     <g id="text_3">
      <!-- 72 -->
      <g style="fill: #262626" transform="translate(131.104113 169.119602) rotate(-90) scale(0.077 -0.077)">
       <defs>
        <path id="Arial-ItalicMT-37" d="M 928 0 
Q 1003 463 1247 1113 
Q 1538 1897 2009 2670 
Q 2481 3444 3059 4000 
L 775 4000 
L 884 4519 
L 3809 4519 
L 3703 4000 
Q 2959 3347 2403 2316 
Q 1756 1125 1519 0 
L 928 0 
z
" transform="scale(0.015625)"/>
       </defs>
       <use xlink:href="#Arial-ItalicMT-37"/>
       <use xlink:href="#Arial-ItalicMT-32" x="55.615234"/>
      </g>
     </g>
    </g>
    <g id="text_4">
     <!-- Time -->
     <g transform="translate(81.852797 179.132164) scale(0.084 -0.084)">
      <defs>
       <path id="ArialMT-54" d="M 1659 0 
L 1659 4041 
L 150 4041 
L 150 4581 
L 3781 4581 
L 3781 4041 
L 2266 4041 
L 2266 0 
L 1659 0 
z
" transform="scale(0.015625)"/>
       <path id="ArialMT-69" d="M 425 3934 
L 425 4581 
L 988 4581 
L 988 3934 
L 425 3934 
z
M 425 0 
L 425 3319 
L 988 3319 
L 988 0 
L 425 0 
z
" transform="scale(0.015625)"/>
       <path id="ArialMT-6d" d="M 422 0 
L 422 3319 
L 925 3319 
L 925 2853 
Q 1081 3097 1340 3245 
Q 1600 3394 1931 3394 
Q 2300 3394 2536 3241 
Q 2772 3088 2869 2813 
Q 3263 3394 3894 3394 
Q 4388 3394 4653 3120 
Q 4919 2847 4919 2278 
L 4919 0 
L 4359 0 
L 4359 2091 
Q 4359 2428 4304 2576 
Q 4250 2725 4106 2815 
Q 3963 2906 3769 2906 
Q 3419 2906 3187 2673 
Q 2956 2441 2956 1928 
L 2956 0 
L 2394 0 
L 2394 2156 
Q 2394 2531 2256 2718 
Q 2119 2906 1806 2906 
Q 1569 2906 1367 2781 
Q 1166 2656 1075 2415 
Q 984 2175 984 1722 
L 984 0 
L 422 0 
z
" transform="scale(0.015625)"/>
       <path id="ArialMT-65" d="M 2694 1069 
L 3275 997 
Q 3138 488 2766 206 
Q 2394 -75 1816 -75 
Q 1088 -75 661 373 
Q 234 822 234 1631 
Q 234 2469 665 2931 
Q 1097 3394 1784 3394 
Q 2450 3394 2872 2941 
Q 3294 2488 3294 1666 
Q 3294 1616 3291 1516 
L 816 1516 
Q 847 969 1125 678 
Q 1403 388 1819 388 
Q 2128 388 2347 550 
Q 2566 713 2694 1069 
z
M 847 1978 
L 2700 1978 
Q 2663 2397 2488 2606 
Q 2219 2931 1791 2931 
Q 1403 2931 1139 2672 
Q 875 2413 847 1978 
z
" transform="scale(0.015625)"/>
      </defs>
      <use xlink:href="#ArialMT-54"/>
      <use xlink:href="#ArialMT-69" x="57.333984"/>
      <use xlink:href="#ArialMT-6d" x="79.550781"/>
      <use xlink:href="#ArialMT-65" x="162.851562"/>
     </g>
    </g>
   </g>
   <g id="matplotlib.axis_2">
    <g id="ytick_1">
     <g id="line2d_4">
      <defs>
       <path id="m3f8130b785" d="M 0 0 
L 4 0 
" style="stroke: #262626; stroke-width: 0.5"/>
      </defs>
      <g>
       <use xlink:href="#m3f8130b785" x="35.227828" y="148.555758" style="fill: #262626; stroke: #262626; stroke-width: 0.5"/>
      </g>
     </g>
     <g id="text_5">
      <!-- 0 -->
      <g style="fill: #262626" transform="translate(27.445906 151.311516) scale(0.077 -0.077)">
       <defs>
        <path id="ArialMT-30" d="M 266 2259 
Q 266 3072 433 3567 
Q 600 4063 929 4331 
Q 1259 4600 1759 4600 
Q 2128 4600 2406 4451 
Q 2684 4303 2865 4023 
Q 3047 3744 3150 3342 
Q 3253 2941 3253 2259 
Q 3253 1453 3087 958 
Q 2922 463 2592 192 
Q 2263 -78 1759 -78 
Q 1097 -78 719 397 
Q 266 969 266 2259 
z
M 844 2259 
Q 844 1131 1108 757 
Q 1372 384 1759 384 
Q 2147 384 2411 759 
Q 2675 1134 2675 2259 
Q 2675 3391 2411 3762 
Q 2147 4134 1753 4134 
Q 1366 4134 1134 3806 
Q 844 3388 844 2259 
z
" transform="scale(0.015625)"/>
       </defs>
       <use xlink:href="#ArialMT-30"/>
      </g>
     </g>
    </g>
    <g id="ytick_2">
     <g id="line2d_5">
      <g>
       <use xlink:href="#m3f8130b785" x="35.227828" y="120.835758" style="fill: #262626; stroke: #262626; stroke-width: 0.5"/>
      </g>
     </g>
     <g id="text_6">
      <!-- 100 -->
      <g style="fill: #262626" transform="translate(18.882063 123.591516) scale(0.077 -0.077)">
       <defs>
        <path id="ArialMT-31" d="M 2384 0 
L 1822 0 
L 1822 3584 
Q 1619 3391 1289 3197 
Q 959 3003 697 2906 
L 697 3450 
Q 1169 3672 1522 3987 
Q 1875 4303 2022 4600 
L 2384 4600 
L 2384 0 
z
" transform="scale(0.015625)"/>
       </defs>
       <use xlink:href="#ArialMT-31"/>
       <use xlink:href="#ArialMT-30" x="55.615234"/>
       <use xlink:href="#ArialMT-30" x="111.230469"/>
      </g>
     </g>
    </g>
    <g id="ytick_3">
     <g id="line2d_6">
      <g>
       <use xlink:href="#m3f8130b785" x="35.227828" y="93.115758" style="fill: #262626; stroke: #262626; stroke-width: 0.5"/>
      </g>
     </g>
     <g id="text_7">
      <!-- 200 -->
      <g style="fill: #262626" transform="translate(18.882063 95.871516) scale(0.077 -0.077)">
       <defs>
        <path id="ArialMT-32" d="M 3222 541 
L 3222 0 
L 194 0 
Q 188 203 259 391 
Q 375 700 629 1000 
Q 884 1300 1366 1694 
Q 2113 2306 2375 2664 
Q 2638 3022 2638 3341 
Q 2638 3675 2398 3904 
Q 2159 4134 1775 4134 
Q 1369 4134 1125 3890 
Q 881 3647 878 3216 
L 300 3275 
Q 359 3922 746 4261 
Q 1134 4600 1788 4600 
Q 2447 4600 2831 4234 
Q 3216 3869 3216 3328 
Q 3216 3053 3103 2787 
Q 2991 2522 2730 2228 
Q 2469 1934 1863 1422 
Q 1356 997 1212 845 
Q 1069 694 975 541 
L 3222 541 
z
" transform="scale(0.015625)"/>
       </defs>
       <use xlink:href="#ArialMT-32"/>
       <use xlink:href="#ArialMT-30" x="55.615234"/>
       <use xlink:href="#ArialMT-30" x="111.230469"/>
      </g>
     </g>
    </g>
    <g id="ytick_4">
     <g id="line2d_7">
      <g>
       <use xlink:href="#m3f8130b785" x="35.227828" y="65.395758" style="fill: #262626; stroke: #262626; stroke-width: 0.5"/>
      </g>
     </g>
     <g id="text_8">
      <!-- 300 -->
      <g style="fill: #262626" transform="translate(18.882063 68.151516) scale(0.077 -0.077)">
       <defs>
        <path id="ArialMT-33" d="M 269 1209 
L 831 1284 
Q 928 806 1161 595 
Q 1394 384 1728 384 
Q 2125 384 2398 659 
Q 2672 934 2672 1341 
Q 2672 1728 2419 1979 
Q 2166 2231 1775 2231 
Q 1616 2231 1378 2169 
L 1441 2663 
Q 1497 2656 1531 2656 
Q 1891 2656 2178 2843 
Q 2466 3031 2466 3422 
Q 2466 3731 2256 3934 
Q 2047 4138 1716 4138 
Q 1388 4138 1169 3931 
Q 950 3725 888 3313 
L 325 3413 
Q 428 3978 793 4289 
Q 1159 4600 1703 4600 
Q 2078 4600 2393 4439 
Q 2709 4278 2876 4000 
Q 3044 3722 3044 3409 
Q 3044 3113 2884 2869 
Q 2725 2625 2413 2481 
Q 2819 2388 3044 2092 
Q 3269 1797 3269 1353 
Q 3269 753 2831 336 
Q 2394 -81 1725 -81 
Q 1122 -81 723 278 
Q 325 638 269 1209 
z
" transform="scale(0.015625)"/>
       </defs>
       <use xlink:href="#ArialMT-33"/>
       <use xlink:href="#ArialMT-30" x="55.615234"/>
       <use xlink:href="#ArialMT-30" x="111.230469"/>
      </g>
     </g>
    </g>
    <g id="ytick_5">
     <g id="line2d_8">
      <g>
       <use xlink:href="#m3f8130b785" x="35.227828" y="37.675758" style="fill: #262626; stroke: #262626; stroke-width: 0.5"/>
      </g>
     </g>
     <g id="text_9">
      <!-- 400 -->
      <g style="fill: #262626" transform="translate(18.882063 40.431516) scale(0.077 -0.077)">
       <defs>
        <path id="ArialMT-34" d="M 2069 0 
L 2069 1097 
L 81 1097 
L 81 1613 
L 2172 4581 
L 2631 4581 
L 2631 1613 
L 3250 1613 
L 3250 1097 
L 2631 1097 
L 2631 0 
L 2069 0 
z
M 2069 1613 
L 2069 3678 
L 634 1613 
L 2069 1613 
z
" transform="scale(0.015625)"/>
       </defs>
       <use xlink:href="#ArialMT-34"/>
       <use xlink:href="#ArialMT-30" x="55.615234"/>
       <use xlink:href="#ArialMT-30" x="111.230469"/>
      </g>
     </g>
    </g>
    <g id="ytick_6">
     <g id="line2d_9">
      <g>
       <use xlink:href="#m3f8130b785" x="35.227828" y="9.955758" style="fill: #262626; stroke: #262626; stroke-width: 0.5"/>
      </g>
     </g>
     <g id="text_10">
      <!-- 500 -->
      <g style="fill: #262626" transform="translate(18.882063 12.711516) scale(0.077 -0.077)">
       <defs>
        <path id="ArialMT-35" d="M 266 1200 
L 856 1250 
Q 922 819 1161 601 
Q 1400 384 1738 384 
Q 2144 384 2425 690 
Q 2706 997 2706 1503 
Q 2706 1984 2436 2262 
Q 2166 2541 1728 2541 
Q 1456 2541 1237 2417 
Q 1019 2294 894 2097 
L 366 2166 
L 809 4519 
L 3088 4519 
L 3088 3981 
L 1259 3981 
L 1013 2750 
Q 1425 3038 1878 3038 
Q 2478 3038 2890 2622 
Q 3303 2206 3303 1553 
Q 3303 931 2941 478 
Q 2500 -78 1738 -78 
Q 1113 -78 717 272 
Q 322 622 266 1200 
z
" transform="scale(0.015625)"/>
       </defs>
       <use xlink:href="#ArialMT-35"/>
       <use xlink:href="#ArialMT-30" x="55.615234"/>
       <use xlink:href="#ArialMT-30" x="111.230469"/>
      </g>
     </g>
    </g>
    <g id="text_11">
     <!-- Titer -->
     <g transform="translate(13.212563 87.497602) rotate(-90) scale(0.084 -0.084)">
      <defs>
       <path id="ArialMT-74" d="M 1650 503 
L 1731 6 
Q 1494 -44 1306 -44 
Q 1000 -44 831 53 
Q 663 150 594 308 
Q 525 466 525 972 
L 525 2881 
L 113 2881 
L 113 3319 
L 525 3319 
L 525 4141 
L 1084 4478 
L 1084 3319 
L 1650 3319 
L 1650 2881 
L 1084 2881 
L 1084 941 
Q 1084 700 1114 631 
Q 1144 563 1211 522 
Q 1278 481 1403 481 
Q 1497 481 1650 503 
z
" transform="scale(0.015625)"/>
       <path id="ArialMT-72" d="M 416 0 
L 416 3319 
L 922 3319 
L 922 2816 
Q 1116 3169 1280 3281 
Q 1444 3394 1641 3394 
Q 1925 3394 2219 3213 
L 2025 2691 
Q 1819 2813 1613 2813 
Q 1428 2813 1281 2702 
Q 1134 2591 1072 2394 
Q 978 2094 978 1738 
L 978 0 
L 416 0 
z
" transform="scale(0.015625)"/>
      </defs>
      <use xlink:href="#ArialMT-54"/>
      <use xlink:href="#ArialMT-69" x="57.333984"/>
      <use xlink:href="#ArialMT-74" x="79.550781"/>
      <use xlink:href="#ArialMT-65" x="107.333984"/>
      <use xlink:href="#ArialMT-72" x="162.949219"/>
     </g>
    </g>
   </g>
   <g id="PathCollection_7">
    <defs>
     <path id="C0_0_fa7a51e765" d="M 0 2.5 
C 0.663008 2.5 1.29895 2.236584 1.767767 1.767767 
C 2.236584 1.29895 2.5 0.663008 2.5 -0 
C 2.5 -0.663008 2.236584 -1.29895 1.767767 -1.767767 
C 1.29895 -2.236584 0.663008 -2.5 0 -2.5 
C -0.663008 -2.5 -1.29895 -2.236584 -1.767767 -1.767767 
C -2.236584 -1.29895 -2.5 -0.663008 -2.5 0 
C -2.5 0.663008 -2.236584 1.29895 -1.767767 1.767767 
C -1.29895 2.236584 -0.663008 2.5 0 2.5 
z
"/>
    </defs>
    <g clip-path="url(#p39b73dbb9b)">
     <use xlink:href="#C0_0_fa7a51e765" x="46.589704" y="148.555758" style="fill: #648fff; fill-opacity: 0.7; stroke: #000000; stroke-opacity: 0.7; stroke-width: 0.5"/>
    </g>
    <g clip-path="url(#p39b73dbb9b)">
     <use xlink:href="#C0_0_fa7a51e765" x="46.870156" y="148.555758" style="fill: #648fff; fill-opacity: 0.7; stroke: #000000; stroke-opacity: 0.7; stroke-width: 0.5"/>
    </g>
   </g>
   <g id="PathCollection_8">
    <defs>
     <path id="C1_0_95fe66fbfe" d="M 0 2.5 
C 0.663008 2.5 1.29895 2.236584 1.767767 1.767767 
C 2.236584 1.29895 2.5 0.663008 2.5 -0 
C 2.5 -0.663008 2.236584 -1.29895 1.767767 -1.767767 
C 1.29895 -2.236584 0.663008 -2.5 0 -2.5 
C -0.663008 -2.5 -1.29895 -2.236584 -1.767767 -1.767767 
C -2.236584 -1.29895 -2.5 -0.663008 -2.5 0 
C -2.5 0.663008 -2.236584 1.29895 -1.767767 1.767767 
C -1.29895 2.236584 -0.663008 2.5 0 2.5 
z
"/>
    </defs>
    <g clip-path="url(#p39b73dbb9b)">
     <use xlink:href="#C1_0_95fe66fbfe" x="51.202349" y="148.555758" style="fill: #fe6100; fill-opacity: 0.7; stroke: #000000; stroke-opacity: 0.7; stroke-width: 0.5"/>
    </g>
    <g clip-path="url(#p39b73dbb9b)">
     <use xlink:href="#C1_0_95fe66fbfe" x="51.758088" y="148.555758" style="fill: #fe6100; fill-opacity: 0.7; stroke: #000000; stroke-opacity: 0.7; stroke-width: 0.5"/>
    </g>
   </g>
   <g id="PathCollection_9">
    <defs>
     <path id="C2_0_0363e505b4" d="M 0 2.5 
C 0.663008 2.5 1.29895 2.236584 1.767767 1.767767 
C 2.236584 1.29895 2.5 0.663008 2.5 -0 
C 2.5 -0.663008 2.236584 -1.29895 1.767767 -1.767767 
C 1.29895 -2.236584 0.663008 -2.5 0 -2.5 
C -0.663008 -2.5 -1.29895 -2.236584 -1.767767 -1.767767 
C -2.236584 -1.29895 -2.5 -0.663008 -2.5 0 
C -2.5 0.663008 -2.236584 1.29895 -1.767767 1.767767 
C -1.29895 2.236584 -0.663008 2.5 0 2.5 
z
"/>
    </defs>
    <g clip-path="url(#p39b73dbb9b)">
     <use xlink:href="#C2_0_0363e505b4" x="55.470963" y="148.555758" style="fill: #785ef0; fill-opacity: 0.7; stroke: #000000; stroke-opacity: 0.7; stroke-width: 0.5"/>
    </g>
    <g clip-path="url(#p39b73dbb9b)">
     <use xlink:href="#C2_0_0363e505b4" x="56.206177" y="148.555758" style="fill: #785ef0; fill-opacity: 0.7; stroke: #000000; stroke-opacity: 0.7; stroke-width: 0.5"/>
    </g>
   </g>
   <g id="PathCollection_10">
    <defs>
     <path id="C3_0_99b24d10db" d="M 0 2.5 
C 0.663008 2.5 1.29895 2.236584 1.767767 1.767767 
C 2.236584 1.29895 2.5 0.663008 2.5 -0 
C 2.5 -0.663008 2.236584 -1.29895 1.767767 -1.767767 
C 1.29895 -2.236584 0.663008 -2.5 0 -2.5 
C -0.663008 -2.5 -1.29895 -2.236584 -1.767767 -1.767767 
C -2.236584 -1.29895 -2.5 -0.663008 -2.5 0 
C -2.5 0.663008 -2.236584 1.29895 -1.767767 1.767767 
C -1.29895 2.236584 -0.663008 2.5 0 2.5 
z
"/>
    </defs>
    <g clip-path="url(#p39b73dbb9b)">
     <use xlink:href="#C3_0_99b24d10db" x="60.403275" y="148.555758" style="fill: #dc267f; fill-opacity: 0.7; stroke: #000000; stroke-opacity: 0.7; stroke-width: 0.5"/>
    </g>
    <g clip-path="url(#p39b73dbb9b)">
     <use xlink:href="#C3_0_99b24d10db" x="61.18335" y="148.555758" style="fill: #dc267f; fill-opacity: 0.7; stroke: #000000; stroke-opacity: 0.7; stroke-width: 0.5"/>
    </g>
   </g>
   <g id="PathCollection_11">
    <defs>
     <path id="C4_0_de9e9f1056" d="M 0 2.5 
C 0.663008 2.5 1.29895 2.236584 1.767767 1.767767 
C 2.236584 1.29895 2.5 0.663008 2.5 -0 
C 2.5 -0.663008 2.236584 -1.29895 1.767767 -1.767767 
C 1.29895 -2.236584 0.663008 -2.5 0 -2.5 
C -0.663008 -2.5 -1.29895 -2.236584 -1.767767 -1.767767 
C -2.236584 -1.29895 -2.5 -0.663008 -2.5 0 
C -2.5 0.663008 -2.236584 1.29895 -1.767767 1.767767 
C -1.29895 2.236584 -0.663008 2.5 0 2.5 
z
"/>
    </defs>
    <g clip-path="url(#p39b73dbb9b)">
     <use xlink:href="#C4_0_de9e9f1056" x="65.85661" y="148.555758" style="fill: #ffb000; fill-opacity: 0.7; stroke: #000000; stroke-opacity: 0.7; stroke-width: 0.5"/>
    </g>
    <g clip-path="url(#p39b73dbb9b)">
     <use xlink:href="#C4_0_de9e9f1056" x="65.903784" y="148.555758" style="fill: #ffb000; fill-opacity: 0.7; stroke: #000000; stroke-opacity: 0.7; stroke-width: 0.5"/>
    </g>
   </g>
   <g id="PathCollection_12">
    <defs>
     <path id="C5_0_601ed19305" d="M 0 2.5 
C 0.663008 2.5 1.29895 2.236584 1.767767 1.767767 
C 2.236584 1.29895 2.5 0.663008 2.5 -0 
C 2.5 -0.663008 2.236584 -1.29895 1.767767 -1.767767 
C 1.29895 -2.236584 0.663008 -2.5 0 -2.5 
C -0.663008 -2.5 -1.29895 -2.236584 -1.767767 -1.767767 
C -2.236584 -1.29895 -2.5 -0.663008 -2.5 0 
C -2.5 0.663008 -2.236584 1.29895 -1.767767 1.767767 
C -1.29895 2.236584 -0.663008 2.5 0 2.5 
z
"/>
    </defs>
    <g clip-path="url(#p39b73dbb9b)">
     <use xlink:href="#C5_0_601ed19305" x="70.337862" y="148.555758" style="fill: #ffb000; fill-opacity: 0.7; stroke: #000000; stroke-opacity: 0.7; stroke-width: 0.5"/>
    </g>
    <g clip-path="url(#p39b73dbb9b)">
     <use xlink:href="#C5_0_601ed19305" x="70.095693" y="148.555758" style="fill: #ffb000; fill-opacity: 0.7; stroke: #000000; stroke-opacity: 0.7; stroke-width: 0.5"/>
    </g>
   </g>
   <g id="PathCollection_13">
    <defs>
     <path id="C6_0_111df0ddaf" d="M 0 2.5 
C 0.663008 2.5 1.29895 2.236584 1.767767 1.767767 
C 2.236584 1.29895 2.5 0.663008 2.5 -0 
C 2.5 -0.663008 2.236584 -1.29895 1.767767 -1.767767 
C 1.29895 -2.236584 0.663008 -2.5 0 -2.5 
C -0.663008 -2.5 -1.29895 -2.236584 -1.767767 -1.767767 
C -2.236584 -1.29895 -2.5 -0.663008 -2.5 0 
C -2.5 0.663008 -2.236584 1.29895 -1.767767 1.767767 
C -1.29895 2.236584 -0.663008 2.5 0 2.5 
z
"/>
    </defs>
    <g clip-path="url(#p39b73dbb9b)">
     <use xlink:href="#C6_0_111df0ddaf" x="82.193859" y="137.811486" style="fill: #648fff; fill-opacity: 0.7; stroke: #000000; stroke-opacity: 0.7; stroke-width: 0.5"/>
    </g>
    <g clip-path="url(#p39b73dbb9b)">
     <use xlink:href="#C6_0_111df0ddaf" x="82.423883" y="137.362422" style="fill: #648fff; fill-opacity: 0.7; stroke: #000000; stroke-opacity: 0.7; stroke-width: 0.5"/>
    </g>
   </g>
   <g id="PathCollection_14">
    <defs>
     <path id="C7_0_0600629d31" d="M 0 2.5 
C 0.663008 2.5 1.29895 2.236584 1.767767 1.767767 
C 2.236584 1.29895 2.5 0.663008 2.5 -0 
C 2.5 -0.663008 2.236584 -1.29895 1.767767 -1.767767 
C 1.29895 -2.236584 0.663008 -2.5 0 -2.5 
C -0.663008 -2.5 -1.29895 -2.236584 -1.767767 -1.767767 
C -2.236584 -1.29895 -2.5 -0.663008 -2.5 0 
C -2.5 0.663008 -2.236584 1.29895 -1.767767 1.767767 
C -1.29895 2.236584 -0.663008 2.5 0 2.5 
z
"/>
    </defs>
    <g clip-path="url(#p39b73dbb9b)">
     <use xlink:href="#C7_0_0600629d31" x="86.453516" y="134.493402" style="fill: #fe6100; fill-opacity: 0.7; stroke: #000000; stroke-opacity: 0.7; stroke-width: 0.5"/>
    </g>
    <g clip-path="url(#p39b73dbb9b)">
     <use xlink:href="#C7_0_0600629d31" x="86.711891" y="136.303518" style="fill: #fe6100; fill-opacity: 0.7; stroke: #000000; stroke-opacity: 0.7; stroke-width: 0.5"/>
    </g>
   </g>
   <g id="PathCollection_15">
    <defs>
     <path id="C8_0_dffe003d5c" d="M 0 2.5 
C 0.663008 2.5 1.29895 2.236584 1.767767 1.767767 
C 2.236584 1.29895 2.5 0.663008 2.5 -0 
C 2.5 -0.663008 2.236584 -1.29895 1.767767 -1.767767 
C 1.29895 -2.236584 0.663008 -2.5 0 -2.5 
C -0.663008 -2.5 -1.29895 -2.236584 -1.767767 -1.767767 
C -2.236584 -1.29895 -2.5 -0.663008 -2.5 0 
C -2.5 0.663008 -2.236584 1.29895 -1.767767 1.767767 
C -1.29895 2.236584 -0.663008 2.5 0 2.5 
z
"/>
    </defs>
    <g clip-path="url(#p39b73dbb9b)">
     <use xlink:href="#C8_0_dffe003d5c" x="91.844236" y="136.658334" style="fill: #785ef0; fill-opacity: 0.7; stroke: #000000; stroke-opacity: 0.7; stroke-width: 0.5"/>
    </g>
    <g clip-path="url(#p39b73dbb9b)">
     <use xlink:href="#C8_0_dffe003d5c" x="91.243002" y="136.38945" style="fill: #785ef0; fill-opacity: 0.7; stroke: #000000; stroke-opacity: 0.7; stroke-width: 0.5"/>
    </g>
   </g>
   <g id="PathCollection_16">
    <defs>
     <path id="C9_0_ad02d8d5d8" d="M 0 2.5 
C 0.663008 2.5 1.29895 2.236584 1.767767 1.767767 
C 2.236584 1.29895 2.5 0.663008 2.5 -0 
C 2.5 -0.663008 2.236584 -1.29895 1.767767 -1.767767 
C 1.29895 -2.236584 0.663008 -2.5 0 -2.5 
C -0.663008 -2.5 -1.29895 -2.236584 -1.767767 -1.767767 
C -2.236584 -1.29895 -2.5 -0.663008 -2.5 0 
C -2.5 0.663008 -2.236584 1.29895 -1.767767 1.767767 
C -1.29895 2.236584 -0.663008 2.5 0 2.5 
z
"/>
    </defs>
    <g clip-path="url(#p39b73dbb9b)">
     <use xlink:href="#C9_0_ad02d8d5d8" x="96.524487" y="136.505874" style="fill: #dc267f; fill-opacity: 0.7; stroke: #000000; stroke-opacity: 0.7; stroke-width: 0.5"/>
    </g>
    <g clip-path="url(#p39b73dbb9b)">
     <use xlink:href="#C9_0_ad02d8d5d8" x="96.233905" y="136.536366" style="fill: #dc267f; fill-opacity: 0.7; stroke: #000000; stroke-opacity: 0.7; stroke-width: 0.5"/>
    </g>
   </g>
   <g id="PathCollection_17">
    <defs>
     <path id="Ca_0_b6bd0f685e" d="M 0 2.5 
C 0.663008 2.5 1.29895 2.236584 1.767767 1.767767 
C 2.236584 1.29895 2.5 0.663008 2.5 -0 
C 2.5 -0.663008 2.236584 -1.29895 1.767767 -1.767767 
C 1.29895 -2.236584 0.663008 -2.5 0 -2.5 
C -0.663008 -2.5 -1.29895 -2.236584 -1.767767 -1.767767 
C -2.236584 -1.29895 -2.5 -0.663008 -2.5 0 
C -2.5 0.663008 -2.236584 1.29895 -1.767767 1.767767 
C -1.29895 2.236584 -0.663008 2.5 0 2.5 
z
"/>
    </defs>
    <g clip-path="url(#p39b73dbb9b)">
     <use xlink:href="#Ca_0_b6bd0f685e" x="100.768124" y="129.79209" style="fill: #ffb000; fill-opacity: 0.7; stroke: #000000; stroke-opacity: 0.7; stroke-width: 0.5"/>
    </g>
    <g clip-path="url(#p39b73dbb9b)">
     <use xlink:href="#Ca_0_b6bd0f685e" x="100.935018" y="132.234222" style="fill: #ffb000; fill-opacity: 0.7; stroke: #000000; stroke-opacity: 0.7; stroke-width: 0.5"/>
    </g>
   </g>
   <g id="PathCollection_18">
    <defs>
     <path id="Cb_0_4dcbf5bcbf" d="M 0 2.5 
C 0.663008 2.5 1.29895 2.236584 1.767767 1.767767 
C 2.236584 1.29895 2.5 0.663008 2.5 -0 
C 2.5 -0.663008 2.236584 -1.29895 1.767767 -1.767767 
C 1.29895 -2.236584 0.663008 -2.5 0 -2.5 
C -0.663008 -2.5 -1.29895 -2.236584 -1.767767 -1.767767 
C -2.236584 -1.29895 -2.5 -0.663008 -2.5 0 
C -2.5 0.663008 -2.236584 1.29895 -1.767767 1.767767 
C -1.29895 2.236584 -0.663008 2.5 0 2.5 
z
"/>
    </defs>
    <g clip-path="url(#p39b73dbb9b)">
     <use xlink:href="#Cb_0_4dcbf5bcbf" x="105.175043" y="132.12057" style="fill: #ffb000; fill-opacity: 0.7; stroke: #000000; stroke-opacity: 0.7; stroke-width: 0.5"/>
    </g>
    <g clip-path="url(#p39b73dbb9b)">
     <use xlink:href="#Cb_0_4dcbf5bcbf" x="105.921095" y="133.609134" style="fill: #ffb000; fill-opacity: 0.7; stroke: #000000; stroke-opacity: 0.7; stroke-width: 0.5"/>
    </g>
   </g>
   <g id="PathCollection_19">
    <defs>
     <path id="Cc_0_a755e81b58" d="M 0 2.5 
C 0.663008 2.5 1.29895 2.236584 1.767767 1.767767 
C 2.236584 1.29895 2.5 0.663008 2.5 -0 
C 2.5 -0.663008 2.236584 -1.29895 1.767767 -1.767767 
C 1.29895 -2.236584 0.663008 -2.5 0 -2.5 
C -0.663008 -2.5 -1.29895 -2.236584 -1.767767 -1.767767 
C -2.236584 -1.29895 -2.5 -0.663008 -2.5 0 
C -2.5 0.663008 -2.236584 1.29895 -1.767767 1.767767 
C -1.29895 2.236584 -0.663008 2.5 0 2.5 
z
"/>
    </defs>
    <g clip-path="url(#p39b73dbb9b)">
     <use xlink:href="#Cc_0_a755e81b58" x="117.713975" y="123.524598" style="fill: #648fff; fill-opacity: 0.7; stroke: #000000; stroke-opacity: 0.7; stroke-width: 0.5"/>
    </g>
    <g clip-path="url(#p39b73dbb9b)">
     <use xlink:href="#Cc_0_a755e81b58" x="116.994" y="126.157998" style="fill: #648fff; fill-opacity: 0.7; stroke: #000000; stroke-opacity: 0.7; stroke-width: 0.5"/>
    </g>
   </g>
   <g id="PathCollection_20">
    <defs>
     <path id="Cd_0_b82c835978" d="M 0 2.5 
C 0.663008 2.5 1.29895 2.236584 1.767767 1.767767 
C 2.236584 1.29895 2.5 0.663008 2.5 -0 
C 2.5 -0.663008 2.236584 -1.29895 1.767767 -1.767767 
C 1.29895 -2.236584 0.663008 -2.5 0 -2.5 
C -0.663008 -2.5 -1.29895 -2.236584 -1.767767 -1.767767 
C -2.236584 -1.29895 -2.5 -0.663008 -2.5 0 
C -2.5 0.663008 -2.236584 1.29895 -1.767767 1.767767 
C -1.29895 2.236584 -0.663008 2.5 0 2.5 
z
"/>
    </defs>
    <g clip-path="url(#p39b73dbb9b)">
     <use xlink:href="#Cd_0_b82c835978" x="122.012579" y="118.98129" style="fill: #fe6100; fill-opacity: 0.7; stroke: #000000; stroke-opacity: 0.7; stroke-width: 0.5"/>
    </g>
    <g clip-path="url(#p39b73dbb9b)">
     <use xlink:href="#Cd_0_b82c835978" x="122.298779" y="118.618158" style="fill: #fe6100; fill-opacity: 0.7; stroke: #000000; stroke-opacity: 0.7; stroke-width: 0.5"/>
    </g>
   </g>
   <g id="PathCollection_21">
    <defs>
     <path id="Ce_0_3912a8005e" d="M 0 2.5 
C 0.663008 2.5 1.29895 2.236584 1.767767 1.767767 
C 2.236584 1.29895 2.5 0.663008 2.5 -0 
C 2.5 -0.663008 2.236584 -1.29895 1.767767 -1.767767 
C 1.29895 -2.236584 0.663008 -2.5 0 -2.5 
C -0.663008 -2.5 -1.29895 -2.236584 -1.767767 -1.767767 
C -2.236584 -1.29895 -2.5 -0.663008 -2.5 0 
C -2.5 0.663008 -2.236584 1.29895 -1.767767 1.767767 
C -1.29895 2.236584 -0.663008 2.5 0 2.5 
z
"/>
    </defs>
    <g clip-path="url(#p39b73dbb9b)">
     <use xlink:href="#Ce_0_3912a8005e" x="126.451378" y="123.65211" style="fill: #785ef0; fill-opacity: 0.7; stroke: #000000; stroke-opacity: 0.7; stroke-width: 0.5"/>
    </g>
    <g clip-path="url(#p39b73dbb9b)">
     <use xlink:href="#Ce_0_3912a8005e" x="126.93371" y="123.316698" style="fill: #785ef0; fill-opacity: 0.7; stroke: #000000; stroke-opacity: 0.7; stroke-width: 0.5"/>
    </g>
   </g>
   <g id="PathCollection_22">
    <defs>
     <path id="Cf_0_28b842ad91" d="M 0 2.5 
C 0.663008 2.5 1.29895 2.236584 1.767767 1.767767 
C 2.236584 1.29895 2.5 0.663008 2.5 -0 
C 2.5 -0.663008 2.236584 -1.29895 1.767767 -1.767767 
C 1.29895 -2.236584 0.663008 -2.5 0 -2.5 
C -0.663008 -2.5 -1.29895 -2.236584 -1.767767 -1.767767 
C -2.236584 -1.29895 -2.5 -0.663008 -2.5 0 
C -2.5 0.663008 -2.236584 1.29895 -1.767767 1.767767 
C -1.29895 2.236584 -0.663008 2.5 0 2.5 
z
"/>
    </defs>
    <g clip-path="url(#p39b73dbb9b)">
     <use xlink:href="#Cf_0_28b842ad91" x="131.996078" y="120.619542" style="fill: #dc267f; fill-opacity: 0.7; stroke: #000000; stroke-opacity: 0.7; stroke-width: 0.5"/>
    </g>
    <g clip-path="url(#p39b73dbb9b)">
     <use xlink:href="#Cf_0_28b842ad91" x="131.468744" y="115.685382" style="fill: #dc267f; fill-opacity: 0.7; stroke: #000000; stroke-opacity: 0.7; stroke-width: 0.5"/>
    </g>
   </g>
   <g id="PathCollection_23">
    <defs>
     <path id="C10_0_1fd6a6d01c" d="M 0 2.5 
C 0.663008 2.5 1.29895 2.236584 1.767767 1.767767 
C 2.236584 1.29895 2.5 0.663008 2.5 -0 
C 2.5 -0.663008 2.236584 -1.29895 1.767767 -1.767767 
C 1.29895 -2.236584 0.663008 -2.5 0 -2.5 
C -0.663008 -2.5 -1.29895 -2.236584 -1.767767 -1.767767 
C -2.236584 -1.29895 -2.5 -0.663008 -2.5 0 
C -2.5 0.663008 -2.236584 1.29895 -1.767767 1.767767 
C -1.29895 2.236584 -0.663008 2.5 0 2.5 
z
"/>
    </defs>
    <g clip-path="url(#p39b73dbb9b)">
     <use xlink:href="#C10_0_1fd6a6d01c" x="136.133337" y="110.205138" style="fill: #ffb000; fill-opacity: 0.7; stroke: #000000; stroke-opacity: 0.7; stroke-width: 0.5"/>
    </g>
    <g clip-path="url(#p39b73dbb9b)">
     <use xlink:href="#C10_0_1fd6a6d01c" x="136.036882" y="106.033278" style="fill: #ffb000; fill-opacity: 0.7; stroke: #000000; stroke-opacity: 0.7; stroke-width: 0.5"/>
    </g>
   </g>
   <g id="PathCollection_24">
    <defs>
     <path id="C11_0_0c974077ef" d="M 0 2.5 
C 0.663008 2.5 1.29895 2.236584 1.767767 1.767767 
C 2.236584 1.29895 2.5 0.663008 2.5 -0 
C 2.5 -0.663008 2.236584 -1.29895 1.767767 -1.767767 
C 1.29895 -2.236584 0.663008 -2.5 0 -2.5 
C -0.663008 -2.5 -1.29895 -2.236584 -1.767767 -1.767767 
C -2.236584 -1.29895 -2.5 -0.663008 -2.5 0 
C -2.5 0.663008 -2.236584 1.29895 -1.767767 1.767767 
C -1.29895 2.236584 -0.663008 2.5 0 2.5 
z
"/>
    </defs>
    <g clip-path="url(#p39b73dbb9b)">
     <use xlink:href="#C11_0_0c974077ef" x="140.656866" y="66.931446" style="fill: #ffb000; fill-opacity: 0.7; stroke: #000000; stroke-opacity: 0.7; stroke-width: 0.5"/>
    </g>
    <g clip-path="url(#p39b73dbb9b)">
     <use xlink:href="#C11_0_0c974077ef" x="140.537783" y="89.185062" style="fill: #ffb000; fill-opacity: 0.7; stroke: #000000; stroke-opacity: 0.7; stroke-width: 0.5"/>
    </g>
   </g>
   <g id="line2d_10">
    <path d="M 46.446876 148.555758 
L 46.446876 148.555758 
" clip-path="url(#p39b73dbb9b)" style="fill: none; stroke: #000000; stroke-width: 0.25; stroke-linecap: round"/>
   </g>
   <g id="line2d_11">
    <path d="M 42.904019 148.555758 
L 49.989733 148.555758 
" clip-path="url(#p39b73dbb9b)" style="fill: none; stroke: #000000; stroke-width: 0.25; stroke-linecap: round"/>
   </g>
   <g id="line2d_12">
    <path d="M 42.904019 148.555758 
L 49.989733 148.555758 
" clip-path="url(#p39b73dbb9b)" style="fill: none; stroke: #000000; stroke-width: 0.25; stroke-linecap: round"/>
   </g>
   <g id="line2d_13">
    <path d="M 81.875447 137.90449 
L 81.875447 137.269418 
" clip-path="url(#p39b73dbb9b)" style="fill: none; stroke: #000000; stroke-width: 0.25; stroke-linecap: round"/>
   </g>
   <g id="line2d_14">
    <path d="M 78.33259 137.90449 
L 85.418304 137.90449 
" clip-path="url(#p39b73dbb9b)" style="fill: none; stroke: #000000; stroke-width: 0.25; stroke-linecap: round"/>
   </g>
   <g id="line2d_15">
    <path d="M 78.33259 137.269418 
L 85.418304 137.269418 
" clip-path="url(#p39b73dbb9b)" style="fill: none; stroke: #000000; stroke-width: 0.25; stroke-linecap: round"/>
   </g>
   <g id="line2d_16">
    <path d="M 117.304019 126.703393 
L 117.304019 122.979203 
" clip-path="url(#p39b73dbb9b)" style="fill: none; stroke: #000000; stroke-width: 0.25; stroke-linecap: round"/>
   </g>
   <g id="line2d_17">
    <path d="M 113.761161 126.703393 
L 120.846876 126.703393 
" clip-path="url(#p39b73dbb9b)" style="fill: none; stroke: #000000; stroke-width: 0.25; stroke-linecap: round"/>
   </g>
   <g id="line2d_18">
    <path d="M 113.761161 122.979203 
L 120.846876 122.979203 
" clip-path="url(#p39b73dbb9b)" style="fill: none; stroke: #000000; stroke-width: 0.25; stroke-linecap: round"/>
   </g>
   <g id="line2d_19">
    <path d="M 51.170685 148.555758 
L 51.170685 148.555758 
" clip-path="url(#p39b73dbb9b)" style="fill: none; stroke: #000000; stroke-width: 0.25; stroke-linecap: round"/>
   </g>
   <g id="line2d_20">
    <path d="M 47.627828 148.555758 
L 54.713542 148.555758 
" clip-path="url(#p39b73dbb9b)" style="fill: none; stroke: #000000; stroke-width: 0.25; stroke-linecap: round"/>
   </g>
   <g id="line2d_21">
    <path d="M 47.627828 148.555758 
L 54.713542 148.555758 
" clip-path="url(#p39b73dbb9b)" style="fill: none; stroke: #000000; stroke-width: 0.25; stroke-linecap: round"/>
   </g>
   <g id="line2d_22">
    <path d="M 86.599257 136.678405 
L 86.599257 134.118515 
" clip-path="url(#p39b73dbb9b)" style="fill: none; stroke: #000000; stroke-width: 0.25; stroke-linecap: round"/>
   </g>
   <g id="line2d_23">
    <path d="M 83.0564 136.678405 
L 90.142114 136.678405 
" clip-path="url(#p39b73dbb9b)" style="fill: none; stroke: #000000; stroke-width: 0.25; stroke-linecap: round"/>
   </g>
   <g id="line2d_24">
    <path d="M 83.0564 134.118515 
L 90.142114 134.118515 
" clip-path="url(#p39b73dbb9b)" style="fill: none; stroke: #000000; stroke-width: 0.25; stroke-linecap: round"/>
   </g>
   <g id="line2d_25">
    <path d="M 122.027828 119.056497 
L 122.027828 118.542951 
" clip-path="url(#p39b73dbb9b)" style="fill: none; stroke: #000000; stroke-width: 0.25; stroke-linecap: round"/>
   </g>
   <g id="line2d_26">
    <path d="M 118.484971 119.056497 
L 125.570685 119.056497 
" clip-path="url(#p39b73dbb9b)" style="fill: none; stroke: #000000; stroke-width: 0.25; stroke-linecap: round"/>
   </g>
   <g id="line2d_27">
    <path d="M 118.484971 118.542951 
L 125.570685 118.542951 
" clip-path="url(#p39b73dbb9b)" style="fill: none; stroke: #000000; stroke-width: 0.25; stroke-linecap: round"/>
   </g>
   <g id="line2d_28">
    <path d="M 55.894495 148.555758 
L 55.894495 148.555758 
" clip-path="url(#p39b73dbb9b)" style="fill: none; stroke: #000000; stroke-width: 0.25; stroke-linecap: round"/>
   </g>
   <g id="line2d_29">
    <path d="M 52.351638 148.555758 
L 59.437352 148.555758 
" clip-path="url(#p39b73dbb9b)" style="fill: none; stroke: #000000; stroke-width: 0.25; stroke-linecap: round"/>
   </g>
   <g id="line2d_30">
    <path d="M 52.351638 148.555758 
L 59.437352 148.555758 
" clip-path="url(#p39b73dbb9b)" style="fill: none; stroke: #000000; stroke-width: 0.25; stroke-linecap: round"/>
   </g>
   <g id="line2d_31">
    <path d="M 91.323066 136.714022 
L 91.323066 136.333762 
" clip-path="url(#p39b73dbb9b)" style="fill: none; stroke: #000000; stroke-width: 0.25; stroke-linecap: round"/>
   </g>
   <g id="line2d_32">
    <path d="M 87.780209 136.714022 
L 94.865923 136.714022 
" clip-path="url(#p39b73dbb9b)" style="fill: none; stroke: #000000; stroke-width: 0.25; stroke-linecap: round"/>
   </g>
   <g id="line2d_33">
    <path d="M 87.780209 136.333762 
L 94.865923 136.333762 
" clip-path="url(#p39b73dbb9b)" style="fill: none; stroke: #000000; stroke-width: 0.25; stroke-linecap: round"/>
   </g>
   <g id="line2d_34">
    <path d="M 126.751638 123.721576 
L 126.751638 123.247232 
" clip-path="url(#p39b73dbb9b)" style="fill: none; stroke: #000000; stroke-width: 0.25; stroke-linecap: round"/>
   </g>
   <g id="line2d_35">
    <path d="M 123.208781 123.721576 
L 130.294495 123.721576 
" clip-path="url(#p39b73dbb9b)" style="fill: none; stroke: #000000; stroke-width: 0.25; stroke-linecap: round"/>
   </g>
   <g id="line2d_36">
    <path d="M 123.208781 123.247232 
L 130.294495 123.247232 
" clip-path="url(#p39b73dbb9b)" style="fill: none; stroke: #000000; stroke-width: 0.25; stroke-linecap: round"/>
   </g>
   <g id="line2d_37">
    <path d="M 60.618304 148.555758 
L 60.618304 148.555758 
" clip-path="url(#p39b73dbb9b)" style="fill: none; stroke: #000000; stroke-width: 0.25; stroke-linecap: round"/>
   </g>
   <g id="line2d_38">
    <path d="M 57.075447 148.555758 
L 64.161161 148.555758 
" clip-path="url(#p39b73dbb9b)" style="fill: none; stroke: #000000; stroke-width: 0.25; stroke-linecap: round"/>
   </g>
   <g id="line2d_39">
    <path d="M 57.075447 148.555758 
L 64.161161 148.555758 
" clip-path="url(#p39b73dbb9b)" style="fill: none; stroke: #000000; stroke-width: 0.25; stroke-linecap: round"/>
   </g>
   <g id="line2d_40">
    <path d="M 96.046876 136.542681 
L 96.046876 136.499559 
" clip-path="url(#p39b73dbb9b)" style="fill: none; stroke: #000000; stroke-width: 0.25; stroke-linecap: round"/>
   </g>
   <g id="line2d_41">
    <path d="M 92.504019 136.542681 
L 99.589733 136.542681 
" clip-path="url(#p39b73dbb9b)" style="fill: none; stroke: #000000; stroke-width: 0.25; stroke-linecap: round"/>
   </g>
   <g id="line2d_42">
    <path d="M 92.504019 136.499559 
L 99.589733 136.499559 
" clip-path="url(#p39b73dbb9b)" style="fill: none; stroke: #000000; stroke-width: 0.25; stroke-linecap: round"/>
   </g>
   <g id="line2d_43">
    <path d="M 131.475447 121.64144 
L 131.475447 114.663484 
" clip-path="url(#p39b73dbb9b)" style="fill: none; stroke: #000000; stroke-width: 0.25; stroke-linecap: round"/>
   </g>
   <g id="line2d_44">
    <path d="M 127.93259 121.64144 
L 135.018304 121.64144 
" clip-path="url(#p39b73dbb9b)" style="fill: none; stroke: #000000; stroke-width: 0.25; stroke-linecap: round"/>
   </g>
   <g id="line2d_45">
    <path d="M 127.93259 114.663484 
L 135.018304 114.663484 
" clip-path="url(#p39b73dbb9b)" style="fill: none; stroke: #000000; stroke-width: 0.25; stroke-linecap: round"/>
   </g>
   <g id="line2d_46">
    <path d="M 65.342114 148.555758 
L 65.342114 148.555758 
" clip-path="url(#p39b73dbb9b)" style="fill: none; stroke: #000000; stroke-width: 0.25; stroke-linecap: round"/>
   </g>
   <g id="line2d_47">
    <path d="M 61.799257 148.555758 
L 68.884971 148.555758 
" clip-path="url(#p39b73dbb9b)" style="fill: none; stroke: #000000; stroke-width: 0.25; stroke-linecap: round"/>
   </g>
   <g id="line2d_48">
    <path d="M 61.799257 148.555758 
L 68.884971 148.555758 
" clip-path="url(#p39b73dbb9b)" style="fill: none; stroke: #000000; stroke-width: 0.25; stroke-linecap: round"/>
   </g>
   <g id="line2d_49">
    <path d="M 100.770685 132.740004 
L 100.770685 129.286308 
" clip-path="url(#p39b73dbb9b)" style="fill: none; stroke: #000000; stroke-width: 0.25; stroke-linecap: round"/>
   </g>
   <g id="line2d_50">
    <path d="M 97.227828 132.740004 
L 104.313542 132.740004 
" clip-path="url(#p39b73dbb9b)" style="fill: none; stroke: #000000; stroke-width: 0.25; stroke-linecap: round"/>
   </g>
   <g id="line2d_51">
    <path d="M 97.227828 129.286308 
L 104.313542 129.286308 
" clip-path="url(#p39b73dbb9b)" style="fill: none; stroke: #000000; stroke-width: 0.25; stroke-linecap: round"/>
   </g>
   <g id="line2d_52">
    <path d="M 136.199257 111.069158 
L 136.199257 105.169257 
" clip-path="url(#p39b73dbb9b)" style="fill: none; stroke: #000000; stroke-width: 0.25; stroke-linecap: round"/>
   </g>
   <g id="line2d_53">
    <path d="M 132.6564 111.069158 
L 139.742114 111.069158 
" clip-path="url(#p39b73dbb9b)" style="fill: none; stroke: #000000; stroke-width: 0.25; stroke-linecap: round"/>
   </g>
   <g id="line2d_54">
    <path d="M 132.6564 105.169257 
L 139.742114 105.169257 
" clip-path="url(#p39b73dbb9b)" style="fill: none; stroke: #000000; stroke-width: 0.25; stroke-linecap: round"/>
   </g>
   <g id="line2d_55">
    <path d="M 70.065923 148.555758 
L 70.065923 148.555758 
" clip-path="url(#p39b73dbb9b)" style="fill: none; stroke: #000000; stroke-width: 0.25; stroke-linecap: round"/>
   </g>
   <g id="line2d_56">
    <path d="M 66.523066 148.555758 
L 73.608781 148.555758 
" clip-path="url(#p39b73dbb9b)" style="fill: none; stroke: #000000; stroke-width: 0.25; stroke-linecap: round"/>
   </g>
   <g id="line2d_57">
    <path d="M 66.523066 148.555758 
L 73.608781 148.555758 
" clip-path="url(#p39b73dbb9b)" style="fill: none; stroke: #000000; stroke-width: 0.25; stroke-linecap: round"/>
   </g>
   <g id="line2d_58">
    <path d="M 105.494495 133.917426 
L 105.494495 131.812278 
" clip-path="url(#p39b73dbb9b)" style="fill: none; stroke: #000000; stroke-width: 0.25; stroke-linecap: round"/>
   </g>
   <g id="line2d_59">
    <path d="M 101.951638 133.917426 
L 109.037352 133.917426 
" clip-path="url(#p39b73dbb9b)" style="fill: none; stroke: #000000; stroke-width: 0.25; stroke-linecap: round"/>
   </g>
   <g id="line2d_60">
    <path d="M 101.951638 131.812278 
L 109.037352 131.812278 
" clip-path="url(#p39b73dbb9b)" style="fill: none; stroke: #000000; stroke-width: 0.25; stroke-linecap: round"/>
   </g>
   <g id="line2d_61">
    <path d="M 140.923066 93.793937 
L 140.923066 62.322571 
" clip-path="url(#p39b73dbb9b)" style="fill: none; stroke: #000000; stroke-width: 0.25; stroke-linecap: round"/>
   </g>
   <g id="line2d_62">
    <path d="M 137.380209 93.793937 
L 144.465923 93.793937 
" clip-path="url(#p39b73dbb9b)" style="fill: none; stroke: #000000; stroke-width: 0.25; stroke-linecap: round"/>
   </g>
   <g id="line2d_63">
    <path d="M 137.380209 62.322571 
L 144.465923 62.322571 
" clip-path="url(#p39b73dbb9b)" style="fill: none; stroke: #000000; stroke-width: 0.25; stroke-linecap: round"/>
   </g>
   <g id="patch_21">
    <path d="M 35.227828 148.555758 
L 35.227828 9.955758 
" style="fill: none; stroke: #000000; stroke-width: 0.5; stroke-linejoin: miter; stroke-linecap: square"/>
   </g>
   <g id="patch_22">
    <path d="M 146.827828 148.555758 
L 146.827828 9.955758 
" style="fill: none; stroke: #000000; stroke-width: 0.5; stroke-linejoin: miter; stroke-linecap: square"/>
   </g>
   <g id="patch_23">
    <path d="M 35.227828 148.555758 
L 146.827828 148.555758 
" style="fill: none; stroke: #000000; stroke-width: 0.5; stroke-linejoin: miter; stroke-linecap: square"/>
   </g>
   <g id="patch_24">
    <path d="M 35.227828 9.955758 
L 146.827828 9.955758 
" style="fill: none; stroke: #000000; stroke-width: 0.5; stroke-linejoin: miter; stroke-linecap: square"/>
   </g>
   <g id="legend_1">
    <g id="patch_25">
     <path d="M 40.617828 93.669195 
L 108.056594 93.669195 
Q 109.596594 93.669195 109.596594 92.129195 
L 109.596594 15.345758 
Q 109.596594 13.805758 108.056594 13.805758 
L 40.617828 13.805758 
Q 39.077828 13.805758 39.077828 15.345758 
L 39.077828 92.129195 
Q 39.077828 93.669195 40.617828 93.669195 
z
" style="fill: #ffffff; opacity: 0.8; stroke: #cccccc; stroke-linejoin: miter"/>
    </g>
    <g id="text_12">
     <!-- Strain Identity -->
     <g style="fill: #262626" transform="translate(48.658805 23.000695) scale(0.084 -0.084)">
      <defs>
       <path id="ArialMT-53" d="M 288 1472 
L 859 1522 
Q 900 1178 1048 958 
Q 1197 738 1509 602 
Q 1822 466 2213 466 
Q 2559 466 2825 569 
Q 3091 672 3220 851 
Q 3350 1031 3350 1244 
Q 3350 1459 3225 1620 
Q 3100 1781 2813 1891 
Q 2628 1963 1997 2114 
Q 1366 2266 1113 2400 
Q 784 2572 623 2826 
Q 463 3081 463 3397 
Q 463 3744 659 4045 
Q 856 4347 1234 4503 
Q 1613 4659 2075 4659 
Q 2584 4659 2973 4495 
Q 3363 4331 3572 4012 
Q 3781 3694 3797 3291 
L 3216 3247 
Q 3169 3681 2898 3903 
Q 2628 4125 2100 4125 
Q 1550 4125 1298 3923 
Q 1047 3722 1047 3438 
Q 1047 3191 1225 3031 
Q 1400 2872 2139 2705 
Q 2878 2538 3153 2413 
Q 3553 2228 3743 1945 
Q 3934 1663 3934 1294 
Q 3934 928 3725 604 
Q 3516 281 3123 101 
Q 2731 -78 2241 -78 
Q 1619 -78 1198 103 
Q 778 284 539 648 
Q 300 1013 288 1472 
z
" transform="scale(0.015625)"/>
       <path id="ArialMT-61" d="M 2588 409 
Q 2275 144 1986 34 
Q 1697 -75 1366 -75 
Q 819 -75 525 192 
Q 231 459 231 875 
Q 231 1119 342 1320 
Q 453 1522 633 1644 
Q 813 1766 1038 1828 
Q 1203 1872 1538 1913 
Q 2219 1994 2541 2106 
Q 2544 2222 2544 2253 
Q 2544 2597 2384 2738 
Q 2169 2928 1744 2928 
Q 1347 2928 1158 2789 
Q 969 2650 878 2297 
L 328 2372 
Q 403 2725 575 2942 
Q 747 3159 1072 3276 
Q 1397 3394 1825 3394 
Q 2250 3394 2515 3294 
Q 2781 3194 2906 3042 
Q 3031 2891 3081 2659 
Q 3109 2516 3109 2141 
L 3109 1391 
Q 3109 606 3145 398 
Q 3181 191 3288 0 
L 2700 0 
Q 2613 175 2588 409 
z
M 2541 1666 
Q 2234 1541 1622 1453 
Q 1275 1403 1131 1340 
Q 988 1278 909 1158 
Q 831 1038 831 891 
Q 831 666 1001 516 
Q 1172 366 1500 366 
Q 1825 366 2078 508 
Q 2331 650 2450 897 
Q 2541 1088 2541 1459 
L 2541 1666 
z
" transform="scale(0.015625)"/>
       <path id="ArialMT-6e" d="M 422 0 
L 422 3319 
L 928 3319 
L 928 2847 
Q 1294 3394 1984 3394 
Q 2284 3394 2536 3286 
Q 2788 3178 2913 3003 
Q 3038 2828 3088 2588 
Q 3119 2431 3119 2041 
L 3119 0 
L 2556 0 
L 2556 2019 
Q 2556 2363 2490 2533 
Q 2425 2703 2258 2804 
Q 2091 2906 1866 2906 
Q 1506 2906 1245 2678 
Q 984 2450 984 1813 
L 984 0 
L 422 0 
z
" transform="scale(0.015625)"/>
       <path id="ArialMT-20" transform="scale(0.015625)"/>
       <path id="ArialMT-49" d="M 597 0 
L 597 4581 
L 1203 4581 
L 1203 0 
L 597 0 
z
" transform="scale(0.015625)"/>
       <path id="ArialMT-64" d="M 2575 0 
L 2575 419 
Q 2259 -75 1647 -75 
Q 1250 -75 917 144 
Q 584 363 401 755 
Q 219 1147 219 1656 
Q 219 2153 384 2558 
Q 550 2963 881 3178 
Q 1213 3394 1622 3394 
Q 1922 3394 2156 3267 
Q 2391 3141 2538 2938 
L 2538 4581 
L 3097 4581 
L 3097 0 
L 2575 0 
z
M 797 1656 
Q 797 1019 1065 703 
Q 1334 388 1700 388 
Q 2069 388 2326 689 
Q 2584 991 2584 1609 
Q 2584 2291 2321 2609 
Q 2059 2928 1675 2928 
Q 1300 2928 1048 2622 
Q 797 2316 797 1656 
z
" transform="scale(0.015625)"/>
       <path id="ArialMT-79" d="M 397 -1278 
L 334 -750 
Q 519 -800 656 -800 
Q 844 -800 956 -737 
Q 1069 -675 1141 -563 
Q 1194 -478 1313 -144 
Q 1328 -97 1363 -6 
L 103 3319 
L 709 3319 
L 1400 1397 
Q 1534 1031 1641 628 
Q 1738 1016 1872 1384 
L 2581 3319 
L 3144 3319 
L 1881 -56 
Q 1678 -603 1566 -809 
Q 1416 -1088 1222 -1217 
Q 1028 -1347 759 -1347 
Q 597 -1347 397 -1278 
z
" transform="scale(0.015625)"/>
      </defs>
      <use xlink:href="#ArialMT-53"/>
      <use xlink:href="#ArialMT-74" x="66.699219"/>
      <use xlink:href="#ArialMT-72" x="94.482422"/>
      <use xlink:href="#ArialMT-61" x="127.783203"/>
      <use xlink:href="#ArialMT-69" x="183.398438"/>
      <use xlink:href="#ArialMT-6e" x="205.615234"/>
      <use xlink:href="#ArialMT-20" x="261.230469"/>
      <use xlink:href="#ArialMT-49" x="289.013672"/>
      <use xlink:href="#ArialMT-64" x="316.796875"/>
      <use xlink:href="#ArialMT-65" x="372.412109"/>
      <use xlink:href="#ArialMT-6e" x="428.027344"/>
      <use xlink:href="#ArialMT-74" x="483.642578"/>
      <use xlink:href="#ArialMT-69" x="511.425781"/>
      <use xlink:href="#ArialMT-74" x="533.642578"/>
      <use xlink:href="#ArialMT-79" x="561.425781"/>
     </g>
    </g>
    <g id="patch_26">
     <path d="M 42.157828 34.130148 
L 57.557828 34.130148 
L 57.557828 28.740148 
L 42.157828 28.740148 
z
" style="fill: #648fff; stroke: #000000; stroke-width: 0.5; stroke-linejoin: miter"/>
    </g>
    <g id="text_13">
     <!-- Control -->
     <g style="fill: #262626" transform="translate(63.717828 34.130148) scale(0.077 -0.077)">
      <defs>
       <path id="ArialMT-43" d="M 3763 1606 
L 4369 1453 
Q 4178 706 3683 314 
Q 3188 -78 2472 -78 
Q 1731 -78 1267 223 
Q 803 525 561 1097 
Q 319 1669 319 2325 
Q 319 3041 592 3573 
Q 866 4106 1370 4382 
Q 1875 4659 2481 4659 
Q 3169 4659 3637 4309 
Q 4106 3959 4291 3325 
L 3694 3184 
Q 3534 3684 3231 3912 
Q 2928 4141 2469 4141 
Q 1941 4141 1586 3887 
Q 1231 3634 1087 3207 
Q 944 2781 944 2328 
Q 944 1744 1114 1308 
Q 1284 872 1643 656 
Q 2003 441 2422 441 
Q 2931 441 3284 734 
Q 3638 1028 3763 1606 
z
" transform="scale(0.015625)"/>
       <path id="ArialMT-6f" d="M 213 1659 
Q 213 2581 725 3025 
Q 1153 3394 1769 3394 
Q 2453 3394 2887 2945 
Q 3322 2497 3322 1706 
Q 3322 1066 3130 698 
Q 2938 331 2570 128 
Q 2203 -75 1769 -75 
Q 1072 -75 642 372 
Q 213 819 213 1659 
z
M 791 1659 
Q 791 1022 1069 705 
Q 1347 388 1769 388 
Q 2188 388 2466 706 
Q 2744 1025 2744 1678 
Q 2744 2294 2464 2611 
Q 2184 2928 1769 2928 
Q 1347 2928 1069 2612 
Q 791 2297 791 1659 
z
" transform="scale(0.015625)"/>
       <path id="ArialMT-6c" d="M 409 0 
L 409 4581 
L 972 4581 
L 972 0 
L 409 0 
z
" transform="scale(0.015625)"/>
      </defs>
      <use xlink:href="#ArialMT-43"/>
      <use xlink:href="#ArialMT-6f" x="72.216797"/>
      <use xlink:href="#ArialMT-6e" x="127.832031"/>
      <use xlink:href="#ArialMT-74" x="183.447266"/>
      <use xlink:href="#ArialMT-72" x="211.230469"/>
      <use xlink:href="#ArialMT-6f" x="244.53125"/>
      <use xlink:href="#ArialMT-6c" x="300.146484"/>
     </g>
    </g>
    <g id="patch_27">
     <path d="M 42.157828 45.115883 
L 57.557828 45.115883 
L 57.557828 39.725883 
L 42.157828 39.725883 
z
" style="fill: #fe6100; stroke: #000000; stroke-width: 0.5; stroke-linejoin: miter"/>
    </g>
    <g id="text_14">
     <!-- Strain_1 -->
     <g style="fill: #262626" transform="translate(63.717828 45.115883) scale(0.077 -0.077)">
      <defs>
       <path id="ArialMT-5f" d="M -97 -1272 
L -97 -866 
L 3631 -866 
L 3631 -1272 
L -97 -1272 
z
" transform="scale(0.015625)"/>
      </defs>
      <use xlink:href="#ArialMT-53"/>
      <use xlink:href="#ArialMT-74" x="66.699219"/>
      <use xlink:href="#ArialMT-72" x="94.482422"/>
      <use xlink:href="#ArialMT-61" x="127.783203"/>
      <use xlink:href="#ArialMT-69" x="183.398438"/>
      <use xlink:href="#ArialMT-6e" x="205.615234"/>
      <use xlink:href="#ArialMT-5f" x="261.230469"/>
      <use xlink:href="#ArialMT-31" x="316.845703"/>
     </g>
    </g>
    <g id="patch_28">
     <path d="M 42.157828 56.101617 
L 57.557828 56.101617 
L 57.557828 50.711617 
L 42.157828 50.711617 
z
" style="fill: #785ef0; stroke: #000000; stroke-width: 0.5; stroke-linejoin: miter"/>
    </g>
    <g id="text_15">
     <!-- Strain_2 -->
     <g style="fill: #262626" transform="translate(63.717828 56.101617) scale(0.077 -0.077)">
      <use xlink:href="#ArialMT-53"/>
      <use xlink:href="#ArialMT-74" x="66.699219"/>
      <use xlink:href="#ArialMT-72" x="94.482422"/>
      <use xlink:href="#ArialMT-61" x="127.783203"/>
      <use xlink:href="#ArialMT-69" x="183.398438"/>
      <use xlink:href="#ArialMT-6e" x="205.615234"/>
      <use xlink:href="#ArialMT-5f" x="261.230469"/>
      <use xlink:href="#ArialMT-32" x="316.845703"/>
     </g>
    </g>
    <g id="patch_29">
     <path d="M 42.157828 67.087352 
L 57.557828 67.087352 
L 57.557828 61.697352 
L 42.157828 61.697352 
z
" style="fill: #dc267f; stroke: #000000; stroke-width: 0.5; stroke-linejoin: miter"/>
    </g>
    <g id="text_16">
     <!-- Strain_3 -->
     <g style="fill: #262626" transform="translate(63.717828 67.087352) scale(0.077 -0.077)">
      <use xlink:href="#ArialMT-53"/>
      <use xlink:href="#ArialMT-74" x="66.699219"/>
      <use xlink:href="#ArialMT-72" x="94.482422"/>
      <use xlink:href="#ArialMT-61" x="127.783203"/>
      <use xlink:href="#ArialMT-69" x="183.398438"/>
      <use xlink:href="#ArialMT-6e" x="205.615234"/>
      <use xlink:href="#ArialMT-5f" x="261.230469"/>
      <use xlink:href="#ArialMT-33" x="316.845703"/>
     </g>
    </g>
    <g id="patch_30">
     <path d="M 42.157828 78.073086 
L 57.557828 78.073086 
L 57.557828 72.683086 
L 42.157828 72.683086 
z
" style="fill: #ffb000; stroke: #000000; stroke-width: 0.5; stroke-linejoin: miter"/>
    </g>
    <g id="text_17">
     <!-- Strain_5 -->
     <g style="fill: #262626" transform="translate(63.717828 78.073086) scale(0.077 -0.077)">
      <use xlink:href="#ArialMT-53"/>
      <use xlink:href="#ArialMT-74" x="66.699219"/>
      <use xlink:href="#ArialMT-72" x="94.482422"/>
      <use xlink:href="#ArialMT-61" x="127.783203"/>
      <use xlink:href="#ArialMT-69" x="183.398438"/>
      <use xlink:href="#ArialMT-6e" x="205.615234"/>
      <use xlink:href="#ArialMT-5f" x="261.230469"/>
      <use xlink:href="#ArialMT-35" x="316.845703"/>
     </g>
    </g>
    <g id="patch_31">
     <path d="M 42.157828 89.05882 
L 57.557828 89.05882 
L 57.557828 83.66882 
L 42.157828 83.66882 
z
" style="fill: url(#hb2d267f98d); stroke: #000000; stroke-width: 0.5; stroke-linejoin: miter"/>
    </g>
    <g id="text_18">
     <!-- Strain_5_FB -->
     <g style="fill: #262626" transform="translate(63.717828 89.05882) scale(0.077 -0.077)">
      <defs>
       <path id="ArialMT-46" d="M 525 0 
L 525 4581 
L 3616 4581 
L 3616 4041 
L 1131 4041 
L 1131 2622 
L 3281 2622 
L 3281 2081 
L 1131 2081 
L 1131 0 
L 525 0 
z
" transform="scale(0.015625)"/>
       <path id="ArialMT-42" d="M 469 0 
L 469 4581 
L 2188 4581 
Q 2713 4581 3030 4442 
Q 3347 4303 3526 4014 
Q 3706 3725 3706 3409 
Q 3706 3116 3547 2856 
Q 3388 2597 3066 2438 
Q 3481 2316 3704 2022 
Q 3928 1728 3928 1328 
Q 3928 1006 3792 729 
Q 3656 453 3456 303 
Q 3256 153 2954 76 
Q 2653 0 2216 0 
L 469 0 
z
M 1075 2656 
L 2066 2656 
Q 2469 2656 2644 2709 
Q 2875 2778 2992 2937 
Q 3109 3097 3109 3338 
Q 3109 3566 3000 3739 
Q 2891 3913 2687 3977 
Q 2484 4041 1991 4041 
L 1075 4041 
L 1075 2656 
z
M 1075 541 
L 2216 541 
Q 2509 541 2628 563 
Q 2838 600 2978 687 
Q 3119 775 3209 942 
Q 3300 1109 3300 1328 
Q 3300 1584 3169 1773 
Q 3038 1963 2805 2039 
Q 2572 2116 2134 2116 
L 1075 2116 
L 1075 541 
z
" transform="scale(0.015625)"/>
      </defs>
      <use xlink:href="#ArialMT-53"/>
      <use xlink:href="#ArialMT-74" x="66.699219"/>
      <use xlink:href="#ArialMT-72" x="94.482422"/>
      <use xlink:href="#ArialMT-61" x="127.783203"/>
      <use xlink:href="#ArialMT-69" x="183.398438"/>
      <use xlink:href="#ArialMT-6e" x="205.615234"/>
      <use xlink:href="#ArialMT-5f" x="261.230469"/>
      <use xlink:href="#ArialMT-35" x="316.845703"/>
      <use xlink:href="#ArialMT-5f" x="372.460938"/>
      <use xlink:href="#ArialMT-46" x="428.076172"/>
      <use xlink:href="#ArialMT-42" x="489.160156"/>
     </g>
    </g>
   </g>
  </g>
 </g>
 <defs>
  <clipPath id="p39b73dbb9b">
   <rect x="35.227828" y="9.955758" width="111.6" height="138.6"/>
  </clipPath>
 </defs>
 <defs>
  <pattern id="hb2d267f98d" patternUnits="userSpaceOnUse" x="0" y="0" width="72" height="72">
   <rect x="0" y="0" width="73" height="73" fill="#ffb000"/>
   <path d="M -36 36 
L 36 -36 
M -33.6 38.4 
L 38.4 -33.6 
M -31.2 40.8 
L 40.8 -31.2 
M -28.8 43.2 
L 43.2 -28.8 
M -26.4 45.6 
L 45.6 -26.4 
M -24 48 
L 48 -24 
M -21.6 50.4 
L 50.4 -21.6 
M -19.2 52.8 
L 52.8 -19.2 
M -16.8 55.2 
L 55.2 -16.8 
M -14.4 57.6 
L 57.6 -14.4 
M -12 60 
L 60 -12 
M -9.6 62.4 
L 62.4 -9.6 
M -7.2 64.8 
L 64.8 -7.2 
M -4.8 67.2 
L 67.2 -4.8 
M -2.4 69.6 
L 69.6 -2.4 
M 0 72 
L 72 0 
M 2.4 74.4 
L 74.4 2.4 
M 4.8 76.8 
L 76.8 4.8 
M 7.2 79.2 
L 79.2 7.2 
M 9.6 81.6 
L 81.6 9.6 
M 12 84 
L 84 12 
M 14.4 86.4 
L 86.4 14.4 
M 16.8 88.8 
L 88.8 16.8 
M 19.2 91.2 
L 91.2 19.2 
M 21.6 93.6 
L 93.6 21.6 
M 24 96 
L 96 24 
M 26.4 98.4 
L 98.4 26.4 
M 28.8 100.8 
L 100.8 28.8 
M 31.2 103.2 
L 103.2 31.2 
M 33.6 105.6 
L 105.6 33.6 
M 36 108 
L 108 36 
" style="fill: #000000; stroke: #000000; stroke-width: 1.0; stroke-linecap: butt; stroke-linejoin: miter"/>
  </pattern>
 </defs>
</svg>
