<?xml version="1.0" encoding="utf-8" standalone="no"?>
<!DOCTYPE svg PUBLIC "-//W3C//DTD SVG 1.1//EN"
  "http://www.w3.org/Graphics/SVG/1.1/DTD/svg11.dtd">
<svg xmlns:xlink="http://www.w3.org/1999/xlink" width="160.228641pt" height="199.202477pt" viewBox="0 0 160.228641 199.202477" xmlns="http://www.w3.org/2000/svg" version="1.1">
 <metadata>
  <rdf:RDF xmlns:dc="http://purl.org/dc/elements/1.1/" xmlns:cc="http://creativecommons.org/ns#" xmlns:rdf="http://www.w3.org/1999/02/22-rdf-syntax-ns#">
   <cc:Work>
    <dc:type rdf:resource="http://purl.org/dc/dcmitype/StillImage"/>
    <dc:date>2025-03-10T16:16:08.031424</dc:date>
    <dc:format>image/svg+xml</dc:format>
    <dc:creator>
     <cc:Agent>
      <dc:title>Matplotlib v3.7.1, https://matplotlib.org/</dc:title>
     </cc:Agent>
    </dc:creator>
   </cc:Work>
  </rdf:RDF>
 </metadata>
 <defs>
  <style type="text/css">*{stroke-linejoin: round; stroke-linecap: butt}</style>
 </defs>
 <g id="figure_1">
  <g id="patch_1">
   <path d="M 0 199.202477 
L 160.228641 199.202477 
L 160.228641 0 
L 0 0 
z
" style="fill: #ffffff"/>
  </g>
  <g id="axes_1">
   <g id="patch_2">
    <path d="M 41.428641 148.555758 
L 153.028641 148.555758 
L 153.028641 9.955758 
L 41.428641 9.955758 
z
" style="fill: #ffffff"/>
   </g>
   <g id="patch_3">
    <path d="M 50.285783 148.555758 
L 55.009593 148.555758 
L 55.009593 148.555758 
L 50.285783 148.555758 
z
" clip-path="url(#p3c99d8f673)" style="fill: #648fff; stroke: #000000; stroke-width: 0.5; stroke-linejoin: miter"/>
   </g>
   <g id="patch_4">
    <path d="M 85.714355 148.555758 
L 90.438164 148.555758 
L 90.438164 139.780715 
L 85.714355 139.780715 
z
" clip-path="url(#p3c99d8f673)" style="fill: #648fff; stroke: #000000; stroke-width: 0.5; stroke-linejoin: miter"/>
   </g>
   <g id="patch_5">
    <path d="M 121.142926 148.555758 
L 125.866736 148.555758 
L 125.866736 129.58419 
L 121.142926 129.58419 
z
" clip-path="url(#p3c99d8f673)" style="fill: #648fff; stroke: #000000; stroke-width: 0.5; stroke-linejoin: miter"/>
   </g>
   <g id="patch_6">
    <path d="M 55.009593 148.555758 
L 59.733403 148.555758 
L 59.733403 148.555758 
L 55.009593 148.555758 
z
" clip-path="url(#p3c99d8f673)" style="fill: #fe6100; stroke: #000000; stroke-width: 0.5; stroke-linejoin: miter"/>
   </g>
   <g id="patch_7">
    <path d="M 90.438164 148.555758 
L 95.161974 148.555758 
L 95.161974 138.029919 
L 90.438164 138.029919 
z
" clip-path="url(#p3c99d8f673)" style="fill: #fe6100; stroke: #000000; stroke-width: 0.5; stroke-linejoin: miter"/>
   </g>
   <g id="patch_8">
    <path d="M 125.866736 148.555758 
L 130.590545 148.555758 
L 130.590545 124.750931 
L 125.866736 124.750931 
z
" clip-path="url(#p3c99d8f673)" style="fill: #fe6100; stroke: #000000; stroke-width: 0.5; stroke-linejoin: miter"/>
   </g>
   <g id="patch_9">
    <path d="M 59.733403 148.555758 
L 64.457212 148.555758 
L 64.457212 148.555758 
L 59.733403 148.555758 
z
" clip-path="url(#p3c99d8f673)" style="fill: #785ef0; stroke: #000000; stroke-width: 0.5; stroke-linejoin: miter"/>
   </g>
   <g id="patch_10">
    <path d="M 95.161974 148.555758 
L 99.885783 148.555758 
L 99.885783 138.930265 
L 95.161974 138.930265 
z
" clip-path="url(#p3c99d8f673)" style="fill: #785ef0; stroke: #000000; stroke-width: 0.5; stroke-linejoin: miter"/>
   </g>
   <g id="patch_11">
    <path d="M 130.590545 148.555758 
L 135.314355 148.555758 
L 135.314355 128.498675 
L 130.590545 128.498675 
z
" clip-path="url(#p3c99d8f673)" style="fill: #785ef0; stroke: #000000; stroke-width: 0.5; stroke-linejoin: miter"/>
   </g>
   <g id="patch_12">
    <path d="M 64.457212 148.555758 
L 69.181022 148.555758 
L 69.181022 148.555758 
L 64.457212 148.555758 
z
" clip-path="url(#p3c99d8f673)" style="fill: #dc267f; stroke: #000000; stroke-width: 0.5; stroke-linejoin: miter"/>
   </g>
   <g id="patch_13">
    <path d="M 99.885783 148.555758 
L 104.609593 148.555758 
L 104.609593 138.928047 
L 99.885783 138.928047 
z
" clip-path="url(#p3c99d8f673)" style="fill: #dc267f; stroke: #000000; stroke-width: 0.5; stroke-linejoin: miter"/>
   </g>
   <g id="patch_14">
    <path d="M 135.314355 148.555758 
L 140.038164 148.555758 
L 140.038164 124.233121 
L 135.314355 124.233121 
z
" clip-path="url(#p3c99d8f673)" style="fill: #dc267f; stroke: #000000; stroke-width: 0.5; stroke-linejoin: miter"/>
   </g>
   <g id="patch_15">
    <path d="M 69.181022 148.555758 
L 73.904831 148.555758 
L 73.904831 148.555758 
L 69.181022 148.555758 
z
" clip-path="url(#p3c99d8f673)" style="fill: #ffb000; stroke: #000000; stroke-width: 0.5; stroke-linejoin: miter"/>
   </g>
   <g id="patch_16">
    <path d="M 104.609593 148.555758 
L 109.333403 148.555758 
L 109.333403 134.521676 
L 104.609593 134.521676 
z
" clip-path="url(#p3c99d8f673)" style="fill: #ffb000; stroke: #000000; stroke-width: 0.5; stroke-linejoin: miter"/>
   </g>
   <g id="patch_17">
    <path d="M 140.038164 148.555758 
L 144.761974 148.555758 
L 144.761974 116.206518 
L 140.038164 116.206518 
z
" clip-path="url(#p3c99d8f673)" style="fill: #ffb000; stroke: #000000; stroke-width: 0.5; stroke-linejoin: miter"/>
   </g>
   <g id="patch_18">
    <path d="M 73.904831 148.555758 
L 78.628641 148.555758 
L 78.628641 148.555758 
L 73.904831 148.555758 
z
" clip-path="url(#p3c99d8f673)" style="fill: url(#hadee8bbb81); stroke: #000000; stroke-width: 0.5; stroke-linejoin: miter"/>
   </g>
   <g id="patch_19">
    <path d="M 109.333403 148.555758 
L 114.057212 148.555758 
L 114.057212 136.003033 
L 109.333403 136.003033 
z
" clip-path="url(#p3c99d8f673)" style="fill: url(#hadee8bbb81); stroke: #000000; stroke-width: 0.5; stroke-linejoin: miter"/>
   </g>
   <g id="patch_20">
    <path d="M 144.761974 148.555758 
L 149.485783 148.555758 
L 149.485783 92.157755 
L 144.761974 92.157755 
z
" clip-path="url(#p3c99d8f673)" style="fill: url(#hadee8bbb81); stroke: #000000; stroke-width: 0.5; stroke-linejoin: miter"/>
   </g>
   <g id="PathCollection_1"/>
   <g id="PathCollection_2"/>
   <g id="PathCollection_3"/>
   <g id="PathCollection_4"/>
   <g id="PathCollection_5"/>
   <g id="PathCollection_6"/>
   <g id="matplotlib.axis_1">
    <g id="xtick_1">
     <g id="line2d_1">
      <defs>
       <path id="mca819b5d0b" d="M 0 5 
L 0 -5 
" style="stroke: #262626; stroke-width: 0.5"/>
      </defs>
      <g>
       <use xlink:href="#mca819b5d0b" x="64.457212" y="148.555758" style="fill: #262626; stroke: #262626; stroke-width: 0.5"/>
      </g>
     </g>
     <g id="text_1">
      <!-- 24 -->
      <g style="fill: #262626" transform="translate(66.447782 169.119602) rotate(-90) scale(0.077 -0.077)">
       <defs>
        <path id="ArialMT-32" d="M 3222 541 
L 3222 0 
L 194 0 
Q 188 203 259 391 
Q 375 700 629 1000 
Q 884 1300 1366 1694 
Q 2113 2306 2375 2664 
Q 2638 3022 2638 3341 
Q 2638 3675 2398 3904 
Q 2159 4134 1775 4134 
Q 1369 4134 1125 3890 
Q 881 3647 878 3216 
L 300 3275 
Q 359 3922 746 4261 
Q 1134 4600 1788 4600 
Q 2447 4600 2831 4234 
Q 3216 3869 3216 3328 
Q 3216 3053 3103 2787 
Q 2991 2522 2730 2228 
Q 2469 1934 1863 1422 
Q 1356 997 1212 845 
Q 1069 694 975 541 
L 3222 541 
z
" transform="scale(0.015625)"/>
        <path id="ArialMT-34" d="M 2069 0 
L 2069 1097 
L 81 1097 
L 81 1613 
L 2172 4581 
L 2631 4581 
L 2631 1613 
L 3250 1613 
L 3250 1097 
L 2631 1097 
L 2631 0 
L 2069 0 
z
M 2069 1613 
L 2069 3678 
L 634 1613 
L 2069 1613 
z
" transform="scale(0.015625)"/>
       </defs>
       <use xlink:href="#ArialMT-32"/>
       <use xlink:href="#ArialMT-34" x="55.615234"/>
      </g>
     </g>
    </g>
    <g id="xtick_2">
     <g id="line2d_2">
      <g>
       <use xlink:href="#mca819b5d0b" x="99.885783" y="148.555758" style="fill: #262626; stroke: #262626; stroke-width: 0.5"/>
      </g>
     </g>
     <g id="text_2">
      <!-- 48 -->
      <g style="fill: #262626" transform="translate(101.876354 169.119602) rotate(-90) scale(0.077 -0.077)">
       <defs>
        <path id="ArialMT-38" d="M 1131 2484 
Q 781 2613 612 2850 
Q 444 3088 444 3419 
Q 444 3919 803 4259 
Q 1163 4600 1759 4600 
Q 2359 4600 2725 4251 
Q 3091 3903 3091 3403 
Q 3091 3084 2923 2848 
Q 2756 2613 2416 2484 
Q 2838 2347 3058 2040 
Q 3278 1734 3278 1309 
Q 3278 722 2862 322 
Q 2447 -78 1769 -78 
Q 1091 -78 675 323 
Q 259 725 259 1325 
Q 259 1772 486 2073 
Q 713 2375 1131 2484 
z
M 1019 3438 
Q 1019 3113 1228 2906 
Q 1438 2700 1772 2700 
Q 2097 2700 2305 2904 
Q 2513 3109 2513 3406 
Q 2513 3716 2298 3927 
Q 2084 4138 1766 4138 
Q 1444 4138 1231 3931 
Q 1019 3725 1019 3438 
z
M 838 1322 
Q 838 1081 952 856 
Q 1066 631 1291 507 
Q 1516 384 1775 384 
Q 2178 384 2440 643 
Q 2703 903 2703 1303 
Q 2703 1709 2433 1975 
Q 2163 2241 1756 2241 
Q 1359 2241 1098 1978 
Q 838 1716 838 1322 
z
" transform="scale(0.015625)"/>
       </defs>
       <use xlink:href="#ArialMT-34"/>
       <use xlink:href="#ArialMT-38" x="55.615234"/>
      </g>
     </g>
    </g>
    <g id="xtick_3">
     <g id="line2d_3">
      <g>
       <use xlink:href="#mca819b5d0b" x="135.314355" y="148.555758" style="fill: #262626; stroke: #262626; stroke-width: 0.5"/>
      </g>
     </g>
     <g id="text_3">
      <!-- 72 -->
      <g style="fill: #262626" transform="translate(137.304925 169.119602) rotate(-90) scale(0.077 -0.077)">
       <defs>
        <path id="ArialMT-37" d="M 303 3981 
L 303 4522 
L 3269 4522 
L 3269 4084 
Q 2831 3619 2401 2847 
Q 1972 2075 1738 1259 
Q 1569 684 1522 0 
L 944 0 
Q 953 541 1156 1306 
Q 1359 2072 1739 2783 
Q 2119 3494 2547 3981 
L 303 3981 
z
" transform="scale(0.015625)"/>
       </defs>
       <use xlink:href="#ArialMT-37"/>
       <use xlink:href="#ArialMT-32" x="55.615234"/>
      </g>
     </g>
    </g>
    <g id="text_4">
     <!-- Time (hr) -->
     <g transform="translate(80.355797 190.234539) scale(0.084 -0.084)">
      <defs>
       <path id="ArialMT-54" d="M 1659 0 
L 1659 4041 
L 150 4041 
L 150 4581 
L 3781 4581 
L 3781 4041 
L 2266 4041 
L 2266 0 
L 1659 0 
z
" transform="scale(0.015625)"/>
       <path id="ArialMT-69" d="M 425 3934 
L 425 4581 
L 988 4581 
L 988 3934 
L 425 3934 
z
M 425 0 
L 425 3319 
L 988 3319 
L 988 0 
L 425 0 
z
" transform="scale(0.015625)"/>
       <path id="ArialMT-6d" d="M 422 0 
L 422 3319 
L 925 3319 
L 925 2853 
Q 1081 3097 1340 3245 
Q 1600 3394 1931 3394 
Q 2300 3394 2536 3241 
Q 2772 3088 2869 2813 
Q 3263 3394 3894 3394 
Q 4388 3394 4653 3120 
Q 4919 2847 4919 2278 
L 4919 0 
L 4359 0 
L 4359 2091 
Q 4359 2428 4304 2576 
Q 4250 2725 4106 2815 
Q 3963 2906 3769 2906 
Q 3419 2906 3187 2673 
Q 2956 2441 2956 1928 
L 2956 0 
L 2394 0 
L 2394 2156 
Q 2394 2531 2256 2718 
Q 2119 2906 1806 2906 
Q 1569 2906 1367 2781 
Q 1166 2656 1075 2415 
Q 984 2175 984 1722 
L 984 0 
L 422 0 
z
" transform="scale(0.015625)"/>
       <path id="ArialMT-65" d="M 2694 1069 
L 3275 997 
Q 3138 488 2766 206 
Q 2394 -75 1816 -75 
Q 1088 -75 661 373 
Q 234 822 234 1631 
Q 234 2469 665 2931 
Q 1097 3394 1784 3394 
Q 2450 3394 2872 2941 
Q 3294 2488 3294 1666 
Q 3294 1616 3291 1516 
L 816 1516 
Q 847 969 1125 678 
Q 1403 388 1819 388 
Q 2128 388 2347 550 
Q 2566 713 2694 1069 
z
M 847 1978 
L 2700 1978 
Q 2663 2397 2488 2606 
Q 2219 2931 1791 2931 
Q 1403 2931 1139 2672 
Q 875 2413 847 1978 
z
" transform="scale(0.015625)"/>
       <path id="ArialMT-20" transform="scale(0.015625)"/>
       <path id="ArialMT-28" d="M 1497 -1347 
Q 1031 -759 709 28 
Q 388 816 388 1659 
Q 388 2403 628 3084 
Q 909 3875 1497 4659 
L 1900 4659 
Q 1522 4009 1400 3731 
Q 1209 3300 1100 2831 
Q 966 2247 966 1656 
Q 966 153 1900 -1347 
L 1497 -1347 
z
" transform="scale(0.015625)"/>
       <path id="ArialMT-68" d="M 422 0 
L 422 4581 
L 984 4581 
L 984 2938 
Q 1378 3394 1978 3394 
Q 2347 3394 2619 3248 
Q 2891 3103 3008 2847 
Q 3125 2591 3125 2103 
L 3125 0 
L 2563 0 
L 2563 2103 
Q 2563 2525 2380 2717 
Q 2197 2909 1863 2909 
Q 1613 2909 1392 2779 
Q 1172 2650 1078 2428 
Q 984 2206 984 1816 
L 984 0 
L 422 0 
z
" transform="scale(0.015625)"/>
       <path id="ArialMT-72" d="M 416 0 
L 416 3319 
L 922 3319 
L 922 2816 
Q 1116 3169 1280 3281 
Q 1444 3394 1641 3394 
Q 1925 3394 2219 3213 
L 2025 2691 
Q 1819 2813 1613 2813 
Q 1428 2813 1281 2702 
Q 1134 2591 1072 2394 
Q 978 2094 978 1738 
L 978 0 
L 416 0 
z
" transform="scale(0.015625)"/>
       <path id="ArialMT-29" d="M 791 -1347 
L 388 -1347 
Q 1322 153 1322 1656 
Q 1322 2244 1188 2822 
Q 1081 3291 891 3722 
Q 769 4003 388 4659 
L 791 4659 
Q 1378 3875 1659 3084 
Q 1900 2403 1900 1659 
Q 1900 816 1576 28 
Q 1253 -759 791 -1347 
z
" transform="scale(0.015625)"/>
      </defs>
      <use xlink:href="#ArialMT-54"/>
      <use xlink:href="#ArialMT-69" x="57.333984"/>
      <use xlink:href="#ArialMT-6d" x="79.550781"/>
      <use xlink:href="#ArialMT-65" x="162.851562"/>
      <use xlink:href="#ArialMT-20" x="218.466797"/>
      <use xlink:href="#ArialMT-28" x="246.25"/>
      <use xlink:href="#ArialMT-68" x="279.550781"/>
      <use xlink:href="#ArialMT-72" x="335.166016"/>
      <use xlink:href="#ArialMT-29" x="368.466797"/>
     </g>
    </g>
   </g>
   <g id="matplotlib.axis_2">
    <g id="ytick_1">
     <g id="line2d_4">
      <defs>
       <path id="m0137df4e56" d="M 0 0 
L 4 0 
" style="stroke: #262626; stroke-width: 0.5"/>
      </defs>
      <g>
       <use xlink:href="#m0137df4e56" x="41.428641" y="148.555758" style="fill: #262626; stroke: #262626; stroke-width: 0.5"/>
      </g>
     </g>
     <g id="text_5">
      <!-- 0 -->
      <g style="fill: #262626" transform="translate(33.646719 151.311516) scale(0.077 -0.077)">
       <defs>
        <path id="ArialMT-30" d="M 266 2259 
Q 266 3072 433 3567 
Q 600 4063 929 4331 
Q 1259 4600 1759 4600 
Q 2128 4600 2406 4451 
Q 2684 4303 2865 4023 
Q 3047 3744 3150 3342 
Q 3253 2941 3253 2259 
Q 3253 1453 3087 958 
Q 2922 463 2592 192 
Q 2263 -78 1759 -78 
Q 1097 -78 719 397 
Q 266 969 266 2259 
z
M 844 2259 
Q 844 1131 1108 757 
Q 1372 384 1759 384 
Q 2147 384 2411 759 
Q 2675 1134 2675 2259 
Q 2675 3391 2411 3762 
Q 2147 4134 1753 4134 
Q 1366 4134 1134 3806 
Q 844 3388 844 2259 
z
" transform="scale(0.015625)"/>
       </defs>
       <use xlink:href="#ArialMT-30"/>
      </g>
     </g>
    </g>
    <g id="ytick_2">
     <g id="line2d_5">
      <g>
       <use xlink:href="#m0137df4e56" x="41.428641" y="120.835758" style="fill: #262626; stroke: #262626; stroke-width: 0.5"/>
      </g>
     </g>
     <g id="text_6">
      <!-- 100 -->
      <g style="fill: #262626" transform="translate(25.082875 123.591516) scale(0.077 -0.077)">
       <defs>
        <path id="ArialMT-31" d="M 2384 0 
L 1822 0 
L 1822 3584 
Q 1619 3391 1289 3197 
Q 959 3003 697 2906 
L 697 3450 
Q 1169 3672 1522 3987 
Q 1875 4303 2022 4600 
L 2384 4600 
L 2384 0 
z
" transform="scale(0.015625)"/>
       </defs>
       <use xlink:href="#ArialMT-31"/>
       <use xlink:href="#ArialMT-30" x="55.615234"/>
       <use xlink:href="#ArialMT-30" x="111.230469"/>
      </g>
     </g>
    </g>
    <g id="ytick_3">
     <g id="line2d_6">
      <g>
       <use xlink:href="#m0137df4e56" x="41.428641" y="93.115758" style="fill: #262626; stroke: #262626; stroke-width: 0.5"/>
      </g>
     </g>
     <g id="text_7">
      <!-- 200 -->
      <g style="fill: #262626" transform="translate(25.082875 95.871516) scale(0.077 -0.077)">
       <use xlink:href="#ArialMT-32"/>
       <use xlink:href="#ArialMT-30" x="55.615234"/>
       <use xlink:href="#ArialMT-30" x="111.230469"/>
      </g>
     </g>
    </g>
    <g id="ytick_4">
     <g id="line2d_7">
      <g>
       <use xlink:href="#m0137df4e56" x="41.428641" y="65.395758" style="fill: #262626; stroke: #262626; stroke-width: 0.5"/>
      </g>
     </g>
     <g id="text_8">
      <!-- 300 -->
      <g style="fill: #262626" transform="translate(25.082875 68.151516) scale(0.077 -0.077)">
       <defs>
        <path id="ArialMT-33" d="M 269 1209 
L 831 1284 
Q 928 806 1161 595 
Q 1394 384 1728 384 
Q 2125 384 2398 659 
Q 2672 934 2672 1341 
Q 2672 1728 2419 1979 
Q 2166 2231 1775 2231 
Q 1616 2231 1378 2169 
L 1441 2663 
Q 1497 2656 1531 2656 
Q 1891 2656 2178 2843 
Q 2466 3031 2466 3422 
Q 2466 3731 2256 3934 
Q 2047 4138 1716 4138 
Q 1388 4138 1169 3931 
Q 950 3725 888 3313 
L 325 3413 
Q 428 3978 793 4289 
Q 1159 4600 1703 4600 
Q 2078 4600 2393 4439 
Q 2709 4278 2876 4000 
Q 3044 3722 3044 3409 
Q 3044 3113 2884 2869 
Q 2725 2625 2413 2481 
Q 2819 2388 3044 2092 
Q 3269 1797 3269 1353 
Q 3269 753 2831 336 
Q 2394 -81 1725 -81 
Q 1122 -81 723 278 
Q 325 638 269 1209 
z
" transform="scale(0.015625)"/>
       </defs>
       <use xlink:href="#ArialMT-33"/>
       <use xlink:href="#ArialMT-30" x="55.615234"/>
       <use xlink:href="#ArialMT-30" x="111.230469"/>
      </g>
     </g>
    </g>
    <g id="ytick_5">
     <g id="line2d_8">
      <g>
       <use xlink:href="#m0137df4e56" x="41.428641" y="37.675758" style="fill: #262626; stroke: #262626; stroke-width: 0.5"/>
      </g>
     </g>
     <g id="text_9">
      <!-- 400 -->
      <g style="fill: #262626" transform="translate(25.082875 40.431516) scale(0.077 -0.077)">
       <use xlink:href="#ArialMT-34"/>
       <use xlink:href="#ArialMT-30" x="55.615234"/>
       <use xlink:href="#ArialMT-30" x="111.230469"/>
      </g>
     </g>
    </g>
    <g id="ytick_6">
     <g id="line2d_9">
      <g>
       <use xlink:href="#m0137df4e56" x="41.428641" y="9.955758" style="fill: #262626; stroke: #262626; stroke-width: 0.5"/>
      </g>
     </g>
     <g id="text_10">
      <!-- 500 -->
      <g style="fill: #262626" transform="translate(25.082875 12.711516) scale(0.077 -0.077)">
       <defs>
        <path id="ArialMT-35" d="M 266 1200 
L 856 1250 
Q 922 819 1161 601 
Q 1400 384 1738 384 
Q 2144 384 2425 690 
Q 2706 997 2706 1503 
Q 2706 1984 2436 2262 
Q 2166 2541 1728 2541 
Q 1456 2541 1237 2417 
Q 1019 2294 894 2097 
L 366 2166 
L 809 4519 
L 3088 4519 
L 3088 3981 
L 1259 3981 
L 1013 2750 
Q 1425 3038 1878 3038 
Q 2478 3038 2890 2622 
Q 3303 2206 3303 1553 
Q 3303 931 2941 478 
Q 2500 -78 1738 -78 
Q 1113 -78 717 272 
Q 322 622 266 1200 
z
" transform="scale(0.015625)"/>
       </defs>
       <use xlink:href="#ArialMT-35"/>
       <use xlink:href="#ArialMT-30" x="55.615234"/>
       <use xlink:href="#ArialMT-30" x="111.230469"/>
      </g>
     </g>
    </g>
    <g id="text_11">
     <!-- Isoprenol Titer (mg/L) -->
     <g transform="translate(13.314937 119.16757) rotate(-90) scale(0.084 -0.084)">
      <defs>
       <path id="ArialMT-49" d="M 597 0 
L 597 4581 
L 1203 4581 
L 1203 0 
L 597 0 
z
" transform="scale(0.015625)"/>
       <path id="ArialMT-73" d="M 197 991 
L 753 1078 
Q 800 744 1014 566 
Q 1228 388 1613 388 
Q 2000 388 2187 545 
Q 2375 703 2375 916 
Q 2375 1106 2209 1216 
Q 2094 1291 1634 1406 
Q 1016 1563 777 1677 
Q 538 1791 414 1992 
Q 291 2194 291 2438 
Q 291 2659 392 2848 
Q 494 3038 669 3163 
Q 800 3259 1026 3326 
Q 1253 3394 1513 3394 
Q 1903 3394 2198 3281 
Q 2494 3169 2634 2976 
Q 2775 2784 2828 2463 
L 2278 2388 
Q 2241 2644 2061 2787 
Q 1881 2931 1553 2931 
Q 1166 2931 1000 2803 
Q 834 2675 834 2503 
Q 834 2394 903 2306 
Q 972 2216 1119 2156 
Q 1203 2125 1616 2013 
Q 2213 1853 2448 1751 
Q 2684 1650 2818 1456 
Q 2953 1263 2953 975 
Q 2953 694 2789 445 
Q 2625 197 2315 61 
Q 2006 -75 1616 -75 
Q 969 -75 630 194 
Q 291 463 197 991 
z
" transform="scale(0.015625)"/>
       <path id="ArialMT-6f" d="M 213 1659 
Q 213 2581 725 3025 
Q 1153 3394 1769 3394 
Q 2453 3394 2887 2945 
Q 3322 2497 3322 1706 
Q 3322 1066 3130 698 
Q 2938 331 2570 128 
Q 2203 -75 1769 -75 
Q 1072 -75 642 372 
Q 213 819 213 1659 
z
M 791 1659 
Q 791 1022 1069 705 
Q 1347 388 1769 388 
Q 2188 388 2466 706 
Q 2744 1025 2744 1678 
Q 2744 2294 2464 2611 
Q 2184 2928 1769 2928 
Q 1347 2928 1069 2612 
Q 791 2297 791 1659 
z
" transform="scale(0.015625)"/>
       <path id="ArialMT-70" d="M 422 -1272 
L 422 3319 
L 934 3319 
L 934 2888 
Q 1116 3141 1344 3267 
Q 1572 3394 1897 3394 
Q 2322 3394 2647 3175 
Q 2972 2956 3137 2557 
Q 3303 2159 3303 1684 
Q 3303 1175 3120 767 
Q 2938 359 2589 142 
Q 2241 -75 1856 -75 
Q 1575 -75 1351 44 
Q 1128 163 984 344 
L 984 -1272 
L 422 -1272 
z
M 931 1641 
Q 931 1000 1190 694 
Q 1450 388 1819 388 
Q 2194 388 2461 705 
Q 2728 1022 2728 1688 
Q 2728 2322 2467 2637 
Q 2206 2953 1844 2953 
Q 1484 2953 1207 2617 
Q 931 2281 931 1641 
z
" transform="scale(0.015625)"/>
       <path id="ArialMT-6e" d="M 422 0 
L 422 3319 
L 928 3319 
L 928 2847 
Q 1294 3394 1984 3394 
Q 2284 3394 2536 3286 
Q 2788 3178 2913 3003 
Q 3038 2828 3088 2588 
Q 3119 2431 3119 2041 
L 3119 0 
L 2556 0 
L 2556 2019 
Q 2556 2363 2490 2533 
Q 2425 2703 2258 2804 
Q 2091 2906 1866 2906 
Q 1506 2906 1245 2678 
Q 984 2450 984 1813 
L 984 0 
L 422 0 
z
" transform="scale(0.015625)"/>
       <path id="ArialMT-6c" d="M 409 0 
L 409 4581 
L 972 4581 
L 972 0 
L 409 0 
z
" transform="scale(0.015625)"/>
       <path id="ArialMT-74" d="M 1650 503 
L 1731 6 
Q 1494 -44 1306 -44 
Q 1000 -44 831 53 
Q 663 150 594 308 
Q 525 466 525 972 
L 525 2881 
L 113 2881 
L 113 3319 
L 525 3319 
L 525 4141 
L 1084 4478 
L 1084 3319 
L 1650 3319 
L 1650 2881 
L 1084 2881 
L 1084 941 
Q 1084 700 1114 631 
Q 1144 563 1211 522 
Q 1278 481 1403 481 
Q 1497 481 1650 503 
z
" transform="scale(0.015625)"/>
       <path id="ArialMT-67" d="M 319 -275 
L 866 -356 
Q 900 -609 1056 -725 
Q 1266 -881 1628 -881 
Q 2019 -881 2231 -725 
Q 2444 -569 2519 -288 
Q 2563 -116 2559 434 
Q 2191 0 1641 0 
Q 956 0 581 494 
Q 206 988 206 1678 
Q 206 2153 378 2554 
Q 550 2956 876 3175 
Q 1203 3394 1644 3394 
Q 2231 3394 2613 2919 
L 2613 3319 
L 3131 3319 
L 3131 450 
Q 3131 -325 2973 -648 
Q 2816 -972 2473 -1159 
Q 2131 -1347 1631 -1347 
Q 1038 -1347 672 -1080 
Q 306 -813 319 -275 
z
M 784 1719 
Q 784 1066 1043 766 
Q 1303 466 1694 466 
Q 2081 466 2343 764 
Q 2606 1063 2606 1700 
Q 2606 2309 2336 2618 
Q 2066 2928 1684 2928 
Q 1309 2928 1046 2623 
Q 784 2319 784 1719 
z
" transform="scale(0.015625)"/>
       <path id="ArialMT-2f" d="M 0 -78 
L 1328 4659 
L 1778 4659 
L 453 -78 
L 0 -78 
z
" transform="scale(0.015625)"/>
       <path id="ArialMT-4c" d="M 469 0 
L 469 4581 
L 1075 4581 
L 1075 541 
L 3331 541 
L 3331 0 
L 469 0 
z
" transform="scale(0.015625)"/>
      </defs>
      <use xlink:href="#ArialMT-49"/>
      <use xlink:href="#ArialMT-73" x="27.783203"/>
      <use xlink:href="#ArialMT-6f" x="77.783203"/>
      <use xlink:href="#ArialMT-70" x="133.398438"/>
      <use xlink:href="#ArialMT-72" x="189.013672"/>
      <use xlink:href="#ArialMT-65" x="222.314453"/>
      <use xlink:href="#ArialMT-6e" x="277.929688"/>
      <use xlink:href="#ArialMT-6f" x="333.544922"/>
      <use xlink:href="#ArialMT-6c" x="389.160156"/>
      <use xlink:href="#ArialMT-20" x="411.376953"/>
      <use xlink:href="#ArialMT-54" x="437.410156"/>
      <use xlink:href="#ArialMT-69" x="494.744141"/>
      <use xlink:href="#ArialMT-74" x="516.960938"/>
      <use xlink:href="#ArialMT-65" x="544.744141"/>
      <use xlink:href="#ArialMT-72" x="600.359375"/>
      <use xlink:href="#ArialMT-20" x="633.660156"/>
      <use xlink:href="#ArialMT-28" x="661.443359"/>
      <use xlink:href="#ArialMT-6d" x="694.744141"/>
      <use xlink:href="#ArialMT-67" x="778.044922"/>
      <use xlink:href="#ArialMT-2f" x="833.660156"/>
      <use xlink:href="#ArialMT-4c" x="861.443359"/>
      <use xlink:href="#ArialMT-29" x="917.058594"/>
     </g>
    </g>
   </g>
   <g id="PathCollection_7">
    <defs>
     <path id="C0_0_f01db51414" d="M 0 2.5 
C 0.663008 2.5 1.29895 2.236584 1.767767 1.767767 
C 2.236584 1.29895 2.5 0.663008 2.5 -0 
C 2.5 -0.663008 2.236584 -1.29895 1.767767 -1.767767 
C 1.29895 -2.236584 0.663008 -2.5 0 -2.5 
C -0.663008 -2.5 -1.29895 -2.236584 -1.767767 -1.767767 
C -2.236584 -1.29895 -2.5 -0.663008 -2.5 0 
C -2.5 0.663008 -2.236584 1.29895 -1.767767 1.767767 
C -1.29895 2.236584 -0.663008 2.5 0 2.5 
z
"/>
    </defs>
    <g clip-path="url(#p3c99d8f673)">
     <use xlink:href="#C0_0_f01db51414" x="52.349954" y="148.555758" style="fill: #648fff; fill-opacity: 0.7; stroke: #000000; stroke-opacity: 0.7; stroke-width: 0.5"/>
    </g>
    <g clip-path="url(#p3c99d8f673)">
     <use xlink:href="#C0_0_f01db51414" x="52.430569" y="148.555758" style="fill: #648fff; fill-opacity: 0.7; stroke: #000000; stroke-opacity: 0.7; stroke-width: 0.5"/>
    </g>
   </g>
   <g id="PathCollection_8">
    <defs>
     <path id="C1_0_1bb2a2d309" d="M 0 2.5 
C 0.663008 2.5 1.29895 2.236584 1.767767 1.767767 
C 2.236584 1.29895 2.5 0.663008 2.5 -0 
C 2.5 -0.663008 2.236584 -1.29895 1.767767 -1.767767 
C 1.29895 -2.236584 0.663008 -2.5 0 -2.5 
C -0.663008 -2.5 -1.29895 -2.236584 -1.767767 -1.767767 
C -2.236584 -1.29895 -2.5 -0.663008 -2.5 0 
C -2.5 0.663008 -2.236584 1.29895 -1.767767 1.767767 
C -1.29895 2.236584 -0.663008 2.5 0 2.5 
z
"/>
    </defs>
    <g clip-path="url(#p3c99d8f673)">
     <use xlink:href="#C1_0_1bb2a2d309" x="57.659705" y="148.555758" style="fill: #fe6100; fill-opacity: 0.7; stroke: #000000; stroke-opacity: 0.7; stroke-width: 0.5"/>
    </g>
    <g clip-path="url(#p3c99d8f673)">
     <use xlink:href="#C1_0_1bb2a2d309" x="56.794632" y="148.555758" style="fill: #fe6100; fill-opacity: 0.7; stroke: #000000; stroke-opacity: 0.7; stroke-width: 0.5"/>
    </g>
   </g>
   <g id="PathCollection_9">
    <defs>
     <path id="C2_0_6eec5cf621" d="M 0 2.5 
C 0.663008 2.5 1.29895 2.236584 1.767767 1.767767 
C 2.236584 1.29895 2.5 0.663008 2.5 -0 
C 2.5 -0.663008 2.236584 -1.29895 1.767767 -1.767767 
C 1.29895 -2.236584 0.663008 -2.5 0 -2.5 
C -0.663008 -2.5 -1.29895 -2.236584 -1.767767 -1.767767 
C -2.236584 -1.29895 -2.5 -0.663008 -2.5 0 
C -2.5 0.663008 -2.236584 1.29895 -1.767767 1.767767 
C -1.29895 2.236584 -0.663008 2.5 0 2.5 
z
"/>
    </defs>
    <g clip-path="url(#p3c99d8f673)">
     <use xlink:href="#C2_0_6eec5cf621" x="61.710028" y="148.555758" style="fill: #785ef0; fill-opacity: 0.7; stroke: #000000; stroke-opacity: 0.7; stroke-width: 0.5"/>
    </g>
    <g clip-path="url(#p3c99d8f673)">
     <use xlink:href="#C2_0_6eec5cf621" x="62.358425" y="148.555758" style="fill: #785ef0; fill-opacity: 0.7; stroke: #000000; stroke-opacity: 0.7; stroke-width: 0.5"/>
    </g>
   </g>
   <g id="PathCollection_10">
    <defs>
     <path id="C3_0_abf4af0674" d="M 0 2.5 
C 0.663008 2.5 1.29895 2.236584 1.767767 1.767767 
C 2.236584 1.29895 2.5 0.663008 2.5 -0 
C 2.5 -0.663008 2.236584 -1.29895 1.767767 -1.767767 
C 1.29895 -2.236584 0.663008 -2.5 0 -2.5 
C -0.663008 -2.5 -1.29895 -2.236584 -1.767767 -1.767767 
C -2.236584 -1.29895 -2.5 -0.663008 -2.5 0 
C -2.5 0.663008 -2.236584 1.29895 -1.767767 1.767767 
C -1.29895 2.236584 -0.663008 2.5 0 2.5 
z
"/>
    </defs>
    <g clip-path="url(#p3c99d8f673)">
     <use xlink:href="#C3_0_abf4af0674" x="66.602842" y="148.555758" style="fill: #dc267f; fill-opacity: 0.7; stroke: #000000; stroke-opacity: 0.7; stroke-width: 0.5"/>
    </g>
    <g clip-path="url(#p3c99d8f673)">
     <use xlink:href="#C3_0_abf4af0674" x="66.316188" y="148.555758" style="fill: #dc267f; fill-opacity: 0.7; stroke: #000000; stroke-opacity: 0.7; stroke-width: 0.5"/>
    </g>
   </g>
   <g id="PathCollection_11">
    <defs>
     <path id="C4_0_d26e9182b8" d="M 0 2.5 
C 0.663008 2.5 1.29895 2.236584 1.767767 1.767767 
C 2.236584 1.29895 2.5 0.663008 2.5 -0 
C 2.5 -0.663008 2.236584 -1.29895 1.767767 -1.767767 
C 1.29895 -2.236584 0.663008 -2.5 0 -2.5 
C -0.663008 -2.5 -1.29895 -2.236584 -1.767767 -1.767767 
C -2.236584 -1.29895 -2.5 -0.663008 -2.5 0 
C -2.5 0.663008 -2.236584 1.29895 -1.767767 1.767767 
C -1.29895 2.236584 -0.663008 2.5 0 2.5 
z
"/>
    </defs>
    <g clip-path="url(#p3c99d8f673)">
     <use xlink:href="#C4_0_d26e9182b8" x="71.98608" y="148.555758" style="fill: #ffb000; fill-opacity: 0.7; stroke: #000000; stroke-opacity: 0.7; stroke-width: 0.5"/>
    </g>
    <g clip-path="url(#p3c99d8f673)">
     <use xlink:href="#C4_0_d26e9182b8" x="71.227691" y="148.555758" style="fill: #ffb000; fill-opacity: 0.7; stroke: #000000; stroke-opacity: 0.7; stroke-width: 0.5"/>
    </g>
   </g>
   <g id="PathCollection_12">
    <defs>
     <path id="C5_0_1f5303c0de" d="M 0 2.5 
C 0.663008 2.5 1.29895 2.236584 1.767767 1.767767 
C 2.236584 1.29895 2.5 0.663008 2.5 -0 
C 2.5 -0.663008 2.236584 -1.29895 1.767767 -1.767767 
C 1.29895 -2.236584 0.663008 -2.5 0 -2.5 
C -0.663008 -2.5 -1.29895 -2.236584 -1.767767 -1.767767 
C -2.236584 -1.29895 -2.5 -0.663008 -2.5 0 
C -2.5 0.663008 -2.236584 1.29895 -1.767767 1.767767 
C -1.29895 2.236584 -0.663008 2.5 0 2.5 
z
"/>
    </defs>
    <g clip-path="url(#p3c99d8f673)">
     <use xlink:href="#C5_0_1f5303c0de" x="76.712827" y="148.555758" style="fill: #ffb000; fill-opacity: 0.7; stroke: #000000; stroke-opacity: 0.7; stroke-width: 0.5"/>
    </g>
    <g clip-path="url(#p3c99d8f673)">
     <use xlink:href="#C5_0_1f5303c0de" x="76.170167" y="148.555758" style="fill: #ffb000; fill-opacity: 0.7; stroke: #000000; stroke-opacity: 0.7; stroke-width: 0.5"/>
    </g>
   </g>
   <g id="PathCollection_13">
    <defs>
     <path id="C6_0_fc4250cf4c" d="M 0 2.5 
C 0.663008 2.5 1.29895 2.236584 1.767767 1.767767 
C 2.236584 1.29895 2.5 0.663008 2.5 -0 
C 2.5 -0.663008 2.236584 -1.29895 1.767767 -1.767767 
C 1.29895 -2.236584 0.663008 -2.5 0 -2.5 
C -0.663008 -2.5 -1.29895 -2.236584 -1.767767 -1.767767 
C -2.236584 -1.29895 -2.5 -0.663008 -2.5 0 
C -2.5 0.663008 -2.236584 1.29895 -1.767767 1.767767 
C -1.29895 2.236584 -0.663008 2.5 0 2.5 
z
"/>
    </defs>
    <g clip-path="url(#p3c99d8f673)">
     <use xlink:href="#C6_0_fc4250cf4c" x="88.237407" y="139.96034" style="fill: #648fff; fill-opacity: 0.7; stroke: #000000; stroke-opacity: 0.7; stroke-width: 0.5"/>
    </g>
    <g clip-path="url(#p3c99d8f673)">
     <use xlink:href="#C6_0_fc4250cf4c" x="88.627835" y="139.601089" style="fill: #648fff; fill-opacity: 0.7; stroke: #000000; stroke-opacity: 0.7; stroke-width: 0.5"/>
    </g>
   </g>
   <g id="PathCollection_14">
    <defs>
     <path id="C7_0_e18527d118" d="M 0 2.5 
C 0.663008 2.5 1.29895 2.236584 1.767767 1.767767 
C 2.236584 1.29895 2.5 0.663008 2.5 -0 
C 2.5 -0.663008 2.236584 -1.29895 1.767767 -1.767767 
C 1.29895 -2.236584 0.663008 -2.5 0 -2.5 
C -0.663008 -2.5 -1.29895 -2.236584 -1.767767 -1.767767 
C -2.236584 -1.29895 -2.5 -0.663008 -2.5 0 
C -2.5 0.663008 -2.236584 1.29895 -1.767767 1.767767 
C -1.29895 2.236584 -0.663008 2.5 0 2.5 
z
"/>
    </defs>
    <g clip-path="url(#p3c99d8f673)">
     <use xlink:href="#C7_0_e18527d118" x="92.692867" y="137.305873" style="fill: #fe6100; fill-opacity: 0.7; stroke: #000000; stroke-opacity: 0.7; stroke-width: 0.5"/>
    </g>
    <g clip-path="url(#p3c99d8f673)">
     <use xlink:href="#C7_0_e18527d118" x="92.45451" y="138.753966" style="fill: #fe6100; fill-opacity: 0.7; stroke: #000000; stroke-opacity: 0.7; stroke-width: 0.5"/>
    </g>
   </g>
   <g id="PathCollection_15">
    <defs>
     <path id="C8_0_d64ceb47e9" d="M 0 2.5 
C 0.663008 2.5 1.29895 2.236584 1.767767 1.767767 
C 2.236584 1.29895 2.5 0.663008 2.5 -0 
C 2.5 -0.663008 2.236584 -1.29895 1.767767 -1.767767 
C 1.29895 -2.236584 0.663008 -2.5 0 -2.5 
C -0.663008 -2.5 -1.29895 -2.236584 -1.767767 -1.767767 
C -2.236584 -1.29895 -2.5 -0.663008 -2.5 0 
C -2.5 0.663008 -2.236584 1.29895 -1.767767 1.767767 
C -1.29895 2.236584 -0.663008 2.5 0 2.5 
z
"/>
    </defs>
    <g clip-path="url(#p3c99d8f673)">
     <use xlink:href="#C8_0_d64ceb47e9" x="97.180041" y="139.037819" style="fill: #785ef0; fill-opacity: 0.7; stroke: #000000; stroke-opacity: 0.7; stroke-width: 0.5"/>
    </g>
    <g clip-path="url(#p3c99d8f673)">
     <use xlink:href="#C8_0_d64ceb47e9" x="97.18304" y="138.822711" style="fill: #785ef0; fill-opacity: 0.7; stroke: #000000; stroke-opacity: 0.7; stroke-width: 0.5"/>
    </g>
   </g>
   <g id="PathCollection_16">
    <defs>
     <path id="C9_0_8b760b1020" d="M 0 2.5 
C 0.663008 2.5 1.29895 2.236584 1.767767 1.767767 
C 2.236584 1.29895 2.5 0.663008 2.5 -0 
C 2.5 -0.663008 2.236584 -1.29895 1.767767 -1.767767 
C 1.29895 -2.236584 0.663008 -2.5 0 -2.5 
C -0.663008 -2.5 -1.29895 -2.236584 -1.767767 -1.767767 
C -2.236584 -1.29895 -2.5 -0.663008 -2.5 0 
C -2.5 0.663008 -2.236584 1.29895 -1.767767 1.767767 
C -1.29895 2.236584 -0.663008 2.5 0 2.5 
z
"/>
    </defs>
    <g clip-path="url(#p3c99d8f673)">
     <use xlink:href="#C9_0_8b760b1020" x="101.966702" y="138.915851" style="fill: #dc267f; fill-opacity: 0.7; stroke: #000000; stroke-opacity: 0.7; stroke-width: 0.5"/>
    </g>
    <g clip-path="url(#p3c99d8f673)">
     <use xlink:href="#C9_0_8b760b1020" x="102.324334" y="138.940244" style="fill: #dc267f; fill-opacity: 0.7; stroke: #000000; stroke-opacity: 0.7; stroke-width: 0.5"/>
    </g>
   </g>
   <g id="PathCollection_17">
    <defs>
     <path id="Ca_0_7e6de89076" d="M 0 2.5 
C 0.663008 2.5 1.29895 2.236584 1.767767 1.767767 
C 2.236584 1.29895 2.5 0.663008 2.5 -0 
C 2.5 -0.663008 2.236584 -1.29895 1.767767 -1.767767 
C 1.29895 -2.236584 0.663008 -2.5 0 -2.5 
C -0.663008 -2.5 -1.29895 -2.236584 -1.767767 -1.767767 
C -2.236584 -1.29895 -2.5 -0.663008 -2.5 0 
C -2.5 0.663008 -2.236584 1.29895 -1.767767 1.767767 
C -1.29895 2.236584 -0.663008 2.5 0 2.5 
z
"/>
    </defs>
    <g clip-path="url(#p3c99d8f673)">
     <use xlink:href="#Ca_0_7e6de89076" x="106.52403" y="133.544823" style="fill: #ffb000; fill-opacity: 0.7; stroke: #000000; stroke-opacity: 0.7; stroke-width: 0.5"/>
    </g>
    <g clip-path="url(#p3c99d8f673)">
     <use xlink:href="#Ca_0_7e6de89076" x="107.427357" y="135.498529" style="fill: #ffb000; fill-opacity: 0.7; stroke: #000000; stroke-opacity: 0.7; stroke-width: 0.5"/>
    </g>
   </g>
   <g id="PathCollection_18">
    <defs>
     <path id="Cb_0_8baae01cce" d="M 0 2.5 
C 0.663008 2.5 1.29895 2.236584 1.767767 1.767767 
C 2.236584 1.29895 2.5 0.663008 2.5 -0 
C 2.5 -0.663008 2.236584 -1.29895 1.767767 -1.767767 
C 1.29895 -2.236584 0.663008 -2.5 0 -2.5 
C -0.663008 -2.5 -1.29895 -2.236584 -1.767767 -1.767767 
C -2.236584 -1.29895 -2.5 -0.663008 -2.5 0 
C -2.5 0.663008 -2.236584 1.29895 -1.767767 1.767767 
C -1.29895 2.236584 -0.663008 2.5 0 2.5 
z
"/>
    </defs>
    <g clip-path="url(#p3c99d8f673)">
     <use xlink:href="#Cb_0_8baae01cce" x="112.197277" y="135.407607" style="fill: #ffb000; fill-opacity: 0.7; stroke: #000000; stroke-opacity: 0.7; stroke-width: 0.5"/>
    </g>
    <g clip-path="url(#p3c99d8f673)">
     <use xlink:href="#Cb_0_8baae01cce" x="111.858988" y="136.598459" style="fill: #ffb000; fill-opacity: 0.7; stroke: #000000; stroke-opacity: 0.7; stroke-width: 0.5"/>
    </g>
   </g>
   <g id="PathCollection_19">
    <defs>
     <path id="Cc_0_67bac3fe07" d="M 0 2.5 
C 0.663008 2.5 1.29895 2.236584 1.767767 1.767767 
C 2.236584 1.29895 2.5 0.663008 2.5 -0 
C 2.5 -0.663008 2.236584 -1.29895 1.767767 -1.767767 
C 1.29895 -2.236584 0.663008 -2.5 0 -2.5 
C -0.663008 -2.5 -1.29895 -2.236584 -1.767767 -1.767767 
C -2.236584 -1.29895 -2.5 -0.663008 -2.5 0 
C -2.5 0.663008 -2.236584 1.29895 -1.767767 1.767767 
C -1.29895 2.236584 -0.663008 2.5 0 2.5 
z
"/>
    </defs>
    <g clip-path="url(#p3c99d8f673)">
     <use xlink:href="#Cc_0_67bac3fe07" x="123.400693" y="128.53083" style="fill: #648fff; fill-opacity: 0.7; stroke: #000000; stroke-opacity: 0.7; stroke-width: 0.5"/>
    </g>
    <g clip-path="url(#p3c99d8f673)">
     <use xlink:href="#Cc_0_67bac3fe07" x="123.253812" y="130.63755" style="fill: #648fff; fill-opacity: 0.7; stroke: #000000; stroke-opacity: 0.7; stroke-width: 0.5"/>
    </g>
   </g>
   <g id="PathCollection_20">
    <defs>
     <path id="Cd_0_ed9d7e77d6" d="M 0 2.5 
C 0.663008 2.5 1.29895 2.236584 1.767767 1.767767 
C 2.236584 1.29895 2.5 0.663008 2.5 -0 
C 2.5 -0.663008 2.236584 -1.29895 1.767767 -1.767767 
C 1.29895 -2.236584 0.663008 -2.5 0 -2.5 
C -0.663008 -2.5 -1.29895 -2.236584 -1.767767 -1.767767 
C -2.236584 -1.29895 -2.5 -0.663008 -2.5 0 
C -2.5 0.663008 -2.236584 1.29895 -1.767767 1.767767 
C -1.29895 2.236584 -0.663008 2.5 0 2.5 
z
"/>
    </defs>
    <g clip-path="url(#p3c99d8f673)">
     <use xlink:href="#Cd_0_ed9d7e77d6" x="127.998571" y="124.896183" style="fill: #fe6100; fill-opacity: 0.7; stroke: #000000; stroke-opacity: 0.7; stroke-width: 0.5"/>
    </g>
    <g clip-path="url(#p3c99d8f673)">
     <use xlink:href="#Cd_0_ed9d7e77d6" x="128.363251" y="124.605678" style="fill: #fe6100; fill-opacity: 0.7; stroke: #000000; stroke-opacity: 0.7; stroke-width: 0.5"/>
    </g>
   </g>
   <g id="PathCollection_21">
    <defs>
     <path id="Ce_0_f707a88aaf" d="M 0 2.5 
C 0.663008 2.5 1.29895 2.236584 1.767767 1.767767 
C 2.236584 1.29895 2.5 0.663008 2.5 -0 
C 2.5 -0.663008 2.236584 -1.29895 1.767767 -1.767767 
C 1.29895 -2.236584 0.663008 -2.5 0 -2.5 
C -0.663008 -2.5 -1.29895 -2.236584 -1.767767 -1.767767 
C -2.236584 -1.29895 -2.5 -0.663008 -2.5 0 
C -2.5 0.663008 -2.236584 1.29895 -1.767767 1.767767 
C -1.29895 2.236584 -0.663008 2.5 0 2.5 
z
"/>
    </defs>
    <g clip-path="url(#p3c99d8f673)">
     <use xlink:href="#Ce_0_f707a88aaf" x="132.61224" y="128.632839" style="fill: #785ef0; fill-opacity: 0.7; stroke: #000000; stroke-opacity: 0.7; stroke-width: 0.5"/>
    </g>
    <g clip-path="url(#p3c99d8f673)">
     <use xlink:href="#Ce_0_f707a88aaf" x="133.498874" y="128.36451" style="fill: #785ef0; fill-opacity: 0.7; stroke: #000000; stroke-opacity: 0.7; stroke-width: 0.5"/>
    </g>
   </g>
   <g id="PathCollection_22">
    <defs>
     <path id="Cf_0_ddc5496ce9" d="M 0 2.5 
C 0.663008 2.5 1.29895 2.236584 1.767767 1.767767 
C 2.236584 1.29895 2.5 0.663008 2.5 -0 
C 2.5 -0.663008 2.236584 -1.29895 1.767767 -1.767767 
C 1.29895 -2.236584 0.663008 -2.5 0 -2.5 
C -0.663008 -2.5 -1.29895 -2.236584 -1.767767 -1.767767 
C -2.236584 -1.29895 -2.5 -0.663008 -2.5 0 
C -2.5 0.663008 -2.236584 1.29895 -1.767767 1.767767 
C -1.29895 2.236584 -0.663008 2.5 0 2.5 
z
"/>
    </defs>
    <g clip-path="url(#p3c99d8f673)">
     <use xlink:href="#Cf_0_ddc5496ce9" x="137.278758" y="126.206785" style="fill: #dc267f; fill-opacity: 0.7; stroke: #000000; stroke-opacity: 0.7; stroke-width: 0.5"/>
    </g>
    <g clip-path="url(#p3c99d8f673)">
     <use xlink:href="#Cf_0_ddc5496ce9" x="137.341294" y="122.259457" style="fill: #dc267f; fill-opacity: 0.7; stroke: #000000; stroke-opacity: 0.7; stroke-width: 0.5"/>
    </g>
   </g>
   <g id="PathCollection_23">
    <defs>
     <path id="C10_0_fbe1f8ef54" d="M 0 2.5 
C 0.663008 2.5 1.29895 2.236584 1.767767 1.767767 
C 2.236584 1.29895 2.5 0.663008 2.5 -0 
C 2.5 -0.663008 2.236584 -1.29895 1.767767 -1.767767 
C 1.29895 -2.236584 0.663008 -2.5 0 -2.5 
C -0.663008 -2.5 -1.29895 -2.236584 -1.767767 -1.767767 
C -2.236584 -1.29895 -2.5 -0.663008 -2.5 0 
C -2.5 0.663008 -2.236584 1.29895 -1.767767 1.767767 
C -1.29895 2.236584 -0.663008 2.5 0 2.5 
z
"/>
    </defs>
    <g clip-path="url(#p3c99d8f673)">
     <use xlink:href="#C10_0_fbe1f8ef54" x="142.562376" y="117.875262" style="fill: #ffb000; fill-opacity: 0.7; stroke: #000000; stroke-opacity: 0.7; stroke-width: 0.5"/>
    </g>
    <g clip-path="url(#p3c99d8f673)">
     <use xlink:href="#C10_0_fbe1f8ef54" x="142.130781" y="114.537774" style="fill: #ffb000; fill-opacity: 0.7; stroke: #000000; stroke-opacity: 0.7; stroke-width: 0.5"/>
    </g>
   </g>
   <g id="PathCollection_24">
    <defs>
     <path id="C11_0_ed095aabf3" d="M 0 2.5 
C 0.663008 2.5 1.29895 2.236584 1.767767 1.767767 
C 2.236584 1.29895 2.5 0.663008 2.5 -0 
C 2.5 -0.663008 2.236584 -1.29895 1.767767 -1.767767 
C 1.29895 -2.236584 0.663008 -2.5 0 -2.5 
C -0.663008 -2.5 -1.29895 -2.236584 -1.767767 -1.767767 
C -2.236584 -1.29895 -2.5 -0.663008 -2.5 0 
C -2.5 0.663008 -2.236584 1.29895 -1.767767 1.767767 
C -1.29895 2.236584 -0.663008 2.5 0 2.5 
z
"/>
    </defs>
    <g clip-path="url(#p3c99d8f673)">
     <use xlink:href="#C11_0_ed095aabf3" x="147.459713" y="83.256308" style="fill: #ffb000; fill-opacity: 0.7; stroke: #000000; stroke-opacity: 0.7; stroke-width: 0.5"/>
    </g>
    <g clip-path="url(#p3c99d8f673)">
     <use xlink:href="#C11_0_ed095aabf3" x="146.864884" y="101.059201" style="fill: #ffb000; fill-opacity: 0.7; stroke: #000000; stroke-opacity: 0.7; stroke-width: 0.5"/>
    </g>
   </g>
   <g id="line2d_10">
    <path d="M 52.647688 148.555758 
L 52.647688 148.555758 
" clip-path="url(#p3c99d8f673)" style="fill: none; stroke: #000000; stroke-width: 0.25; stroke-linecap: round"/>
   </g>
   <g id="line2d_11">
    <path d="M 49.104831 148.555758 
L 56.190545 148.555758 
" clip-path="url(#p3c99d8f673)" style="fill: none; stroke: #000000; stroke-width: 0.25; stroke-linecap: round"/>
   </g>
   <g id="line2d_12">
    <path d="M 49.104831 148.555758 
L 56.190545 148.555758 
" clip-path="url(#p3c99d8f673)" style="fill: none; stroke: #000000; stroke-width: 0.25; stroke-linecap: round"/>
   </g>
   <g id="line2d_13">
    <path d="M 88.07626 140.034744 
L 88.07626 139.526686 
" clip-path="url(#p3c99d8f673)" style="fill: none; stroke: #000000; stroke-width: 0.25; stroke-linecap: round"/>
   </g>
   <g id="line2d_14">
    <path d="M 84.533403 140.034744 
L 91.619117 140.034744 
" clip-path="url(#p3c99d8f673)" style="fill: none; stroke: #000000; stroke-width: 0.25; stroke-linecap: round"/>
   </g>
   <g id="line2d_15">
    <path d="M 84.533403 139.526686 
L 91.619117 139.526686 
" clip-path="url(#p3c99d8f673)" style="fill: none; stroke: #000000; stroke-width: 0.25; stroke-linecap: round"/>
   </g>
   <g id="line2d_16">
    <path d="M 123.504831 131.073866 
L 123.504831 128.094514 
" clip-path="url(#p3c99d8f673)" style="fill: none; stroke: #000000; stroke-width: 0.25; stroke-linecap: round"/>
   </g>
   <g id="line2d_17">
    <path d="M 119.961974 131.073866 
L 127.047688 131.073866 
" clip-path="url(#p3c99d8f673)" style="fill: none; stroke: #000000; stroke-width: 0.25; stroke-linecap: round"/>
   </g>
   <g id="line2d_18">
    <path d="M 119.961974 128.094514 
L 127.047688 128.094514 
" clip-path="url(#p3c99d8f673)" style="fill: none; stroke: #000000; stroke-width: 0.25; stroke-linecap: round"/>
   </g>
   <g id="line2d_19">
    <path d="M 57.371498 148.555758 
L 57.371498 148.555758 
" clip-path="url(#p3c99d8f673)" style="fill: none; stroke: #000000; stroke-width: 0.25; stroke-linecap: round"/>
   </g>
   <g id="line2d_20">
    <path d="M 53.828641 148.555758 
L 60.914355 148.555758 
" clip-path="url(#p3c99d8f673)" style="fill: none; stroke: #000000; stroke-width: 0.25; stroke-linecap: round"/>
   </g>
   <g id="line2d_21">
    <path d="M 53.828641 148.555758 
L 60.914355 148.555758 
" clip-path="url(#p3c99d8f673)" style="fill: none; stroke: #000000; stroke-width: 0.25; stroke-linecap: round"/>
   </g>
   <g id="line2d_22">
    <path d="M 92.800069 139.053876 
L 92.800069 137.005963 
" clip-path="url(#p3c99d8f673)" style="fill: none; stroke: #000000; stroke-width: 0.25; stroke-linecap: round"/>
   </g>
   <g id="line2d_23">
    <path d="M 89.257212 139.053876 
L 96.342926 139.053876 
" clip-path="url(#p3c99d8f673)" style="fill: none; stroke: #000000; stroke-width: 0.25; stroke-linecap: round"/>
   </g>
   <g id="line2d_24">
    <path d="M 89.257212 137.005963 
L 96.342926 137.005963 
" clip-path="url(#p3c99d8f673)" style="fill: none; stroke: #000000; stroke-width: 0.25; stroke-linecap: round"/>
   </g>
   <g id="line2d_25">
    <path d="M 128.228641 124.956349 
L 128.228641 124.545512 
" clip-path="url(#p3c99d8f673)" style="fill: none; stroke: #000000; stroke-width: 0.25; stroke-linecap: round"/>
   </g>
   <g id="line2d_26">
    <path d="M 124.685783 124.956349 
L 131.771498 124.956349 
" clip-path="url(#p3c99d8f673)" style="fill: none; stroke: #000000; stroke-width: 0.25; stroke-linecap: round"/>
   </g>
   <g id="line2d_27">
    <path d="M 124.685783 124.545512 
L 131.771498 124.545512 
" clip-path="url(#p3c99d8f673)" style="fill: none; stroke: #000000; stroke-width: 0.25; stroke-linecap: round"/>
   </g>
   <g id="line2d_28">
    <path d="M 62.095307 148.555758 
L 62.095307 148.555758 
" clip-path="url(#p3c99d8f673)" style="fill: none; stroke: #000000; stroke-width: 0.25; stroke-linecap: round"/>
   </g>
   <g id="line2d_29">
    <path d="M 58.55245 148.555758 
L 65.638164 148.555758 
" clip-path="url(#p3c99d8f673)" style="fill: none; stroke: #000000; stroke-width: 0.25; stroke-linecap: round"/>
   </g>
   <g id="line2d_30">
    <path d="M 58.55245 148.555758 
L 65.638164 148.555758 
" clip-path="url(#p3c99d8f673)" style="fill: none; stroke: #000000; stroke-width: 0.25; stroke-linecap: round"/>
   </g>
   <g id="line2d_31">
    <path d="M 97.523879 139.082369 
L 97.523879 138.778161 
" clip-path="url(#p3c99d8f673)" style="fill: none; stroke: #000000; stroke-width: 0.25; stroke-linecap: round"/>
   </g>
   <g id="line2d_32">
    <path d="M 93.981022 139.082369 
L 101.066736 139.082369 
" clip-path="url(#p3c99d8f673)" style="fill: none; stroke: #000000; stroke-width: 0.25; stroke-linecap: round"/>
   </g>
   <g id="line2d_33">
    <path d="M 93.981022 138.778161 
L 101.066736 138.778161 
" clip-path="url(#p3c99d8f673)" style="fill: none; stroke: #000000; stroke-width: 0.25; stroke-linecap: round"/>
   </g>
   <g id="line2d_34">
    <path d="M 132.95245 128.688412 
L 132.95245 128.308937 
" clip-path="url(#p3c99d8f673)" style="fill: none; stroke: #000000; stroke-width: 0.25; stroke-linecap: round"/>
   </g>
   <g id="line2d_35">
    <path d="M 129.409593 128.688412 
L 136.495307 128.688412 
" clip-path="url(#p3c99d8f673)" style="fill: none; stroke: #000000; stroke-width: 0.25; stroke-linecap: round"/>
   </g>
   <g id="line2d_36">
    <path d="M 129.409593 128.308937 
L 136.495307 128.308937 
" clip-path="url(#p3c99d8f673)" style="fill: none; stroke: #000000; stroke-width: 0.25; stroke-linecap: round"/>
   </g>
   <g id="line2d_37">
    <path d="M 66.819117 148.555758 
L 66.819117 148.555758 
" clip-path="url(#p3c99d8f673)" style="fill: none; stroke: #000000; stroke-width: 0.25; stroke-linecap: round"/>
   </g>
   <g id="line2d_38">
    <path d="M 63.27626 148.555758 
L 70.361974 148.555758 
" clip-path="url(#p3c99d8f673)" style="fill: none; stroke: #000000; stroke-width: 0.25; stroke-linecap: round"/>
   </g>
   <g id="line2d_39">
    <path d="M 63.27626 148.555758 
L 70.361974 148.555758 
" clip-path="url(#p3c99d8f673)" style="fill: none; stroke: #000000; stroke-width: 0.25; stroke-linecap: round"/>
   </g>
   <g id="line2d_40">
    <path d="M 102.247688 138.945296 
L 102.247688 138.910799 
" clip-path="url(#p3c99d8f673)" style="fill: none; stroke: #000000; stroke-width: 0.25; stroke-linecap: round"/>
   </g>
   <g id="line2d_41">
    <path d="M 98.704831 138.945296 
L 105.790545 138.945296 
" clip-path="url(#p3c99d8f673)" style="fill: none; stroke: #000000; stroke-width: 0.25; stroke-linecap: round"/>
   </g>
   <g id="line2d_42">
    <path d="M 98.704831 138.910799 
L 105.790545 138.910799 
" clip-path="url(#p3c99d8f673)" style="fill: none; stroke: #000000; stroke-width: 0.25; stroke-linecap: round"/>
   </g>
   <g id="line2d_43">
    <path d="M 137.67626 127.024303 
L 137.67626 121.441939 
" clip-path="url(#p3c99d8f673)" style="fill: none; stroke: #000000; stroke-width: 0.25; stroke-linecap: round"/>
   </g>
   <g id="line2d_44">
    <path d="M 134.133403 127.024303 
L 141.219117 127.024303 
" clip-path="url(#p3c99d8f673)" style="fill: none; stroke: #000000; stroke-width: 0.25; stroke-linecap: round"/>
   </g>
   <g id="line2d_45">
    <path d="M 134.133403 121.441939 
L 141.219117 121.441939 
" clip-path="url(#p3c99d8f673)" style="fill: none; stroke: #000000; stroke-width: 0.25; stroke-linecap: round"/>
   </g>
   <g id="line2d_46">
    <path d="M 71.542926 148.555758 
L 71.542926 148.555758 
" clip-path="url(#p3c99d8f673)" style="fill: none; stroke: #000000; stroke-width: 0.25; stroke-linecap: round"/>
   </g>
   <g id="line2d_47">
    <path d="M 68.000069 148.555758 
L 75.085783 148.555758 
" clip-path="url(#p3c99d8f673)" style="fill: none; stroke: #000000; stroke-width: 0.25; stroke-linecap: round"/>
   </g>
   <g id="line2d_48">
    <path d="M 68.000069 148.555758 
L 75.085783 148.555758 
" clip-path="url(#p3c99d8f673)" style="fill: none; stroke: #000000; stroke-width: 0.25; stroke-linecap: round"/>
   </g>
   <g id="line2d_49">
    <path d="M 106.971498 135.903155 
L 106.971498 133.140198 
" clip-path="url(#p3c99d8f673)" style="fill: none; stroke: #000000; stroke-width: 0.25; stroke-linecap: round"/>
   </g>
   <g id="line2d_50">
    <path d="M 103.428641 135.903155 
L 110.514355 135.903155 
" clip-path="url(#p3c99d8f673)" style="fill: none; stroke: #000000; stroke-width: 0.25; stroke-linecap: round"/>
   </g>
   <g id="line2d_51">
    <path d="M 103.428641 133.140198 
L 110.514355 133.140198 
" clip-path="url(#p3c99d8f673)" style="fill: none; stroke: #000000; stroke-width: 0.25; stroke-linecap: round"/>
   </g>
   <g id="line2d_52">
    <path d="M 142.400069 118.566478 
L 142.400069 113.846557 
" clip-path="url(#p3c99d8f673)" style="fill: none; stroke: #000000; stroke-width: 0.25; stroke-linecap: round"/>
   </g>
   <g id="line2d_53">
    <path d="M 138.857212 118.566478 
L 145.942926 118.566478 
" clip-path="url(#p3c99d8f673)" style="fill: none; stroke: #000000; stroke-width: 0.25; stroke-linecap: round"/>
   </g>
   <g id="line2d_54">
    <path d="M 138.857212 113.846557 
L 145.942926 113.846557 
" clip-path="url(#p3c99d8f673)" style="fill: none; stroke: #000000; stroke-width: 0.25; stroke-linecap: round"/>
   </g>
   <g id="line2d_55">
    <path d="M 76.266736 148.555758 
L 76.266736 148.555758 
" clip-path="url(#p3c99d8f673)" style="fill: none; stroke: #000000; stroke-width: 0.25; stroke-linecap: round"/>
   </g>
   <g id="line2d_56">
    <path d="M 72.723879 148.555758 
L 79.809593 148.555758 
" clip-path="url(#p3c99d8f673)" style="fill: none; stroke: #000000; stroke-width: 0.25; stroke-linecap: round"/>
   </g>
   <g id="line2d_57">
    <path d="M 72.723879 148.555758 
L 79.809593 148.555758 
" clip-path="url(#p3c99d8f673)" style="fill: none; stroke: #000000; stroke-width: 0.25; stroke-linecap: round"/>
   </g>
   <g id="line2d_58">
    <path d="M 111.695307 136.845092 
L 111.695307 135.160974 
" clip-path="url(#p3c99d8f673)" style="fill: none; stroke: #000000; stroke-width: 0.25; stroke-linecap: round"/>
   </g>
   <g id="line2d_59">
    <path d="M 108.15245 136.845092 
L 115.238164 136.845092 
" clip-path="url(#p3c99d8f673)" style="fill: none; stroke: #000000; stroke-width: 0.25; stroke-linecap: round"/>
   </g>
   <g id="line2d_60">
    <path d="M 108.15245 135.160974 
L 115.238164 135.160974 
" clip-path="url(#p3c99d8f673)" style="fill: none; stroke: #000000; stroke-width: 0.25; stroke-linecap: round"/>
   </g>
   <g id="line2d_61">
    <path d="M 147.123879 104.746301 
L 147.123879 79.569208 
" clip-path="url(#p3c99d8f673)" style="fill: none; stroke: #000000; stroke-width: 0.25; stroke-linecap: round"/>
   </g>
   <g id="line2d_62">
    <path d="M 143.581022 104.746301 
L 150.666736 104.746301 
" clip-path="url(#p3c99d8f673)" style="fill: none; stroke: #000000; stroke-width: 0.25; stroke-linecap: round"/>
   </g>
   <g id="line2d_63">
    <path d="M 143.581022 79.569208 
L 150.666736 79.569208 
" clip-path="url(#p3c99d8f673)" style="fill: none; stroke: #000000; stroke-width: 0.25; stroke-linecap: round"/>
   </g>
   <g id="patch_21">
    <path d="M 41.428641 148.555758 
L 41.428641 9.955758 
" style="fill: none; stroke: #000000; stroke-width: 0.5; stroke-linejoin: miter; stroke-linecap: square"/>
   </g>
   <g id="patch_22">
    <path d="M 153.028641 148.555758 
L 153.028641 9.955758 
" style="fill: none; stroke: #000000; stroke-width: 0.5; stroke-linejoin: miter; stroke-linecap: square"/>
   </g>
   <g id="patch_23">
    <path d="M 41.428641 148.555758 
L 153.028641 148.555758 
" style="fill: none; stroke: #000000; stroke-width: 0.5; stroke-linejoin: miter; stroke-linecap: square"/>
   </g>
   <g id="patch_24">
    <path d="M 41.428641 9.955758 
L 153.028641 9.955758 
" style="fill: none; stroke: #000000; stroke-width: 0.5; stroke-linejoin: miter; stroke-linecap: square"/>
   </g>
  </g>
 </g>
 <defs>
  <clipPath id="p3c99d8f673">
   <rect x="41.428641" y="9.955758" width="111.6" height="138.6"/>
  </clipPath>
 </defs>
 <defs>
  <pattern id="hadee8bbb81" patternUnits="userSpaceOnUse" x="0" y="0" width="72" height="72">
   <rect x="0" y="0" width="73" height="73" fill="#ffb000"/>
   <path d="M -36 36 
L 36 -36 
M -33.6 38.4 
L 38.4 -33.6 
M -31.2 40.8 
L 40.8 -31.2 
M -28.8 43.2 
L 43.2 -28.8 
M -26.4 45.6 
L 45.6 -26.4 
M -24 48 
L 48 -24 
M -21.6 50.4 
L 50.4 -21.6 
M -19.2 52.8 
L 52.8 -19.2 
M -16.8 55.2 
L 55.2 -16.8 
M -14.4 57.6 
L 57.6 -14.4 
M -12 60 
L 60 -12 
M -9.6 62.4 
L 62.4 -9.6 
M -7.2 64.8 
L 64.8 -7.2 
M -4.8 67.2 
L 67.2 -4.8 
M -2.4 69.6 
L 69.6 -2.4 
M 0 72 
L 72 0 
M 2.4 74.4 
L 74.4 2.4 
M 4.8 76.8 
L 76.8 4.8 
M 7.2 79.2 
L 79.2 7.2 
M 9.6 81.6 
L 81.6 9.6 
M 12 84 
L 84 12 
M 14.4 86.4 
L 86.4 14.4 
M 16.8 88.8 
L 88.8 16.8 
M 19.2 91.2 
L 91.2 19.2 
M 21.6 93.6 
L 93.6 21.6 
M 24 96 
L 96 24 
M 26.4 98.4 
L 98.4 26.4 
M 28.8 100.8 
L 100.8 28.8 
M 31.2 103.2 
L 103.2 31.2 
M 33.6 105.6 
L 105.6 33.6 
M 36 108 
L 108 36 
" style="fill: #000000; stroke: #000000; stroke-width: 1.0; stroke-linecap: butt; stroke-linejoin: miter"/>
  </pattern>
 </defs>
</svg>
