<?xml version="1.0" encoding="utf-8" standalone="no"?>
<!DOCTYPE svg PUBLIC "-//W3C//DTD SVG 1.1//EN"
  "http://www.w3.org/Graphics/SVG/1.1/DTD/svg11.dtd">
<svg xmlns:xlink="http://www.w3.org/1999/xlink" width="132.328641pt" height="186.690578pt" viewBox="0 0 132.328641 186.690578" xmlns="http://www.w3.org/2000/svg" version="1.1">
 <metadata>
  <rdf:RDF xmlns:dc="http://purl.org/dc/elements/1.1/" xmlns:cc="http://creativecommons.org/ns#" xmlns:rdf="http://www.w3.org/1999/02/22-rdf-syntax-ns#">
   <cc:Work>
    <dc:type rdf:resource="http://purl.org/dc/dcmitype/StillImage"/>
    <dc:date>2024-11-14T08:44:49.535645</dc:date>
    <dc:format>image/svg+xml</dc:format>
    <dc:creator>
     <cc:Agent>
      <dc:title>Matplotlib v3.9.0, https://matplotlib.org/</dc:title>
     </cc:Agent>
    </dc:creator>
   </cc:Work>
  </rdf:RDF>
 </metadata>
 <defs>
  <style type="text/css">*{stroke-linejoin: round; stroke-linecap: butt}</style>
 </defs>
 <g id="figure_1">
  <g id="patch_1">
   <path d="M 0 186.690578 
L 132.328641 186.690578 
L 132.328641 0 
L 0 0 
L 0 186.690578 
z
" style="fill: none"/>
  </g>
  <g id="axes_1">
   <g id="patch_2">
    <path d="M 41.428641 118.08 
L 125.128641 118.08 
L 125.128641 7.2 
L 41.428641 7.2 
L 41.428641 118.08 
z
" style="fill: none"/>
   </g>
   <g id="patch_3">
    <path d="M 43.786387 118.08 
L 53.217373 118.08 
L 53.217373 34.419416 
L 43.786387 34.419416 
z
" clip-path="url(#pe783309cdd)" style="fill: #648fff; stroke: #000000; stroke-width: 0.5; stroke-linejoin: miter"/>
   </g>
   <g id="patch_4">
    <path d="M 55.575119 118.08 
L 65.006105 118.08 
L 65.006105 41.990514 
L 55.575119 41.990514 
z
" clip-path="url(#pe783309cdd)" style="fill: #648fff; stroke: #000000; stroke-width: 0.5; stroke-linejoin: miter"/>
   </g>
   <g id="patch_5">
    <path d="M 67.363852 118.08 
L 76.794838 118.08 
L 76.794838 40.841809 
L 67.363852 40.841809 
z
" clip-path="url(#pe783309cdd)" style="fill: #648fff; stroke: #000000; stroke-width: 0.5; stroke-linejoin: miter"/>
   </g>
   <g id="patch_6">
    <path d="M 79.152584 118.08 
L 88.58357 118.08 
L 88.58357 34.879878 
L 79.152584 34.879878 
z
" clip-path="url(#pe783309cdd)" style="fill: #648fff; stroke: #000000; stroke-width: 0.5; stroke-linejoin: miter"/>
   </g>
   <g id="patch_7">
    <path d="M 90.941317 118.08 
L 100.372303 118.08 
L 100.372303 42.752925 
L 90.941317 42.752925 
z
" clip-path="url(#pe783309cdd)" style="fill: #648fff; stroke: #000000; stroke-width: 0.5; stroke-linejoin: miter"/>
   </g>
   <g id="patch_8">
    <path d="M 102.730049 118.08 
L 112.161035 118.08 
L 112.161035 37.743756 
L 102.730049 37.743756 
z
" clip-path="url(#pe783309cdd)" style="fill: #648fff; stroke: #000000; stroke-width: 0.5; stroke-linejoin: miter"/>
   </g>
   <g id="patch_9">
    <path d="M 114.518781 118.08 
L 123.949767 118.08 
L 123.949767 41.600126 
L 114.518781 41.600126 
z
" clip-path="url(#pe783309cdd)" style="fill: #648fff; stroke: #000000; stroke-width: 0.5; stroke-linejoin: miter"/>
   </g>
   <g id="matplotlib.axis_1">
    <g id="xtick_1">
     <g id="line2d_1">
      <defs>
       <path id="mef86321422" d="M 0 5 
L 0 -5 
" style="stroke: #262626; stroke-width: 0.5"/>
      </defs>
      <g>
       <use xlink:href="#mef86321422" x="48.50188" y="118.08" style="fill: #262626; stroke: #262626; stroke-width: 0.5"/>
      </g>
     </g>
     <g id="text_1">
      <!-- DBTL-0 -->
      <g style="fill: #262626" transform="translate(50.49245 156.607703) rotate(-90) scale(0.077 -0.077)">
       <defs>
        <path id="Arial-ItalicMT-44" d="M 284 0 
L 1241 4581 
L 2622 4581 
Q 3119 4581 3381 4509 
Q 3756 4413 4022 4164 
Q 4288 3916 4422 3544 
Q 4556 3172 4556 2709 
Q 4556 2156 4389 1701 
Q 4222 1247 3951 901 
Q 3681 556 3386 361 
Q 3091 166 2688 72 
Q 2381 0 1934 0 
L 284 0 
z
M 1006 519 
L 1731 519 
Q 2222 519 2603 609 
Q 2841 666 3009 775 
Q 3231 916 3413 1147 
Q 3650 1453 3792 1845 
Q 3934 2238 3934 2738 
Q 3934 3294 3740 3592 
Q 3547 3891 3247 3988 
Q 3025 4059 2556 4059 
L 1747 4059 
L 1006 519 
z
" transform="scale(0.015625)"/>
        <path id="Arial-ItalicMT-42" d="M 278 0 
L 1238 4581 
L 2656 4581 
Q 3044 4581 3231 4550 
Q 3538 4497 3748 4364 
Q 3959 4231 4075 4001 
Q 4191 3772 4191 3494 
Q 4191 3116 3983 2828 
Q 3775 2541 3347 2391 
Q 3719 2269 3903 2023 
Q 4088 1778 4088 1450 
Q 4088 1072 3870 725 
Q 3653 378 3295 189 
Q 2938 0 2497 0 
L 278 0 
z
M 1441 2625 
L 2369 2625 
Q 3034 2625 3326 2837 
Q 3619 3050 3619 3456 
Q 3619 3650 3528 3790 
Q 3438 3931 3286 3995 
Q 3134 4059 2716 4059 
L 1741 4059 
L 1441 2625 
z
M 1000 519 
L 2044 519 
Q 2459 519 2603 547 
Q 2894 597 3075 717 
Q 3256 838 3359 1034 
Q 3463 1231 3463 1447 
Q 3463 1769 3261 1936 
Q 3059 2103 2494 2103 
L 1331 2103 
L 1000 519 
z
" transform="scale(0.015625)"/>
        <path id="Arial-ItalicMT-54" d="M 1453 0 
L 2300 4059 
L 797 4059 
L 906 4581 
L 4513 4581 
L 4403 4059 
L 2913 4059 
L 2066 0 
L 1453 0 
z
" transform="scale(0.015625)"/>
        <path id="Arial-ItalicMT-4c" d="M 256 0 
L 1213 4581 
L 1825 4581 
L 978 519 
L 3356 519 
L 3247 0 
L 256 0 
z
" transform="scale(0.015625)"/>
        <path id="Arial-ItalicMT-2d" d="M 297 1375 
L 416 1941 
L 2141 1941 
L 2025 1375 
L 297 1375 
z
" transform="scale(0.015625)"/>
        <path id="Arial-ItalicMT-30" d="M 453 1503 
Q 453 2084 626 2684 
Q 800 3284 1012 3643 
Q 1225 4003 1453 4206 
Q 1681 4409 1901 4504 
Q 2122 4600 2391 4600 
Q 2916 4600 3267 4209 
Q 3619 3819 3619 3081 
Q 3619 2322 3375 1578 
Q 3088 697 2575 256 
Q 2181 -78 1678 -78 
Q 1163 -78 808 326 
Q 453 731 453 1503 
z
M 1000 1359 
Q 1000 938 1141 700 
Q 1331 372 1706 372 
Q 2034 372 2303 669 
Q 2691 1088 2886 1895 
Q 3081 2703 3081 3216 
Q 3081 3709 2892 3928 
Q 2703 4147 2394 4147 
Q 2169 4147 1973 4031 
Q 1778 3916 1600 3634 
Q 1347 3238 1159 2447 
Q 1000 1772 1000 1359 
z
" transform="scale(0.015625)"/>
       </defs>
       <use xlink:href="#Arial-ItalicMT-44"/>
       <use xlink:href="#Arial-ItalicMT-42" x="72.216797"/>
       <use xlink:href="#Arial-ItalicMT-54" x="138.916016"/>
       <use xlink:href="#Arial-ItalicMT-4c" x="200"/>
       <use xlink:href="#Arial-ItalicMT-2d" x="255.615234"/>
       <use xlink:href="#Arial-ItalicMT-30" x="288.916016"/>
      </g>
     </g>
    </g>
    <g id="xtick_2">
     <g id="line2d_2">
      <g>
       <use xlink:href="#mef86321422" x="60.290612" y="118.08" style="fill: #262626; stroke: #262626; stroke-width: 0.5"/>
      </g>
     </g>
     <g id="text_2">
      <!-- DBTL-1 -->
      <g style="fill: #262626" transform="translate(62.281183 156.607703) rotate(-90) scale(0.077 -0.077)">
       <defs>
        <path id="Arial-ItalicMT-31" d="M 1541 0 
L 2266 3459 
Q 1797 3091 947 2869 
L 1053 3381 
Q 1475 3550 1886 3822 
Q 2297 4094 2503 4297 
Q 2628 4422 2741 4600 
L 3069 4600 
L 2109 0 
L 1541 0 
z
" transform="scale(0.015625)"/>
       </defs>
       <use xlink:href="#Arial-ItalicMT-44"/>
       <use xlink:href="#Arial-ItalicMT-42" x="72.216797"/>
       <use xlink:href="#Arial-ItalicMT-54" x="138.916016"/>
       <use xlink:href="#Arial-ItalicMT-4c" x="200"/>
       <use xlink:href="#Arial-ItalicMT-2d" x="255.615234"/>
       <use xlink:href="#Arial-ItalicMT-31" x="288.916016"/>
      </g>
     </g>
    </g>
    <g id="xtick_3">
     <g id="line2d_3">
      <g>
       <use xlink:href="#mef86321422" x="72.079345" y="118.08" style="fill: #262626; stroke: #262626; stroke-width: 0.5"/>
      </g>
     </g>
     <g id="text_3">
      <!-- DBTL-2 -->
      <g style="fill: #262626" transform="translate(74.069915 156.607703) rotate(-90) scale(0.077 -0.077)">
       <defs>
        <path id="Arial-ItalicMT-32" d="M 375 0 
Q 463 409 617 686 
Q 772 963 1028 1211 
Q 1284 1459 2016 2044 
Q 2459 2397 2622 2566 
Q 2856 2809 2963 3044 
Q 3034 3203 3034 3391 
Q 3034 3706 2811 3926 
Q 2588 4147 2263 4147 
Q 1941 4147 1700 3923 
Q 1459 3700 1356 3206 
L 803 3288 
Q 884 3897 1276 4248 
Q 1669 4600 2253 4600 
Q 2644 4600 2961 4437 
Q 3278 4275 3437 3981 
Q 3597 3688 3597 3375 
Q 3597 2919 3272 2497 
Q 3072 2234 2097 1463 
Q 1678 1131 1473 918 
Q 1269 706 1166 519 
L 3216 519 
L 3106 0 
L 375 0 
z
" transform="scale(0.015625)"/>
       </defs>
       <use xlink:href="#Arial-ItalicMT-44"/>
       <use xlink:href="#Arial-ItalicMT-42" x="72.216797"/>
       <use xlink:href="#Arial-ItalicMT-54" x="138.916016"/>
       <use xlink:href="#Arial-ItalicMT-4c" x="200"/>
       <use xlink:href="#Arial-ItalicMT-2d" x="255.615234"/>
       <use xlink:href="#Arial-ItalicMT-32" x="288.916016"/>
      </g>
     </g>
    </g>
    <g id="xtick_4">
     <g id="line2d_4">
      <g>
       <use xlink:href="#mef86321422" x="83.868077" y="118.08" style="fill: #262626; stroke: #262626; stroke-width: 0.5"/>
      </g>
     </g>
     <g id="text_4">
      <!-- DBTL-3 -->
      <g style="fill: #262626" transform="translate(85.858648 156.607703) rotate(-90) scale(0.077 -0.077)">
       <defs>
        <path id="Arial-ItalicMT-33" d="M 350 1200 
L 900 1269 
Q 963 788 1177 580 
Q 1391 372 1738 372 
Q 2156 372 2461 672 
Q 2766 972 2766 1359 
Q 2766 1697 2537 1917 
Q 2309 2138 1925 2138 
Q 1881 2138 1744 2125 
L 1841 2597 
Q 1922 2584 1997 2584 
Q 2481 2584 2742 2820 
Q 3003 3056 3003 3400 
Q 3003 3716 2789 3931 
Q 2575 4147 2266 4147 
Q 1963 4147 1720 3926 
Q 1478 3706 1409 3303 
L 853 3416 
Q 991 3981 1381 4290 
Q 1772 4600 2306 4600 
Q 2869 4600 3217 4259 
Q 3566 3919 3566 3422 
Q 3566 3059 3377 2789 
Q 3188 2519 2809 2341 
Q 3078 2181 3211 1956 
Q 3344 1731 3344 1441 
Q 3344 825 2883 373 
Q 2422 -78 1781 -78 
Q 1159 -78 776 270 
Q 394 619 350 1200 
z
" transform="scale(0.015625)"/>
       </defs>
       <use xlink:href="#Arial-ItalicMT-44"/>
       <use xlink:href="#Arial-ItalicMT-42" x="72.216797"/>
       <use xlink:href="#Arial-ItalicMT-54" x="138.916016"/>
       <use xlink:href="#Arial-ItalicMT-4c" x="200"/>
       <use xlink:href="#Arial-ItalicMT-2d" x="255.615234"/>
       <use xlink:href="#Arial-ItalicMT-33" x="288.916016"/>
      </g>
     </g>
    </g>
    <g id="xtick_5">
     <g id="line2d_5">
      <g>
       <use xlink:href="#mef86321422" x="95.65681" y="118.08" style="fill: #262626; stroke: #262626; stroke-width: 0.5"/>
      </g>
     </g>
     <g id="text_5">
      <!-- DBTL-4 -->
      <g style="fill: #262626" transform="translate(97.64738 156.607703) rotate(-90) scale(0.077 -0.077)">
       <defs>
        <path id="Arial-ItalicMT-34" d="M 1913 0 
L 2159 1169 
L 291 1169 
L 409 1728 
L 2975 4581 
L 3438 4581 
L 2828 1669 
L 3472 1669 
L 3369 1169 
L 2725 1169 
L 2478 0 
L 1913 0 
z
M 2263 1669 
L 2663 3581 
L 956 1669 
L 2263 1669 
z
" transform="scale(0.015625)"/>
       </defs>
       <use xlink:href="#Arial-ItalicMT-44"/>
       <use xlink:href="#Arial-ItalicMT-42" x="72.216797"/>
       <use xlink:href="#Arial-ItalicMT-54" x="138.916016"/>
       <use xlink:href="#Arial-ItalicMT-4c" x="200"/>
       <use xlink:href="#Arial-ItalicMT-2d" x="255.615234"/>
       <use xlink:href="#Arial-ItalicMT-34" x="288.916016"/>
      </g>
     </g>
    </g>
    <g id="xtick_6">
     <g id="line2d_6">
      <g>
       <use xlink:href="#mef86321422" x="107.445542" y="118.08" style="fill: #262626; stroke: #262626; stroke-width: 0.5"/>
      </g>
     </g>
     <g id="text_6">
      <!-- DBTL-5 -->
      <g style="fill: #262626" transform="translate(109.436112 156.607703) rotate(-90) scale(0.077 -0.077)">
       <defs>
        <path id="Arial-ItalicMT-35" d="M 447 1309 
L 1022 1366 
Q 1016 1244 1016 1219 
Q 1016 1013 1120 803 
Q 1225 594 1404 483 
Q 1584 372 1784 372 
Q 2047 372 2319 553 
Q 2591 734 2759 1081 
Q 2928 1428 2928 1769 
Q 2928 2153 2701 2384 
Q 2475 2616 2106 2616 
Q 1859 2616 1639 2497 
Q 1419 2378 1228 2141 
L 734 2175 
L 1425 4519 
L 3663 4519 
L 3553 4000 
L 1813 4000 
L 1469 2834 
Q 1663 2975 1867 3045 
Q 2072 3116 2288 3116 
Q 2813 3116 3150 2769 
Q 3488 2422 3488 1819 
Q 3488 1291 3256 845 
Q 3025 400 2620 161 
Q 2216 -78 1747 -78 
Q 1353 -78 1050 100 
Q 747 278 595 590 
Q 444 903 444 1216 
Q 444 1247 447 1309 
z
" transform="scale(0.015625)"/>
       </defs>
       <use xlink:href="#Arial-ItalicMT-44"/>
       <use xlink:href="#Arial-ItalicMT-42" x="72.216797"/>
       <use xlink:href="#Arial-ItalicMT-54" x="138.916016"/>
       <use xlink:href="#Arial-ItalicMT-4c" x="200"/>
       <use xlink:href="#Arial-ItalicMT-2d" x="255.615234"/>
       <use xlink:href="#Arial-ItalicMT-35" x="288.916016"/>
      </g>
     </g>
    </g>
    <g id="xtick_7">
     <g id="line2d_7">
      <g>
       <use xlink:href="#mef86321422" x="119.234274" y="118.08" style="fill: #262626; stroke: #262626; stroke-width: 0.5"/>
      </g>
     </g>
     <g id="text_7">
      <!-- DBTL-6 -->
      <g style="fill: #262626" transform="translate(121.224845 156.607703) rotate(-90) scale(0.077 -0.077)">
       <defs>
        <path id="Arial-ItalicMT-36" d="M 1288 2656 
Q 1525 2853 1761 2951 
Q 1997 3050 2228 3050 
Q 2750 3050 3090 2694 
Q 3431 2338 3431 1734 
Q 3431 956 2925 400 
Q 2488 -78 1863 -78 
Q 1294 -78 914 339 
Q 534 756 534 1528 
Q 534 2219 778 2956 
Q 966 3522 1242 3889 
Q 1519 4256 1830 4428 
Q 2141 4600 2531 4600 
Q 3000 4600 3297 4308 
Q 3594 4016 3634 3472 
L 3109 3422 
Q 3066 3794 2898 3959 
Q 2731 4125 2491 4125 
Q 2238 4125 1981 3928 
Q 1725 3731 1540 3345 
Q 1356 2959 1288 2656 
z
M 1091 1288 
Q 1091 900 1331 636 
Q 1572 372 1875 372 
Q 2088 372 2325 533 
Q 2563 694 2728 1022 
Q 2894 1350 2894 1675 
Q 2894 2094 2664 2345 
Q 2434 2597 2109 2597 
Q 1734 2597 1412 2230 
Q 1091 1863 1091 1288 
z
" transform="scale(0.015625)"/>
       </defs>
       <use xlink:href="#Arial-ItalicMT-44"/>
       <use xlink:href="#Arial-ItalicMT-42" x="72.216797"/>
       <use xlink:href="#Arial-ItalicMT-54" x="138.916016"/>
       <use xlink:href="#Arial-ItalicMT-4c" x="200"/>
       <use xlink:href="#Arial-ItalicMT-2d" x="255.615234"/>
       <use xlink:href="#Arial-ItalicMT-36" x="288.916016"/>
      </g>
     </g>
    </g>
    <g id="text_8">
     <!-- Cycle -->
     <g transform="translate(72.776672 177.722641) scale(0.084 -0.084)">
      <defs>
       <path id="ArialMT-43" d="M 3763 1606 
L 4369 1453 
Q 4178 706 3683 314 
Q 3188 -78 2472 -78 
Q 1731 -78 1267 223 
Q 803 525 561 1097 
Q 319 1669 319 2325 
Q 319 3041 592 3573 
Q 866 4106 1370 4382 
Q 1875 4659 2481 4659 
Q 3169 4659 3637 4309 
Q 4106 3959 4291 3325 
L 3694 3184 
Q 3534 3684 3231 3912 
Q 2928 4141 2469 4141 
Q 1941 4141 1586 3887 
Q 1231 3634 1087 3207 
Q 944 2781 944 2328 
Q 944 1744 1114 1308 
Q 1284 872 1643 656 
Q 2003 441 2422 441 
Q 2931 441 3284 734 
Q 3638 1028 3763 1606 
z
" transform="scale(0.015625)"/>
       <path id="ArialMT-79" d="M 397 -1278 
L 334 -750 
Q 519 -800 656 -800 
Q 844 -800 956 -737 
Q 1069 -675 1141 -563 
Q 1194 -478 1313 -144 
Q 1328 -97 1363 -6 
L 103 3319 
L 709 3319 
L 1400 1397 
Q 1534 1031 1641 628 
Q 1738 1016 1872 1384 
L 2581 3319 
L 3144 3319 
L 1881 -56 
Q 1678 -603 1566 -809 
Q 1416 -1088 1222 -1217 
Q 1028 -1347 759 -1347 
Q 597 -1347 397 -1278 
z
" transform="scale(0.015625)"/>
       <path id="ArialMT-63" d="M 2588 1216 
L 3141 1144 
Q 3050 572 2676 248 
Q 2303 -75 1759 -75 
Q 1078 -75 664 370 
Q 250 816 250 1647 
Q 250 2184 428 2587 
Q 606 2991 970 3192 
Q 1334 3394 1763 3394 
Q 2303 3394 2647 3120 
Q 2991 2847 3088 2344 
L 2541 2259 
Q 2463 2594 2264 2762 
Q 2066 2931 1784 2931 
Q 1359 2931 1093 2626 
Q 828 2322 828 1663 
Q 828 994 1084 691 
Q 1341 388 1753 388 
Q 2084 388 2306 591 
Q 2528 794 2588 1216 
z
" transform="scale(0.015625)"/>
       <path id="ArialMT-6c" d="M 409 0 
L 409 4581 
L 972 4581 
L 972 0 
L 409 0 
z
" transform="scale(0.015625)"/>
       <path id="ArialMT-65" d="M 2694 1069 
L 3275 997 
Q 3138 488 2766 206 
Q 2394 -75 1816 -75 
Q 1088 -75 661 373 
Q 234 822 234 1631 
Q 234 2469 665 2931 
Q 1097 3394 1784 3394 
Q 2450 3394 2872 2941 
Q 3294 2488 3294 1666 
Q 3294 1616 3291 1516 
L 816 1516 
Q 847 969 1125 678 
Q 1403 388 1819 388 
Q 2128 388 2347 550 
Q 2566 713 2694 1069 
z
M 847 1978 
L 2700 1978 
Q 2663 2397 2488 2606 
Q 2219 2931 1791 2931 
Q 1403 2931 1139 2672 
Q 875 2413 847 1978 
z
" transform="scale(0.015625)"/>
      </defs>
      <use xlink:href="#ArialMT-43"/>
      <use xlink:href="#ArialMT-79" x="72.216797"/>
      <use xlink:href="#ArialMT-63" x="122.216797"/>
      <use xlink:href="#ArialMT-6c" x="172.216797"/>
      <use xlink:href="#ArialMT-65" x="194.433594"/>
     </g>
    </g>
   </g>
   <g id="matplotlib.axis_2">
    <g id="ytick_1">
     <g id="line2d_8">
      <defs>
       <path id="m3cca36181b" d="M 0 0 
L 4 0 
" style="stroke: #262626; stroke-width: 0.5"/>
      </defs>
      <g>
       <use xlink:href="#m3cca36181b" x="41.428641" y="118.08" style="fill: #262626; stroke: #262626; stroke-width: 0.5"/>
      </g>
     </g>
     <g id="text_9">
      <!-- 0 -->
      <g style="fill: #262626" transform="translate(33.646719 120.835758) scale(0.077 -0.077)">
       <defs>
        <path id="ArialMT-30" d="M 266 2259 
Q 266 3072 433 3567 
Q 600 4063 929 4331 
Q 1259 4600 1759 4600 
Q 2128 4600 2406 4451 
Q 2684 4303 2865 4023 
Q 3047 3744 3150 3342 
Q 3253 2941 3253 2259 
Q 3253 1453 3087 958 
Q 2922 463 2592 192 
Q 2263 -78 1759 -78 
Q 1097 -78 719 397 
Q 266 969 266 2259 
z
M 844 2259 
Q 844 1131 1108 757 
Q 1372 384 1759 384 
Q 2147 384 2411 759 
Q 2675 1134 2675 2259 
Q 2675 3391 2411 3762 
Q 2147 4134 1753 4134 
Q 1366 4134 1134 3806 
Q 844 3388 844 2259 
z
" transform="scale(0.015625)"/>
       </defs>
       <use xlink:href="#ArialMT-30"/>
      </g>
     </g>
    </g>
    <g id="ytick_2">
     <g id="line2d_9">
      <g>
       <use xlink:href="#m3cca36181b" x="41.428641" y="93.44" style="fill: #262626; stroke: #262626; stroke-width: 0.5"/>
      </g>
     </g>
     <g id="text_10">
      <!-- 50 -->
      <g style="fill: #262626" transform="translate(29.364797 96.195758) scale(0.077 -0.077)">
       <defs>
        <path id="ArialMT-35" d="M 266 1200 
L 856 1250 
Q 922 819 1161 601 
Q 1400 384 1738 384 
Q 2144 384 2425 690 
Q 2706 997 2706 1503 
Q 2706 1984 2436 2262 
Q 2166 2541 1728 2541 
Q 1456 2541 1237 2417 
Q 1019 2294 894 2097 
L 366 2166 
L 809 4519 
L 3088 4519 
L 3088 3981 
L 1259 3981 
L 1013 2750 
Q 1425 3038 1878 3038 
Q 2478 3038 2890 2622 
Q 3303 2206 3303 1553 
Q 3303 931 2941 478 
Q 2500 -78 1738 -78 
Q 1113 -78 717 272 
Q 322 622 266 1200 
z
" transform="scale(0.015625)"/>
       </defs>
       <use xlink:href="#ArialMT-35"/>
       <use xlink:href="#ArialMT-30" x="55.615234"/>
      </g>
     </g>
    </g>
    <g id="ytick_3">
     <g id="line2d_10">
      <g>
       <use xlink:href="#m3cca36181b" x="41.428641" y="68.8" style="fill: #262626; stroke: #262626; stroke-width: 0.5"/>
      </g>
     </g>
     <g id="text_11">
      <!-- 100 -->
      <g style="fill: #262626" transform="translate(25.082875 71.555758) scale(0.077 -0.077)">
       <defs>
        <path id="ArialMT-31" d="M 2384 0 
L 1822 0 
L 1822 3584 
Q 1619 3391 1289 3197 
Q 959 3003 697 2906 
L 697 3450 
Q 1169 3672 1522 3987 
Q 1875 4303 2022 4600 
L 2384 4600 
L 2384 0 
z
" transform="scale(0.015625)"/>
       </defs>
       <use xlink:href="#ArialMT-31"/>
       <use xlink:href="#ArialMT-30" x="55.615234"/>
       <use xlink:href="#ArialMT-30" x="111.230469"/>
      </g>
     </g>
    </g>
    <g id="ytick_4">
     <g id="line2d_11">
      <g>
       <use xlink:href="#m3cca36181b" x="41.428641" y="44.16" style="fill: #262626; stroke: #262626; stroke-width: 0.5"/>
      </g>
     </g>
     <g id="text_12">
      <!-- 150 -->
      <g style="fill: #262626" transform="translate(25.082875 46.915758) scale(0.077 -0.077)">
       <use xlink:href="#ArialMT-31"/>
       <use xlink:href="#ArialMT-35" x="55.615234"/>
       <use xlink:href="#ArialMT-30" x="111.230469"/>
      </g>
     </g>
    </g>
    <g id="ytick_5">
     <g id="line2d_12">
      <g>
       <use xlink:href="#m3cca36181b" x="41.428641" y="19.52" style="fill: #262626; stroke: #262626; stroke-width: 0.5"/>
      </g>
     </g>
     <g id="text_13">
      <!-- 200 -->
      <g style="fill: #262626" transform="translate(25.082875 22.275758) scale(0.077 -0.077)">
       <defs>
        <path id="ArialMT-32" d="M 3222 541 
L 3222 0 
L 194 0 
Q 188 203 259 391 
Q 375 700 629 1000 
Q 884 1300 1366 1694 
Q 2113 2306 2375 2664 
Q 2638 3022 2638 3341 
Q 2638 3675 2398 3904 
Q 2159 4134 1775 4134 
Q 1369 4134 1125 3890 
Q 881 3647 878 3216 
L 300 3275 
Q 359 3922 746 4261 
Q 1134 4600 1788 4600 
Q 2447 4600 2831 4234 
Q 3216 3869 3216 3328 
Q 3216 3053 3103 2787 
Q 2991 2522 2730 2228 
Q 2469 1934 1863 1422 
Q 1356 997 1212 845 
Q 1069 694 975 541 
L 3222 541 
z
" transform="scale(0.015625)"/>
       </defs>
       <use xlink:href="#ArialMT-32"/>
       <use xlink:href="#ArialMT-30" x="55.615234"/>
       <use xlink:href="#ArialMT-30" x="111.230469"/>
      </g>
     </g>
    </g>
    <g id="text_14">
     <!-- Control Titer (mg/L) -->
     <g transform="translate(13.314937 98.813813) rotate(-90) scale(0.084 -0.084)">
      <defs>
       <path id="ArialMT-6f" d="M 213 1659 
Q 213 2581 725 3025 
Q 1153 3394 1769 3394 
Q 2453 3394 2887 2945 
Q 3322 2497 3322 1706 
Q 3322 1066 3130 698 
Q 2938 331 2570 128 
Q 2203 -75 1769 -75 
Q 1072 -75 642 372 
Q 213 819 213 1659 
z
M 791 1659 
Q 791 1022 1069 705 
Q 1347 388 1769 388 
Q 2188 388 2466 706 
Q 2744 1025 2744 1678 
Q 2744 2294 2464 2611 
Q 2184 2928 1769 2928 
Q 1347 2928 1069 2612 
Q 791 2297 791 1659 
z
" transform="scale(0.015625)"/>
       <path id="ArialMT-6e" d="M 422 0 
L 422 3319 
L 928 3319 
L 928 2847 
Q 1294 3394 1984 3394 
Q 2284 3394 2536 3286 
Q 2788 3178 2913 3003 
Q 3038 2828 3088 2588 
Q 3119 2431 3119 2041 
L 3119 0 
L 2556 0 
L 2556 2019 
Q 2556 2363 2490 2533 
Q 2425 2703 2258 2804 
Q 2091 2906 1866 2906 
Q 1506 2906 1245 2678 
Q 984 2450 984 1813 
L 984 0 
L 422 0 
z
" transform="scale(0.015625)"/>
       <path id="ArialMT-74" d="M 1650 503 
L 1731 6 
Q 1494 -44 1306 -44 
Q 1000 -44 831 53 
Q 663 150 594 308 
Q 525 466 525 972 
L 525 2881 
L 113 2881 
L 113 3319 
L 525 3319 
L 525 4141 
L 1084 4478 
L 1084 3319 
L 1650 3319 
L 1650 2881 
L 1084 2881 
L 1084 941 
Q 1084 700 1114 631 
Q 1144 563 1211 522 
Q 1278 481 1403 481 
Q 1497 481 1650 503 
z
" transform="scale(0.015625)"/>
       <path id="ArialMT-72" d="M 416 0 
L 416 3319 
L 922 3319 
L 922 2816 
Q 1116 3169 1280 3281 
Q 1444 3394 1641 3394 
Q 1925 3394 2219 3213 
L 2025 2691 
Q 1819 2813 1613 2813 
Q 1428 2813 1281 2702 
Q 1134 2591 1072 2394 
Q 978 2094 978 1738 
L 978 0 
L 416 0 
z
" transform="scale(0.015625)"/>
       <path id="ArialMT-20" transform="scale(0.015625)"/>
       <path id="ArialMT-54" d="M 1659 0 
L 1659 4041 
L 150 4041 
L 150 4581 
L 3781 4581 
L 3781 4041 
L 2266 4041 
L 2266 0 
L 1659 0 
z
" transform="scale(0.015625)"/>
       <path id="ArialMT-69" d="M 425 3934 
L 425 4581 
L 988 4581 
L 988 3934 
L 425 3934 
z
M 425 0 
L 425 3319 
L 988 3319 
L 988 0 
L 425 0 
z
" transform="scale(0.015625)"/>
       <path id="ArialMT-28" d="M 1497 -1347 
Q 1031 -759 709 28 
Q 388 816 388 1659 
Q 388 2403 628 3084 
Q 909 3875 1497 4659 
L 1900 4659 
Q 1522 4009 1400 3731 
Q 1209 3300 1100 2831 
Q 966 2247 966 1656 
Q 966 153 1900 -1347 
L 1497 -1347 
z
" transform="scale(0.015625)"/>
       <path id="ArialMT-6d" d="M 422 0 
L 422 3319 
L 925 3319 
L 925 2853 
Q 1081 3097 1340 3245 
Q 1600 3394 1931 3394 
Q 2300 3394 2536 3241 
Q 2772 3088 2869 2813 
Q 3263 3394 3894 3394 
Q 4388 3394 4653 3120 
Q 4919 2847 4919 2278 
L 4919 0 
L 4359 0 
L 4359 2091 
Q 4359 2428 4304 2576 
Q 4250 2725 4106 2815 
Q 3963 2906 3769 2906 
Q 3419 2906 3187 2673 
Q 2956 2441 2956 1928 
L 2956 0 
L 2394 0 
L 2394 2156 
Q 2394 2531 2256 2718 
Q 2119 2906 1806 2906 
Q 1569 2906 1367 2781 
Q 1166 2656 1075 2415 
Q 984 2175 984 1722 
L 984 0 
L 422 0 
z
" transform="scale(0.015625)"/>
       <path id="ArialMT-67" d="M 319 -275 
L 866 -356 
Q 900 -609 1056 -725 
Q 1266 -881 1628 -881 
Q 2019 -881 2231 -725 
Q 2444 -569 2519 -288 
Q 2563 -116 2559 434 
Q 2191 0 1641 0 
Q 956 0 581 494 
Q 206 988 206 1678 
Q 206 2153 378 2554 
Q 550 2956 876 3175 
Q 1203 3394 1644 3394 
Q 2231 3394 2613 2919 
L 2613 3319 
L 3131 3319 
L 3131 450 
Q 3131 -325 2973 -648 
Q 2816 -972 2473 -1159 
Q 2131 -1347 1631 -1347 
Q 1038 -1347 672 -1080 
Q 306 -813 319 -275 
z
M 784 1719 
Q 784 1066 1043 766 
Q 1303 466 1694 466 
Q 2081 466 2343 764 
Q 2606 1063 2606 1700 
Q 2606 2309 2336 2618 
Q 2066 2928 1684 2928 
Q 1309 2928 1046 2623 
Q 784 2319 784 1719 
z
" transform="scale(0.015625)"/>
       <path id="ArialMT-2f" d="M 0 -78 
L 1328 4659 
L 1778 4659 
L 453 -78 
L 0 -78 
z
" transform="scale(0.015625)"/>
       <path id="ArialMT-4c" d="M 469 0 
L 469 4581 
L 1075 4581 
L 1075 541 
L 3331 541 
L 3331 0 
L 469 0 
z
" transform="scale(0.015625)"/>
       <path id="ArialMT-29" d="M 791 -1347 
L 388 -1347 
Q 1322 153 1322 1656 
Q 1322 2244 1188 2822 
Q 1081 3291 891 3722 
Q 769 4003 388 4659 
L 791 4659 
Q 1378 3875 1659 3084 
Q 1900 2403 1900 1659 
Q 1900 816 1576 28 
Q 1253 -759 791 -1347 
z
" transform="scale(0.015625)"/>
      </defs>
      <use xlink:href="#ArialMT-43"/>
      <use xlink:href="#ArialMT-6f" x="72.216797"/>
      <use xlink:href="#ArialMT-6e" x="127.832031"/>
      <use xlink:href="#ArialMT-74" x="183.447266"/>
      <use xlink:href="#ArialMT-72" x="211.230469"/>
      <use xlink:href="#ArialMT-6f" x="244.53125"/>
      <use xlink:href="#ArialMT-6c" x="300.146484"/>
      <use xlink:href="#ArialMT-20" x="322.363281"/>
      <use xlink:href="#ArialMT-54" x="348.396484"/>
      <use xlink:href="#ArialMT-69" x="405.730469"/>
      <use xlink:href="#ArialMT-74" x="427.947266"/>
      <use xlink:href="#ArialMT-65" x="455.730469"/>
      <use xlink:href="#ArialMT-72" x="511.345703"/>
      <use xlink:href="#ArialMT-20" x="544.646484"/>
      <use xlink:href="#ArialMT-28" x="572.429688"/>
      <use xlink:href="#ArialMT-6d" x="605.730469"/>
      <use xlink:href="#ArialMT-67" x="689.03125"/>
      <use xlink:href="#ArialMT-2f" x="744.646484"/>
      <use xlink:href="#ArialMT-4c" x="772.429688"/>
      <use xlink:href="#ArialMT-29" x="828.044922"/>
     </g>
    </g>
   </g>
   <g id="PathCollection_1">
    <defs>
     <path id="mfc5e703660" d="M 0 2.5 
C 0.663008 2.5 1.29895 2.236584 1.767767 1.767767 
C 2.236584 1.29895 2.5 0.663008 2.5 0 
C 2.5 -0.663008 2.236584 -1.29895 1.767767 -1.767767 
C 1.29895 -2.236584 0.663008 -2.5 0 -2.5 
C -0.663008 -2.5 -1.29895 -2.236584 -1.767767 -1.767767 
C -2.236584 -1.29895 -2.5 -0.663008 -2.5 0 
C -2.5 0.663008 -2.236584 1.29895 -1.767767 1.767767 
C -1.29895 2.236584 -0.663008 2.5 0 2.5 
z
" style="stroke: #000000; stroke-opacity: 0.7; stroke-width: 0.5"/>
    </defs>
    <g clip-path="url(#pe783309cdd)">
     <use xlink:href="#mfc5e703660" x="49.523261" y="30.688326" style="fill: #648fff; fill-opacity: 0.7; stroke: #000000; stroke-opacity: 0.7; stroke-width: 0.5"/>
     <use xlink:href="#mfc5e703660" x="47.430529" y="27.251572" style="fill: #648fff; fill-opacity: 0.7; stroke: #000000; stroke-opacity: 0.7; stroke-width: 0.5"/>
     <use xlink:href="#mfc5e703660" x="47.723327" y="20.60853" style="fill: #648fff; fill-opacity: 0.7; stroke: #000000; stroke-opacity: 0.7; stroke-width: 0.5"/>
     <use xlink:href="#mfc5e703660" x="49.538309" y="43.721079" style="fill: #648fff; fill-opacity: 0.7; stroke: #000000; stroke-opacity: 0.7; stroke-width: 0.5"/>
     <use xlink:href="#mfc5e703660" x="48.858814" y="35.276196" style="fill: #648fff; fill-opacity: 0.7; stroke: #000000; stroke-opacity: 0.7; stroke-width: 0.5"/>
     <use xlink:href="#mfc5e703660" x="48.680132" y="30.762936" style="fill: #648fff; fill-opacity: 0.7; stroke: #000000; stroke-opacity: 0.7; stroke-width: 0.5"/>
     <use xlink:href="#mfc5e703660" x="48.266052" y="57.048428" style="fill: #648fff; fill-opacity: 0.7; stroke: #000000; stroke-opacity: 0.7; stroke-width: 0.5"/>
     <use xlink:href="#mfc5e703660" x="47.466134" y="23.148421" style="fill: #648fff; fill-opacity: 0.7; stroke: #000000; stroke-opacity: 0.7; stroke-width: 0.5"/>
     <use xlink:href="#mfc5e703660" x="48.905923" y="31.280639" style="fill: #648fff; fill-opacity: 0.7; stroke: #000000; stroke-opacity: 0.7; stroke-width: 0.5"/>
     <use xlink:href="#mfc5e703660" x="48.900659" y="18.187075" style="fill: #648fff; fill-opacity: 0.7; stroke: #000000; stroke-opacity: 0.7; stroke-width: 0.5"/>
     <use xlink:href="#mfc5e703660" x="47.940362" y="36.508984" style="fill: #648fff; fill-opacity: 0.7; stroke: #000000; stroke-opacity: 0.7; stroke-width: 0.5"/>
     <use xlink:href="#mfc5e703660" x="48.141217" y="38.184669" style="fill: #648fff; fill-opacity: 0.7; stroke: #000000; stroke-opacity: 0.7; stroke-width: 0.5"/>
     <use xlink:href="#mfc5e703660" x="48.972193" y="38.08946" style="fill: #648fff; fill-opacity: 0.7; stroke: #000000; stroke-opacity: 0.7; stroke-width: 0.5"/>
     <use xlink:href="#mfc5e703660" x="49.180863" y="50.847362" style="fill: #648fff; fill-opacity: 0.7; stroke: #000000; stroke-opacity: 0.7; stroke-width: 0.5"/>
     <use xlink:href="#mfc5e703660" x="49.497084" y="38.405969" style="fill: #648fff; fill-opacity: 0.7; stroke: #000000; stroke-opacity: 0.7; stroke-width: 0.5"/>
     <use xlink:href="#mfc5e703660" x="48.131566" y="34.596822" style="fill: #648fff; fill-opacity: 0.7; stroke: #000000; stroke-opacity: 0.7; stroke-width: 0.5"/>
     <use xlink:href="#mfc5e703660" x="49.330057" y="28.447696" style="fill: #648fff; fill-opacity: 0.7; stroke: #000000; stroke-opacity: 0.7; stroke-width: 0.5"/>
     <use xlink:href="#mfc5e703660" x="48.164754" y="36.495317" style="fill: #648fff; fill-opacity: 0.7; stroke: #000000; stroke-opacity: 0.7; stroke-width: 0.5"/>
    </g>
   </g>
   <g id="PathCollection_2">
    <g clip-path="url(#pe783309cdd)">
     <use xlink:href="#mfc5e703660" x="60.957159" y="42.261833" style="fill: #648fff; fill-opacity: 0.7; stroke: #000000; stroke-opacity: 0.7; stroke-width: 0.5"/>
     <use xlink:href="#mfc5e703660" x="60.398477" y="39.823114" style="fill: #648fff; fill-opacity: 0.7; stroke: #000000; stroke-opacity: 0.7; stroke-width: 0.5"/>
     <use xlink:href="#mfc5e703660" x="59.726458" y="29.618704" style="fill: #648fff; fill-opacity: 0.7; stroke: #000000; stroke-opacity: 0.7; stroke-width: 0.5"/>
     <use xlink:href="#mfc5e703660" x="60.936875" y="45.429896" style="fill: #648fff; fill-opacity: 0.7; stroke: #000000; stroke-opacity: 0.7; stroke-width: 0.5"/>
     <use xlink:href="#mfc5e703660" x="60.066039" y="44.20583" style="fill: #648fff; fill-opacity: 0.7; stroke: #000000; stroke-opacity: 0.7; stroke-width: 0.5"/>
     <use xlink:href="#mfc5e703660" x="60.305323" y="45.203603" style="fill: #648fff; fill-opacity: 0.7; stroke: #000000; stroke-opacity: 0.7; stroke-width: 0.5"/>
     <use xlink:href="#mfc5e703660" x="60.006037" y="46.853201" style="fill: #648fff; fill-opacity: 0.7; stroke: #000000; stroke-opacity: 0.7; stroke-width: 0.5"/>
     <use xlink:href="#mfc5e703660" x="61.285304" y="45.91146" style="fill: #648fff; fill-opacity: 0.7; stroke: #000000; stroke-opacity: 0.7; stroke-width: 0.5"/>
     <use xlink:href="#mfc5e703660" x="61.322838" y="46.610349" style="fill: #648fff; fill-opacity: 0.7; stroke: #000000; stroke-opacity: 0.7; stroke-width: 0.5"/>
     <use xlink:href="#mfc5e703660" x="59.234026" y="37.097831" style="fill: #648fff; fill-opacity: 0.7; stroke: #000000; stroke-opacity: 0.7; stroke-width: 0.5"/>
     <use xlink:href="#mfc5e703660" x="60.708345" y="41.781796" style="fill: #648fff; fill-opacity: 0.7; stroke: #000000; stroke-opacity: 0.7; stroke-width: 0.5"/>
     <use xlink:href="#mfc5e703660" x="61.137181" y="39.088546" style="fill: #648fff; fill-opacity: 0.7; stroke: #000000; stroke-opacity: 0.7; stroke-width: 0.5"/>
    </g>
   </g>
   <g id="PathCollection_3">
    <g clip-path="url(#pe783309cdd)">
     <use xlink:href="#mfc5e703660" x="72.415631" y="42.831313" style="fill: #648fff; fill-opacity: 0.7; stroke: #000000; stroke-opacity: 0.7; stroke-width: 0.5"/>
     <use xlink:href="#mfc5e703660" x="71.243802" y="34.386988" style="fill: #648fff; fill-opacity: 0.7; stroke: #000000; stroke-opacity: 0.7; stroke-width: 0.5"/>
     <use xlink:href="#mfc5e703660" x="72.403868" y="42.679136" style="fill: #648fff; fill-opacity: 0.7; stroke: #000000; stroke-opacity: 0.7; stroke-width: 0.5"/>
     <use xlink:href="#mfc5e703660" x="73.151486" y="37.587181" style="fill: #648fff; fill-opacity: 0.7; stroke: #000000; stroke-opacity: 0.7; stroke-width: 0.5"/>
     <use xlink:href="#mfc5e703660" x="71.778004" y="34.493087" style="fill: #648fff; fill-opacity: 0.7; stroke: #000000; stroke-opacity: 0.7; stroke-width: 0.5"/>
     <use xlink:href="#mfc5e703660" x="71.130705" y="30.896584" style="fill: #648fff; fill-opacity: 0.7; stroke: #000000; stroke-opacity: 0.7; stroke-width: 0.5"/>
     <use xlink:href="#mfc5e703660" x="71.069219" y="47.479008" style="fill: #648fff; fill-opacity: 0.7; stroke: #000000; stroke-opacity: 0.7; stroke-width: 0.5"/>
     <use xlink:href="#mfc5e703660" x="71.121211" y="46.378536" style="fill: #648fff; fill-opacity: 0.7; stroke: #000000; stroke-opacity: 0.7; stroke-width: 0.5"/>
     <use xlink:href="#mfc5e703660" x="72.004701" y="55.285551" style="fill: #648fff; fill-opacity: 0.7; stroke: #000000; stroke-opacity: 0.7; stroke-width: 0.5"/>
     <use xlink:href="#mfc5e703660" x="70.942496" y="35.049853" style="fill: #648fff; fill-opacity: 0.7; stroke: #000000; stroke-opacity: 0.7; stroke-width: 0.5"/>
     <use xlink:href="#mfc5e703660" x="71.342698" y="33.113543" style="fill: #648fff; fill-opacity: 0.7; stroke: #000000; stroke-opacity: 0.7; stroke-width: 0.5"/>
     <use xlink:href="#mfc5e703660" x="71.069257" y="49.920931" style="fill: #648fff; fill-opacity: 0.7; stroke: #000000; stroke-opacity: 0.7; stroke-width: 0.5"/>
    </g>
   </g>
   <g id="PathCollection_4">
    <g clip-path="url(#pe783309cdd)">
     <use xlink:href="#mfc5e703660" x="84.088621" y="25.655705" style="fill: #648fff; fill-opacity: 0.7; stroke: #000000; stroke-opacity: 0.7; stroke-width: 0.5"/>
     <use xlink:href="#mfc5e703660" x="83.655944" y="45.468335" style="fill: #648fff; fill-opacity: 0.7; stroke: #000000; stroke-opacity: 0.7; stroke-width: 0.5"/>
     <use xlink:href="#mfc5e703660" x="84.997315" y="48.121126" style="fill: #648fff; fill-opacity: 0.7; stroke: #000000; stroke-opacity: 0.7; stroke-width: 0.5"/>
     <use xlink:href="#mfc5e703660" x="83.472268" y="46.675251" style="fill: #648fff; fill-opacity: 0.7; stroke: #000000; stroke-opacity: 0.7; stroke-width: 0.5"/>
     <use xlink:href="#mfc5e703660" x="84.347127" y="26.268058" style="fill: #648fff; fill-opacity: 0.7; stroke: #000000; stroke-opacity: 0.7; stroke-width: 0.5"/>
     <use xlink:href="#mfc5e703660" x="84.576116" y="28.381628" style="fill: #648fff; fill-opacity: 0.7; stroke: #000000; stroke-opacity: 0.7; stroke-width: 0.5"/>
     <use xlink:href="#mfc5e703660" x="84.3879" y="28.335551" style="fill: #648fff; fill-opacity: 0.7; stroke: #000000; stroke-opacity: 0.7; stroke-width: 0.5"/>
     <use xlink:href="#mfc5e703660" x="83.535578" y="32.648783" style="fill: #648fff; fill-opacity: 0.7; stroke: #000000; stroke-opacity: 0.7; stroke-width: 0.5"/>
     <use xlink:href="#mfc5e703660" x="83.243371" y="36.09454" style="fill: #648fff; fill-opacity: 0.7; stroke: #000000; stroke-opacity: 0.7; stroke-width: 0.5"/>
     <use xlink:href="#mfc5e703660" x="82.901597" y="26.811863" style="fill: #648fff; fill-opacity: 0.7; stroke: #000000; stroke-opacity: 0.7; stroke-width: 0.5"/>
     <use xlink:href="#mfc5e703660" x="84.260962" y="37.090242" style="fill: #648fff; fill-opacity: 0.7; stroke: #000000; stroke-opacity: 0.7; stroke-width: 0.5"/>
     <use xlink:href="#mfc5e703660" x="84.731204" y="37.007452" style="fill: #648fff; fill-opacity: 0.7; stroke: #000000; stroke-opacity: 0.7; stroke-width: 0.5"/>
    </g>
   </g>
   <g id="PathCollection_5">
    <g clip-path="url(#pe783309cdd)">
     <use xlink:href="#mfc5e703660" x="95.988317" y="41.659484" style="fill: #648fff; fill-opacity: 0.7; stroke: #000000; stroke-opacity: 0.7; stroke-width: 0.5"/>
     <use xlink:href="#mfc5e703660" x="95.038307" y="43.086682" style="fill: #648fff; fill-opacity: 0.7; stroke: #000000; stroke-opacity: 0.7; stroke-width: 0.5"/>
     <use xlink:href="#mfc5e703660" x="95.712473" y="48.509946" style="fill: #648fff; fill-opacity: 0.7; stroke: #000000; stroke-opacity: 0.7; stroke-width: 0.5"/>
     <use xlink:href="#mfc5e703660" x="94.711342" y="37.685495" style="fill: #648fff; fill-opacity: 0.7; stroke: #000000; stroke-opacity: 0.7; stroke-width: 0.5"/>
     <use xlink:href="#mfc5e703660" x="95.269551" y="45.179997" style="fill: #648fff; fill-opacity: 0.7; stroke: #000000; stroke-opacity: 0.7; stroke-width: 0.5"/>
     <use xlink:href="#mfc5e703660" x="96.551777" y="44.057744" style="fill: #648fff; fill-opacity: 0.7; stroke: #000000; stroke-opacity: 0.7; stroke-width: 0.5"/>
     <use xlink:href="#mfc5e703660" x="94.513032" y="40.872876" style="fill: #648fff; fill-opacity: 0.7; stroke: #000000; stroke-opacity: 0.7; stroke-width: 0.5"/>
     <use xlink:href="#mfc5e703660" x="96.199567" y="41.499915" style="fill: #648fff; fill-opacity: 0.7; stroke: #000000; stroke-opacity: 0.7; stroke-width: 0.5"/>
     <use xlink:href="#mfc5e703660" x="94.537471" y="40.205822" style="fill: #648fff; fill-opacity: 0.7; stroke: #000000; stroke-opacity: 0.7; stroke-width: 0.5"/>
     <use xlink:href="#mfc5e703660" x="96.141929" y="38.102355" style="fill: #648fff; fill-opacity: 0.7; stroke: #000000; stroke-opacity: 0.7; stroke-width: 0.5"/>
     <use xlink:href="#mfc5e703660" x="94.90294" y="43.911974" style="fill: #648fff; fill-opacity: 0.7; stroke: #000000; stroke-opacity: 0.7; stroke-width: 0.5"/>
     <use xlink:href="#mfc5e703660" x="94.811615" y="48.262806" style="fill: #648fff; fill-opacity: 0.7; stroke: #000000; stroke-opacity: 0.7; stroke-width: 0.5"/>
    </g>
   </g>
   <g id="PathCollection_6">
    <g clip-path="url(#pe783309cdd)">
     <use xlink:href="#mfc5e703660" x="106.608116" y="39.780191" style="fill: #648fff; fill-opacity: 0.7; stroke: #000000; stroke-opacity: 0.7; stroke-width: 0.5"/>
     <use xlink:href="#mfc5e703660" x="107.817406" y="32.701513" style="fill: #648fff; fill-opacity: 0.7; stroke: #000000; stroke-opacity: 0.7; stroke-width: 0.5"/>
     <use xlink:href="#mfc5e703660" x="106.390324" y="34.547492" style="fill: #648fff; fill-opacity: 0.7; stroke: #000000; stroke-opacity: 0.7; stroke-width: 0.5"/>
     <use xlink:href="#mfc5e703660" x="106.314686" y="42.362118" style="fill: #648fff; fill-opacity: 0.7; stroke: #000000; stroke-opacity: 0.7; stroke-width: 0.5"/>
     <use xlink:href="#mfc5e703660" x="107.10986" y="39.163353" style="fill: #648fff; fill-opacity: 0.7; stroke: #000000; stroke-opacity: 0.7; stroke-width: 0.5"/>
     <use xlink:href="#mfc5e703660" x="107.12319" y="29.762749" style="fill: #648fff; fill-opacity: 0.7; stroke: #000000; stroke-opacity: 0.7; stroke-width: 0.5"/>
     <use xlink:href="#mfc5e703660" x="108.274407" y="36.913622" style="fill: #648fff; fill-opacity: 0.7; stroke: #000000; stroke-opacity: 0.7; stroke-width: 0.5"/>
     <use xlink:href="#mfc5e703660" x="108.487937" y="32.229411" style="fill: #648fff; fill-opacity: 0.7; stroke: #000000; stroke-opacity: 0.7; stroke-width: 0.5"/>
     <use xlink:href="#mfc5e703660" x="107.747851" y="40.375641" style="fill: #648fff; fill-opacity: 0.7; stroke: #000000; stroke-opacity: 0.7; stroke-width: 0.5"/>
     <use xlink:href="#mfc5e703660" x="106.888" y="42.993937" style="fill: #648fff; fill-opacity: 0.7; stroke: #000000; stroke-opacity: 0.7; stroke-width: 0.5"/>
     <use xlink:href="#mfc5e703660" x="108.353523" y="42.3565" style="fill: #648fff; fill-opacity: 0.7; stroke: #000000; stroke-opacity: 0.7; stroke-width: 0.5"/>
     <use xlink:href="#mfc5e703660" x="107.482918" y="39.738549" style="fill: #648fff; fill-opacity: 0.7; stroke: #000000; stroke-opacity: 0.7; stroke-width: 0.5"/>
    </g>
   </g>
   <g id="PathCollection_7">
    <g clip-path="url(#pe783309cdd)">
     <use xlink:href="#mfc5e703660" x="119.714" y="41.788301" style="fill: #648fff; fill-opacity: 0.7; stroke: #000000; stroke-opacity: 0.7; stroke-width: 0.5"/>
     <use xlink:href="#mfc5e703660" x="120.175939" y="52.767294" style="fill: #648fff; fill-opacity: 0.7; stroke: #000000; stroke-opacity: 0.7; stroke-width: 0.5"/>
     <use xlink:href="#mfc5e703660" x="118.91819" y="40.35519" style="fill: #648fff; fill-opacity: 0.7; stroke: #000000; stroke-opacity: 0.7; stroke-width: 0.5"/>
     <use xlink:href="#mfc5e703660" x="118.757004" y="42.984968" style="fill: #648fff; fill-opacity: 0.7; stroke: #000000; stroke-opacity: 0.7; stroke-width: 0.5"/>
     <use xlink:href="#mfc5e703660" x="120.0307" y="35.416348" style="fill: #648fff; fill-opacity: 0.7; stroke: #000000; stroke-opacity: 0.7; stroke-width: 0.5"/>
     <use xlink:href="#mfc5e703660" x="119.96663" y="40.80211" style="fill: #648fff; fill-opacity: 0.7; stroke: #000000; stroke-opacity: 0.7; stroke-width: 0.5"/>
     <use xlink:href="#mfc5e703660" x="120.201869" y="36.372972" style="fill: #648fff; fill-opacity: 0.7; stroke: #000000; stroke-opacity: 0.7; stroke-width: 0.5"/>
     <use xlink:href="#mfc5e703660" x="119.783538" y="43.335989" style="fill: #648fff; fill-opacity: 0.7; stroke: #000000; stroke-opacity: 0.7; stroke-width: 0.5"/>
     <use xlink:href="#mfc5e703660" x="120.239852" y="40.235292" style="fill: #648fff; fill-opacity: 0.7; stroke: #000000; stroke-opacity: 0.7; stroke-width: 0.5"/>
     <use xlink:href="#mfc5e703660" x="120.034328" y="42.806476" style="fill: #648fff; fill-opacity: 0.7; stroke: #000000; stroke-opacity: 0.7; stroke-width: 0.5"/>
     <use xlink:href="#mfc5e703660" x="120.198913" y="38.878909" style="fill: #648fff; fill-opacity: 0.7; stroke: #000000; stroke-opacity: 0.7; stroke-width: 0.5"/>
     <use xlink:href="#mfc5e703660" x="118.755671" y="43.457661" style="fill: #648fff; fill-opacity: 0.7; stroke: #000000; stroke-opacity: 0.7; stroke-width: 0.5"/>
    </g>
   </g>
   <g id="line2d_13">
    <path d="M 48.50188 44.202046 
L 48.50188 24.636785 
" clip-path="url(#pe783309cdd)" style="fill: none; stroke: #000000; stroke-width: 0.5; stroke-linecap: round"/>
   </g>
   <g id="line2d_14">
    <path d="M 47.912443 44.202046 
L 49.091317 44.202046 
" clip-path="url(#pe783309cdd)" style="fill: none; stroke: #000000; stroke-width: 0.5; stroke-linecap: round"/>
   </g>
   <g id="line2d_15">
    <path d="M 47.912443 24.636785 
L 49.091317 24.636785 
" clip-path="url(#pe783309cdd)" style="fill: none; stroke: #000000; stroke-width: 0.5; stroke-linecap: round"/>
   </g>
   <g id="line2d_16">
    <path d="M 60.290612 47.014634 
L 60.290612 36.966394 
" clip-path="url(#pe783309cdd)" style="fill: none; stroke: #000000; stroke-width: 0.5; stroke-linecap: round"/>
   </g>
   <g id="line2d_17">
    <path d="M 59.701176 47.014634 
L 60.880049 47.014634 
" clip-path="url(#pe783309cdd)" style="fill: none; stroke: #000000; stroke-width: 0.5; stroke-linecap: round"/>
   </g>
   <g id="line2d_18">
    <path d="M 59.701176 36.966394 
L 60.880049 36.966394 
" clip-path="url(#pe783309cdd)" style="fill: none; stroke: #000000; stroke-width: 0.5; stroke-linecap: round"/>
   </g>
   <g id="line2d_19">
    <path d="M 72.079345 48.575077 
L 72.079345 33.108541 
" clip-path="url(#pe783309cdd)" style="fill: none; stroke: #000000; stroke-width: 0.5; stroke-linecap: round"/>
   </g>
   <g id="line2d_20">
    <path d="M 71.489908 48.575077 
L 72.668781 48.575077 
" clip-path="url(#pe783309cdd)" style="fill: none; stroke: #000000; stroke-width: 0.5; stroke-linecap: round"/>
   </g>
   <g id="line2d_21">
    <path d="M 71.489908 33.108541 
L 72.668781 33.108541 
" clip-path="url(#pe783309cdd)" style="fill: none; stroke: #000000; stroke-width: 0.5; stroke-linecap: round"/>
   </g>
   <g id="line2d_22">
    <path d="M 83.868077 43.147226 
L 83.868077 26.61253 
" clip-path="url(#pe783309cdd)" style="fill: none; stroke: #000000; stroke-width: 0.5; stroke-linecap: round"/>
   </g>
   <g id="line2d_23">
    <path d="M 83.278641 43.147226 
L 84.457514 43.147226 
" clip-path="url(#pe783309cdd)" style="fill: none; stroke: #000000; stroke-width: 0.5; stroke-linecap: round"/>
   </g>
   <g id="line2d_24">
    <path d="M 83.278641 26.61253 
L 84.457514 26.61253 
" clip-path="url(#pe783309cdd)" style="fill: none; stroke: #000000; stroke-width: 0.5; stroke-linecap: round"/>
   </g>
   <g id="line2d_25">
    <path d="M 95.65681 46.225476 
L 95.65681 39.280374 
" clip-path="url(#pe783309cdd)" style="fill: none; stroke: #000000; stroke-width: 0.5; stroke-linecap: round"/>
   </g>
   <g id="line2d_26">
    <path d="M 95.067373 46.225476 
L 96.246246 46.225476 
" clip-path="url(#pe783309cdd)" style="fill: none; stroke: #000000; stroke-width: 0.5; stroke-linecap: round"/>
   </g>
   <g id="line2d_27">
    <path d="M 95.067373 39.280374 
L 96.246246 39.280374 
" clip-path="url(#pe783309cdd)" style="fill: none; stroke: #000000; stroke-width: 0.5; stroke-linecap: round"/>
   </g>
   <g id="line2d_28">
    <path d="M 107.445542 42.192181 
L 107.445542 33.295332 
" clip-path="url(#pe783309cdd)" style="fill: none; stroke: #000000; stroke-width: 0.5; stroke-linecap: round"/>
   </g>
   <g id="line2d_29">
    <path d="M 106.856105 42.192181 
L 108.034979 42.192181 
" clip-path="url(#pe783309cdd)" style="fill: none; stroke: #000000; stroke-width: 0.5; stroke-linecap: round"/>
   </g>
   <g id="line2d_30">
    <path d="M 106.856105 33.295332 
L 108.034979 33.295332 
" clip-path="url(#pe783309cdd)" style="fill: none; stroke: #000000; stroke-width: 0.5; stroke-linecap: round"/>
   </g>
   <g id="line2d_31">
    <path d="M 119.234274 45.985997 
L 119.234274 37.214255 
" clip-path="url(#pe783309cdd)" style="fill: none; stroke: #000000; stroke-width: 0.5; stroke-linecap: round"/>
   </g>
   <g id="line2d_32">
    <path d="M 118.644838 45.985997 
L 119.823711 45.985997 
" clip-path="url(#pe783309cdd)" style="fill: none; stroke: #000000; stroke-width: 0.5; stroke-linecap: round"/>
   </g>
   <g id="line2d_33">
    <path d="M 118.644838 37.214255 
L 119.823711 37.214255 
" clip-path="url(#pe783309cdd)" style="fill: none; stroke: #000000; stroke-width: 0.5; stroke-linecap: round"/>
   </g>
   <g id="patch_10">
    <path d="M 41.428641 118.08 
L 41.428641 7.2 
" style="fill: none; stroke: #000000; stroke-width: 0.5; stroke-linejoin: miter; stroke-linecap: square"/>
   </g>
   <g id="patch_11">
    <path d="M 125.128641 118.08 
L 125.128641 7.2 
" style="fill: none; stroke: #000000; stroke-width: 0.5; stroke-linejoin: miter; stroke-linecap: square"/>
   </g>
   <g id="patch_12">
    <path d="M 41.428641 118.08 
L 125.128641 118.08 
" style="fill: none; stroke: #000000; stroke-width: 0.5; stroke-linejoin: miter; stroke-linecap: square"/>
   </g>
   <g id="patch_13">
    <path d="M 41.428641 7.2 
L 125.128641 7.2 
" style="fill: none; stroke: #000000; stroke-width: 0.5; stroke-linejoin: miter; stroke-linecap: square"/>
   </g>
  </g>
 </g>
 <defs>
  <clipPath id="pe783309cdd">
   <rect x="41.428641" y="7.2" width="83.7" height="110.88"/>
  </clipPath>
 </defs>
</svg>
