<?xml version="1.0" encoding="utf-8" standalone="no"?>
<!DOCTYPE svg PUBLIC "-//W3C//DTD SVG 1.1//EN"
  "http://www.w3.org/Graphics/SVG/1.1/DTD/svg11.dtd">
<svg xmlns:xlink="http://www.w3.org/1999/xlink" width="243.928641pt" height="227.39782pt" viewBox="0 0 243.928641 227.39782" xmlns="http://www.w3.org/2000/svg" version="1.1">
 <metadata>
  <rdf:RDF xmlns:dc="http://purl.org/dc/elements/1.1/" xmlns:cc="http://creativecommons.org/ns#" xmlns:rdf="http://www.w3.org/1999/02/22-rdf-syntax-ns#">
   <cc:Work>
    <dc:type rdf:resource="http://purl.org/dc/dcmitype/StillImage"/>
    <dc:date>2025-02-27T09:08:17.596812</dc:date>
    <dc:format>image/svg+xml</dc:format>
    <dc:creator>
     <cc:Agent>
      <dc:title>Matplotlib v3.9.0, https://matplotlib.org/</dc:title>
     </cc:Agent>
    </dc:creator>
   </cc:Work>
  </rdf:RDF>
 </metadata>
 <defs>
  <style type="text/css">*{stroke-linejoin: round; stroke-linecap: butt}</style>
 </defs>
 <g id="figure_1">
  <g id="patch_1">
   <path d="M 0 227.39782 
L 243.928641 227.39782 
L 243.928641 0 
L 0 0 
z
" style="fill: #ffffff"/>
  </g>
  <g id="axes_1">
   <g id="patch_2">
    <path d="M 41.428641 148.555758 
L 236.728641 148.555758 
L 236.728641 9.955758 
L 41.428641 9.955758 
z
" style="fill: #ffffff"/>
   </g>
   <g id="patch_3">
    <path d="M 44.45186 148.555758 
L 54.126164 148.555758 
L 54.126164 75.658154 
L 44.45186 75.658154 
z
" clip-path="url(#p9de7b587dc)" style="fill: #648fff; stroke: #000000; stroke-width: 0.5; stroke-linejoin: miter"/>
   </g>
   <g id="patch_4">
    <path d="M 56.54474 148.555758 
L 66.219043 148.555758 
L 66.219043 79.073621 
L 56.54474 79.073621 
z
" clip-path="url(#p9de7b587dc)" style="fill: #648fff; stroke: #000000; stroke-width: 0.5; stroke-linejoin: miter"/>
   </g>
   <g id="patch_5">
    <path d="M 68.637619 148.555758 
L 78.311922 148.555758 
L 78.311922 27.296246 
L 68.637619 27.296246 
z
" clip-path="url(#p9de7b587dc)" style="fill: #648fff; stroke: #000000; stroke-width: 0.5; stroke-linejoin: miter"/>
   </g>
   <g id="patch_6">
    <path d="M 80.730498 148.555758 
L 90.404802 148.555758 
L 90.404802 83.55991 
L 80.730498 83.55991 
z
" clip-path="url(#p9de7b587dc)" style="fill: #648fff; stroke: #000000; stroke-width: 0.5; stroke-linejoin: miter"/>
   </g>
   <g id="patch_7">
    <path d="M 92.823377 148.555758 
L 102.497681 148.555758 
L 102.497681 73.313979 
L 92.823377 73.313979 
z
" clip-path="url(#p9de7b587dc)" style="fill: #648fff; stroke: #000000; stroke-width: 0.5; stroke-linejoin: miter"/>
   </g>
   <g id="patch_8">
    <path d="M 104.916257 148.555758 
L 114.59056 148.555758 
L 114.59056 83.278682 
L 104.916257 83.278682 
z
" clip-path="url(#p9de7b587dc)" style="fill: #648fff; stroke: #000000; stroke-width: 0.5; stroke-linejoin: miter"/>
   </g>
   <g id="patch_9">
    <path d="M 117.009136 148.555758 
L 126.683439 148.555758 
L 126.683439 52.337817 
L 117.009136 52.337817 
z
" clip-path="url(#p9de7b587dc)" style="fill: #648fff; stroke: #000000; stroke-width: 0.5; stroke-linejoin: miter"/>
   </g>
   <g id="patch_10">
    <path d="M 129.102015 148.555758 
L 138.776319 148.555758 
L 138.776319 68.790595 
L 129.102015 68.790595 
z
" clip-path="url(#p9de7b587dc)" style="fill: #648fff; stroke: #000000; stroke-width: 0.5; stroke-linejoin: miter"/>
   </g>
   <g id="patch_11">
    <path d="M 141.194894 148.555758 
L 150.869198 148.555758 
L 150.869198 101.701243 
L 141.194894 101.701243 
z
" clip-path="url(#p9de7b587dc)" style="fill: #648fff; stroke: #000000; stroke-width: 0.5; stroke-linejoin: miter"/>
   </g>
   <g id="patch_12">
    <path d="M 153.287774 148.555758 
L 162.962077 148.555758 
L 162.962077 76.614615 
L 153.287774 76.614615 
z
" clip-path="url(#p9de7b587dc)" style="fill: #648fff; stroke: #000000; stroke-width: 0.5; stroke-linejoin: miter"/>
   </g>
   <g id="patch_13">
    <path d="M 165.380653 148.555758 
L 175.054956 148.555758 
L 175.054956 76.442712 
L 165.380653 76.442712 
z
" clip-path="url(#p9de7b587dc)" style="fill: #648fff; stroke: #000000; stroke-width: 0.5; stroke-linejoin: miter"/>
   </g>
   <g id="patch_14">
    <path d="M 177.473532 148.555758 
L 187.147836 148.555758 
L 187.147836 98.660853 
L 177.473532 98.660853 
z
" clip-path="url(#p9de7b587dc)" style="fill: #648fff; stroke: #000000; stroke-width: 0.5; stroke-linejoin: miter"/>
   </g>
   <g id="patch_15">
    <path d="M 189.566412 148.555758 
L 199.240715 148.555758 
L 199.240715 58.805981 
L 189.566412 58.805981 
z
" clip-path="url(#p9de7b587dc)" style="fill: #648fff; stroke: #000000; stroke-width: 0.5; stroke-linejoin: miter"/>
   </g>
   <g id="patch_16">
    <path d="M 201.659291 148.555758 
L 211.333594 148.555758 
L 211.333594 38.156456 
L 201.659291 38.156456 
z
" clip-path="url(#p9de7b587dc)" style="fill: #648fff; stroke: #000000; stroke-width: 0.5; stroke-linejoin: miter"/>
   </g>
   <g id="patch_17">
    <path d="M 213.75217 148.555758 
L 223.426473 148.555758 
L 223.426473 76.887142 
L 213.75217 76.887142 
z
" clip-path="url(#p9de7b587dc)" style="fill: #648fff; stroke: #000000; stroke-width: 0.5; stroke-linejoin: miter"/>
   </g>
   <g id="patch_18">
    <path d="M 225.845049 148.555758 
L 235.519353 148.555758 
L 235.519353 96.267893 
L 225.845049 96.267893 
z
" clip-path="url(#p9de7b587dc)" style="fill: #648fff; stroke: #000000; stroke-width: 0.5; stroke-linejoin: miter"/>
   </g>
   <g id="matplotlib.axis_1">
    <g id="xtick_1">
     <g id="line2d_1">
      <defs>
       <path id="m818119a35d" d="M 0 5 
L 0 -5 
" style="stroke: #262626; stroke-width: 0.5"/>
      </defs>
      <g>
       <use xlink:href="#m818119a35d" x="49.289012" y="148.555758" style="fill: #262626; stroke: #262626; stroke-width: 0.5"/>
      </g>
     </g>
     <g id="text_1">
      <!-- $\Delta$PP_0368 -->
      <g style="fill: #262626" transform="translate(51.329512 197.515758) rotate(-90) scale(0.077 -0.077)">
       <defs>
        <path id="DejaVuSans-394" d="M 2188 4044 
L 906 525 
L 3472 525 
L 2188 4044 
z
M 50 0 
L 1831 4666 
L 2547 4666 
L 4325 0 
L 50 0 
z
" transform="scale(0.015625)"/>
        <path id="Arial-ItalicMT-50" d="M 275 0 
L 1234 4581 
L 3147 4581 
Q 3644 4581 3892 4467 
Q 4141 4353 4303 4076 
Q 4466 3800 4466 3456 
Q 4466 3172 4350 2878 
Q 4234 2584 4057 2393 
Q 3881 2203 3700 2106 
Q 3519 2009 3313 1963 
Q 2872 1859 2422 1859 
L 1275 1859 
L 888 0 
L 275 0 
z
M 1384 2378 
L 2394 2378 
Q 2981 2378 3256 2504 
Q 3531 2631 3697 2890 
Q 3863 3150 3863 3441 
Q 3863 3666 3775 3808 
Q 3688 3950 3528 4017 
Q 3369 4084 2916 4084 
L 1741 4084 
L 1384 2378 
z
" transform="scale(0.015625)"/>
        <path id="Arial-ItalicMT-5f" d="M -406 -1272 
L -406 -866 
L 3322 -866 
L 3322 -1272 
L -406 -1272 
z
" transform="scale(0.015625)"/>
        <path id="Arial-ItalicMT-30" d="M 453 1503 
Q 453 2084 626 2684 
Q 800 3284 1012 3643 
Q 1225 4003 1453 4206 
Q 1681 4409 1901 4504 
Q 2122 4600 2391 4600 
Q 2916 4600 3267 4209 
Q 3619 3819 3619 3081 
Q 3619 2322 3375 1578 
Q 3088 697 2575 256 
Q 2181 -78 1678 -78 
Q 1163 -78 808 326 
Q 453 731 453 1503 
z
M 1000 1359 
Q 1000 938 1141 700 
Q 1331 372 1706 372 
Q 2034 372 2303 669 
Q 2691 1088 2886 1895 
Q 3081 2703 3081 3216 
Q 3081 3709 2892 3928 
Q 2703 4147 2394 4147 
Q 2169 4147 1973 4031 
Q 1778 3916 1600 3634 
Q 1347 3238 1159 2447 
Q 1000 1772 1000 1359 
z
" transform="scale(0.015625)"/>
        <path id="Arial-ItalicMT-33" d="M 350 1200 
L 900 1269 
Q 963 788 1177 580 
Q 1391 372 1738 372 
Q 2156 372 2461 672 
Q 2766 972 2766 1359 
Q 2766 1697 2537 1917 
Q 2309 2138 1925 2138 
Q 1881 2138 1744 2125 
L 1841 2597 
Q 1922 2584 1997 2584 
Q 2481 2584 2742 2820 
Q 3003 3056 3003 3400 
Q 3003 3716 2789 3931 
Q 2575 4147 2266 4147 
Q 1963 4147 1720 3926 
Q 1478 3706 1409 3303 
L 853 3416 
Q 991 3981 1381 4290 
Q 1772 4600 2306 4600 
Q 2869 4600 3217 4259 
Q 3566 3919 3566 3422 
Q 3566 3059 3377 2789 
Q 3188 2519 2809 2341 
Q 3078 2181 3211 1956 
Q 3344 1731 3344 1441 
Q 3344 825 2883 373 
Q 2422 -78 1781 -78 
Q 1159 -78 776 270 
Q 394 619 350 1200 
z
" transform="scale(0.015625)"/>
        <path id="Arial-ItalicMT-36" d="M 1288 2656 
Q 1525 2853 1761 2951 
Q 1997 3050 2228 3050 
Q 2750 3050 3090 2694 
Q 3431 2338 3431 1734 
Q 3431 956 2925 400 
Q 2488 -78 1863 -78 
Q 1294 -78 914 339 
Q 534 756 534 1528 
Q 534 2219 778 2956 
Q 966 3522 1242 3889 
Q 1519 4256 1830 4428 
Q 2141 4600 2531 4600 
Q 3000 4600 3297 4308 
Q 3594 4016 3634 3472 
L 3109 3422 
Q 3066 3794 2898 3959 
Q 2731 4125 2491 4125 
Q 2238 4125 1981 3928 
Q 1725 3731 1540 3345 
Q 1356 2959 1288 2656 
z
M 1091 1288 
Q 1091 900 1331 636 
Q 1572 372 1875 372 
Q 2088 372 2325 533 
Q 2563 694 2728 1022 
Q 2894 1350 2894 1675 
Q 2894 2094 2664 2345 
Q 2434 2597 2109 2597 
Q 1734 2597 1412 2230 
Q 1091 1863 1091 1288 
z
" transform="scale(0.015625)"/>
        <path id="Arial-ItalicMT-38" d="M 1444 2519 
Q 1188 2659 1059 2879 
Q 931 3100 931 3353 
Q 931 3769 1231 4122 
Q 1631 4600 2316 4600 
Q 2919 4600 3266 4276 
Q 3613 3953 3613 3484 
Q 3613 3150 3425 2881 
Q 3238 2613 2838 2453 
Q 3113 2281 3231 2088 
Q 3384 1834 3384 1497 
Q 3384 881 2948 400 
Q 2513 -81 1788 -81 
Q 1209 -81 843 275 
Q 478 631 478 1166 
Q 478 1669 737 2030 
Q 997 2391 1444 2519 
z
M 1488 3328 
Q 1488 3034 1677 2854 
Q 1866 2675 2197 2675 
Q 2584 2675 2826 2911 
Q 3069 3147 3069 3491 
Q 3069 3781 2880 3964 
Q 2691 4147 2359 4147 
Q 2109 4147 1900 4031 
Q 1691 3916 1589 3717 
Q 1488 3519 1488 3328 
z
M 1047 1119 
Q 1047 928 1139 753 
Q 1231 578 1418 475 
Q 1606 372 1847 372 
Q 2306 372 2591 803 
Q 2816 1141 2816 1531 
Q 2816 1850 2608 2053 
Q 2400 2256 2063 2256 
Q 1638 2256 1342 1940 
Q 1047 1625 1047 1119 
z
" transform="scale(0.015625)"/>
       </defs>
       <use xlink:href="#DejaVuSans-394" transform="translate(0 0.09375)"/>
       <use xlink:href="#Arial-ItalicMT-50" transform="translate(68.408203 0.09375)"/>
       <use xlink:href="#Arial-ItalicMT-50" transform="translate(135.107422 0.09375)"/>
       <use xlink:href="#Arial-ItalicMT-5f" transform="translate(201.806641 0.09375)"/>
       <use xlink:href="#Arial-ItalicMT-30" transform="translate(257.421875 0.09375)"/>
       <use xlink:href="#Arial-ItalicMT-33" transform="translate(313.037109 0.09375)"/>
       <use xlink:href="#Arial-ItalicMT-36" transform="translate(368.652344 0.09375)"/>
       <use xlink:href="#Arial-ItalicMT-38" transform="translate(424.267578 0.09375)"/>
      </g>
     </g>
    </g>
    <g id="xtick_2">
     <g id="line2d_2">
      <g>
       <use xlink:href="#m818119a35d" x="61.381891" y="148.555758" style="fill: #262626; stroke: #262626; stroke-width: 0.5"/>
      </g>
     </g>
     <g id="text_2">
      <!-- $\Delta$PP_0437 -->
      <g style="fill: #262626" transform="translate(63.422391 197.515758) rotate(-90) scale(0.077 -0.077)">
       <defs>
        <path id="Arial-ItalicMT-34" d="M 1913 0 
L 2159 1169 
L 291 1169 
L 409 1728 
L 2975 4581 
L 3438 4581 
L 2828 1669 
L 3472 1669 
L 3369 1169 
L 2725 1169 
L 2478 0 
L 1913 0 
z
M 2263 1669 
L 2663 3581 
L 956 1669 
L 2263 1669 
z
" transform="scale(0.015625)"/>
        <path id="Arial-ItalicMT-37" d="M 928 0 
Q 1003 463 1247 1113 
Q 1538 1897 2009 2670 
Q 2481 3444 3059 4000 
L 775 4000 
L 884 4519 
L 3809 4519 
L 3703 4000 
Q 2959 3347 2403 2316 
Q 1756 1125 1519 0 
L 928 0 
z
" transform="scale(0.015625)"/>
       </defs>
       <use xlink:href="#DejaVuSans-394" transform="translate(0 0.09375)"/>
       <use xlink:href="#Arial-ItalicMT-50" transform="translate(68.408203 0.09375)"/>
       <use xlink:href="#Arial-ItalicMT-50" transform="translate(135.107422 0.09375)"/>
       <use xlink:href="#Arial-ItalicMT-5f" transform="translate(201.806641 0.09375)"/>
       <use xlink:href="#Arial-ItalicMT-30" transform="translate(257.421875 0.09375)"/>
       <use xlink:href="#Arial-ItalicMT-34" transform="translate(313.037109 0.09375)"/>
       <use xlink:href="#Arial-ItalicMT-33" transform="translate(368.652344 0.09375)"/>
       <use xlink:href="#Arial-ItalicMT-37" transform="translate(424.267578 0.09375)"/>
      </g>
     </g>
    </g>
    <g id="xtick_3">
     <g id="line2d_3">
      <g>
       <use xlink:href="#m818119a35d" x="73.474771" y="148.555758" style="fill: #262626; stroke: #262626; stroke-width: 0.5"/>
      </g>
     </g>
     <g id="text_3">
      <!-- $\Delta$PP_0528 -->
      <g style="fill: #262626" transform="translate(75.515271 197.515758) rotate(-90) scale(0.077 -0.077)">
       <defs>
        <path id="Arial-ItalicMT-35" d="M 447 1309 
L 1022 1366 
Q 1016 1244 1016 1219 
Q 1016 1013 1120 803 
Q 1225 594 1404 483 
Q 1584 372 1784 372 
Q 2047 372 2319 553 
Q 2591 734 2759 1081 
Q 2928 1428 2928 1769 
Q 2928 2153 2701 2384 
Q 2475 2616 2106 2616 
Q 1859 2616 1639 2497 
Q 1419 2378 1228 2141 
L 734 2175 
L 1425 4519 
L 3663 4519 
L 3553 4000 
L 1813 4000 
L 1469 2834 
Q 1663 2975 1867 3045 
Q 2072 3116 2288 3116 
Q 2813 3116 3150 2769 
Q 3488 2422 3488 1819 
Q 3488 1291 3256 845 
Q 3025 400 2620 161 
Q 2216 -78 1747 -78 
Q 1353 -78 1050 100 
Q 747 278 595 590 
Q 444 903 444 1216 
Q 444 1247 447 1309 
z
" transform="scale(0.015625)"/>
        <path id="Arial-ItalicMT-32" d="M 375 0 
Q 463 409 617 686 
Q 772 963 1028 1211 
Q 1284 1459 2016 2044 
Q 2459 2397 2622 2566 
Q 2856 2809 2963 3044 
Q 3034 3203 3034 3391 
Q 3034 3706 2811 3926 
Q 2588 4147 2263 4147 
Q 1941 4147 1700 3923 
Q 1459 3700 1356 3206 
L 803 3288 
Q 884 3897 1276 4248 
Q 1669 4600 2253 4600 
Q 2644 4600 2961 4437 
Q 3278 4275 3437 3981 
Q 3597 3688 3597 3375 
Q 3597 2919 3272 2497 
Q 3072 2234 2097 1463 
Q 1678 1131 1473 918 
Q 1269 706 1166 519 
L 3216 519 
L 3106 0 
L 375 0 
z
" transform="scale(0.015625)"/>
       </defs>
       <use xlink:href="#DejaVuSans-394" transform="translate(0 0.09375)"/>
       <use xlink:href="#Arial-ItalicMT-50" transform="translate(68.408203 0.09375)"/>
       <use xlink:href="#Arial-ItalicMT-50" transform="translate(135.107422 0.09375)"/>
       <use xlink:href="#Arial-ItalicMT-5f" transform="translate(201.806641 0.09375)"/>
       <use xlink:href="#Arial-ItalicMT-30" transform="translate(257.421875 0.09375)"/>
       <use xlink:href="#Arial-ItalicMT-35" transform="translate(313.037109 0.09375)"/>
       <use xlink:href="#Arial-ItalicMT-32" transform="translate(368.652344 0.09375)"/>
       <use xlink:href="#Arial-ItalicMT-38" transform="translate(424.267578 0.09375)"/>
      </g>
     </g>
    </g>
    <g id="xtick_4">
     <g id="line2d_4">
      <g>
       <use xlink:href="#m818119a35d" x="85.56765" y="148.555758" style="fill: #262626; stroke: #262626; stroke-width: 0.5"/>
      </g>
     </g>
     <g id="text_4">
      <!-- $\Delta$PP_0751 -->
      <g style="fill: #262626" transform="translate(87.60815 197.515758) rotate(-90) scale(0.077 -0.077)">
       <defs>
        <path id="Arial-ItalicMT-31" d="M 1541 0 
L 2266 3459 
Q 1797 3091 947 2869 
L 1053 3381 
Q 1475 3550 1886 3822 
Q 2297 4094 2503 4297 
Q 2628 4422 2741 4600 
L 3069 4600 
L 2109 0 
L 1541 0 
z
" transform="scale(0.015625)"/>
       </defs>
       <use xlink:href="#DejaVuSans-394" transform="translate(0 0.09375)"/>
       <use xlink:href="#Arial-ItalicMT-50" transform="translate(68.408203 0.09375)"/>
       <use xlink:href="#Arial-ItalicMT-50" transform="translate(135.107422 0.09375)"/>
       <use xlink:href="#Arial-ItalicMT-5f" transform="translate(201.806641 0.09375)"/>
       <use xlink:href="#Arial-ItalicMT-30" transform="translate(257.421875 0.09375)"/>
       <use xlink:href="#Arial-ItalicMT-37" transform="translate(313.037109 0.09375)"/>
       <use xlink:href="#Arial-ItalicMT-35" transform="translate(368.652344 0.09375)"/>
       <use xlink:href="#Arial-ItalicMT-31" transform="translate(424.267578 0.09375)"/>
      </g>
     </g>
    </g>
    <g id="xtick_5">
     <g id="line2d_5">
      <g>
       <use xlink:href="#m818119a35d" x="97.660529" y="148.555758" style="fill: #262626; stroke: #262626; stroke-width: 0.5"/>
      </g>
     </g>
     <g id="text_5">
      <!-- $\Delta$PP_0812 -->
      <g style="fill: #262626" transform="translate(99.701029 197.515758) rotate(-90) scale(0.077 -0.077)">
       <use xlink:href="#DejaVuSans-394" transform="translate(0 0.09375)"/>
       <use xlink:href="#Arial-ItalicMT-50" transform="translate(68.408203 0.09375)"/>
       <use xlink:href="#Arial-ItalicMT-50" transform="translate(135.107422 0.09375)"/>
       <use xlink:href="#Arial-ItalicMT-5f" transform="translate(201.806641 0.09375)"/>
       <use xlink:href="#Arial-ItalicMT-30" transform="translate(257.421875 0.09375)"/>
       <use xlink:href="#Arial-ItalicMT-38" transform="translate(313.037109 0.09375)"/>
       <use xlink:href="#Arial-ItalicMT-31" transform="translate(368.652344 0.09375)"/>
       <use xlink:href="#Arial-ItalicMT-32" transform="translate(424.267578 0.09375)"/>
      </g>
     </g>
    </g>
    <g id="xtick_6">
     <g id="line2d_6">
      <g>
       <use xlink:href="#m818119a35d" x="109.753408" y="148.555758" style="fill: #262626; stroke: #262626; stroke-width: 0.5"/>
      </g>
     </g>
     <g id="text_6">
      <!-- $\Delta$PP_0813 -->
      <g style="fill: #262626" transform="translate(111.793908 197.515758) rotate(-90) scale(0.077 -0.077)">
       <use xlink:href="#DejaVuSans-394" transform="translate(0 0.09375)"/>
       <use xlink:href="#Arial-ItalicMT-50" transform="translate(68.408203 0.09375)"/>
       <use xlink:href="#Arial-ItalicMT-50" transform="translate(135.107422 0.09375)"/>
       <use xlink:href="#Arial-ItalicMT-5f" transform="translate(201.806641 0.09375)"/>
       <use xlink:href="#Arial-ItalicMT-30" transform="translate(257.421875 0.09375)"/>
       <use xlink:href="#Arial-ItalicMT-38" transform="translate(313.037109 0.09375)"/>
       <use xlink:href="#Arial-ItalicMT-31" transform="translate(368.652344 0.09375)"/>
       <use xlink:href="#Arial-ItalicMT-33" transform="translate(424.267578 0.09375)"/>
      </g>
     </g>
    </g>
    <g id="xtick_7">
     <g id="line2d_7">
      <g>
       <use xlink:href="#m818119a35d" x="121.846288" y="148.555758" style="fill: #262626; stroke: #262626; stroke-width: 0.5"/>
      </g>
     </g>
     <g id="text_7">
      <!-- $\Delta$PP_0814 -->
      <g style="fill: #262626" transform="translate(123.886788 197.515758) rotate(-90) scale(0.077 -0.077)">
       <use xlink:href="#DejaVuSans-394" transform="translate(0 0.09375)"/>
       <use xlink:href="#Arial-ItalicMT-50" transform="translate(68.408203 0.09375)"/>
       <use xlink:href="#Arial-ItalicMT-50" transform="translate(135.107422 0.09375)"/>
       <use xlink:href="#Arial-ItalicMT-5f" transform="translate(201.806641 0.09375)"/>
       <use xlink:href="#Arial-ItalicMT-30" transform="translate(257.421875 0.09375)"/>
       <use xlink:href="#Arial-ItalicMT-38" transform="translate(313.037109 0.09375)"/>
       <use xlink:href="#Arial-ItalicMT-31" transform="translate(368.652344 0.09375)"/>
       <use xlink:href="#Arial-ItalicMT-34" transform="translate(424.267578 0.09375)"/>
      </g>
     </g>
    </g>
    <g id="xtick_8">
     <g id="line2d_8">
      <g>
       <use xlink:href="#m818119a35d" x="133.939167" y="148.555758" style="fill: #262626; stroke: #262626; stroke-width: 0.5"/>
      </g>
     </g>
     <g id="text_8">
      <!-- $\Delta$PP_0815 -->
      <g style="fill: #262626" transform="translate(135.979667 197.515758) rotate(-90) scale(0.077 -0.077)">
       <use xlink:href="#DejaVuSans-394" transform="translate(0 0.09375)"/>
       <use xlink:href="#Arial-ItalicMT-50" transform="translate(68.408203 0.09375)"/>
       <use xlink:href="#Arial-ItalicMT-50" transform="translate(135.107422 0.09375)"/>
       <use xlink:href="#Arial-ItalicMT-5f" transform="translate(201.806641 0.09375)"/>
       <use xlink:href="#Arial-ItalicMT-30" transform="translate(257.421875 0.09375)"/>
       <use xlink:href="#Arial-ItalicMT-38" transform="translate(313.037109 0.09375)"/>
       <use xlink:href="#Arial-ItalicMT-31" transform="translate(368.652344 0.09375)"/>
       <use xlink:href="#Arial-ItalicMT-35" transform="translate(424.267578 0.09375)"/>
      </g>
     </g>
    </g>
    <g id="xtick_9">
     <g id="line2d_9">
      <g>
       <use xlink:href="#m818119a35d" x="146.032046" y="148.555758" style="fill: #262626; stroke: #262626; stroke-width: 0.5"/>
      </g>
     </g>
     <g id="text_9">
      <!-- $\Delta$PP_1317 -->
      <g style="fill: #262626" transform="translate(148.072546 197.515758) rotate(-90) scale(0.077 -0.077)">
       <use xlink:href="#DejaVuSans-394" transform="translate(0 0.09375)"/>
       <use xlink:href="#Arial-ItalicMT-50" transform="translate(68.408203 0.09375)"/>
       <use xlink:href="#Arial-ItalicMT-50" transform="translate(135.107422 0.09375)"/>
       <use xlink:href="#Arial-ItalicMT-5f" transform="translate(201.806641 0.09375)"/>
       <use xlink:href="#Arial-ItalicMT-31" transform="translate(257.421875 0.09375)"/>
       <use xlink:href="#Arial-ItalicMT-33" transform="translate(313.037109 0.09375)"/>
       <use xlink:href="#Arial-ItalicMT-31" transform="translate(368.652344 0.09375)"/>
       <use xlink:href="#Arial-ItalicMT-37" transform="translate(424.267578 0.09375)"/>
      </g>
     </g>
    </g>
    <g id="xtick_10">
     <g id="line2d_10">
      <g>
       <use xlink:href="#m818119a35d" x="158.124925" y="148.555758" style="fill: #262626; stroke: #262626; stroke-width: 0.5"/>
      </g>
     </g>
     <g id="text_10">
      <!-- $\Delta$PP_1506 -->
      <g style="fill: #262626" transform="translate(160.165425 197.515758) rotate(-90) scale(0.077 -0.077)">
       <use xlink:href="#DejaVuSans-394" transform="translate(0 0.09375)"/>
       <use xlink:href="#Arial-ItalicMT-50" transform="translate(68.408203 0.09375)"/>
       <use xlink:href="#Arial-ItalicMT-50" transform="translate(135.107422 0.09375)"/>
       <use xlink:href="#Arial-ItalicMT-5f" transform="translate(201.806641 0.09375)"/>
       <use xlink:href="#Arial-ItalicMT-31" transform="translate(257.421875 0.09375)"/>
       <use xlink:href="#Arial-ItalicMT-35" transform="translate(313.037109 0.09375)"/>
       <use xlink:href="#Arial-ItalicMT-30" transform="translate(368.652344 0.09375)"/>
       <use xlink:href="#Arial-ItalicMT-36" transform="translate(424.267578 0.09375)"/>
      </g>
     </g>
    </g>
    <g id="xtick_11">
     <g id="line2d_11">
      <g>
       <use xlink:href="#m818119a35d" x="170.217805" y="148.555758" style="fill: #262626; stroke: #262626; stroke-width: 0.5"/>
      </g>
     </g>
     <g id="text_11">
      <!-- $\Delta$PP_2136 -->
      <g style="fill: #262626" transform="translate(172.258305 197.515758) rotate(-90) scale(0.077 -0.077)">
       <use xlink:href="#DejaVuSans-394" transform="translate(0 0.09375)"/>
       <use xlink:href="#Arial-ItalicMT-50" transform="translate(68.408203 0.09375)"/>
       <use xlink:href="#Arial-ItalicMT-50" transform="translate(135.107422 0.09375)"/>
       <use xlink:href="#Arial-ItalicMT-5f" transform="translate(201.806641 0.09375)"/>
       <use xlink:href="#Arial-ItalicMT-32" transform="translate(257.421875 0.09375)"/>
       <use xlink:href="#Arial-ItalicMT-31" transform="translate(313.037109 0.09375)"/>
       <use xlink:href="#Arial-ItalicMT-33" transform="translate(368.652344 0.09375)"/>
       <use xlink:href="#Arial-ItalicMT-36" transform="translate(424.267578 0.09375)"/>
      </g>
     </g>
    </g>
    <g id="xtick_12">
     <g id="line2d_12">
      <g>
       <use xlink:href="#m818119a35d" x="182.310684" y="148.555758" style="fill: #262626; stroke: #262626; stroke-width: 0.5"/>
      </g>
     </g>
     <g id="text_12">
      <!-- $\Delta$PP_4120 -->
      <g style="fill: #262626" transform="translate(184.351184 197.515758) rotate(-90) scale(0.077 -0.077)">
       <use xlink:href="#DejaVuSans-394" transform="translate(0 0.09375)"/>
       <use xlink:href="#Arial-ItalicMT-50" transform="translate(68.408203 0.09375)"/>
       <use xlink:href="#Arial-ItalicMT-50" transform="translate(135.107422 0.09375)"/>
       <use xlink:href="#Arial-ItalicMT-5f" transform="translate(201.806641 0.09375)"/>
       <use xlink:href="#Arial-ItalicMT-34" transform="translate(257.421875 0.09375)"/>
       <use xlink:href="#Arial-ItalicMT-31" transform="translate(313.037109 0.09375)"/>
       <use xlink:href="#Arial-ItalicMT-32" transform="translate(368.652344 0.09375)"/>
       <use xlink:href="#Arial-ItalicMT-30" transform="translate(424.267578 0.09375)"/>
      </g>
     </g>
    </g>
    <g id="xtick_13">
     <g id="line2d_13">
      <g>
       <use xlink:href="#m818119a35d" x="194.403563" y="148.555758" style="fill: #262626; stroke: #262626; stroke-width: 0.5"/>
      </g>
     </g>
     <g id="text_13">
      <!-- $\Delta$PP_4189 -->
      <g style="fill: #262626" transform="translate(196.444063 197.515758) rotate(-90) scale(0.077 -0.077)">
       <defs>
        <path id="Arial-ItalicMT-39" d="M 431 1050 
L 963 1103 
Q 1016 719 1181 556 
Q 1347 394 1575 394 
Q 1900 394 2178 675 
Q 2588 1088 2781 1859 
Q 2497 1647 2276 1556 
Q 2056 1466 1825 1466 
Q 1406 1466 1075 1747 
Q 638 2113 638 2797 
Q 638 3572 1144 4125 
Q 1578 4600 2209 4600 
Q 2778 4600 3153 4179 
Q 3528 3759 3528 2991 
Q 3528 2244 3278 1516 
Q 2981 659 2475 253 
Q 2063 -78 1547 -78 
Q 1072 -78 770 217 
Q 469 513 431 1050 
z
M 1184 2863 
Q 1184 2431 1414 2175 
Q 1644 1919 1959 1919 
Q 2194 1919 2425 2078 
Q 2656 2238 2822 2555 
Q 2988 2872 2988 3206 
Q 2988 3469 2878 3694 
Q 2769 3919 2580 4033 
Q 2391 4147 2197 4147 
Q 2009 4147 1828 4047 
Q 1647 3947 1492 3753 
Q 1338 3559 1261 3307 
Q 1184 3056 1184 2863 
z
" transform="scale(0.015625)"/>
       </defs>
       <use xlink:href="#DejaVuSans-394" transform="translate(0 0.09375)"/>
       <use xlink:href="#Arial-ItalicMT-50" transform="translate(68.408203 0.09375)"/>
       <use xlink:href="#Arial-ItalicMT-50" transform="translate(135.107422 0.09375)"/>
       <use xlink:href="#Arial-ItalicMT-5f" transform="translate(201.806641 0.09375)"/>
       <use xlink:href="#Arial-ItalicMT-34" transform="translate(257.421875 0.09375)"/>
       <use xlink:href="#Arial-ItalicMT-31" transform="translate(313.037109 0.09375)"/>
       <use xlink:href="#Arial-ItalicMT-38" transform="translate(368.652344 0.09375)"/>
       <use xlink:href="#Arial-ItalicMT-39" transform="translate(424.267578 0.09375)"/>
      </g>
     </g>
    </g>
    <g id="xtick_14">
     <g id="line2d_14">
      <g>
       <use xlink:href="#m818119a35d" x="206.496442" y="148.555758" style="fill: #262626; stroke: #262626; stroke-width: 0.5"/>
      </g>
     </g>
     <g id="text_14">
      <!-- $\Delta$PP_4191 -->
      <g style="fill: #262626" transform="translate(208.536942 197.515758) rotate(-90) scale(0.077 -0.077)">
       <use xlink:href="#DejaVuSans-394" transform="translate(0 0.09375)"/>
       <use xlink:href="#Arial-ItalicMT-50" transform="translate(68.408203 0.09375)"/>
       <use xlink:href="#Arial-ItalicMT-50" transform="translate(135.107422 0.09375)"/>
       <use xlink:href="#Arial-ItalicMT-5f" transform="translate(201.806641 0.09375)"/>
       <use xlink:href="#Arial-ItalicMT-34" transform="translate(257.421875 0.09375)"/>
       <use xlink:href="#Arial-ItalicMT-31" transform="translate(313.037109 0.09375)"/>
       <use xlink:href="#Arial-ItalicMT-39" transform="translate(368.652344 0.09375)"/>
       <use xlink:href="#Arial-ItalicMT-31" transform="translate(424.267578 0.09375)"/>
      </g>
     </g>
    </g>
    <g id="xtick_15">
     <g id="line2d_15">
      <g>
       <use xlink:href="#m818119a35d" x="218.589322" y="148.555758" style="fill: #262626; stroke: #262626; stroke-width: 0.5"/>
      </g>
     </g>
     <g id="text_15">
      <!-- $\Delta$PP_4192 -->
      <g style="fill: #262626" transform="translate(220.629822 197.515758) rotate(-90) scale(0.077 -0.077)">
       <use xlink:href="#DejaVuSans-394" transform="translate(0 0.09375)"/>
       <use xlink:href="#Arial-ItalicMT-50" transform="translate(68.408203 0.09375)"/>
       <use xlink:href="#Arial-ItalicMT-50" transform="translate(135.107422 0.09375)"/>
       <use xlink:href="#Arial-ItalicMT-5f" transform="translate(201.806641 0.09375)"/>
       <use xlink:href="#Arial-ItalicMT-34" transform="translate(257.421875 0.09375)"/>
       <use xlink:href="#Arial-ItalicMT-31" transform="translate(313.037109 0.09375)"/>
       <use xlink:href="#Arial-ItalicMT-39" transform="translate(368.652344 0.09375)"/>
       <use xlink:href="#Arial-ItalicMT-32" transform="translate(424.267578 0.09375)"/>
      </g>
     </g>
    </g>
    <g id="xtick_16">
     <g id="line2d_16">
      <g>
       <use xlink:href="#m818119a35d" x="230.682201" y="148.555758" style="fill: #262626; stroke: #262626; stroke-width: 0.5"/>
      </g>
     </g>
     <g id="text_16">
      <!-- Control -->
      <g style="fill: #262626" transform="translate(232.672771 185.376227) rotate(-90) scale(0.077 -0.077)">
       <defs>
        <path id="Arial-ItalicMT-43" d="M 3859 1613 
L 4466 1528 
Q 4178 734 3628 328 
Q 3078 -78 2394 -78 
Q 1559 -78 1070 431 
Q 581 941 581 1891 
Q 581 3128 1325 3938 
Q 1988 4659 2972 4659 
Q 3700 4659 4151 4268 
Q 4603 3878 4675 3219 
L 4103 3166 
Q 4013 3663 3730 3908 
Q 3447 4153 3000 4153 
Q 2159 4153 1641 3406 
Q 1191 2763 1191 1878 
Q 1191 1172 1537 800 
Q 1884 428 2441 428 
Q 2916 428 3300 737 
Q 3684 1047 3859 1613 
z
" transform="scale(0.015625)"/>
        <path id="Arial-ItalicMT-6f" d="M 313 1259 
Q 313 2231 884 2869 
Q 1356 3394 2122 3394 
Q 2722 3394 3089 3019 
Q 3456 2644 3456 2006 
Q 3456 1434 3225 942 
Q 2994 450 2567 187 
Q 2141 -75 1669 -75 
Q 1281 -75 964 90 
Q 647 256 480 559 
Q 313 863 313 1259 
z
M 878 1316 
Q 878 847 1103 605 
Q 1328 363 1675 363 
Q 1856 363 2034 436 
Q 2213 509 2366 659 
Q 2519 809 2626 1001 
Q 2734 1194 2800 1416 
Q 2897 1725 2897 2009 
Q 2897 2459 2670 2707 
Q 2444 2956 2100 2956 
Q 1834 2956 1615 2829 
Q 1397 2703 1220 2459 
Q 1044 2216 961 1892 
Q 878 1569 878 1316 
z
" transform="scale(0.015625)"/>
        <path id="Arial-ItalicMT-6e" d="M 213 0 
L 906 3319 
L 1419 3319 
L 1297 2741 
Q 1631 3081 1922 3237 
Q 2213 3394 2516 3394 
Q 2919 3394 3148 3175 
Q 3378 2956 3378 2591 
Q 3378 2406 3297 2009 
L 2875 0 
L 2309 0 
L 2750 2103 
Q 2816 2409 2816 2556 
Q 2816 2722 2702 2825 
Q 2588 2928 2372 2928 
Q 1938 2928 1598 2615 
Q 1259 2303 1100 1544 
L 778 0 
L 213 0 
z
" transform="scale(0.015625)"/>
        <path id="Arial-ItalicMT-74" d="M 1534 459 
L 1441 -3 
Q 1238 -56 1047 -56 
Q 709 -56 509 109 
Q 359 234 359 450 
Q 359 559 441 953 
L 844 2881 
L 397 2881 
L 488 3319 
L 934 3319 
L 1106 4134 
L 1753 4525 
L 1500 3319 
L 2056 3319 
L 1963 2881 
L 1409 2881 
L 1025 1047 
Q 953 697 953 628 
Q 953 528 1011 475 
Q 1069 422 1200 422 
Q 1388 422 1534 459 
z
" transform="scale(0.015625)"/>
        <path id="Arial-ItalicMT-72" d="M 213 0 
L 906 3319 
L 1406 3319 
L 1266 2641 
Q 1522 3025 1767 3209 
Q 2013 3394 2269 3394 
Q 2438 3394 2684 3272 
L 2453 2747 
Q 2306 2853 2131 2853 
Q 1834 2853 1521 2522 
Q 1209 2191 1031 1331 
L 750 0 
L 213 0 
z
" transform="scale(0.015625)"/>
        <path id="Arial-ItalicMT-6c" d="M 169 0 
L 1125 4581 
L 1691 4581 
L 734 0 
L 169 0 
z
" transform="scale(0.015625)"/>
       </defs>
       <use xlink:href="#Arial-ItalicMT-43"/>
       <use xlink:href="#Arial-ItalicMT-6f" x="72.216797"/>
       <use xlink:href="#Arial-ItalicMT-6e" x="127.832031"/>
       <use xlink:href="#Arial-ItalicMT-74" x="183.447266"/>
       <use xlink:href="#Arial-ItalicMT-72" x="211.230469"/>
       <use xlink:href="#Arial-ItalicMT-6f" x="244.53125"/>
       <use xlink:href="#Arial-ItalicMT-6c" x="300.146484"/>
      </g>
     </g>
    </g>
    <g id="text_17">
     <!-- CRISPRi -->
     <g transform="translate(122.276016 218.52832) scale(0.084 -0.084)">
      <defs>
       <path id="ArialMT-43" d="M 3763 1606 
L 4369 1453 
Q 4178 706 3683 314 
Q 3188 -78 2472 -78 
Q 1731 -78 1267 223 
Q 803 525 561 1097 
Q 319 1669 319 2325 
Q 319 3041 592 3573 
Q 866 4106 1370 4382 
Q 1875 4659 2481 4659 
Q 3169 4659 3637 4309 
Q 4106 3959 4291 3325 
L 3694 3184 
Q 3534 3684 3231 3912 
Q 2928 4141 2469 4141 
Q 1941 4141 1586 3887 
Q 1231 3634 1087 3207 
Q 944 2781 944 2328 
Q 944 1744 1114 1308 
Q 1284 872 1643 656 
Q 2003 441 2422 441 
Q 2931 441 3284 734 
Q 3638 1028 3763 1606 
z
" transform="scale(0.015625)"/>
       <path id="ArialMT-52" d="M 503 0 
L 503 4581 
L 2534 4581 
Q 3147 4581 3465 4457 
Q 3784 4334 3975 4021 
Q 4166 3709 4166 3331 
Q 4166 2844 3850 2509 
Q 3534 2175 2875 2084 
Q 3116 1969 3241 1856 
Q 3506 1613 3744 1247 
L 4541 0 
L 3778 0 
L 3172 953 
Q 2906 1366 2734 1584 
Q 2563 1803 2427 1890 
Q 2291 1978 2150 2013 
Q 2047 2034 1813 2034 
L 1109 2034 
L 1109 0 
L 503 0 
z
M 1109 2559 
L 2413 2559 
Q 2828 2559 3062 2645 
Q 3297 2731 3419 2920 
Q 3541 3109 3541 3331 
Q 3541 3656 3305 3865 
Q 3069 4075 2559 4075 
L 1109 4075 
L 1109 2559 
z
" transform="scale(0.015625)"/>
       <path id="ArialMT-49" d="M 597 0 
L 597 4581 
L 1203 4581 
L 1203 0 
L 597 0 
z
" transform="scale(0.015625)"/>
       <path id="ArialMT-53" d="M 288 1472 
L 859 1522 
Q 900 1178 1048 958 
Q 1197 738 1509 602 
Q 1822 466 2213 466 
Q 2559 466 2825 569 
Q 3091 672 3220 851 
Q 3350 1031 3350 1244 
Q 3350 1459 3225 1620 
Q 3100 1781 2813 1891 
Q 2628 1963 1997 2114 
Q 1366 2266 1113 2400 
Q 784 2572 623 2826 
Q 463 3081 463 3397 
Q 463 3744 659 4045 
Q 856 4347 1234 4503 
Q 1613 4659 2075 4659 
Q 2584 4659 2973 4495 
Q 3363 4331 3572 4012 
Q 3781 3694 3797 3291 
L 3216 3247 
Q 3169 3681 2898 3903 
Q 2628 4125 2100 4125 
Q 1550 4125 1298 3923 
Q 1047 3722 1047 3438 
Q 1047 3191 1225 3031 
Q 1400 2872 2139 2705 
Q 2878 2538 3153 2413 
Q 3553 2228 3743 1945 
Q 3934 1663 3934 1294 
Q 3934 928 3725 604 
Q 3516 281 3123 101 
Q 2731 -78 2241 -78 
Q 1619 -78 1198 103 
Q 778 284 539 648 
Q 300 1013 288 1472 
z
" transform="scale(0.015625)"/>
       <path id="ArialMT-50" d="M 494 0 
L 494 4581 
L 2222 4581 
Q 2678 4581 2919 4538 
Q 3256 4481 3484 4323 
Q 3713 4166 3852 3881 
Q 3991 3597 3991 3256 
Q 3991 2672 3619 2267 
Q 3247 1863 2275 1863 
L 1100 1863 
L 1100 0 
L 494 0 
z
M 1100 2403 
L 2284 2403 
Q 2872 2403 3119 2622 
Q 3366 2841 3366 3238 
Q 3366 3525 3220 3729 
Q 3075 3934 2838 4000 
Q 2684 4041 2272 4041 
L 1100 4041 
L 1100 2403 
z
" transform="scale(0.015625)"/>
       <path id="ArialMT-69" d="M 425 3934 
L 425 4581 
L 988 4581 
L 988 3934 
L 425 3934 
z
M 425 0 
L 425 3319 
L 988 3319 
L 988 0 
L 425 0 
z
" transform="scale(0.015625)"/>
      </defs>
      <use xlink:href="#ArialMT-43"/>
      <use xlink:href="#ArialMT-52" x="72.216797"/>
      <use xlink:href="#ArialMT-49" x="144.433594"/>
      <use xlink:href="#ArialMT-53" x="172.216797"/>
      <use xlink:href="#ArialMT-50" x="238.916016"/>
      <use xlink:href="#ArialMT-52" x="305.615234"/>
      <use xlink:href="#ArialMT-69" x="377.832031"/>
     </g>
    </g>
   </g>
   <g id="matplotlib.axis_2">
    <g id="ytick_1">
     <g id="line2d_17">
      <defs>
       <path id="mf9c1a047b7" d="M 0 0 
L 4 0 
" style="stroke: #262626; stroke-width: 0.5"/>
      </defs>
      <g>
       <use xlink:href="#mf9c1a047b7" x="41.428641" y="148.555758" style="fill: #262626; stroke: #262626; stroke-width: 0.5"/>
      </g>
     </g>
     <g id="text_18">
      <!-- 0 -->
      <g style="fill: #262626" transform="translate(33.646719 151.311516) scale(0.077 -0.077)">
       <defs>
        <path id="ArialMT-30" d="M 266 2259 
Q 266 3072 433 3567 
Q 600 4063 929 4331 
Q 1259 4600 1759 4600 
Q 2128 4600 2406 4451 
Q 2684 4303 2865 4023 
Q 3047 3744 3150 3342 
Q 3253 2941 3253 2259 
Q 3253 1453 3087 958 
Q 2922 463 2592 192 
Q 2263 -78 1759 -78 
Q 1097 -78 719 397 
Q 266 969 266 2259 
z
M 844 2259 
Q 844 1131 1108 757 
Q 1372 384 1759 384 
Q 2147 384 2411 759 
Q 2675 1134 2675 2259 
Q 2675 3391 2411 3762 
Q 2147 4134 1753 4134 
Q 1366 4134 1134 3806 
Q 844 3388 844 2259 
z
" transform="scale(0.015625)"/>
       </defs>
       <use xlink:href="#ArialMT-30"/>
      </g>
     </g>
    </g>
    <g id="ytick_2">
     <g id="line2d_18">
      <g>
       <use xlink:href="#mf9c1a047b7" x="41.428641" y="133.155758" style="fill: #262626; stroke: #262626; stroke-width: 0.5"/>
      </g>
     </g>
     <g id="text_19">
      <!-- 50 -->
      <g style="fill: #262626" transform="translate(29.364797 135.911516) scale(0.077 -0.077)">
       <defs>
        <path id="ArialMT-35" d="M 266 1200 
L 856 1250 
Q 922 819 1161 601 
Q 1400 384 1738 384 
Q 2144 384 2425 690 
Q 2706 997 2706 1503 
Q 2706 1984 2436 2262 
Q 2166 2541 1728 2541 
Q 1456 2541 1237 2417 
Q 1019 2294 894 2097 
L 366 2166 
L 809 4519 
L 3088 4519 
L 3088 3981 
L 1259 3981 
L 1013 2750 
Q 1425 3038 1878 3038 
Q 2478 3038 2890 2622 
Q 3303 2206 3303 1553 
Q 3303 931 2941 478 
Q 2500 -78 1738 -78 
Q 1113 -78 717 272 
Q 322 622 266 1200 
z
" transform="scale(0.015625)"/>
       </defs>
       <use xlink:href="#ArialMT-35"/>
       <use xlink:href="#ArialMT-30" x="55.615234"/>
      </g>
     </g>
    </g>
    <g id="ytick_3">
     <g id="line2d_19">
      <g>
       <use xlink:href="#mf9c1a047b7" x="41.428641" y="117.755758" style="fill: #262626; stroke: #262626; stroke-width: 0.5"/>
      </g>
     </g>
     <g id="text_20">
      <!-- 100 -->
      <g style="fill: #262626" transform="translate(25.082875 120.511516) scale(0.077 -0.077)">
       <defs>
        <path id="ArialMT-31" d="M 2384 0 
L 1822 0 
L 1822 3584 
Q 1619 3391 1289 3197 
Q 959 3003 697 2906 
L 697 3450 
Q 1169 3672 1522 3987 
Q 1875 4303 2022 4600 
L 2384 4600 
L 2384 0 
z
" transform="scale(0.015625)"/>
       </defs>
       <use xlink:href="#ArialMT-31"/>
       <use xlink:href="#ArialMT-30" x="55.615234"/>
       <use xlink:href="#ArialMT-30" x="111.230469"/>
      </g>
     </g>
    </g>
    <g id="ytick_4">
     <g id="line2d_20">
      <g>
       <use xlink:href="#mf9c1a047b7" x="41.428641" y="102.355758" style="fill: #262626; stroke: #262626; stroke-width: 0.5"/>
      </g>
     </g>
     <g id="text_21">
      <!-- 150 -->
      <g style="fill: #262626" transform="translate(25.082875 105.111516) scale(0.077 -0.077)">
       <use xlink:href="#ArialMT-31"/>
       <use xlink:href="#ArialMT-35" x="55.615234"/>
       <use xlink:href="#ArialMT-30" x="111.230469"/>
      </g>
     </g>
    </g>
    <g id="ytick_5">
     <g id="line2d_21">
      <g>
       <use xlink:href="#mf9c1a047b7" x="41.428641" y="86.955758" style="fill: #262626; stroke: #262626; stroke-width: 0.5"/>
      </g>
     </g>
     <g id="text_22">
      <!-- 200 -->
      <g style="fill: #262626" transform="translate(25.082875 89.711516) scale(0.077 -0.077)">
       <defs>
        <path id="ArialMT-32" d="M 3222 541 
L 3222 0 
L 194 0 
Q 188 203 259 391 
Q 375 700 629 1000 
Q 884 1300 1366 1694 
Q 2113 2306 2375 2664 
Q 2638 3022 2638 3341 
Q 2638 3675 2398 3904 
Q 2159 4134 1775 4134 
Q 1369 4134 1125 3890 
Q 881 3647 878 3216 
L 300 3275 
Q 359 3922 746 4261 
Q 1134 4600 1788 4600 
Q 2447 4600 2831 4234 
Q 3216 3869 3216 3328 
Q 3216 3053 3103 2787 
Q 2991 2522 2730 2228 
Q 2469 1934 1863 1422 
Q 1356 997 1212 845 
Q 1069 694 975 541 
L 3222 541 
z
" transform="scale(0.015625)"/>
       </defs>
       <use xlink:href="#ArialMT-32"/>
       <use xlink:href="#ArialMT-30" x="55.615234"/>
       <use xlink:href="#ArialMT-30" x="111.230469"/>
      </g>
     </g>
    </g>
    <g id="ytick_6">
     <g id="line2d_22">
      <g>
       <use xlink:href="#mf9c1a047b7" x="41.428641" y="71.555758" style="fill: #262626; stroke: #262626; stroke-width: 0.5"/>
      </g>
     </g>
     <g id="text_23">
      <!-- 250 -->
      <g style="fill: #262626" transform="translate(25.082875 74.311516) scale(0.077 -0.077)">
       <use xlink:href="#ArialMT-32"/>
       <use xlink:href="#ArialMT-35" x="55.615234"/>
       <use xlink:href="#ArialMT-30" x="111.230469"/>
      </g>
     </g>
    </g>
    <g id="ytick_7">
     <g id="line2d_23">
      <g>
       <use xlink:href="#mf9c1a047b7" x="41.428641" y="56.155758" style="fill: #262626; stroke: #262626; stroke-width: 0.5"/>
      </g>
     </g>
     <g id="text_24">
      <!-- 300 -->
      <g style="fill: #262626" transform="translate(25.082875 58.911516) scale(0.077 -0.077)">
       <defs>
        <path id="ArialMT-33" d="M 269 1209 
L 831 1284 
Q 928 806 1161 595 
Q 1394 384 1728 384 
Q 2125 384 2398 659 
Q 2672 934 2672 1341 
Q 2672 1728 2419 1979 
Q 2166 2231 1775 2231 
Q 1616 2231 1378 2169 
L 1441 2663 
Q 1497 2656 1531 2656 
Q 1891 2656 2178 2843 
Q 2466 3031 2466 3422 
Q 2466 3731 2256 3934 
Q 2047 4138 1716 4138 
Q 1388 4138 1169 3931 
Q 950 3725 888 3313 
L 325 3413 
Q 428 3978 793 4289 
Q 1159 4600 1703 4600 
Q 2078 4600 2393 4439 
Q 2709 4278 2876 4000 
Q 3044 3722 3044 3409 
Q 3044 3113 2884 2869 
Q 2725 2625 2413 2481 
Q 2819 2388 3044 2092 
Q 3269 1797 3269 1353 
Q 3269 753 2831 336 
Q 2394 -81 1725 -81 
Q 1122 -81 723 278 
Q 325 638 269 1209 
z
" transform="scale(0.015625)"/>
       </defs>
       <use xlink:href="#ArialMT-33"/>
       <use xlink:href="#ArialMT-30" x="55.615234"/>
       <use xlink:href="#ArialMT-30" x="111.230469"/>
      </g>
     </g>
    </g>
    <g id="ytick_8">
     <g id="line2d_24">
      <g>
       <use xlink:href="#mf9c1a047b7" x="41.428641" y="40.755758" style="fill: #262626; stroke: #262626; stroke-width: 0.5"/>
      </g>
     </g>
     <g id="text_25">
      <!-- 350 -->
      <g style="fill: #262626" transform="translate(25.082875 43.511516) scale(0.077 -0.077)">
       <use xlink:href="#ArialMT-33"/>
       <use xlink:href="#ArialMT-35" x="55.615234"/>
       <use xlink:href="#ArialMT-30" x="111.230469"/>
      </g>
     </g>
    </g>
    <g id="ytick_9">
     <g id="line2d_25">
      <g>
       <use xlink:href="#mf9c1a047b7" x="41.428641" y="25.355758" style="fill: #262626; stroke: #262626; stroke-width: 0.5"/>
      </g>
     </g>
     <g id="text_26">
      <!-- 400 -->
      <g style="fill: #262626" transform="translate(25.082875 28.111516) scale(0.077 -0.077)">
       <defs>
        <path id="ArialMT-34" d="M 2069 0 
L 2069 1097 
L 81 1097 
L 81 1613 
L 2172 4581 
L 2631 4581 
L 2631 1613 
L 3250 1613 
L 3250 1097 
L 2631 1097 
L 2631 0 
L 2069 0 
z
M 2069 1613 
L 2069 3678 
L 634 1613 
L 2069 1613 
z
" transform="scale(0.015625)"/>
       </defs>
       <use xlink:href="#ArialMT-34"/>
       <use xlink:href="#ArialMT-30" x="55.615234"/>
       <use xlink:href="#ArialMT-30" x="111.230469"/>
      </g>
     </g>
    </g>
    <g id="ytick_10">
     <g id="line2d_26">
      <g>
       <use xlink:href="#mf9c1a047b7" x="41.428641" y="9.955758" style="fill: #262626; stroke: #262626; stroke-width: 0.5"/>
      </g>
     </g>
     <g id="text_27">
      <!-- 450 -->
      <g style="fill: #262626" transform="translate(25.082875 12.711516) scale(0.077 -0.077)">
       <use xlink:href="#ArialMT-34"/>
       <use xlink:href="#ArialMT-35" x="55.615234"/>
       <use xlink:href="#ArialMT-30" x="111.230469"/>
      </g>
     </g>
    </g>
    <g id="text_28">
     <!-- Titer (mg/L) -->
     <g transform="translate(13.314938 100.79782) rotate(-90) scale(0.084 -0.084)">
      <defs>
       <path id="ArialMT-54" d="M 1659 0 
L 1659 4041 
L 150 4041 
L 150 4581 
L 3781 4581 
L 3781 4041 
L 2266 4041 
L 2266 0 
L 1659 0 
z
" transform="scale(0.015625)"/>
       <path id="ArialMT-74" d="M 1650 503 
L 1731 6 
Q 1494 -44 1306 -44 
Q 1000 -44 831 53 
Q 663 150 594 308 
Q 525 466 525 972 
L 525 2881 
L 113 2881 
L 113 3319 
L 525 3319 
L 525 4141 
L 1084 4478 
L 1084 3319 
L 1650 3319 
L 1650 2881 
L 1084 2881 
L 1084 941 
Q 1084 700 1114 631 
Q 1144 563 1211 522 
Q 1278 481 1403 481 
Q 1497 481 1650 503 
z
" transform="scale(0.015625)"/>
       <path id="ArialMT-65" d="M 2694 1069 
L 3275 997 
Q 3138 488 2766 206 
Q 2394 -75 1816 -75 
Q 1088 -75 661 373 
Q 234 822 234 1631 
Q 234 2469 665 2931 
Q 1097 3394 1784 3394 
Q 2450 3394 2872 2941 
Q 3294 2488 3294 1666 
Q 3294 1616 3291 1516 
L 816 1516 
Q 847 969 1125 678 
Q 1403 388 1819 388 
Q 2128 388 2347 550 
Q 2566 713 2694 1069 
z
M 847 1978 
L 2700 1978 
Q 2663 2397 2488 2606 
Q 2219 2931 1791 2931 
Q 1403 2931 1139 2672 
Q 875 2413 847 1978 
z
" transform="scale(0.015625)"/>
       <path id="ArialMT-72" d="M 416 0 
L 416 3319 
L 922 3319 
L 922 2816 
Q 1116 3169 1280 3281 
Q 1444 3394 1641 3394 
Q 1925 3394 2219 3213 
L 2025 2691 
Q 1819 2813 1613 2813 
Q 1428 2813 1281 2702 
Q 1134 2591 1072 2394 
Q 978 2094 978 1738 
L 978 0 
L 416 0 
z
" transform="scale(0.015625)"/>
       <path id="ArialMT-20" transform="scale(0.015625)"/>
       <path id="ArialMT-28" d="M 1497 -1347 
Q 1031 -759 709 28 
Q 388 816 388 1659 
Q 388 2403 628 3084 
Q 909 3875 1497 4659 
L 1900 4659 
Q 1522 4009 1400 3731 
Q 1209 3300 1100 2831 
Q 966 2247 966 1656 
Q 966 153 1900 -1347 
L 1497 -1347 
z
" transform="scale(0.015625)"/>
       <path id="ArialMT-6d" d="M 422 0 
L 422 3319 
L 925 3319 
L 925 2853 
Q 1081 3097 1340 3245 
Q 1600 3394 1931 3394 
Q 2300 3394 2536 3241 
Q 2772 3088 2869 2813 
Q 3263 3394 3894 3394 
Q 4388 3394 4653 3120 
Q 4919 2847 4919 2278 
L 4919 0 
L 4359 0 
L 4359 2091 
Q 4359 2428 4304 2576 
Q 4250 2725 4106 2815 
Q 3963 2906 3769 2906 
Q 3419 2906 3187 2673 
Q 2956 2441 2956 1928 
L 2956 0 
L 2394 0 
L 2394 2156 
Q 2394 2531 2256 2718 
Q 2119 2906 1806 2906 
Q 1569 2906 1367 2781 
Q 1166 2656 1075 2415 
Q 984 2175 984 1722 
L 984 0 
L 422 0 
z
" transform="scale(0.015625)"/>
       <path id="ArialMT-67" d="M 319 -275 
L 866 -356 
Q 900 -609 1056 -725 
Q 1266 -881 1628 -881 
Q 2019 -881 2231 -725 
Q 2444 -569 2519 -288 
Q 2563 -116 2559 434 
Q 2191 0 1641 0 
Q 956 0 581 494 
Q 206 988 206 1678 
Q 206 2153 378 2554 
Q 550 2956 876 3175 
Q 1203 3394 1644 3394 
Q 2231 3394 2613 2919 
L 2613 3319 
L 3131 3319 
L 3131 450 
Q 3131 -325 2973 -648 
Q 2816 -972 2473 -1159 
Q 2131 -1347 1631 -1347 
Q 1038 -1347 672 -1080 
Q 306 -813 319 -275 
z
M 784 1719 
Q 784 1066 1043 766 
Q 1303 466 1694 466 
Q 2081 466 2343 764 
Q 2606 1063 2606 1700 
Q 2606 2309 2336 2618 
Q 2066 2928 1684 2928 
Q 1309 2928 1046 2623 
Q 784 2319 784 1719 
z
" transform="scale(0.015625)"/>
       <path id="ArialMT-2f" d="M 0 -78 
L 1328 4659 
L 1778 4659 
L 453 -78 
L 0 -78 
z
" transform="scale(0.015625)"/>
       <path id="ArialMT-4c" d="M 469 0 
L 469 4581 
L 1075 4581 
L 1075 541 
L 3331 541 
L 3331 0 
L 469 0 
z
" transform="scale(0.015625)"/>
       <path id="ArialMT-29" d="M 791 -1347 
L 388 -1347 
Q 1322 153 1322 1656 
Q 1322 2244 1188 2822 
Q 1081 3291 891 3722 
Q 769 4003 388 4659 
L 791 4659 
Q 1378 3875 1659 3084 
Q 1900 2403 1900 1659 
Q 1900 816 1576 28 
Q 1253 -759 791 -1347 
z
" transform="scale(0.015625)"/>
      </defs>
      <use xlink:href="#ArialMT-54"/>
      <use xlink:href="#ArialMT-69" x="57.333984"/>
      <use xlink:href="#ArialMT-74" x="79.550781"/>
      <use xlink:href="#ArialMT-65" x="107.333984"/>
      <use xlink:href="#ArialMT-72" x="162.949219"/>
      <use xlink:href="#ArialMT-20" x="196.25"/>
      <use xlink:href="#ArialMT-28" x="224.033203"/>
      <use xlink:href="#ArialMT-6d" x="257.333984"/>
      <use xlink:href="#ArialMT-67" x="340.634766"/>
      <use xlink:href="#ArialMT-2f" x="396.25"/>
      <use xlink:href="#ArialMT-4c" x="424.033203"/>
      <use xlink:href="#ArialMT-29" x="479.648438"/>
     </g>
    </g>
   </g>
   <g id="PathCollection_1">
    <defs>
     <path id="m44b5b2a6e2" d="M 0 2.5 
C 0.663008 2.5 1.29895 2.236584 1.767767 1.767767 
C 2.236584 1.29895 2.5 0.663008 2.5 0 
C 2.5 -0.663008 2.236584 -1.29895 1.767767 -1.767767 
C 1.29895 -2.236584 0.663008 -2.5 0 -2.5 
C -0.663008 -2.5 -1.29895 -2.236584 -1.767767 -1.767767 
C -2.236584 -1.29895 -2.5 -0.663008 -2.5 0 
C -2.5 0.663008 -2.236584 1.29895 -1.767767 1.767767 
C -1.29895 2.236584 -0.663008 2.5 0 2.5 
z
" style="stroke: #000000; stroke-opacity: 0.7; stroke-width: 0.5"/>
    </defs>
    <g clip-path="url(#p9de7b587dc)">
     <use xlink:href="#m44b5b2a6e2" x="50.148018" y="72.687904" style="fill: #648fff; fill-opacity: 0.7; stroke: #000000; stroke-opacity: 0.7; stroke-width: 0.5"/>
     <use xlink:href="#m44b5b2a6e2" x="49.293069" y="75.661459" style="fill: #648fff; fill-opacity: 0.7; stroke: #000000; stroke-opacity: 0.7; stroke-width: 0.5"/>
     <use xlink:href="#m44b5b2a6e2" x="49.508414" y="78.625097" style="fill: #648fff; fill-opacity: 0.7; stroke: #000000; stroke-opacity: 0.7; stroke-width: 0.5"/>
    </g>
   </g>
   <g id="PathCollection_2">
    <g clip-path="url(#p9de7b587dc)">
     <use xlink:href="#m44b5b2a6e2" x="61.036505" y="86.83687" style="fill: #648fff; fill-opacity: 0.7; stroke: #000000; stroke-opacity: 0.7; stroke-width: 0.5"/>
     <use xlink:href="#m44b5b2a6e2" x="61.241232" y="76.448914" style="fill: #648fff; fill-opacity: 0.7; stroke: #000000; stroke-opacity: 0.7; stroke-width: 0.5"/>
     <use xlink:href="#m44b5b2a6e2" x="61.05135" y="73.935079" style="fill: #648fff; fill-opacity: 0.7; stroke: #000000; stroke-opacity: 0.7; stroke-width: 0.5"/>
    </g>
   </g>
   <g id="PathCollection_3">
    <g clip-path="url(#p9de7b587dc)">
     <use xlink:href="#m44b5b2a6e2" x="73.953904" y="24.540399" style="fill: #648fff; fill-opacity: 0.7; stroke: #000000; stroke-opacity: 0.7; stroke-width: 0.5"/>
     <use xlink:href="#m44b5b2a6e2" x="73.724681" y="30.068035" style="fill: #648fff; fill-opacity: 0.7; stroke: #000000; stroke-opacity: 0.7; stroke-width: 0.5"/>
     <use xlink:href="#m44b5b2a6e2" x="74.201657" y="27.280305" style="fill: #648fff; fill-opacity: 0.7; stroke: #000000; stroke-opacity: 0.7; stroke-width: 0.5"/>
    </g>
   </g>
   <g id="PathCollection_4">
    <g clip-path="url(#p9de7b587dc)">
     <use xlink:href="#m44b5b2a6e2" x="85.78354" y="85.027268" style="fill: #648fff; fill-opacity: 0.7; stroke: #000000; stroke-opacity: 0.7; stroke-width: 0.5"/>
     <use xlink:href="#m44b5b2a6e2" x="85.391561" y="82.612822" style="fill: #648fff; fill-opacity: 0.7; stroke: #000000; stroke-opacity: 0.7; stroke-width: 0.5"/>
     <use xlink:href="#m44b5b2a6e2" x="85.693595" y="83.039639" style="fill: #648fff; fill-opacity: 0.7; stroke: #000000; stroke-opacity: 0.7; stroke-width: 0.5"/>
    </g>
   </g>
   <g id="PathCollection_5">
    <g clip-path="url(#p9de7b587dc)">
     <use xlink:href="#m44b5b2a6e2" x="98.581852" y="71.863736" style="fill: #648fff; fill-opacity: 0.7; stroke: #000000; stroke-opacity: 0.7; stroke-width: 0.5"/>
     <use xlink:href="#m44b5b2a6e2" x="96.70884" y="77.363652" style="fill: #648fff; fill-opacity: 0.7; stroke: #000000; stroke-opacity: 0.7; stroke-width: 0.5"/>
     <use xlink:href="#m44b5b2a6e2" x="97.120925" y="70.714548" style="fill: #648fff; fill-opacity: 0.7; stroke: #000000; stroke-opacity: 0.7; stroke-width: 0.5"/>
    </g>
   </g>
   <g id="PathCollection_6">
    <g clip-path="url(#p9de7b587dc)">
     <use xlink:href="#m44b5b2a6e2" x="109.514449" y="87.823271" style="fill: #648fff; fill-opacity: 0.7; stroke: #000000; stroke-opacity: 0.7; stroke-width: 0.5"/>
     <use xlink:href="#m44b5b2a6e2" x="109.396709" y="81.967082" style="fill: #648fff; fill-opacity: 0.7; stroke: #000000; stroke-opacity: 0.7; stroke-width: 0.5"/>
     <use xlink:href="#m44b5b2a6e2" x="110.342112" y="80.045695" style="fill: #648fff; fill-opacity: 0.7; stroke: #000000; stroke-opacity: 0.7; stroke-width: 0.5"/>
    </g>
   </g>
   <g id="PathCollection_7">
    <g clip-path="url(#p9de7b587dc)">
     <use xlink:href="#m44b5b2a6e2" x="122.784316" y="54.170676" style="fill: #648fff; fill-opacity: 0.7; stroke: #000000; stroke-opacity: 0.7; stroke-width: 0.5"/>
     <use xlink:href="#m44b5b2a6e2" x="121.265798" y="42.123995" style="fill: #648fff; fill-opacity: 0.7; stroke: #000000; stroke-opacity: 0.7; stroke-width: 0.5"/>
     <use xlink:href="#m44b5b2a6e2" x="122.841417" y="60.718778" style="fill: #648fff; fill-opacity: 0.7; stroke: #000000; stroke-opacity: 0.7; stroke-width: 0.5"/>
    </g>
   </g>
   <g id="PathCollection_8">
    <g clip-path="url(#p9de7b587dc)">
     <use xlink:href="#m44b5b2a6e2" x="134.19167" y="64.531818" style="fill: #648fff; fill-opacity: 0.7; stroke: #000000; stroke-opacity: 0.7; stroke-width: 0.5"/>
     <use xlink:href="#m44b5b2a6e2" x="134.044056" y="69.848615" style="fill: #648fff; fill-opacity: 0.7; stroke: #000000; stroke-opacity: 0.7; stroke-width: 0.5"/>
     <use xlink:href="#m44b5b2a6e2" x="133.698676" y="71.991353" style="fill: #648fff; fill-opacity: 0.7; stroke: #000000; stroke-opacity: 0.7; stroke-width: 0.5"/>
    </g>
   </g>
   <g id="PathCollection_9">
    <g clip-path="url(#p9de7b587dc)">
     <use xlink:href="#m44b5b2a6e2" x="145.943003" y="101.349152" style="fill: #648fff; fill-opacity: 0.7; stroke: #000000; stroke-opacity: 0.7; stroke-width: 0.5"/>
     <use xlink:href="#m44b5b2a6e2" x="146.421587" y="101.667295" style="fill: #648fff; fill-opacity: 0.7; stroke: #000000; stroke-opacity: 0.7; stroke-width: 0.5"/>
     <use xlink:href="#m44b5b2a6e2" x="145.685671" y="102.087283" style="fill: #648fff; fill-opacity: 0.7; stroke: #000000; stroke-opacity: 0.7; stroke-width: 0.5"/>
    </g>
   </g>
   <g id="PathCollection_10">
    <g clip-path="url(#p9de7b587dc)">
     <use xlink:href="#m44b5b2a6e2" x="158.885061" y="70.456786" style="fill: #648fff; fill-opacity: 0.7; stroke: #000000; stroke-opacity: 0.7; stroke-width: 0.5"/>
     <use xlink:href="#m44b5b2a6e2" x="157.949842" y="79.022198" style="fill: #648fff; fill-opacity: 0.7; stroke: #000000; stroke-opacity: 0.7; stroke-width: 0.5"/>
     <use xlink:href="#m44b5b2a6e2" x="158.004238" y="80.36486" style="fill: #648fff; fill-opacity: 0.7; stroke: #000000; stroke-opacity: 0.7; stroke-width: 0.5"/>
    </g>
   </g>
   <g id="PathCollection_11">
    <g clip-path="url(#p9de7b587dc)">
     <use xlink:href="#m44b5b2a6e2" x="169.752716" y="75.919933" style="fill: #648fff; fill-opacity: 0.7; stroke: #000000; stroke-opacity: 0.7; stroke-width: 0.5"/>
     <use xlink:href="#m44b5b2a6e2" x="171.150556" y="76.413103" style="fill: #648fff; fill-opacity: 0.7; stroke: #000000; stroke-opacity: 0.7; stroke-width: 0.5"/>
     <use xlink:href="#m44b5b2a6e2" x="171.163939" y="76.995099" style="fill: #648fff; fill-opacity: 0.7; stroke: #000000; stroke-opacity: 0.7; stroke-width: 0.5"/>
    </g>
   </g>
   <g id="PathCollection_12">
    <g clip-path="url(#p9de7b587dc)">
     <use xlink:href="#m44b5b2a6e2" x="181.823034" y="99.58102" style="fill: #648fff; fill-opacity: 0.7; stroke: #000000; stroke-opacity: 0.7; stroke-width: 0.5"/>
     <use xlink:href="#m44b5b2a6e2" x="181.141252" y="98.524238" style="fill: #648fff; fill-opacity: 0.7; stroke: #000000; stroke-opacity: 0.7; stroke-width: 0.5"/>
     <use xlink:href="#m44b5b2a6e2" x="181.719964" y="97.877302" style="fill: #648fff; fill-opacity: 0.7; stroke: #000000; stroke-opacity: 0.7; stroke-width: 0.5"/>
    </g>
   </g>
   <g id="PathCollection_13">
    <g clip-path="url(#p9de7b587dc)">
     <use xlink:href="#m44b5b2a6e2" x="195.241862" y="49.625397" style="fill: #648fff; fill-opacity: 0.7; stroke: #000000; stroke-opacity: 0.7; stroke-width: 0.5"/>
     <use xlink:href="#m44b5b2a6e2" x="194.041014" y="65.486473" style="fill: #648fff; fill-opacity: 0.7; stroke: #000000; stroke-opacity: 0.7; stroke-width: 0.5"/>
     <use xlink:href="#m44b5b2a6e2" x="193.2566" y="61.306072" style="fill: #648fff; fill-opacity: 0.7; stroke: #000000; stroke-opacity: 0.7; stroke-width: 0.5"/>
    </g>
   </g>
   <g id="PathCollection_14">
    <g clip-path="url(#p9de7b587dc)">
     <use xlink:href="#m44b5b2a6e2" x="205.930571" y="38.06819" style="fill: #648fff; fill-opacity: 0.7; stroke: #000000; stroke-opacity: 0.7; stroke-width: 0.5"/>
     <use xlink:href="#m44b5b2a6e2" x="205.908238" y="41.027919" style="fill: #648fff; fill-opacity: 0.7; stroke: #000000; stroke-opacity: 0.7; stroke-width: 0.5"/>
     <use xlink:href="#m44b5b2a6e2" x="207.462234" y="35.373261" style="fill: #648fff; fill-opacity: 0.7; stroke: #000000; stroke-opacity: 0.7; stroke-width: 0.5"/>
    </g>
   </g>
   <g id="PathCollection_15">
    <g clip-path="url(#p9de7b587dc)">
     <use xlink:href="#m44b5b2a6e2" x="217.976924" y="60.136679" style="fill: #648fff; fill-opacity: 0.7; stroke: #000000; stroke-opacity: 0.7; stroke-width: 0.5"/>
     <use xlink:href="#m44b5b2a6e2" x="217.683743" y="86.224387" style="fill: #648fff; fill-opacity: 0.7; stroke: #000000; stroke-opacity: 0.7; stroke-width: 0.5"/>
     <use xlink:href="#m44b5b2a6e2" x="218.840658" y="84.30036" style="fill: #648fff; fill-opacity: 0.7; stroke: #000000; stroke-opacity: 0.7; stroke-width: 0.5"/>
    </g>
   </g>
   <g id="PathCollection_16">
    <g clip-path="url(#p9de7b587dc)">
     <use xlink:href="#m44b5b2a6e2" x="229.75524" y="86.122679" style="fill: #648fff; fill-opacity: 0.7; stroke: #000000; stroke-opacity: 0.7; stroke-width: 0.5"/>
     <use xlink:href="#m44b5b2a6e2" x="231.146443" y="87.63609" style="fill: #648fff; fill-opacity: 0.7; stroke: #000000; stroke-opacity: 0.7; stroke-width: 0.5"/>
     <use xlink:href="#m44b5b2a6e2" x="230.010094" y="89.223522" style="fill: #648fff; fill-opacity: 0.7; stroke: #000000; stroke-opacity: 0.7; stroke-width: 0.5"/>
     <use xlink:href="#m44b5b2a6e2" x="231.18282" y="91.787991" style="fill: #648fff; fill-opacity: 0.7; stroke: #000000; stroke-opacity: 0.7; stroke-width: 0.5"/>
     <use xlink:href="#m44b5b2a6e2" x="230.50477" y="92.535569" style="fill: #648fff; fill-opacity: 0.7; stroke: #000000; stroke-opacity: 0.7; stroke-width: 0.5"/>
     <use xlink:href="#m44b5b2a6e2" x="230.131776" y="93.935962" style="fill: #648fff; fill-opacity: 0.7; stroke: #000000; stroke-opacity: 0.7; stroke-width: 0.5"/>
     <use xlink:href="#m44b5b2a6e2" x="230.551918" y="93.982593" style="fill: #648fff; fill-opacity: 0.7; stroke: #000000; stroke-opacity: 0.7; stroke-width: 0.5"/>
     <use xlink:href="#m44b5b2a6e2" x="230.353107" y="94.306156" style="fill: #648fff; fill-opacity: 0.7; stroke: #000000; stroke-opacity: 0.7; stroke-width: 0.5"/>
     <use xlink:href="#m44b5b2a6e2" x="230.170114" y="96.378771" style="fill: #648fff; fill-opacity: 0.7; stroke: #000000; stroke-opacity: 0.7; stroke-width: 0.5"/>
     <use xlink:href="#m44b5b2a6e2" x="229.871952" y="96.80338" style="fill: #648fff; fill-opacity: 0.7; stroke: #000000; stroke-opacity: 0.7; stroke-width: 0.5"/>
     <use xlink:href="#m44b5b2a6e2" x="230.031506" y="97.565332" style="fill: #648fff; fill-opacity: 0.7; stroke: #000000; stroke-opacity: 0.7; stroke-width: 0.5"/>
     <use xlink:href="#m44b5b2a6e2" x="231.345541" y="98.561669" style="fill: #648fff; fill-opacity: 0.7; stroke: #000000; stroke-opacity: 0.7; stroke-width: 0.5"/>
     <use xlink:href="#m44b5b2a6e2" x="230.942105" y="98.621175" style="fill: #648fff; fill-opacity: 0.7; stroke: #000000; stroke-opacity: 0.7; stroke-width: 0.5"/>
     <use xlink:href="#m44b5b2a6e2" x="230.862139" y="98.759488" style="fill: #648fff; fill-opacity: 0.7; stroke: #000000; stroke-opacity: 0.7; stroke-width: 0.5"/>
     <use xlink:href="#m44b5b2a6e2" x="230.828154" y="102.081431" style="fill: #648fff; fill-opacity: 0.7; stroke: #000000; stroke-opacity: 0.7; stroke-width: 0.5"/>
     <use xlink:href="#m44b5b2a6e2" x="231.675693" y="106.535358" style="fill: #648fff; fill-opacity: 0.7; stroke: #000000; stroke-opacity: 0.7; stroke-width: 0.5"/>
     <use xlink:href="#m44b5b2a6e2" x="229.974759" y="110.411027" style="fill: #648fff; fill-opacity: 0.7; stroke: #000000; stroke-opacity: 0.7; stroke-width: 0.5"/>
     <use xlink:href="#m44b5b2a6e2" x="229.932692" y="97.573873" style="fill: #648fff; fill-opacity: 0.7; stroke: #000000; stroke-opacity: 0.7; stroke-width: 0.5"/>
    </g>
   </g>
   <g id="line2d_27">
    <path d="M 49.289012 78.626751 
L 49.289012 72.689556 
" clip-path="url(#p9de7b587dc)" style="fill: none; stroke: #000000; stroke-width: 0.5; stroke-linecap: round"/>
   </g>
   <g id="line2d_28">
    <path d="M 48.079724 78.626751 
L 50.4983 78.626751 
" clip-path="url(#p9de7b587dc)" style="fill: none; stroke: #000000; stroke-width: 0.5; stroke-linecap: round"/>
   </g>
   <g id="line2d_29">
    <path d="M 48.079724 72.689556 
L 50.4983 72.689556 
" clip-path="url(#p9de7b587dc)" style="fill: none; stroke: #000000; stroke-width: 0.5; stroke-linecap: round"/>
   </g>
   <g id="line2d_30">
    <path d="M 61.381891 85.913275 
L 61.381891 72.233967 
" clip-path="url(#p9de7b587dc)" style="fill: none; stroke: #000000; stroke-width: 0.5; stroke-linecap: round"/>
   </g>
   <g id="line2d_31">
    <path d="M 60.172603 85.913275 
L 62.591179 85.913275 
" clip-path="url(#p9de7b587dc)" style="fill: none; stroke: #000000; stroke-width: 0.5; stroke-linecap: round"/>
   </g>
   <g id="line2d_32">
    <path d="M 60.172603 72.233967 
L 62.591179 72.233967 
" clip-path="url(#p9de7b587dc)" style="fill: none; stroke: #000000; stroke-width: 0.5; stroke-linecap: round"/>
   </g>
   <g id="line2d_33">
    <path d="M 73.474771 30.060099 
L 73.474771 24.532394 
" clip-path="url(#p9de7b587dc)" style="fill: none; stroke: #000000; stroke-width: 0.5; stroke-linecap: round"/>
   </g>
   <g id="line2d_34">
    <path d="M 72.265483 30.060099 
L 74.684059 30.060099 
" clip-path="url(#p9de7b587dc)" style="fill: none; stroke: #000000; stroke-width: 0.5; stroke-linecap: round"/>
   </g>
   <g id="line2d_35">
    <path d="M 72.265483 24.532394 
L 74.684059 24.532394 
" clip-path="url(#p9de7b587dc)" style="fill: none; stroke: #000000; stroke-width: 0.5; stroke-linecap: round"/>
   </g>
   <g id="line2d_36">
    <path d="M 85.56765 84.848474 
L 85.56765 82.271346 
" clip-path="url(#p9de7b587dc)" style="fill: none; stroke: #000000; stroke-width: 0.5; stroke-linecap: round"/>
   </g>
   <g id="line2d_37">
    <path d="M 84.358362 84.848474 
L 86.776938 84.848474 
" clip-path="url(#p9de7b587dc)" style="fill: none; stroke: #000000; stroke-width: 0.5; stroke-linecap: round"/>
   </g>
   <g id="line2d_38">
    <path d="M 84.358362 82.271346 
L 86.776938 82.271346 
" clip-path="url(#p9de7b587dc)" style="fill: none; stroke: #000000; stroke-width: 0.5; stroke-linecap: round"/>
   </g>
   <g id="line2d_39">
    <path d="M 97.660529 76.867857 
L 97.660529 69.760101 
" clip-path="url(#p9de7b587dc)" style="fill: none; stroke: #000000; stroke-width: 0.5; stroke-linecap: round"/>
   </g>
   <g id="line2d_40">
    <path d="M 96.451241 76.867857 
L 98.869817 76.867857 
" clip-path="url(#p9de7b587dc)" style="fill: none; stroke: #000000; stroke-width: 0.5; stroke-linecap: round"/>
   </g>
   <g id="line2d_41">
    <path d="M 96.451241 69.760101 
L 98.869817 69.760101 
" clip-path="url(#p9de7b587dc)" style="fill: none; stroke: #000000; stroke-width: 0.5; stroke-linecap: round"/>
   </g>
   <g id="line2d_42">
    <path d="M 109.753408 87.329965 
L 109.753408 79.227399 
" clip-path="url(#p9de7b587dc)" style="fill: none; stroke: #000000; stroke-width: 0.5; stroke-linecap: round"/>
   </g>
   <g id="line2d_43">
    <path d="M 108.544121 87.329965 
L 110.962696 87.329965 
" clip-path="url(#p9de7b587dc)" style="fill: none; stroke: #000000; stroke-width: 0.5; stroke-linecap: round"/>
   </g>
   <g id="line2d_44">
    <path d="M 108.544121 79.227399 
L 110.962696 79.227399 
" clip-path="url(#p9de7b587dc)" style="fill: none; stroke: #000000; stroke-width: 0.5; stroke-linecap: round"/>
   </g>
   <g id="line2d_45">
    <path d="M 121.846288 61.769731 
L 121.846288 42.905902 
" clip-path="url(#p9de7b587dc)" style="fill: none; stroke: #000000; stroke-width: 0.5; stroke-linecap: round"/>
   </g>
   <g id="line2d_46">
    <path d="M 120.637 61.769731 
L 123.055576 61.769731 
" clip-path="url(#p9de7b587dc)" style="fill: none; stroke: #000000; stroke-width: 0.5; stroke-linecap: round"/>
   </g>
   <g id="line2d_47">
    <path d="M 120.637 42.905902 
L 123.055576 42.905902 
" clip-path="url(#p9de7b587dc)" style="fill: none; stroke: #000000; stroke-width: 0.5; stroke-linecap: round"/>
   </g>
   <g id="line2d_48">
    <path d="M 133.939167 72.631262 
L 133.939167 64.949929 
" clip-path="url(#p9de7b587dc)" style="fill: none; stroke: #000000; stroke-width: 0.5; stroke-linecap: round"/>
   </g>
   <g id="line2d_49">
    <path d="M 132.729879 72.631262 
L 135.148455 72.631262 
" clip-path="url(#p9de7b587dc)" style="fill: none; stroke: #000000; stroke-width: 0.5; stroke-linecap: round"/>
   </g>
   <g id="line2d_50">
    <path d="M 132.729879 64.949929 
L 135.148455 64.949929 
" clip-path="url(#p9de7b587dc)" style="fill: none; stroke: #000000; stroke-width: 0.5; stroke-linecap: round"/>
   </g>
   <g id="line2d_51">
    <path d="M 146.032046 102.071478 
L 146.032046 101.331009 
" clip-path="url(#p9de7b587dc)" style="fill: none; stroke: #000000; stroke-width: 0.5; stroke-linecap: round"/>
   </g>
   <g id="line2d_52">
    <path d="M 144.822758 102.071478 
L 147.241334 102.071478 
" clip-path="url(#p9de7b587dc)" style="fill: none; stroke: #000000; stroke-width: 0.5; stroke-linecap: round"/>
   </g>
   <g id="line2d_53">
    <path d="M 144.822758 101.331009 
L 147.241334 101.331009 
" clip-path="url(#p9de7b587dc)" style="fill: none; stroke: #000000; stroke-width: 0.5; stroke-linecap: round"/>
   </g>
   <g id="line2d_54">
    <path d="M 158.124925 81.98954 
L 158.124925 71.239689 
" clip-path="url(#p9de7b587dc)" style="fill: none; stroke: #000000; stroke-width: 0.5; stroke-linecap: round"/>
   </g>
   <g id="line2d_55">
    <path d="M 156.915638 81.98954 
L 159.334213 81.98954 
" clip-path="url(#p9de7b587dc)" style="fill: none; stroke: #000000; stroke-width: 0.5; stroke-linecap: round"/>
   </g>
   <g id="line2d_56">
    <path d="M 156.915638 71.239689 
L 159.334213 71.239689 
" clip-path="url(#p9de7b587dc)" style="fill: none; stroke: #000000; stroke-width: 0.5; stroke-linecap: round"/>
   </g>
   <g id="line2d_57">
    <path d="M 170.217805 76.980906 
L 170.217805 75.904517 
" clip-path="url(#p9de7b587dc)" style="fill: none; stroke: #000000; stroke-width: 0.5; stroke-linecap: round"/>
   </g>
   <g id="line2d_58">
    <path d="M 169.008517 76.980906 
L 171.427093 76.980906 
" clip-path="url(#p9de7b587dc)" style="fill: none; stroke: #000000; stroke-width: 0.5; stroke-linecap: round"/>
   </g>
   <g id="line2d_59">
    <path d="M 169.008517 75.904517 
L 171.427093 75.904517 
" clip-path="url(#p9de7b587dc)" style="fill: none; stroke: #000000; stroke-width: 0.5; stroke-linecap: round"/>
   </g>
   <g id="line2d_60">
    <path d="M 182.310684 99.520889 
L 182.310684 97.800818 
" clip-path="url(#p9de7b587dc)" style="fill: none; stroke: #000000; stroke-width: 0.5; stroke-linecap: round"/>
   </g>
   <g id="line2d_61">
    <path d="M 181.101396 99.520889 
L 183.519972 99.520889 
" clip-path="url(#p9de7b587dc)" style="fill: none; stroke: #000000; stroke-width: 0.5; stroke-linecap: round"/>
   </g>
   <g id="line2d_62">
    <path d="M 181.101396 97.800818 
L 183.519972 97.800818 
" clip-path="url(#p9de7b587dc)" style="fill: none; stroke: #000000; stroke-width: 0.5; stroke-linecap: round"/>
   </g>
   <g id="line2d_63">
    <path d="M 194.403563 67.026764 
L 194.403563 50.585198 
" clip-path="url(#p9de7b587dc)" style="fill: none; stroke: #000000; stroke-width: 0.5; stroke-linecap: round"/>
   </g>
   <g id="line2d_64">
    <path d="M 193.194275 67.026764 
L 195.612851 67.026764 
" clip-path="url(#p9de7b587dc)" style="fill: none; stroke: #000000; stroke-width: 0.5; stroke-linecap: round"/>
   </g>
   <g id="line2d_65">
    <path d="M 193.194275 50.585198 
L 195.612851 50.585198 
" clip-path="url(#p9de7b587dc)" style="fill: none; stroke: #000000; stroke-width: 0.5; stroke-linecap: round"/>
   </g>
   <g id="line2d_66">
    <path d="M 206.496442 40.984819 
L 206.496442 35.328094 
" clip-path="url(#p9de7b587dc)" style="fill: none; stroke: #000000; stroke-width: 0.5; stroke-linecap: round"/>
   </g>
   <g id="line2d_67">
    <path d="M 205.287155 40.984819 
L 207.70573 40.984819 
" clip-path="url(#p9de7b587dc)" style="fill: none; stroke: #000000; stroke-width: 0.5; stroke-linecap: round"/>
   </g>
   <g id="line2d_68">
    <path d="M 205.287155 35.328094 
L 207.70573 35.328094 
" clip-path="url(#p9de7b587dc)" style="fill: none; stroke: #000000; stroke-width: 0.5; stroke-linecap: round"/>
   </g>
   <g id="line2d_69">
    <path d="M 218.589322 91.425333 
L 218.589322 62.348952 
" clip-path="url(#p9de7b587dc)" style="fill: none; stroke: #000000; stroke-width: 0.5; stroke-linecap: round"/>
   </g>
   <g id="line2d_70">
    <path d="M 217.380034 91.425333 
L 219.79861 91.425333 
" clip-path="url(#p9de7b587dc)" style="fill: none; stroke: #000000; stroke-width: 0.5; stroke-linecap: round"/>
   </g>
   <g id="line2d_71">
    <path d="M 217.380034 62.348952 
L 219.79861 62.348952 
" clip-path="url(#p9de7b587dc)" style="fill: none; stroke: #000000; stroke-width: 0.5; stroke-linecap: round"/>
   </g>
   <g id="line2d_72">
    <path d="M 230.682201 102.382037 
L 230.682201 90.153749 
" clip-path="url(#p9de7b587dc)" style="fill: none; stroke: #000000; stroke-width: 0.5; stroke-linecap: round"/>
   </g>
   <g id="line2d_73">
    <path d="M 229.472913 102.382037 
L 231.891489 102.382037 
" clip-path="url(#p9de7b587dc)" style="fill: none; stroke: #000000; stroke-width: 0.5; stroke-linecap: round"/>
   </g>
   <g id="line2d_74">
    <path d="M 229.472913 90.153749 
L 231.891489 90.153749 
" clip-path="url(#p9de7b587dc)" style="fill: none; stroke: #000000; stroke-width: 0.5; stroke-linecap: round"/>
   </g>
   <g id="patch_19">
    <path d="M 41.428641 148.555758 
L 41.428641 9.955758 
" style="fill: none; stroke: #000000; stroke-width: 0.5; stroke-linejoin: miter; stroke-linecap: square"/>
   </g>
   <g id="patch_20">
    <path d="M 236.728641 148.555758 
L 236.728641 9.955758 
" style="fill: none; stroke: #000000; stroke-width: 0.5; stroke-linejoin: miter; stroke-linecap: square"/>
   </g>
   <g id="patch_21">
    <path d="M 41.428641 148.555758 
L 236.728641 148.555758 
" style="fill: none; stroke: #000000; stroke-width: 0.5; stroke-linejoin: miter; stroke-linecap: square"/>
   </g>
   <g id="patch_22">
    <path d="M 41.428641 9.955758 
L 236.728641 9.955758 
" style="fill: none; stroke: #000000; stroke-width: 0.5; stroke-linejoin: miter; stroke-linecap: square"/>
   </g>
   <g id="legend_1">
    <g id="patch_23">
     <path d="M 184.442031 27.007648 
L 231.338641 27.007648 
Q 232.878641 27.007648 232.878641 25.467648 
L 232.878641 15.345758 
Q 232.878641 13.805758 231.338641 13.805758 
L 184.442031 13.805758 
Q 182.902031 13.805758 182.902031 15.345758 
L 182.902031 25.467648 
Q 182.902031 27.007648 184.442031 27.007648 
z
" style="fill: #ffffff; opacity: 0.8; stroke: #cccccc; stroke-linejoin: miter"/>
    </g>
    <g id="PathCollection_17">
     <g>
      <use xlink:href="#m44b5b2a6e2" x="193.682031" y="20.376023" style="fill: #648fff; fill-opacity: 0.7; stroke: #000000; stroke-opacity: 0.7; stroke-width: 0.5"/>
     </g>
    </g>
    <g id="text_29">
     <!-- dCas9 -->
     <g style="fill: #262626" transform="translate(207.542031 22.397273) scale(0.077 -0.077)">
      <defs>
       <path id="ArialMT-64" d="M 2575 0 
L 2575 419 
Q 2259 -75 1647 -75 
Q 1250 -75 917 144 
Q 584 363 401 755 
Q 219 1147 219 1656 
Q 219 2153 384 2558 
Q 550 2963 881 3178 
Q 1213 3394 1622 3394 
Q 1922 3394 2156 3267 
Q 2391 3141 2538 2938 
L 2538 4581 
L 3097 4581 
L 3097 0 
L 2575 0 
z
M 797 1656 
Q 797 1019 1065 703 
Q 1334 388 1700 388 
Q 2069 388 2326 689 
Q 2584 991 2584 1609 
Q 2584 2291 2321 2609 
Q 2059 2928 1675 2928 
Q 1300 2928 1048 2622 
Q 797 2316 797 1656 
z
" transform="scale(0.015625)"/>
       <path id="ArialMT-61" d="M 2588 409 
Q 2275 144 1986 34 
Q 1697 -75 1366 -75 
Q 819 -75 525 192 
Q 231 459 231 875 
Q 231 1119 342 1320 
Q 453 1522 633 1644 
Q 813 1766 1038 1828 
Q 1203 1872 1538 1913 
Q 2219 1994 2541 2106 
Q 2544 2222 2544 2253 
Q 2544 2597 2384 2738 
Q 2169 2928 1744 2928 
Q 1347 2928 1158 2789 
Q 969 2650 878 2297 
L 328 2372 
Q 403 2725 575 2942 
Q 747 3159 1072 3276 
Q 1397 3394 1825 3394 
Q 2250 3394 2515 3294 
Q 2781 3194 2906 3042 
Q 3031 2891 3081 2659 
Q 3109 2516 3109 2141 
L 3109 1391 
Q 3109 606 3145 398 
Q 3181 191 3288 0 
L 2700 0 
Q 2613 175 2588 409 
z
M 2541 1666 
Q 2234 1541 1622 1453 
Q 1275 1403 1131 1340 
Q 988 1278 909 1158 
Q 831 1038 831 891 
Q 831 666 1001 516 
Q 1172 366 1500 366 
Q 1825 366 2078 508 
Q 2331 650 2450 897 
Q 2541 1088 2541 1459 
L 2541 1666 
z
" transform="scale(0.015625)"/>
       <path id="ArialMT-73" d="M 197 991 
L 753 1078 
Q 800 744 1014 566 
Q 1228 388 1613 388 
Q 2000 388 2187 545 
Q 2375 703 2375 916 
Q 2375 1106 2209 1216 
Q 2094 1291 1634 1406 
Q 1016 1563 777 1677 
Q 538 1791 414 1992 
Q 291 2194 291 2438 
Q 291 2659 392 2848 
Q 494 3038 669 3163 
Q 800 3259 1026 3326 
Q 1253 3394 1513 3394 
Q 1903 3394 2198 3281 
Q 2494 3169 2634 2976 
Q 2775 2784 2828 2463 
L 2278 2388 
Q 2241 2644 2061 2787 
Q 1881 2931 1553 2931 
Q 1166 2931 1000 2803 
Q 834 2675 834 2503 
Q 834 2394 903 2306 
Q 972 2216 1119 2156 
Q 1203 2125 1616 2013 
Q 2213 1853 2448 1751 
Q 2684 1650 2818 1456 
Q 2953 1263 2953 975 
Q 2953 694 2789 445 
Q 2625 197 2315 61 
Q 2006 -75 1616 -75 
Q 969 -75 630 194 
Q 291 463 197 991 
z
" transform="scale(0.015625)"/>
       <path id="ArialMT-39" d="M 350 1059 
L 891 1109 
Q 959 728 1153 556 
Q 1347 384 1650 384 
Q 1909 384 2104 503 
Q 2300 622 2425 820 
Q 2550 1019 2634 1356 
Q 2719 1694 2719 2044 
Q 2719 2081 2716 2156 
Q 2547 1888 2255 1720 
Q 1963 1553 1622 1553 
Q 1053 1553 659 1965 
Q 266 2378 266 3053 
Q 266 3750 677 4175 
Q 1088 4600 1706 4600 
Q 2153 4600 2523 4359 
Q 2894 4119 3086 3673 
Q 3278 3228 3278 2384 
Q 3278 1506 3087 986 
Q 2897 466 2520 194 
Q 2144 -78 1638 -78 
Q 1100 -78 759 220 
Q 419 519 350 1059 
z
M 2653 3081 
Q 2653 3566 2395 3850 
Q 2138 4134 1775 4134 
Q 1400 4134 1122 3828 
Q 844 3522 844 3034 
Q 844 2597 1108 2323 
Q 1372 2050 1759 2050 
Q 2150 2050 2401 2323 
Q 2653 2597 2653 3081 
z
" transform="scale(0.015625)"/>
      </defs>
      <use xlink:href="#ArialMT-64"/>
      <use xlink:href="#ArialMT-43" x="55.615234"/>
      <use xlink:href="#ArialMT-61" x="127.832031"/>
      <use xlink:href="#ArialMT-73" x="183.447266"/>
      <use xlink:href="#ArialMT-39" x="233.447266"/>
     </g>
    </g>
   </g>
  </g>
 </g>
 <defs>
  <clipPath id="p9de7b587dc">
   <rect x="41.428641" y="9.955758" width="195.3" height="138.6"/>
  </clipPath>
 </defs>
</svg>
