<?xml version="1.0" encoding="utf-8" standalone="no"?>
<!DOCTYPE svg PUBLIC "-//W3C//DTD SVG 1.1//EN"
  "http://www.w3.org/Graphics/SVG/1.1/DTD/svg11.dtd">
<svg xmlns:xlink="http://www.w3.org/1999/xlink" width="243.928641pt" height="235.807063pt" viewBox="0 0 243.928641 235.807063" xmlns="http://www.w3.org/2000/svg" version="1.1">
 <metadata>
  <rdf:RDF xmlns:dc="http://purl.org/dc/elements/1.1/" xmlns:cc="http://creativecommons.org/ns#" xmlns:rdf="http://www.w3.org/1999/02/22-rdf-syntax-ns#">
   <cc:Work>
    <dc:type rdf:resource="http://purl.org/dc/dcmitype/StillImage"/>
    <dc:date>2025-02-27T09:08:02.453278</dc:date>
    <dc:format>image/svg+xml</dc:format>
    <dc:creator>
     <cc:Agent>
      <dc:title>Matplotlib v3.9.0, https://matplotlib.org/</dc:title>
     </cc:Agent>
    </dc:creator>
   </cc:Work>
  </rdf:RDF>
 </metadata>
 <defs>
  <style type="text/css">*{stroke-linejoin: round; stroke-linecap: butt}</style>
 </defs>
 <g id="figure_1">
  <g id="patch_1">
   <path d="M 0 235.807063 
L 243.928641 235.807063 
L 243.928641 0 
L 0 0 
z
" style="fill: #ffffff"/>
  </g>
  <g id="axes_1">
   <g id="patch_2">
    <path d="M 41.428641 145.8 
L 236.728641 145.8 
L 236.728641 7.2 
L 41.428641 7.2 
z
" style="fill: #ffffff"/>
   </g>
   <g id="patch_3">
    <path d="M 45.141568 145.8 
L 51.082253 145.8 
L 51.082253 106.109304 
L 45.141568 106.109304 
z
" clip-path="url(#p0893d93258)" style="fill: #648fff; stroke: #000000; stroke-width: 0.5; stroke-linejoin: miter"/>
   </g>
   <g id="patch_4">
    <path d="M 59.993279 145.8 
L 65.933964 145.8 
L 65.933964 78.299334 
L 59.993279 78.299334 
z
" clip-path="url(#p0893d93258)" style="fill: #648fff; stroke: #000000; stroke-width: 0.5; stroke-linejoin: miter"/>
   </g>
   <g id="patch_5">
    <path d="M 74.84499 145.8 
L 80.785675 145.8 
L 80.785675 76.512382 
L 74.84499 76.512382 
z
" clip-path="url(#p0893d93258)" style="fill: #648fff; stroke: #000000; stroke-width: 0.5; stroke-linejoin: miter"/>
   </g>
   <g id="patch_6">
    <path d="M 89.696701 145.8 
L 95.637386 145.8 
L 95.637386 71.357793 
L 89.696701 71.357793 
z
" clip-path="url(#p0893d93258)" style="fill: #648fff; stroke: #000000; stroke-width: 0.5; stroke-linejoin: miter"/>
   </g>
   <g id="patch_7">
    <path d="M 104.548412 145.8 
L 110.489097 145.8 
L 110.489097 56.52644 
L 104.548412 56.52644 
z
" clip-path="url(#p0893d93258)" style="fill: #648fff; stroke: #000000; stroke-width: 0.5; stroke-linejoin: miter"/>
   </g>
   <g id="patch_8">
    <path d="M 119.400124 145.8 
L 125.340808 145.8 
L 125.340808 80.19508 
L 119.400124 80.19508 
z
" clip-path="url(#p0893d93258)" style="fill: #648fff; stroke: #000000; stroke-width: 0.5; stroke-linejoin: miter"/>
   </g>
   <g id="patch_9">
    <path d="M 134.251835 145.8 
L 140.192519 145.8 
L 140.192519 78.508862 
L 134.251835 78.508862 
z
" clip-path="url(#p0893d93258)" style="fill: #648fff; stroke: #000000; stroke-width: 0.5; stroke-linejoin: miter"/>
   </g>
   <g id="patch_10">
    <path d="M 149.103546 145.8 
L 155.04423 145.8 
L 155.04423 124.715929 
L 149.103546 124.715929 
z
" clip-path="url(#p0893d93258)" style="fill: #648fff; stroke: #000000; stroke-width: 0.5; stroke-linejoin: miter"/>
   </g>
   <g id="patch_11">
    <path d="M 163.955257 145.8 
L 169.895941 145.8 
L 169.895941 75.846946 
L 163.955257 75.846946 
z
" clip-path="url(#p0893d93258)" style="fill: #648fff; stroke: #000000; stroke-width: 0.5; stroke-linejoin: miter"/>
   </g>
   <g id="patch_12">
    <path d="M 178.806968 145.8 
L 184.747652 145.8 
L 184.747652 100.25695 
L 178.806968 100.25695 
z
" clip-path="url(#p0893d93258)" style="fill: #648fff; stroke: #000000; stroke-width: 0.5; stroke-linejoin: miter"/>
   </g>
   <g id="patch_13">
    <path d="M 193.658679 145.8 
L 199.599363 145.8 
L 199.599363 74.752325 
L 193.658679 74.752325 
z
" clip-path="url(#p0893d93258)" style="fill: #648fff; stroke: #000000; stroke-width: 0.5; stroke-linejoin: miter"/>
   </g>
   <g id="patch_14">
    <path d="M 208.51039 145.8 
L 214.451074 145.8 
L 214.451074 143.83249 
L 208.51039 143.83249 
z
" clip-path="url(#p0893d93258)" style="fill: #648fff; stroke: #000000; stroke-width: 0.5; stroke-linejoin: miter"/>
   </g>
   <g id="patch_15">
    <path d="M 223.362101 145.8 
L 229.302785 145.8 
L 229.302785 112.967691 
L 223.362101 112.967691 
z
" clip-path="url(#p0893d93258)" style="fill: #648fff; stroke: #000000; stroke-width: 0.5; stroke-linejoin: miter"/>
   </g>
   <g id="patch_16">
    <path d="M 51.082253 145.8 
L 57.022937 145.8 
L 57.022937 95.368351 
L 51.082253 95.368351 
z
" clip-path="url(#p0893d93258)" style="fill: #fe6100; stroke: #000000; stroke-width: 0.5; stroke-linejoin: miter"/>
   </g>
   <g id="patch_17">
    <path d="M 65.933964 145.8 
L 71.874648 145.8 
L 71.874648 84.445048 
L 65.933964 84.445048 
z
" clip-path="url(#p0893d93258)" style="fill: #fe6100; stroke: #000000; stroke-width: 0.5; stroke-linejoin: miter"/>
   </g>
   <g id="patch_18">
    <path d="M 80.785675 145.8 
L 86.726359 145.8 
L 86.726359 71.953862 
L 80.785675 71.953862 
z
" clip-path="url(#p0893d93258)" style="fill: #fe6100; stroke: #000000; stroke-width: 0.5; stroke-linejoin: miter"/>
   </g>
   <g id="patch_19">
    <path d="M 95.637386 145.8 
L 101.57807 145.8 
L 101.57807 23.468673 
L 95.637386 23.468673 
z
" clip-path="url(#p0893d93258)" style="fill: #fe6100; stroke: #000000; stroke-width: 0.5; stroke-linejoin: miter"/>
   </g>
   <g id="patch_20">
    <path d="M 110.489097 145.8 
L 116.429781 145.8 
L 116.429781 56.5696 
L 110.489097 56.5696 
z
" clip-path="url(#p0893d93258)" style="fill: #fe6100; stroke: #000000; stroke-width: 0.5; stroke-linejoin: miter"/>
   </g>
   <g id="patch_21">
    <path d="M 125.340808 145.8 
L 131.281492 145.8 
L 131.281492 79.448572 
L 125.340808 79.448572 
z
" clip-path="url(#p0893d93258)" style="fill: #fe6100; stroke: #000000; stroke-width: 0.5; stroke-linejoin: miter"/>
   </g>
   <g id="patch_22">
    <path d="M 140.192519 145.8 
L 146.133203 145.8 
L 146.133203 42.633761 
L 140.192519 42.633761 
z
" clip-path="url(#p0893d93258)" style="fill: #fe6100; stroke: #000000; stroke-width: 0.5; stroke-linejoin: miter"/>
   </g>
   <g id="patch_23">
    <path d="M 155.04423 145.8 
L 160.984914 145.8 
L 160.984914 116.506151 
L 155.04423 116.506151 
z
" clip-path="url(#p0893d93258)" style="fill: #fe6100; stroke: #000000; stroke-width: 0.5; stroke-linejoin: miter"/>
   </g>
   <g id="patch_24">
    <path d="M 169.895941 145.8 
L 175.836625 145.8 
L 175.836625 69.549852 
L 169.895941 69.549852 
z
" clip-path="url(#p0893d93258)" style="fill: #fe6100; stroke: #000000; stroke-width: 0.5; stroke-linejoin: miter"/>
   </g>
   <g id="patch_25">
    <path d="M 184.747652 145.8 
L 190.688336 145.8 
L 190.688336 97.743787 
L 184.747652 97.743787 
z
" clip-path="url(#p0893d93258)" style="fill: #fe6100; stroke: #000000; stroke-width: 0.5; stroke-linejoin: miter"/>
   </g>
   <g id="patch_26">
    <path d="M 199.599363 145.8 
L 205.540047 145.8 
L 205.540047 75.062668 
L 199.599363 75.062668 
z
" clip-path="url(#p0893d93258)" style="fill: #fe6100; stroke: #000000; stroke-width: 0.5; stroke-linejoin: miter"/>
   </g>
   <g id="patch_27">
    <path d="M 214.451074 145.8 
L 220.391758 145.8 
L 220.391758 144.40527 
L 214.451074 144.40527 
z
" clip-path="url(#p0893d93258)" style="fill: #fe6100; stroke: #000000; stroke-width: 0.5; stroke-linejoin: miter"/>
   </g>
   <g id="patch_28">
    <path d="M 0 0 
z
" clip-path="url(#p0893d93258)" style="fill: #fe6100; stroke: #000000; stroke-width: 0.5; stroke-linejoin: miter"/>
   </g>
   <g id="PathCollection_1"/>
   <g id="PathCollection_2"/>
   <g id="matplotlib.axis_1">
    <g id="xtick_1">
     <g id="line2d_1">
      <defs>
       <path id="m0df266f125" d="M 0 5 
L 0 -5 
" style="stroke: #262626; stroke-width: 0.5"/>
      </defs>
      <g>
       <use xlink:href="#m0df266f125" x="51.082253" y="145.8" style="fill: #262626; stroke: #262626; stroke-width: 0.5"/>
      </g>
     </g>
     <g id="text_1">
      <!-- $\Delta$PP_0368 -->
      <g style="fill: #262626" transform="translate(53.122753 194.76) rotate(-90) scale(0.077 -0.077)">
       <defs>
        <path id="DejaVuSans-394" d="M 2188 4044 
L 906 525 
L 3472 525 
L 2188 4044 
z
M 50 0 
L 1831 4666 
L 2547 4666 
L 4325 0 
L 50 0 
z
" transform="scale(0.015625)"/>
        <path id="Arial-ItalicMT-50" d="M 275 0 
L 1234 4581 
L 3147 4581 
Q 3644 4581 3892 4467 
Q 4141 4353 4303 4076 
Q 4466 3800 4466 3456 
Q 4466 3172 4350 2878 
Q 4234 2584 4057 2393 
Q 3881 2203 3700 2106 
Q 3519 2009 3313 1963 
Q 2872 1859 2422 1859 
L 1275 1859 
L 888 0 
L 275 0 
z
M 1384 2378 
L 2394 2378 
Q 2981 2378 3256 2504 
Q 3531 2631 3697 2890 
Q 3863 3150 3863 3441 
Q 3863 3666 3775 3808 
Q 3688 3950 3528 4017 
Q 3369 4084 2916 4084 
L 1741 4084 
L 1384 2378 
z
" transform="scale(0.015625)"/>
        <path id="Arial-ItalicMT-5f" d="M -406 -1272 
L -406 -866 
L 3322 -866 
L 3322 -1272 
L -406 -1272 
z
" transform="scale(0.015625)"/>
        <path id="Arial-ItalicMT-30" d="M 453 1503 
Q 453 2084 626 2684 
Q 800 3284 1012 3643 
Q 1225 4003 1453 4206 
Q 1681 4409 1901 4504 
Q 2122 4600 2391 4600 
Q 2916 4600 3267 4209 
Q 3619 3819 3619 3081 
Q 3619 2322 3375 1578 
Q 3088 697 2575 256 
Q 2181 -78 1678 -78 
Q 1163 -78 808 326 
Q 453 731 453 1503 
z
M 1000 1359 
Q 1000 938 1141 700 
Q 1331 372 1706 372 
Q 2034 372 2303 669 
Q 2691 1088 2886 1895 
Q 3081 2703 3081 3216 
Q 3081 3709 2892 3928 
Q 2703 4147 2394 4147 
Q 2169 4147 1973 4031 
Q 1778 3916 1600 3634 
Q 1347 3238 1159 2447 
Q 1000 1772 1000 1359 
z
" transform="scale(0.015625)"/>
        <path id="Arial-ItalicMT-33" d="M 350 1200 
L 900 1269 
Q 963 788 1177 580 
Q 1391 372 1738 372 
Q 2156 372 2461 672 
Q 2766 972 2766 1359 
Q 2766 1697 2537 1917 
Q 2309 2138 1925 2138 
Q 1881 2138 1744 2125 
L 1841 2597 
Q 1922 2584 1997 2584 
Q 2481 2584 2742 2820 
Q 3003 3056 3003 3400 
Q 3003 3716 2789 3931 
Q 2575 4147 2266 4147 
Q 1963 4147 1720 3926 
Q 1478 3706 1409 3303 
L 853 3416 
Q 991 3981 1381 4290 
Q 1772 4600 2306 4600 
Q 2869 4600 3217 4259 
Q 3566 3919 3566 3422 
Q 3566 3059 3377 2789 
Q 3188 2519 2809 2341 
Q 3078 2181 3211 1956 
Q 3344 1731 3344 1441 
Q 3344 825 2883 373 
Q 2422 -78 1781 -78 
Q 1159 -78 776 270 
Q 394 619 350 1200 
z
" transform="scale(0.015625)"/>
        <path id="Arial-ItalicMT-36" d="M 1288 2656 
Q 1525 2853 1761 2951 
Q 1997 3050 2228 3050 
Q 2750 3050 3090 2694 
Q 3431 2338 3431 1734 
Q 3431 956 2925 400 
Q 2488 -78 1863 -78 
Q 1294 -78 914 339 
Q 534 756 534 1528 
Q 534 2219 778 2956 
Q 966 3522 1242 3889 
Q 1519 4256 1830 4428 
Q 2141 4600 2531 4600 
Q 3000 4600 3297 4308 
Q 3594 4016 3634 3472 
L 3109 3422 
Q 3066 3794 2898 3959 
Q 2731 4125 2491 4125 
Q 2238 4125 1981 3928 
Q 1725 3731 1540 3345 
Q 1356 2959 1288 2656 
z
M 1091 1288 
Q 1091 900 1331 636 
Q 1572 372 1875 372 
Q 2088 372 2325 533 
Q 2563 694 2728 1022 
Q 2894 1350 2894 1675 
Q 2894 2094 2664 2345 
Q 2434 2597 2109 2597 
Q 1734 2597 1412 2230 
Q 1091 1863 1091 1288 
z
" transform="scale(0.015625)"/>
        <path id="Arial-ItalicMT-38" d="M 1444 2519 
Q 1188 2659 1059 2879 
Q 931 3100 931 3353 
Q 931 3769 1231 4122 
Q 1631 4600 2316 4600 
Q 2919 4600 3266 4276 
Q 3613 3953 3613 3484 
Q 3613 3150 3425 2881 
Q 3238 2613 2838 2453 
Q 3113 2281 3231 2088 
Q 3384 1834 3384 1497 
Q 3384 881 2948 400 
Q 2513 -81 1788 -81 
Q 1209 -81 843 275 
Q 478 631 478 1166 
Q 478 1669 737 2030 
Q 997 2391 1444 2519 
z
M 1488 3328 
Q 1488 3034 1677 2854 
Q 1866 2675 2197 2675 
Q 2584 2675 2826 2911 
Q 3069 3147 3069 3491 
Q 3069 3781 2880 3964 
Q 2691 4147 2359 4147 
Q 2109 4147 1900 4031 
Q 1691 3916 1589 3717 
Q 1488 3519 1488 3328 
z
M 1047 1119 
Q 1047 928 1139 753 
Q 1231 578 1418 475 
Q 1606 372 1847 372 
Q 2306 372 2591 803 
Q 2816 1141 2816 1531 
Q 2816 1850 2608 2053 
Q 2400 2256 2063 2256 
Q 1638 2256 1342 1940 
Q 1047 1625 1047 1119 
z
" transform="scale(0.015625)"/>
       </defs>
       <use xlink:href="#DejaVuSans-394" transform="translate(0 0.09375)"/>
       <use xlink:href="#Arial-ItalicMT-50" transform="translate(68.408203 0.09375)"/>
       <use xlink:href="#Arial-ItalicMT-50" transform="translate(135.107422 0.09375)"/>
       <use xlink:href="#Arial-ItalicMT-5f" transform="translate(201.806641 0.09375)"/>
       <use xlink:href="#Arial-ItalicMT-30" transform="translate(257.421875 0.09375)"/>
       <use xlink:href="#Arial-ItalicMT-33" transform="translate(313.037109 0.09375)"/>
       <use xlink:href="#Arial-ItalicMT-36" transform="translate(368.652344 0.09375)"/>
       <use xlink:href="#Arial-ItalicMT-38" transform="translate(424.267578 0.09375)"/>
      </g>
     </g>
    </g>
    <g id="xtick_2">
     <g id="line2d_2">
      <g>
       <use xlink:href="#m0df266f125" x="65.933964" y="145.8" style="fill: #262626; stroke: #262626; stroke-width: 0.5"/>
      </g>
     </g>
     <g id="text_2">
      <!-- $\Delta$PP_0751 -->
      <g style="fill: #262626" transform="translate(67.974464 194.76) rotate(-90) scale(0.077 -0.077)">
       <defs>
        <path id="Arial-ItalicMT-37" d="M 928 0 
Q 1003 463 1247 1113 
Q 1538 1897 2009 2670 
Q 2481 3444 3059 4000 
L 775 4000 
L 884 4519 
L 3809 4519 
L 3703 4000 
Q 2959 3347 2403 2316 
Q 1756 1125 1519 0 
L 928 0 
z
" transform="scale(0.015625)"/>
        <path id="Arial-ItalicMT-35" d="M 447 1309 
L 1022 1366 
Q 1016 1244 1016 1219 
Q 1016 1013 1120 803 
Q 1225 594 1404 483 
Q 1584 372 1784 372 
Q 2047 372 2319 553 
Q 2591 734 2759 1081 
Q 2928 1428 2928 1769 
Q 2928 2153 2701 2384 
Q 2475 2616 2106 2616 
Q 1859 2616 1639 2497 
Q 1419 2378 1228 2141 
L 734 2175 
L 1425 4519 
L 3663 4519 
L 3553 4000 
L 1813 4000 
L 1469 2834 
Q 1663 2975 1867 3045 
Q 2072 3116 2288 3116 
Q 2813 3116 3150 2769 
Q 3488 2422 3488 1819 
Q 3488 1291 3256 845 
Q 3025 400 2620 161 
Q 2216 -78 1747 -78 
Q 1353 -78 1050 100 
Q 747 278 595 590 
Q 444 903 444 1216 
Q 444 1247 447 1309 
z
" transform="scale(0.015625)"/>
        <path id="Arial-ItalicMT-31" d="M 1541 0 
L 2266 3459 
Q 1797 3091 947 2869 
L 1053 3381 
Q 1475 3550 1886 3822 
Q 2297 4094 2503 4297 
Q 2628 4422 2741 4600 
L 3069 4600 
L 2109 0 
L 1541 0 
z
" transform="scale(0.015625)"/>
       </defs>
       <use xlink:href="#DejaVuSans-394" transform="translate(0 0.09375)"/>
       <use xlink:href="#Arial-ItalicMT-50" transform="translate(68.408203 0.09375)"/>
       <use xlink:href="#Arial-ItalicMT-50" transform="translate(135.107422 0.09375)"/>
       <use xlink:href="#Arial-ItalicMT-5f" transform="translate(201.806641 0.09375)"/>
       <use xlink:href="#Arial-ItalicMT-30" transform="translate(257.421875 0.09375)"/>
       <use xlink:href="#Arial-ItalicMT-37" transform="translate(313.037109 0.09375)"/>
       <use xlink:href="#Arial-ItalicMT-35" transform="translate(368.652344 0.09375)"/>
       <use xlink:href="#Arial-ItalicMT-31" transform="translate(424.267578 0.09375)"/>
      </g>
     </g>
    </g>
    <g id="xtick_3">
     <g id="line2d_3">
      <g>
       <use xlink:href="#m0df266f125" x="80.785675" y="145.8" style="fill: #262626; stroke: #262626; stroke-width: 0.5"/>
      </g>
     </g>
     <g id="text_3">
      <!-- $\Delta$PP_0812 -->
      <g style="fill: #262626" transform="translate(82.826175 194.76) rotate(-90) scale(0.077 -0.077)">
       <defs>
        <path id="Arial-ItalicMT-32" d="M 375 0 
Q 463 409 617 686 
Q 772 963 1028 1211 
Q 1284 1459 2016 2044 
Q 2459 2397 2622 2566 
Q 2856 2809 2963 3044 
Q 3034 3203 3034 3391 
Q 3034 3706 2811 3926 
Q 2588 4147 2263 4147 
Q 1941 4147 1700 3923 
Q 1459 3700 1356 3206 
L 803 3288 
Q 884 3897 1276 4248 
Q 1669 4600 2253 4600 
Q 2644 4600 2961 4437 
Q 3278 4275 3437 3981 
Q 3597 3688 3597 3375 
Q 3597 2919 3272 2497 
Q 3072 2234 2097 1463 
Q 1678 1131 1473 918 
Q 1269 706 1166 519 
L 3216 519 
L 3106 0 
L 375 0 
z
" transform="scale(0.015625)"/>
       </defs>
       <use xlink:href="#DejaVuSans-394" transform="translate(0 0.09375)"/>
       <use xlink:href="#Arial-ItalicMT-50" transform="translate(68.408203 0.09375)"/>
       <use xlink:href="#Arial-ItalicMT-50" transform="translate(135.107422 0.09375)"/>
       <use xlink:href="#Arial-ItalicMT-5f" transform="translate(201.806641 0.09375)"/>
       <use xlink:href="#Arial-ItalicMT-30" transform="translate(257.421875 0.09375)"/>
       <use xlink:href="#Arial-ItalicMT-38" transform="translate(313.037109 0.09375)"/>
       <use xlink:href="#Arial-ItalicMT-31" transform="translate(368.652344 0.09375)"/>
       <use xlink:href="#Arial-ItalicMT-32" transform="translate(424.267578 0.09375)"/>
      </g>
     </g>
    </g>
    <g id="xtick_4">
     <g id="line2d_4">
      <g>
       <use xlink:href="#m0df266f125" x="95.637386" y="145.8" style="fill: #262626; stroke: #262626; stroke-width: 0.5"/>
      </g>
     </g>
     <g id="text_4">
      <!-- $\Delta$PP_0812-15 -->
      <g style="fill: #262626" transform="translate(97.677886 205.925) rotate(-90) scale(0.077 -0.077)">
       <defs>
        <path id="Arial-ItalicMT-2d" d="M 297 1375 
L 416 1941 
L 2141 1941 
L 2025 1375 
L 297 1375 
z
" transform="scale(0.015625)"/>
       </defs>
       <use xlink:href="#DejaVuSans-394" transform="translate(0 0.09375)"/>
       <use xlink:href="#Arial-ItalicMT-50" transform="translate(68.408203 0.09375)"/>
       <use xlink:href="#Arial-ItalicMT-50" transform="translate(135.107422 0.09375)"/>
       <use xlink:href="#Arial-ItalicMT-5f" transform="translate(201.806641 0.09375)"/>
       <use xlink:href="#Arial-ItalicMT-30" transform="translate(257.421875 0.09375)"/>
       <use xlink:href="#Arial-ItalicMT-38" transform="translate(313.037109 0.09375)"/>
       <use xlink:href="#Arial-ItalicMT-31" transform="translate(368.652344 0.09375)"/>
       <use xlink:href="#Arial-ItalicMT-32" transform="translate(424.267578 0.09375)"/>
       <use xlink:href="#Arial-ItalicMT-2d" transform="translate(479.882812 0.09375)"/>
       <use xlink:href="#Arial-ItalicMT-31" transform="translate(513.183594 0.09375)"/>
       <use xlink:href="#Arial-ItalicMT-35" transform="translate(568.798828 0.09375)"/>
      </g>
     </g>
    </g>
    <g id="xtick_5">
     <g id="line2d_5">
      <g>
       <use xlink:href="#m0df266f125" x="110.489097" y="145.8" style="fill: #262626; stroke: #262626; stroke-width: 0.5"/>
      </g>
     </g>
     <g id="text_5">
      <!-- $\Delta$PP_0813 -->
      <g style="fill: #262626" transform="translate(112.529597 194.76) rotate(-90) scale(0.077 -0.077)">
       <use xlink:href="#DejaVuSans-394" transform="translate(0 0.09375)"/>
       <use xlink:href="#Arial-ItalicMT-50" transform="translate(68.408203 0.09375)"/>
       <use xlink:href="#Arial-ItalicMT-50" transform="translate(135.107422 0.09375)"/>
       <use xlink:href="#Arial-ItalicMT-5f" transform="translate(201.806641 0.09375)"/>
       <use xlink:href="#Arial-ItalicMT-30" transform="translate(257.421875 0.09375)"/>
       <use xlink:href="#Arial-ItalicMT-38" transform="translate(313.037109 0.09375)"/>
       <use xlink:href="#Arial-ItalicMT-31" transform="translate(368.652344 0.09375)"/>
       <use xlink:href="#Arial-ItalicMT-33" transform="translate(424.267578 0.09375)"/>
      </g>
     </g>
    </g>
    <g id="xtick_6">
     <g id="line2d_6">
      <g>
       <use xlink:href="#m0df266f125" x="125.340808" y="145.8" style="fill: #262626; stroke: #262626; stroke-width: 0.5"/>
      </g>
     </g>
     <g id="text_6">
      <!-- $\Delta$PP_0814 -->
      <g style="fill: #262626" transform="translate(127.381308 194.76) rotate(-90) scale(0.077 -0.077)">
       <defs>
        <path id="Arial-ItalicMT-34" d="M 1913 0 
L 2159 1169 
L 291 1169 
L 409 1728 
L 2975 4581 
L 3438 4581 
L 2828 1669 
L 3472 1669 
L 3369 1169 
L 2725 1169 
L 2478 0 
L 1913 0 
z
M 2263 1669 
L 2663 3581 
L 956 1669 
L 2263 1669 
z
" transform="scale(0.015625)"/>
       </defs>
       <use xlink:href="#DejaVuSans-394" transform="translate(0 0.09375)"/>
       <use xlink:href="#Arial-ItalicMT-50" transform="translate(68.408203 0.09375)"/>
       <use xlink:href="#Arial-ItalicMT-50" transform="translate(135.107422 0.09375)"/>
       <use xlink:href="#Arial-ItalicMT-5f" transform="translate(201.806641 0.09375)"/>
       <use xlink:href="#Arial-ItalicMT-30" transform="translate(257.421875 0.09375)"/>
       <use xlink:href="#Arial-ItalicMT-38" transform="translate(313.037109 0.09375)"/>
       <use xlink:href="#Arial-ItalicMT-31" transform="translate(368.652344 0.09375)"/>
       <use xlink:href="#Arial-ItalicMT-34" transform="translate(424.267578 0.09375)"/>
      </g>
     </g>
    </g>
    <g id="xtick_7">
     <g id="line2d_7">
      <g>
       <use xlink:href="#m0df266f125" x="140.192519" y="145.8" style="fill: #262626; stroke: #262626; stroke-width: 0.5"/>
      </g>
     </g>
     <g id="text_7">
      <!-- $\Delta$PP_0815 -->
      <g style="fill: #262626" transform="translate(142.233019 194.76) rotate(-90) scale(0.077 -0.077)">
       <use xlink:href="#DejaVuSans-394" transform="translate(0 0.09375)"/>
       <use xlink:href="#Arial-ItalicMT-50" transform="translate(68.408203 0.09375)"/>
       <use xlink:href="#Arial-ItalicMT-50" transform="translate(135.107422 0.09375)"/>
       <use xlink:href="#Arial-ItalicMT-5f" transform="translate(201.806641 0.09375)"/>
       <use xlink:href="#Arial-ItalicMT-30" transform="translate(257.421875 0.09375)"/>
       <use xlink:href="#Arial-ItalicMT-38" transform="translate(313.037109 0.09375)"/>
       <use xlink:href="#Arial-ItalicMT-31" transform="translate(368.652344 0.09375)"/>
       <use xlink:href="#Arial-ItalicMT-35" transform="translate(424.267578 0.09375)"/>
      </g>
     </g>
    </g>
    <g id="xtick_8">
     <g id="line2d_8">
      <g>
       <use xlink:href="#m0df266f125" x="155.04423" y="145.8" style="fill: #262626; stroke: #262626; stroke-width: 0.5"/>
      </g>
     </g>
     <g id="text_8">
      <!-- $\Delta$PP_1317 -->
      <g style="fill: #262626" transform="translate(157.08473 194.76) rotate(-90) scale(0.077 -0.077)">
       <use xlink:href="#DejaVuSans-394" transform="translate(0 0.09375)"/>
       <use xlink:href="#Arial-ItalicMT-50" transform="translate(68.408203 0.09375)"/>
       <use xlink:href="#Arial-ItalicMT-50" transform="translate(135.107422 0.09375)"/>
       <use xlink:href="#Arial-ItalicMT-5f" transform="translate(201.806641 0.09375)"/>
       <use xlink:href="#Arial-ItalicMT-31" transform="translate(257.421875 0.09375)"/>
       <use xlink:href="#Arial-ItalicMT-33" transform="translate(313.037109 0.09375)"/>
       <use xlink:href="#Arial-ItalicMT-31" transform="translate(368.652344 0.09375)"/>
       <use xlink:href="#Arial-ItalicMT-37" transform="translate(424.267578 0.09375)"/>
      </g>
     </g>
    </g>
    <g id="xtick_9">
     <g id="line2d_9">
      <g>
       <use xlink:href="#m0df266f125" x="169.895941" y="145.8" style="fill: #262626; stroke: #262626; stroke-width: 0.5"/>
      </g>
     </g>
     <g id="text_9">
      <!-- $\Delta$PP_2136 -->
      <g style="fill: #262626" transform="translate(171.936441 194.76) rotate(-90) scale(0.077 -0.077)">
       <use xlink:href="#DejaVuSans-394" transform="translate(0 0.09375)"/>
       <use xlink:href="#Arial-ItalicMT-50" transform="translate(68.408203 0.09375)"/>
       <use xlink:href="#Arial-ItalicMT-50" transform="translate(135.107422 0.09375)"/>
       <use xlink:href="#Arial-ItalicMT-5f" transform="translate(201.806641 0.09375)"/>
       <use xlink:href="#Arial-ItalicMT-32" transform="translate(257.421875 0.09375)"/>
       <use xlink:href="#Arial-ItalicMT-31" transform="translate(313.037109 0.09375)"/>
       <use xlink:href="#Arial-ItalicMT-33" transform="translate(368.652344 0.09375)"/>
       <use xlink:href="#Arial-ItalicMT-36" transform="translate(424.267578 0.09375)"/>
      </g>
     </g>
    </g>
    <g id="xtick_10">
     <g id="line2d_10">
      <g>
       <use xlink:href="#m0df266f125" x="184.747652" y="145.8" style="fill: #262626; stroke: #262626; stroke-width: 0.5"/>
      </g>
     </g>
     <g id="text_10">
      <!-- $\Delta$PP_4120 -->
      <g style="fill: #262626" transform="translate(186.788152 194.76) rotate(-90) scale(0.077 -0.077)">
       <use xlink:href="#DejaVuSans-394" transform="translate(0 0.09375)"/>
       <use xlink:href="#Arial-ItalicMT-50" transform="translate(68.408203 0.09375)"/>
       <use xlink:href="#Arial-ItalicMT-50" transform="translate(135.107422 0.09375)"/>
       <use xlink:href="#Arial-ItalicMT-5f" transform="translate(201.806641 0.09375)"/>
       <use xlink:href="#Arial-ItalicMT-34" transform="translate(257.421875 0.09375)"/>
       <use xlink:href="#Arial-ItalicMT-31" transform="translate(313.037109 0.09375)"/>
       <use xlink:href="#Arial-ItalicMT-32" transform="translate(368.652344 0.09375)"/>
       <use xlink:href="#Arial-ItalicMT-30" transform="translate(424.267578 0.09375)"/>
      </g>
     </g>
    </g>
    <g id="xtick_11">
     <g id="line2d_11">
      <g>
       <use xlink:href="#m0df266f125" x="199.599363" y="145.8" style="fill: #262626; stroke: #262626; stroke-width: 0.5"/>
      </g>
     </g>
     <g id="text_11">
      <!-- $\Delta$PP_4189 -->
      <g style="fill: #262626" transform="translate(201.639863 194.76) rotate(-90) scale(0.077 -0.077)">
       <defs>
        <path id="Arial-ItalicMT-39" d="M 431 1050 
L 963 1103 
Q 1016 719 1181 556 
Q 1347 394 1575 394 
Q 1900 394 2178 675 
Q 2588 1088 2781 1859 
Q 2497 1647 2276 1556 
Q 2056 1466 1825 1466 
Q 1406 1466 1075 1747 
Q 638 2113 638 2797 
Q 638 3572 1144 4125 
Q 1578 4600 2209 4600 
Q 2778 4600 3153 4179 
Q 3528 3759 3528 2991 
Q 3528 2244 3278 1516 
Q 2981 659 2475 253 
Q 2063 -78 1547 -78 
Q 1072 -78 770 217 
Q 469 513 431 1050 
z
M 1184 2863 
Q 1184 2431 1414 2175 
Q 1644 1919 1959 1919 
Q 2194 1919 2425 2078 
Q 2656 2238 2822 2555 
Q 2988 2872 2988 3206 
Q 2988 3469 2878 3694 
Q 2769 3919 2580 4033 
Q 2391 4147 2197 4147 
Q 2009 4147 1828 4047 
Q 1647 3947 1492 3753 
Q 1338 3559 1261 3307 
Q 1184 3056 1184 2863 
z
" transform="scale(0.015625)"/>
       </defs>
       <use xlink:href="#DejaVuSans-394" transform="translate(0 0.09375)"/>
       <use xlink:href="#Arial-ItalicMT-50" transform="translate(68.408203 0.09375)"/>
       <use xlink:href="#Arial-ItalicMT-50" transform="translate(135.107422 0.09375)"/>
       <use xlink:href="#Arial-ItalicMT-5f" transform="translate(201.806641 0.09375)"/>
       <use xlink:href="#Arial-ItalicMT-34" transform="translate(257.421875 0.09375)"/>
       <use xlink:href="#Arial-ItalicMT-31" transform="translate(313.037109 0.09375)"/>
       <use xlink:href="#Arial-ItalicMT-38" transform="translate(368.652344 0.09375)"/>
       <use xlink:href="#Arial-ItalicMT-39" transform="translate(424.267578 0.09375)"/>
      </g>
     </g>
    </g>
    <g id="xtick_12">
     <g id="line2d_12">
      <g>
       <use xlink:href="#m0df266f125" x="214.451074" y="145.8" style="fill: #262626; stroke: #262626; stroke-width: 0.5"/>
      </g>
     </g>
     <g id="text_12">
      <!-- $\Delta$PP_4191 -->
      <g style="fill: #262626" transform="translate(216.491574 194.76) rotate(-90) scale(0.077 -0.077)">
       <use xlink:href="#DejaVuSans-394" transform="translate(0 0.09375)"/>
       <use xlink:href="#Arial-ItalicMT-50" transform="translate(68.408203 0.09375)"/>
       <use xlink:href="#Arial-ItalicMT-50" transform="translate(135.107422 0.09375)"/>
       <use xlink:href="#Arial-ItalicMT-5f" transform="translate(201.806641 0.09375)"/>
       <use xlink:href="#Arial-ItalicMT-34" transform="translate(257.421875 0.09375)"/>
       <use xlink:href="#Arial-ItalicMT-31" transform="translate(313.037109 0.09375)"/>
       <use xlink:href="#Arial-ItalicMT-39" transform="translate(368.652344 0.09375)"/>
       <use xlink:href="#Arial-ItalicMT-31" transform="translate(424.267578 0.09375)"/>
      </g>
     </g>
    </g>
    <g id="xtick_13">
     <g id="line2d_13">
      <g>
       <use xlink:href="#m0df266f125" x="229.302785" y="145.8" style="fill: #262626; stroke: #262626; stroke-width: 0.5"/>
      </g>
     </g>
     <g id="text_13">
      <!-- Control -->
      <g style="fill: #262626" transform="translate(231.293355 182.620469) rotate(-90) scale(0.077 -0.077)">
       <defs>
        <path id="Arial-ItalicMT-43" d="M 3859 1613 
L 4466 1528 
Q 4178 734 3628 328 
Q 3078 -78 2394 -78 
Q 1559 -78 1070 431 
Q 581 941 581 1891 
Q 581 3128 1325 3938 
Q 1988 4659 2972 4659 
Q 3700 4659 4151 4268 
Q 4603 3878 4675 3219 
L 4103 3166 
Q 4013 3663 3730 3908 
Q 3447 4153 3000 4153 
Q 2159 4153 1641 3406 
Q 1191 2763 1191 1878 
Q 1191 1172 1537 800 
Q 1884 428 2441 428 
Q 2916 428 3300 737 
Q 3684 1047 3859 1613 
z
" transform="scale(0.015625)"/>
        <path id="Arial-ItalicMT-6f" d="M 313 1259 
Q 313 2231 884 2869 
Q 1356 3394 2122 3394 
Q 2722 3394 3089 3019 
Q 3456 2644 3456 2006 
Q 3456 1434 3225 942 
Q 2994 450 2567 187 
Q 2141 -75 1669 -75 
Q 1281 -75 964 90 
Q 647 256 480 559 
Q 313 863 313 1259 
z
M 878 1316 
Q 878 847 1103 605 
Q 1328 363 1675 363 
Q 1856 363 2034 436 
Q 2213 509 2366 659 
Q 2519 809 2626 1001 
Q 2734 1194 2800 1416 
Q 2897 1725 2897 2009 
Q 2897 2459 2670 2707 
Q 2444 2956 2100 2956 
Q 1834 2956 1615 2829 
Q 1397 2703 1220 2459 
Q 1044 2216 961 1892 
Q 878 1569 878 1316 
z
" transform="scale(0.015625)"/>
        <path id="Arial-ItalicMT-6e" d="M 213 0 
L 906 3319 
L 1419 3319 
L 1297 2741 
Q 1631 3081 1922 3237 
Q 2213 3394 2516 3394 
Q 2919 3394 3148 3175 
Q 3378 2956 3378 2591 
Q 3378 2406 3297 2009 
L 2875 0 
L 2309 0 
L 2750 2103 
Q 2816 2409 2816 2556 
Q 2816 2722 2702 2825 
Q 2588 2928 2372 2928 
Q 1938 2928 1598 2615 
Q 1259 2303 1100 1544 
L 778 0 
L 213 0 
z
" transform="scale(0.015625)"/>
        <path id="Arial-ItalicMT-74" d="M 1534 459 
L 1441 -3 
Q 1238 -56 1047 -56 
Q 709 -56 509 109 
Q 359 234 359 450 
Q 359 559 441 953 
L 844 2881 
L 397 2881 
L 488 3319 
L 934 3319 
L 1106 4134 
L 1753 4525 
L 1500 3319 
L 2056 3319 
L 1963 2881 
L 1409 2881 
L 1025 1047 
Q 953 697 953 628 
Q 953 528 1011 475 
Q 1069 422 1200 422 
Q 1388 422 1534 459 
z
" transform="scale(0.015625)"/>
        <path id="Arial-ItalicMT-72" d="M 213 0 
L 906 3319 
L 1406 3319 
L 1266 2641 
Q 1522 3025 1767 3209 
Q 2013 3394 2269 3394 
Q 2438 3394 2684 3272 
L 2453 2747 
Q 2306 2853 2131 2853 
Q 1834 2853 1521 2522 
Q 1209 2191 1031 1331 
L 750 0 
L 213 0 
z
" transform="scale(0.015625)"/>
        <path id="Arial-ItalicMT-6c" d="M 169 0 
L 1125 4581 
L 1691 4581 
L 734 0 
L 169 0 
z
" transform="scale(0.015625)"/>
       </defs>
       <use xlink:href="#Arial-ItalicMT-43"/>
       <use xlink:href="#Arial-ItalicMT-6f" x="72.216797"/>
       <use xlink:href="#Arial-ItalicMT-6e" x="127.832031"/>
       <use xlink:href="#Arial-ItalicMT-74" x="183.447266"/>
       <use xlink:href="#Arial-ItalicMT-72" x="211.230469"/>
       <use xlink:href="#Arial-ItalicMT-6f" x="244.53125"/>
       <use xlink:href="#Arial-ItalicMT-6c" x="300.146484"/>
      </g>
     </g>
    </g>
    <g id="text_14">
     <!-- Gene Knockouts -->
     <g transform="translate(108.027516 226.937563) scale(0.084 -0.084)">
      <defs>
       <path id="ArialMT-47" d="M 2638 1797 
L 2638 2334 
L 4578 2338 
L 4578 638 
Q 4131 281 3656 101 
Q 3181 -78 2681 -78 
Q 2006 -78 1454 211 
Q 903 500 622 1047 
Q 341 1594 341 2269 
Q 341 2938 620 3517 
Q 900 4097 1425 4378 
Q 1950 4659 2634 4659 
Q 3131 4659 3532 4498 
Q 3934 4338 4162 4050 
Q 4391 3763 4509 3300 
L 3963 3150 
Q 3859 3500 3706 3700 
Q 3553 3900 3268 4020 
Q 2984 4141 2638 4141 
Q 2222 4141 1919 4014 
Q 1616 3888 1430 3681 
Q 1244 3475 1141 3228 
Q 966 2803 966 2306 
Q 966 1694 1177 1281 
Q 1388 869 1791 669 
Q 2194 469 2647 469 
Q 3041 469 3416 620 
Q 3791 772 3984 944 
L 3984 1797 
L 2638 1797 
z
" transform="scale(0.015625)"/>
       <path id="ArialMT-65" d="M 2694 1069 
L 3275 997 
Q 3138 488 2766 206 
Q 2394 -75 1816 -75 
Q 1088 -75 661 373 
Q 234 822 234 1631 
Q 234 2469 665 2931 
Q 1097 3394 1784 3394 
Q 2450 3394 2872 2941 
Q 3294 2488 3294 1666 
Q 3294 1616 3291 1516 
L 816 1516 
Q 847 969 1125 678 
Q 1403 388 1819 388 
Q 2128 388 2347 550 
Q 2566 713 2694 1069 
z
M 847 1978 
L 2700 1978 
Q 2663 2397 2488 2606 
Q 2219 2931 1791 2931 
Q 1403 2931 1139 2672 
Q 875 2413 847 1978 
z
" transform="scale(0.015625)"/>
       <path id="ArialMT-6e" d="M 422 0 
L 422 3319 
L 928 3319 
L 928 2847 
Q 1294 3394 1984 3394 
Q 2284 3394 2536 3286 
Q 2788 3178 2913 3003 
Q 3038 2828 3088 2588 
Q 3119 2431 3119 2041 
L 3119 0 
L 2556 0 
L 2556 2019 
Q 2556 2363 2490 2533 
Q 2425 2703 2258 2804 
Q 2091 2906 1866 2906 
Q 1506 2906 1245 2678 
Q 984 2450 984 1813 
L 984 0 
L 422 0 
z
" transform="scale(0.015625)"/>
       <path id="ArialMT-20" transform="scale(0.015625)"/>
       <path id="ArialMT-4b" d="M 469 0 
L 469 4581 
L 1075 4581 
L 1075 2309 
L 3350 4581 
L 4172 4581 
L 2250 2725 
L 4256 0 
L 3456 0 
L 1825 2319 
L 1075 1588 
L 1075 0 
L 469 0 
z
" transform="scale(0.015625)"/>
       <path id="ArialMT-6f" d="M 213 1659 
Q 213 2581 725 3025 
Q 1153 3394 1769 3394 
Q 2453 3394 2887 2945 
Q 3322 2497 3322 1706 
Q 3322 1066 3130 698 
Q 2938 331 2570 128 
Q 2203 -75 1769 -75 
Q 1072 -75 642 372 
Q 213 819 213 1659 
z
M 791 1659 
Q 791 1022 1069 705 
Q 1347 388 1769 388 
Q 2188 388 2466 706 
Q 2744 1025 2744 1678 
Q 2744 2294 2464 2611 
Q 2184 2928 1769 2928 
Q 1347 2928 1069 2612 
Q 791 2297 791 1659 
z
" transform="scale(0.015625)"/>
       <path id="ArialMT-63" d="M 2588 1216 
L 3141 1144 
Q 3050 572 2676 248 
Q 2303 -75 1759 -75 
Q 1078 -75 664 370 
Q 250 816 250 1647 
Q 250 2184 428 2587 
Q 606 2991 970 3192 
Q 1334 3394 1763 3394 
Q 2303 3394 2647 3120 
Q 2991 2847 3088 2344 
L 2541 2259 
Q 2463 2594 2264 2762 
Q 2066 2931 1784 2931 
Q 1359 2931 1093 2626 
Q 828 2322 828 1663 
Q 828 994 1084 691 
Q 1341 388 1753 388 
Q 2084 388 2306 591 
Q 2528 794 2588 1216 
z
" transform="scale(0.015625)"/>
       <path id="ArialMT-6b" d="M 425 0 
L 425 4581 
L 988 4581 
L 988 1969 
L 2319 3319 
L 3047 3319 
L 1778 2088 
L 3175 0 
L 2481 0 
L 1384 1697 
L 988 1316 
L 988 0 
L 425 0 
z
" transform="scale(0.015625)"/>
       <path id="ArialMT-75" d="M 2597 0 
L 2597 488 
Q 2209 -75 1544 -75 
Q 1250 -75 995 37 
Q 741 150 617 320 
Q 494 491 444 738 
Q 409 903 409 1263 
L 409 3319 
L 972 3319 
L 972 1478 
Q 972 1038 1006 884 
Q 1059 663 1231 536 
Q 1403 409 1656 409 
Q 1909 409 2131 539 
Q 2353 669 2445 892 
Q 2538 1116 2538 1541 
L 2538 3319 
L 3100 3319 
L 3100 0 
L 2597 0 
z
" transform="scale(0.015625)"/>
       <path id="ArialMT-74" d="M 1650 503 
L 1731 6 
Q 1494 -44 1306 -44 
Q 1000 -44 831 53 
Q 663 150 594 308 
Q 525 466 525 972 
L 525 2881 
L 113 2881 
L 113 3319 
L 525 3319 
L 525 4141 
L 1084 4478 
L 1084 3319 
L 1650 3319 
L 1650 2881 
L 1084 2881 
L 1084 941 
Q 1084 700 1114 631 
Q 1144 563 1211 522 
Q 1278 481 1403 481 
Q 1497 481 1650 503 
z
" transform="scale(0.015625)"/>
       <path id="ArialMT-73" d="M 197 991 
L 753 1078 
Q 800 744 1014 566 
Q 1228 388 1613 388 
Q 2000 388 2187 545 
Q 2375 703 2375 916 
Q 2375 1106 2209 1216 
Q 2094 1291 1634 1406 
Q 1016 1563 777 1677 
Q 538 1791 414 1992 
Q 291 2194 291 2438 
Q 291 2659 392 2848 
Q 494 3038 669 3163 
Q 800 3259 1026 3326 
Q 1253 3394 1513 3394 
Q 1903 3394 2198 3281 
Q 2494 3169 2634 2976 
Q 2775 2784 2828 2463 
L 2278 2388 
Q 2241 2644 2061 2787 
Q 1881 2931 1553 2931 
Q 1166 2931 1000 2803 
Q 834 2675 834 2503 
Q 834 2394 903 2306 
Q 972 2216 1119 2156 
Q 1203 2125 1616 2013 
Q 2213 1853 2448 1751 
Q 2684 1650 2818 1456 
Q 2953 1263 2953 975 
Q 2953 694 2789 445 
Q 2625 197 2315 61 
Q 2006 -75 1616 -75 
Q 969 -75 630 194 
Q 291 463 197 991 
z
" transform="scale(0.015625)"/>
      </defs>
      <use xlink:href="#ArialMT-47"/>
      <use xlink:href="#ArialMT-65" x="77.783203"/>
      <use xlink:href="#ArialMT-6e" x="133.398438"/>
      <use xlink:href="#ArialMT-65" x="189.013672"/>
      <use xlink:href="#ArialMT-20" x="244.628906"/>
      <use xlink:href="#ArialMT-4b" x="272.412109"/>
      <use xlink:href="#ArialMT-6e" x="339.111328"/>
      <use xlink:href="#ArialMT-6f" x="394.726562"/>
      <use xlink:href="#ArialMT-63" x="450.341797"/>
      <use xlink:href="#ArialMT-6b" x="500.341797"/>
      <use xlink:href="#ArialMT-6f" x="550.341797"/>
      <use xlink:href="#ArialMT-75" x="605.957031"/>
      <use xlink:href="#ArialMT-74" x="661.572266"/>
      <use xlink:href="#ArialMT-73" x="689.355469"/>
     </g>
    </g>
   </g>
   <g id="matplotlib.axis_2">
    <g id="ytick_1">
     <g id="line2d_14">
      <defs>
       <path id="md9f2b31e54" d="M 0 0 
L 4 0 
" style="stroke: #262626; stroke-width: 0.5"/>
      </defs>
      <g>
       <use xlink:href="#md9f2b31e54" x="41.428641" y="145.8" style="fill: #262626; stroke: #262626; stroke-width: 0.5"/>
      </g>
     </g>
     <g id="text_15">
      <!-- 0 -->
      <g style="fill: #262626" transform="translate(33.646719 148.555758) scale(0.077 -0.077)">
       <defs>
        <path id="ArialMT-30" d="M 266 2259 
Q 266 3072 433 3567 
Q 600 4063 929 4331 
Q 1259 4600 1759 4600 
Q 2128 4600 2406 4451 
Q 2684 4303 2865 4023 
Q 3047 3744 3150 3342 
Q 3253 2941 3253 2259 
Q 3253 1453 3087 958 
Q 2922 463 2592 192 
Q 2263 -78 1759 -78 
Q 1097 -78 719 397 
Q 266 969 266 2259 
z
M 844 2259 
Q 844 1131 1108 757 
Q 1372 384 1759 384 
Q 2147 384 2411 759 
Q 2675 1134 2675 2259 
Q 2675 3391 2411 3762 
Q 2147 4134 1753 4134 
Q 1366 4134 1134 3806 
Q 844 3388 844 2259 
z
" transform="scale(0.015625)"/>
       </defs>
       <use xlink:href="#ArialMT-30"/>
      </g>
     </g>
    </g>
    <g id="ytick_2">
     <g id="line2d_15">
      <g>
       <use xlink:href="#md9f2b31e54" x="41.428641" y="123.406562" style="fill: #262626; stroke: #262626; stroke-width: 0.5"/>
      </g>
     </g>
     <g id="text_16">
      <!-- 100 -->
      <g style="fill: #262626" transform="translate(25.082875 126.16232) scale(0.077 -0.077)">
       <defs>
        <path id="ArialMT-31" d="M 2384 0 
L 1822 0 
L 1822 3584 
Q 1619 3391 1289 3197 
Q 959 3003 697 2906 
L 697 3450 
Q 1169 3672 1522 3987 
Q 1875 4303 2022 4600 
L 2384 4600 
L 2384 0 
z
" transform="scale(0.015625)"/>
       </defs>
       <use xlink:href="#ArialMT-31"/>
       <use xlink:href="#ArialMT-30" x="55.615234"/>
       <use xlink:href="#ArialMT-30" x="111.230469"/>
      </g>
     </g>
    </g>
    <g id="ytick_3">
     <g id="line2d_16">
      <g>
       <use xlink:href="#md9f2b31e54" x="41.428641" y="101.013124" style="fill: #262626; stroke: #262626; stroke-width: 0.5"/>
      </g>
     </g>
     <g id="text_17">
      <!-- 200 -->
      <g style="fill: #262626" transform="translate(25.082875 103.768882) scale(0.077 -0.077)">
       <defs>
        <path id="ArialMT-32" d="M 3222 541 
L 3222 0 
L 194 0 
Q 188 203 259 391 
Q 375 700 629 1000 
Q 884 1300 1366 1694 
Q 2113 2306 2375 2664 
Q 2638 3022 2638 3341 
Q 2638 3675 2398 3904 
Q 2159 4134 1775 4134 
Q 1369 4134 1125 3890 
Q 881 3647 878 3216 
L 300 3275 
Q 359 3922 746 4261 
Q 1134 4600 1788 4600 
Q 2447 4600 2831 4234 
Q 3216 3869 3216 3328 
Q 3216 3053 3103 2787 
Q 2991 2522 2730 2228 
Q 2469 1934 1863 1422 
Q 1356 997 1212 845 
Q 1069 694 975 541 
L 3222 541 
z
" transform="scale(0.015625)"/>
       </defs>
       <use xlink:href="#ArialMT-32"/>
       <use xlink:href="#ArialMT-30" x="55.615234"/>
       <use xlink:href="#ArialMT-30" x="111.230469"/>
      </g>
     </g>
    </g>
    <g id="ytick_4">
     <g id="line2d_17">
      <g>
       <use xlink:href="#md9f2b31e54" x="41.428641" y="78.619687" style="fill: #262626; stroke: #262626; stroke-width: 0.5"/>
      </g>
     </g>
     <g id="text_18">
      <!-- 300 -->
      <g style="fill: #262626" transform="translate(25.082875 81.375444) scale(0.077 -0.077)">
       <defs>
        <path id="ArialMT-33" d="M 269 1209 
L 831 1284 
Q 928 806 1161 595 
Q 1394 384 1728 384 
Q 2125 384 2398 659 
Q 2672 934 2672 1341 
Q 2672 1728 2419 1979 
Q 2166 2231 1775 2231 
Q 1616 2231 1378 2169 
L 1441 2663 
Q 1497 2656 1531 2656 
Q 1891 2656 2178 2843 
Q 2466 3031 2466 3422 
Q 2466 3731 2256 3934 
Q 2047 4138 1716 4138 
Q 1388 4138 1169 3931 
Q 950 3725 888 3313 
L 325 3413 
Q 428 3978 793 4289 
Q 1159 4600 1703 4600 
Q 2078 4600 2393 4439 
Q 2709 4278 2876 4000 
Q 3044 3722 3044 3409 
Q 3044 3113 2884 2869 
Q 2725 2625 2413 2481 
Q 2819 2388 3044 2092 
Q 3269 1797 3269 1353 
Q 3269 753 2831 336 
Q 2394 -81 1725 -81 
Q 1122 -81 723 278 
Q 325 638 269 1209 
z
" transform="scale(0.015625)"/>
       </defs>
       <use xlink:href="#ArialMT-33"/>
       <use xlink:href="#ArialMT-30" x="55.615234"/>
       <use xlink:href="#ArialMT-30" x="111.230469"/>
      </g>
     </g>
    </g>
    <g id="ytick_5">
     <g id="line2d_18">
      <g>
       <use xlink:href="#md9f2b31e54" x="41.428641" y="56.226249" style="fill: #262626; stroke: #262626; stroke-width: 0.5"/>
      </g>
     </g>
     <g id="text_19">
      <!-- 400 -->
      <g style="fill: #262626" transform="translate(25.082875 58.982007) scale(0.077 -0.077)">
       <defs>
        <path id="ArialMT-34" d="M 2069 0 
L 2069 1097 
L 81 1097 
L 81 1613 
L 2172 4581 
L 2631 4581 
L 2631 1613 
L 3250 1613 
L 3250 1097 
L 2631 1097 
L 2631 0 
L 2069 0 
z
M 2069 1613 
L 2069 3678 
L 634 1613 
L 2069 1613 
z
" transform="scale(0.015625)"/>
       </defs>
       <use xlink:href="#ArialMT-34"/>
       <use xlink:href="#ArialMT-30" x="55.615234"/>
       <use xlink:href="#ArialMT-30" x="111.230469"/>
      </g>
     </g>
    </g>
    <g id="ytick_6">
     <g id="line2d_19">
      <g>
       <use xlink:href="#md9f2b31e54" x="41.428641" y="33.832811" style="fill: #262626; stroke: #262626; stroke-width: 0.5"/>
      </g>
     </g>
     <g id="text_20">
      <!-- 500 -->
      <g style="fill: #262626" transform="translate(25.082875 36.588569) scale(0.077 -0.077)">
       <defs>
        <path id="ArialMT-35" d="M 266 1200 
L 856 1250 
Q 922 819 1161 601 
Q 1400 384 1738 384 
Q 2144 384 2425 690 
Q 2706 997 2706 1503 
Q 2706 1984 2436 2262 
Q 2166 2541 1728 2541 
Q 1456 2541 1237 2417 
Q 1019 2294 894 2097 
L 366 2166 
L 809 4519 
L 3088 4519 
L 3088 3981 
L 1259 3981 
L 1013 2750 
Q 1425 3038 1878 3038 
Q 2478 3038 2890 2622 
Q 3303 2206 3303 1553 
Q 3303 931 2941 478 
Q 2500 -78 1738 -78 
Q 1113 -78 717 272 
Q 322 622 266 1200 
z
" transform="scale(0.015625)"/>
       </defs>
       <use xlink:href="#ArialMT-35"/>
       <use xlink:href="#ArialMT-30" x="55.615234"/>
       <use xlink:href="#ArialMT-30" x="111.230469"/>
      </g>
     </g>
    </g>
    <g id="ytick_7">
     <g id="line2d_20">
      <g>
       <use xlink:href="#md9f2b31e54" x="41.428641" y="11.439373" style="fill: #262626; stroke: #262626; stroke-width: 0.5"/>
      </g>
     </g>
     <g id="text_21">
      <!-- 600 -->
      <g style="fill: #262626" transform="translate(25.082875 14.195131) scale(0.077 -0.077)">
       <defs>
        <path id="ArialMT-36" d="M 3184 3459 
L 2625 3416 
Q 2550 3747 2413 3897 
Q 2184 4138 1850 4138 
Q 1581 4138 1378 3988 
Q 1113 3794 959 3422 
Q 806 3050 800 2363 
Q 1003 2672 1297 2822 
Q 1591 2972 1913 2972 
Q 2475 2972 2870 2558 
Q 3266 2144 3266 1488 
Q 3266 1056 3080 686 
Q 2894 316 2569 119 
Q 2244 -78 1831 -78 
Q 1128 -78 684 439 
Q 241 956 241 2144 
Q 241 3472 731 4075 
Q 1159 4600 1884 4600 
Q 2425 4600 2770 4297 
Q 3116 3994 3184 3459 
z
M 888 1484 
Q 888 1194 1011 928 
Q 1134 663 1356 523 
Q 1578 384 1822 384 
Q 2178 384 2434 671 
Q 2691 959 2691 1453 
Q 2691 1928 2437 2201 
Q 2184 2475 1800 2475 
Q 1419 2475 1153 2201 
Q 888 1928 888 1484 
z
" transform="scale(0.015625)"/>
       </defs>
       <use xlink:href="#ArialMT-36"/>
       <use xlink:href="#ArialMT-30" x="55.615234"/>
       <use xlink:href="#ArialMT-30" x="111.230469"/>
      </g>
     </g>
    </g>
    <g id="text_22">
     <!-- Titer (mg/L) -->
     <g transform="translate(13.314938 98.042063) rotate(-90) scale(0.084 -0.084)">
      <defs>
       <path id="ArialMT-54" d="M 1659 0 
L 1659 4041 
L 150 4041 
L 150 4581 
L 3781 4581 
L 3781 4041 
L 2266 4041 
L 2266 0 
L 1659 0 
z
" transform="scale(0.015625)"/>
       <path id="ArialMT-69" d="M 425 3934 
L 425 4581 
L 988 4581 
L 988 3934 
L 425 3934 
z
M 425 0 
L 425 3319 
L 988 3319 
L 988 0 
L 425 0 
z
" transform="scale(0.015625)"/>
       <path id="ArialMT-72" d="M 416 0 
L 416 3319 
L 922 3319 
L 922 2816 
Q 1116 3169 1280 3281 
Q 1444 3394 1641 3394 
Q 1925 3394 2219 3213 
L 2025 2691 
Q 1819 2813 1613 2813 
Q 1428 2813 1281 2702 
Q 1134 2591 1072 2394 
Q 978 2094 978 1738 
L 978 0 
L 416 0 
z
" transform="scale(0.015625)"/>
       <path id="ArialMT-28" d="M 1497 -1347 
Q 1031 -759 709 28 
Q 388 816 388 1659 
Q 388 2403 628 3084 
Q 909 3875 1497 4659 
L 1900 4659 
Q 1522 4009 1400 3731 
Q 1209 3300 1100 2831 
Q 966 2247 966 1656 
Q 966 153 1900 -1347 
L 1497 -1347 
z
" transform="scale(0.015625)"/>
       <path id="ArialMT-6d" d="M 422 0 
L 422 3319 
L 925 3319 
L 925 2853 
Q 1081 3097 1340 3245 
Q 1600 3394 1931 3394 
Q 2300 3394 2536 3241 
Q 2772 3088 2869 2813 
Q 3263 3394 3894 3394 
Q 4388 3394 4653 3120 
Q 4919 2847 4919 2278 
L 4919 0 
L 4359 0 
L 4359 2091 
Q 4359 2428 4304 2576 
Q 4250 2725 4106 2815 
Q 3963 2906 3769 2906 
Q 3419 2906 3187 2673 
Q 2956 2441 2956 1928 
L 2956 0 
L 2394 0 
L 2394 2156 
Q 2394 2531 2256 2718 
Q 2119 2906 1806 2906 
Q 1569 2906 1367 2781 
Q 1166 2656 1075 2415 
Q 984 2175 984 1722 
L 984 0 
L 422 0 
z
" transform="scale(0.015625)"/>
       <path id="ArialMT-67" d="M 319 -275 
L 866 -356 
Q 900 -609 1056 -725 
Q 1266 -881 1628 -881 
Q 2019 -881 2231 -725 
Q 2444 -569 2519 -288 
Q 2563 -116 2559 434 
Q 2191 0 1641 0 
Q 956 0 581 494 
Q 206 988 206 1678 
Q 206 2153 378 2554 
Q 550 2956 876 3175 
Q 1203 3394 1644 3394 
Q 2231 3394 2613 2919 
L 2613 3319 
L 3131 3319 
L 3131 450 
Q 3131 -325 2973 -648 
Q 2816 -972 2473 -1159 
Q 2131 -1347 1631 -1347 
Q 1038 -1347 672 -1080 
Q 306 -813 319 -275 
z
M 784 1719 
Q 784 1066 1043 766 
Q 1303 466 1694 466 
Q 2081 466 2343 764 
Q 2606 1063 2606 1700 
Q 2606 2309 2336 2618 
Q 2066 2928 1684 2928 
Q 1309 2928 1046 2623 
Q 784 2319 784 1719 
z
" transform="scale(0.015625)"/>
       <path id="ArialMT-2f" d="M 0 -78 
L 1328 4659 
L 1778 4659 
L 453 -78 
L 0 -78 
z
" transform="scale(0.015625)"/>
       <path id="ArialMT-4c" d="M 469 0 
L 469 4581 
L 1075 4581 
L 1075 541 
L 3331 541 
L 3331 0 
L 469 0 
z
" transform="scale(0.015625)"/>
       <path id="ArialMT-29" d="M 791 -1347 
L 388 -1347 
Q 1322 153 1322 1656 
Q 1322 2244 1188 2822 
Q 1081 3291 891 3722 
Q 769 4003 388 4659 
L 791 4659 
Q 1378 3875 1659 3084 
Q 1900 2403 1900 1659 
Q 1900 816 1576 28 
Q 1253 -759 791 -1347 
z
" transform="scale(0.015625)"/>
      </defs>
      <use xlink:href="#ArialMT-54"/>
      <use xlink:href="#ArialMT-69" x="57.333984"/>
      <use xlink:href="#ArialMT-74" x="79.550781"/>
      <use xlink:href="#ArialMT-65" x="107.333984"/>
      <use xlink:href="#ArialMT-72" x="162.949219"/>
      <use xlink:href="#ArialMT-20" x="196.25"/>
      <use xlink:href="#ArialMT-28" x="224.033203"/>
      <use xlink:href="#ArialMT-6d" x="257.333984"/>
      <use xlink:href="#ArialMT-67" x="340.634766"/>
      <use xlink:href="#ArialMT-2f" x="396.25"/>
      <use xlink:href="#ArialMT-4c" x="424.033203"/>
      <use xlink:href="#ArialMT-29" x="479.648438"/>
     </g>
    </g>
   </g>
   <g id="PathCollection_3">
    <defs>
     <path id="C0_0_423f0965d8" d="M 0 2.5 
C 0.663008 2.5 1.29895 2.236584 1.767767 1.767767 
C 2.236584 1.29895 2.5 0.663008 2.5 -0 
C 2.5 -0.663008 2.236584 -1.29895 1.767767 -1.767767 
C 1.29895 -2.236584 0.663008 -2.5 0 -2.5 
C -0.663008 -2.5 -1.29895 -2.236584 -1.767767 -1.767767 
C -2.236584 -1.29895 -2.5 -0.663008 -2.5 0 
C -2.5 0.663008 -2.236584 1.29895 -1.767767 1.767767 
C -1.29895 2.236584 -0.663008 2.5 0 2.5 
z
"/>
    </defs>
    <g clip-path="url(#p0893d93258)">
     <use xlink:href="#C0_0_423f0965d8" x="48.648933" y="102.833263" style="fill: #648fff; fill-opacity: 0.7; stroke: #000000; stroke-opacity: 0.7; stroke-width: 0.5"/>
    </g>
    <g clip-path="url(#p0893d93258)">
     <use xlink:href="#C0_0_423f0965d8" x="47.960911" y="107.173873" style="fill: #648fff; fill-opacity: 0.7; stroke: #000000; stroke-opacity: 0.7; stroke-width: 0.5"/>
    </g>
    <g clip-path="url(#p0893d93258)">
     <use xlink:href="#C0_0_423f0965d8" x="48.125927" y="108.320775" style="fill: #648fff; fill-opacity: 0.7; stroke: #000000; stroke-opacity: 0.7; stroke-width: 0.5"/>
    </g>
   </g>
   <g id="PathCollection_4">
    <defs>
     <path id="C1_0_707f2b19ca" d="M 0 2.5 
C 0.663008 2.5 1.29895 2.236584 1.767767 1.767767 
C 2.236584 1.29895 2.5 0.663008 2.5 -0 
C 2.5 -0.663008 2.236584 -1.29895 1.767767 -1.767767 
C 1.29895 -2.236584 0.663008 -2.5 0 -2.5 
C -0.663008 -2.5 -1.29895 -2.236584 -1.767767 -1.767767 
C -2.236584 -1.29895 -2.5 -0.663008 -2.5 0 
C -2.5 0.663008 -2.236584 1.29895 -1.767767 1.767767 
C -1.29895 2.236584 -0.663008 2.5 0 2.5 
z
"/>
    </defs>
    <g clip-path="url(#p0893d93258)">
     <use xlink:href="#C1_0_707f2b19ca" x="54.634357" y="95.4222" style="fill: #fe6100; fill-opacity: 0.7; stroke: #000000; stroke-opacity: 0.7; stroke-width: 0.5"/>
    </g>
    <g clip-path="url(#p0893d93258)">
     <use xlink:href="#C1_0_707f2b19ca" x="53.368166" y="95.9905" style="fill: #fe6100; fill-opacity: 0.7; stroke: #000000; stroke-opacity: 0.7; stroke-width: 0.5"/>
    </g>
    <g clip-path="url(#p0893d93258)">
     <use xlink:href="#C1_0_707f2b19ca" x="54.307262" y="94.692353" style="fill: #fe6100; fill-opacity: 0.7; stroke: #000000; stroke-opacity: 0.7; stroke-width: 0.5"/>
    </g>
   </g>
   <g id="PathCollection_5">
    <defs>
     <path id="C2_0_650e7b9b4a" d="M 0 2.5 
C 0.663008 2.5 1.29895 2.236584 1.767767 1.767767 
C 2.236584 1.29895 2.5 0.663008 2.5 -0 
C 2.5 -0.663008 2.236584 -1.29895 1.767767 -1.767767 
C 1.29895 -2.236584 0.663008 -2.5 0 -2.5 
C -0.663008 -2.5 -1.29895 -2.236584 -1.767767 -1.767767 
C -2.236584 -1.29895 -2.5 -0.663008 -2.5 0 
C -2.5 0.663008 -2.236584 1.29895 -1.767767 1.767767 
C -1.29895 2.236584 -0.663008 2.5 0 2.5 
z
"/>
    </defs>
    <g clip-path="url(#p0893d93258)">
     <use xlink:href="#C2_0_650e7b9b4a" x="62.407333" y="77.778298" style="fill: #648fff; fill-opacity: 0.7; stroke: #000000; stroke-opacity: 0.7; stroke-width: 0.5"/>
    </g>
    <g clip-path="url(#p0893d93258)">
     <use xlink:href="#C2_0_650e7b9b4a" x="63.049891" y="64.645868" style="fill: #648fff; fill-opacity: 0.7; stroke: #000000; stroke-opacity: 0.7; stroke-width: 0.5"/>
    </g>
    <g clip-path="url(#p0893d93258)">
     <use xlink:href="#C2_0_650e7b9b4a" x="62.664598" y="92.473835" style="fill: #648fff; fill-opacity: 0.7; stroke: #000000; stroke-opacity: 0.7; stroke-width: 0.5"/>
    </g>
   </g>
   <g id="PathCollection_6">
    <defs>
     <path id="C3_0_b0d5ac2ae3" d="M 0 2.5 
C 0.663008 2.5 1.29895 2.236584 1.767767 1.767767 
C 2.236584 1.29895 2.5 0.663008 2.5 -0 
C 2.5 -0.663008 2.236584 -1.29895 1.767767 -1.767767 
C 1.29895 -2.236584 0.663008 -2.5 0 -2.5 
C -0.663008 -2.5 -1.29895 -2.236584 -1.767767 -1.767767 
C -2.236584 -1.29895 -2.5 -0.663008 -2.5 0 
C -2.5 0.663008 -2.236584 1.29895 -1.767767 1.767767 
C -1.29895 2.236584 -0.663008 2.5 0 2.5 
z
"/>
    </defs>
    <g clip-path="url(#p0893d93258)">
     <use xlink:href="#C3_0_b0d5ac2ae3" x="69.456968" y="81.425316" style="fill: #fe6100; fill-opacity: 0.7; stroke: #000000; stroke-opacity: 0.7; stroke-width: 0.5"/>
    </g>
    <g clip-path="url(#p0893d93258)">
     <use xlink:href="#C3_0_b0d5ac2ae3" x="68.498458" y="75.458069" style="fill: #fe6100; fill-opacity: 0.7; stroke: #000000; stroke-opacity: 0.7; stroke-width: 0.5"/>
    </g>
    <g clip-path="url(#p0893d93258)">
     <use xlink:href="#C3_0_b0d5ac2ae3" x="69.423127" y="96.45176" style="fill: #fe6100; fill-opacity: 0.7; stroke: #000000; stroke-opacity: 0.7; stroke-width: 0.5"/>
    </g>
   </g>
   <g id="PathCollection_7">
    <defs>
     <path id="C4_0_82cfc0c6f5" d="M 0 2.5 
C 0.663008 2.5 1.29895 2.236584 1.767767 1.767767 
C 2.236584 1.29895 2.5 0.663008 2.5 -0 
C 2.5 -0.663008 2.236584 -1.29895 1.767767 -1.767767 
C 1.29895 -2.236584 0.663008 -2.5 0 -2.5 
C -0.663008 -2.5 -1.29895 -2.236584 -1.767767 -1.767767 
C -2.236584 -1.29895 -2.5 -0.663008 -2.5 0 
C -2.5 0.663008 -2.236584 1.29895 -1.767767 1.767767 
C -1.29895 2.236584 -0.663008 2.5 0 2.5 
z
"/>
    </defs>
    <g clip-path="url(#p0893d93258)">
     <use xlink:href="#C4_0_82cfc0c6f5" x="77.456109" y="80.285714" style="fill: #648fff; fill-opacity: 0.7; stroke: #000000; stroke-opacity: 0.7; stroke-width: 0.5"/>
    </g>
    <g clip-path="url(#p0893d93258)">
     <use xlink:href="#C4_0_82cfc0c6f5" x="78.432963" y="78.735282" style="fill: #648fff; fill-opacity: 0.7; stroke: #000000; stroke-opacity: 0.7; stroke-width: 0.5"/>
    </g>
    <g clip-path="url(#p0893d93258)">
     <use xlink:href="#C4_0_82cfc0c6f5" x="77.656144" y="70.516151" style="fill: #648fff; fill-opacity: 0.7; stroke: #000000; stroke-opacity: 0.7; stroke-width: 0.5"/>
    </g>
   </g>
   <g id="PathCollection_8">
    <defs>
     <path id="C5_0_61f64a7a64" d="M 0 2.5 
C 0.663008 2.5 1.29895 2.236584 1.767767 1.767767 
C 2.236584 1.29895 2.5 0.663008 2.5 -0 
C 2.5 -0.663008 2.236584 -1.29895 1.767767 -1.767767 
C 1.29895 -2.236584 0.663008 -2.5 0 -2.5 
C -0.663008 -2.5 -1.29895 -2.236584 -1.767767 -1.767767 
C -2.236584 -1.29895 -2.5 -0.663008 -2.5 0 
C -2.5 0.663008 -2.236584 1.29895 -1.767767 1.767767 
C -1.29895 2.236584 -0.663008 2.5 0 2.5 
z
"/>
    </defs>
    <g clip-path="url(#p0893d93258)">
     <use xlink:href="#C5_0_61f64a7a64" x="84.048019" y="72.898454" style="fill: #fe6100; fill-opacity: 0.7; stroke: #000000; stroke-opacity: 0.7; stroke-width: 0.5"/>
    </g>
    <g clip-path="url(#p0893d93258)">
     <use xlink:href="#C5_0_61f64a7a64" x="84.064674" y="72.114438" style="fill: #fe6100; fill-opacity: 0.7; stroke: #000000; stroke-opacity: 0.7; stroke-width: 0.5"/>
    </g>
    <g clip-path="url(#p0893d93258)">
     <use xlink:href="#C5_0_61f64a7a64" x="83.962452" y="70.848694" style="fill: #fe6100; fill-opacity: 0.7; stroke: #000000; stroke-opacity: 0.7; stroke-width: 0.5"/>
    </g>
   </g>
   <g id="PathCollection_9">
    <defs>
     <path id="C6_0_2e2e28112b" d="M 0 2.5 
C 0.663008 2.5 1.29895 2.236584 1.767767 1.767767 
C 2.236584 1.29895 2.5 0.663008 2.5 -0 
C 2.5 -0.663008 2.236584 -1.29895 1.767767 -1.767767 
C 1.29895 -2.236584 0.663008 -2.5 0 -2.5 
C -0.663008 -2.5 -1.29895 -2.236584 -1.767767 -1.767767 
C -2.236584 -1.29895 -2.5 -0.663008 -2.5 0 
C -2.5 0.663008 -2.236584 1.29895 -1.767767 1.767767 
C -1.29895 2.236584 -0.663008 2.5 0 2.5 
z
"/>
    </defs>
    <g clip-path="url(#p0893d93258)">
     <use xlink:href="#C6_0_2e2e28112b" x="92.910553" y="71.323949" style="fill: #648fff; fill-opacity: 0.7; stroke: #000000; stroke-opacity: 0.7; stroke-width: 0.5"/>
    </g>
    <g clip-path="url(#p0893d93258)">
     <use xlink:href="#C6_0_2e2e28112b" x="93.216625" y="71.297727" style="fill: #648fff; fill-opacity: 0.7; stroke: #000000; stroke-opacity: 0.7; stroke-width: 0.5"/>
    </g>
    <g clip-path="url(#p0893d93258)">
     <use xlink:href="#C6_0_2e2e28112b" x="93.04424" y="71.451704" style="fill: #648fff; fill-opacity: 0.7; stroke: #000000; stroke-opacity: 0.7; stroke-width: 0.5"/>
    </g>
   </g>
   <g id="PathCollection_10">
    <defs>
     <path id="C7_0_c2ea65d76e" d="M 0 2.5 
C 0.663008 2.5 1.29895 2.236584 1.767767 1.767767 
C 2.236584 1.29895 2.5 0.663008 2.5 -0 
C 2.5 -0.663008 2.236584 -1.29895 1.767767 -1.767767 
C 1.29895 -2.236584 0.663008 -2.5 0 -2.5 
C -0.663008 -2.5 -1.29895 -2.236584 -1.767767 -1.767767 
C -2.236584 -1.29895 -2.5 -0.663008 -2.5 0 
C -2.5 0.663008 -2.236584 1.29895 -1.767767 1.767767 
C -1.29895 2.236584 -0.663008 2.5 0 2.5 
z
"/>
    </defs>
    <g clip-path="url(#p0893d93258)">
     <use xlink:href="#C7_0_c2ea65d76e" x="98.140988" y="31.386462" style="fill: #fe6100; fill-opacity: 0.7; stroke: #000000; stroke-opacity: 0.7; stroke-width: 0.5"/>
    </g>
    <g clip-path="url(#p0893d93258)">
     <use xlink:href="#C7_0_c2ea65d76e" x="98.687284" y="25.219556" style="fill: #fe6100; fill-opacity: 0.7; stroke: #000000; stroke-opacity: 0.7; stroke-width: 0.5"/>
    </g>
    <g clip-path="url(#p0893d93258)">
     <use xlink:href="#C7_0_c2ea65d76e" x="98.858207" y="13.8" style="fill: #fe6100; fill-opacity: 0.7; stroke: #000000; stroke-opacity: 0.7; stroke-width: 0.5"/>
    </g>
   </g>
   <g id="PathCollection_11">
    <defs>
     <path id="C8_0_cf9786f7bf" d="M 0 2.5 
C 0.663008 2.5 1.29895 2.236584 1.767767 1.767767 
C 2.236584 1.29895 2.5 0.663008 2.5 -0 
C 2.5 -0.663008 2.236584 -1.29895 1.767767 -1.767767 
C 1.29895 -2.236584 0.663008 -2.5 0 -2.5 
C -0.663008 -2.5 -1.29895 -2.236584 -1.767767 -1.767767 
C -2.236584 -1.29895 -2.5 -0.663008 -2.5 0 
C -2.5 0.663008 -2.236584 1.29895 -1.767767 1.767767 
C -1.29895 2.236584 -0.663008 2.5 0 2.5 
z
"/>
    </defs>
    <g clip-path="url(#p0893d93258)">
     <use xlink:href="#C8_0_cf9786f7bf" x="107.117751" y="53.316849" style="fill: #648fff; fill-opacity: 0.7; stroke: #000000; stroke-opacity: 0.7; stroke-width: 0.5"/>
    </g>
    <g clip-path="url(#p0893d93258)">
     <use xlink:href="#C8_0_cf9786f7bf" x="107.540486" y="57.725243" style="fill: #648fff; fill-opacity: 0.7; stroke: #000000; stroke-opacity: 0.7; stroke-width: 0.5"/>
    </g>
    <g clip-path="url(#p0893d93258)">
     <use xlink:href="#C8_0_cf9786f7bf" x="107.114344" y="58.537229" style="fill: #648fff; fill-opacity: 0.7; stroke: #000000; stroke-opacity: 0.7; stroke-width: 0.5"/>
    </g>
   </g>
   <g id="PathCollection_12">
    <defs>
     <path id="C9_0_00d8726f4e" d="M 0 2.5 
C 0.663008 2.5 1.29895 2.236584 1.767767 1.767767 
C 2.236584 1.29895 2.5 0.663008 2.5 -0 
C 2.5 -0.663008 2.236584 -1.29895 1.767767 -1.767767 
C 1.29895 -2.236584 0.663008 -2.5 0 -2.5 
C -0.663008 -2.5 -1.29895 -2.236584 -1.767767 -1.767767 
C -2.236584 -1.29895 -2.5 -0.663008 -2.5 0 
C -2.5 0.663008 -2.236584 1.29895 -1.767767 1.767767 
C -1.29895 2.236584 -0.663008 2.5 0 2.5 
z
"/>
    </defs>
    <g clip-path="url(#p0893d93258)">
     <use xlink:href="#C9_0_00d8726f4e" x="113.817669" y="56.35051" style="fill: #fe6100; fill-opacity: 0.7; stroke: #000000; stroke-opacity: 0.7; stroke-width: 0.5"/>
    </g>
    <g clip-path="url(#p0893d93258)">
     <use xlink:href="#C9_0_00d8726f4e" x="113.858881" y="55.55505" style="fill: #fe6100; fill-opacity: 0.7; stroke: #000000; stroke-opacity: 0.7; stroke-width: 0.5"/>
    </g>
    <g clip-path="url(#p0893d93258)">
     <use xlink:href="#C9_0_00d8726f4e" x="112.975168" y="57.80324" style="fill: #fe6100; fill-opacity: 0.7; stroke: #000000; stroke-opacity: 0.7; stroke-width: 0.5"/>
    </g>
   </g>
   <g id="PathCollection_13">
    <defs>
     <path id="Ca_0_f8884606a6" d="M 0 2.5 
C 0.663008 2.5 1.29895 2.236584 1.767767 1.767767 
C 2.236584 1.29895 2.5 0.663008 2.5 -0 
C 2.5 -0.663008 2.236584 -1.29895 1.767767 -1.767767 
C 1.29895 -2.236584 0.663008 -2.5 0 -2.5 
C -0.663008 -2.5 -1.29895 -2.236584 -1.767767 -1.767767 
C -2.236584 -1.29895 -2.5 -0.663008 -2.5 0 
C -2.5 0.663008 -2.236584 1.29895 -1.767767 1.767767 
C -1.29895 2.236584 -0.663008 2.5 0 2.5 
z
"/>
    </defs>
    <g clip-path="url(#p0893d93258)">
     <use xlink:href="#Ca_0_f8884606a6" x="122.775372" y="80.332158" style="fill: #648fff; fill-opacity: 0.7; stroke: #000000; stroke-opacity: 0.7; stroke-width: 0.5"/>
    </g>
    <g clip-path="url(#p0893d93258)">
     <use xlink:href="#Ca_0_f8884606a6" x="122.525374" y="80.840757" style="fill: #648fff; fill-opacity: 0.7; stroke: #000000; stroke-opacity: 0.7; stroke-width: 0.5"/>
    </g>
    <g clip-path="url(#p0893d93258)">
     <use xlink:href="#Ca_0_f8884606a6" x="122.676132" y="79.412325" style="fill: #648fff; fill-opacity: 0.7; stroke: #000000; stroke-opacity: 0.7; stroke-width: 0.5"/>
    </g>
   </g>
   <g id="PathCollection_14">
    <defs>
     <path id="Cb_0_ce03dbd985" d="M 0 2.5 
C 0.663008 2.5 1.29895 2.236584 1.767767 1.767767 
C 2.236584 1.29895 2.5 0.663008 2.5 -0 
C 2.5 -0.663008 2.236584 -1.29895 1.767767 -1.767767 
C 1.29895 -2.236584 0.663008 -2.5 0 -2.5 
C -0.663008 -2.5 -1.29895 -2.236584 -1.767767 -1.767767 
C -2.236584 -1.29895 -2.5 -0.663008 -2.5 0 
C -2.5 0.663008 -2.236584 1.29895 -1.767767 1.767767 
C -1.29895 2.236584 -0.663008 2.5 0 2.5 
z
"/>
    </defs>
    <g clip-path="url(#p0893d93258)">
     <use xlink:href="#Cb_0_ce03dbd985" x="127.805892" y="79.222675" style="fill: #fe6100; fill-opacity: 0.7; stroke: #000000; stroke-opacity: 0.7; stroke-width: 0.5"/>
    </g>
    <g clip-path="url(#p0893d93258)">
     <use xlink:href="#Cb_0_ce03dbd985" x="127.68967" y="77.716111" style="fill: #fe6100; fill-opacity: 0.7; stroke: #000000; stroke-opacity: 0.7; stroke-width: 0.5"/>
    </g>
    <g clip-path="url(#p0893d93258)">
     <use xlink:href="#Cb_0_ce03dbd985" x="128.312319" y="81.406931" style="fill: #fe6100; fill-opacity: 0.7; stroke: #000000; stroke-opacity: 0.7; stroke-width: 0.5"/>
    </g>
   </g>
   <g id="PathCollection_15">
    <defs>
     <path id="Cc_0_e793c9bed3" d="M 0 2.5 
C 0.663008 2.5 1.29895 2.236584 1.767767 1.767767 
C 2.236584 1.29895 2.5 0.663008 2.5 -0 
C 2.5 -0.663008 2.236584 -1.29895 1.767767 -1.767767 
C 1.29895 -2.236584 0.663008 -2.5 0 -2.5 
C -0.663008 -2.5 -1.29895 -2.236584 -1.767767 -1.767767 
C -2.236584 -1.29895 -2.5 -0.663008 -2.5 0 
C -2.5 0.663008 -2.236584 1.29895 -1.767767 1.767767 
C -1.29895 2.236584 -0.663008 2.5 0 2.5 
z
"/>
    </defs>
    <g clip-path="url(#p0893d93258)">
     <use xlink:href="#Cc_0_e793c9bed3" x="137.873051" y="79.052306" style="fill: #648fff; fill-opacity: 0.7; stroke: #000000; stroke-opacity: 0.7; stroke-width: 0.5"/>
    </g>
    <g clip-path="url(#p0893d93258)">
     <use xlink:href="#Cc_0_e793c9bed3" x="136.856082" y="79.96972" style="fill: #648fff; fill-opacity: 0.7; stroke: #000000; stroke-opacity: 0.7; stroke-width: 0.5"/>
    </g>
    <g clip-path="url(#p0893d93258)">
     <use xlink:href="#Cc_0_e793c9bed3" x="137.766666" y="76.504559" style="fill: #648fff; fill-opacity: 0.7; stroke: #000000; stroke-opacity: 0.7; stroke-width: 0.5"/>
    </g>
   </g>
   <g id="PathCollection_16">
    <defs>
     <path id="Cd_0_7e3c0e1dd3" d="M 0 2.5 
C 0.663008 2.5 1.29895 2.236584 1.767767 1.767767 
C 2.236584 1.29895 2.5 0.663008 2.5 -0 
C 2.5 -0.663008 2.236584 -1.29895 1.767767 -1.767767 
C 1.29895 -2.236584 0.663008 -2.5 0 -2.5 
C -0.663008 -2.5 -1.29895 -2.236584 -1.767767 -1.767767 
C -2.236584 -1.29895 -2.5 -0.663008 -2.5 0 
C -2.5 0.663008 -2.236584 1.29895 -1.767767 1.767767 
C -1.29895 2.236584 -0.663008 2.5 0 2.5 
z
"/>
    </defs>
    <g clip-path="url(#p0893d93258)">
     <use xlink:href="#Cd_0_7e3c0e1dd3" x="143.150728" y="41.819767" style="fill: #fe6100; fill-opacity: 0.7; stroke: #000000; stroke-opacity: 0.7; stroke-width: 0.5"/>
    </g>
    <g clip-path="url(#p0893d93258)">
     <use xlink:href="#Cd_0_7e3c0e1dd3" x="143.176293" y="34.881429" style="fill: #fe6100; fill-opacity: 0.7; stroke: #000000; stroke-opacity: 0.7; stroke-width: 0.5"/>
    </g>
    <g clip-path="url(#p0893d93258)">
     <use xlink:href="#Cd_0_7e3c0e1dd3" x="143.844713" y="51.200087" style="fill: #fe6100; fill-opacity: 0.7; stroke: #000000; stroke-opacity: 0.7; stroke-width: 0.5"/>
    </g>
   </g>
   <g id="PathCollection_17">
    <defs>
     <path id="Ce_0_8973e1957b" d="M 0 2.5 
C 0.663008 2.5 1.29895 2.236584 1.767767 1.767767 
C 2.236584 1.29895 2.5 0.663008 2.5 -0 
C 2.5 -0.663008 2.236584 -1.29895 1.767767 -1.767767 
C 1.29895 -2.236584 0.663008 -2.5 0 -2.5 
C -0.663008 -2.5 -1.29895 -2.236584 -1.767767 -1.767767 
C -2.236584 -1.29895 -2.5 -0.663008 -2.5 0 
C -2.5 0.663008 -2.236584 1.29895 -1.767767 1.767767 
C -1.29895 2.236584 -0.663008 2.5 0 2.5 
z
"/>
    </defs>
    <g clip-path="url(#p0893d93258)">
     <use xlink:href="#Ce_0_8973e1957b" x="152.479959" y="124.290162" style="fill: #648fff; fill-opacity: 0.7; stroke: #000000; stroke-opacity: 0.7; stroke-width: 0.5"/>
    </g>
    <g clip-path="url(#p0893d93258)">
     <use xlink:href="#Ce_0_8973e1957b" x="152.058377" y="125.125998" style="fill: #648fff; fill-opacity: 0.7; stroke: #000000; stroke-opacity: 0.7; stroke-width: 0.5"/>
    </g>
    <g clip-path="url(#p0893d93258)">
     <use xlink:href="#Ce_0_8973e1957b" x="151.797708" y="124.731627" style="fill: #648fff; fill-opacity: 0.7; stroke: #000000; stroke-opacity: 0.7; stroke-width: 0.5"/>
    </g>
   </g>
   <g id="PathCollection_18">
    <defs>
     <path id="Cf_0_63f8005b9a" d="M 0 2.5 
C 0.663008 2.5 1.29895 2.236584 1.767767 1.767767 
C 2.236584 1.29895 2.5 0.663008 2.5 -0 
C 2.5 -0.663008 2.236584 -1.29895 1.767767 -1.767767 
C 1.29895 -2.236584 0.663008 -2.5 0 -2.5 
C -0.663008 -2.5 -1.29895 -2.236584 -1.767767 -1.767767 
C -2.236584 -1.29895 -2.5 -0.663008 -2.5 0 
C -2.5 0.663008 -2.236584 1.29895 -1.767767 1.767767 
C -1.29895 2.236584 -0.663008 2.5 0 2.5 
z
"/>
    </defs>
    <g clip-path="url(#p0893d93258)">
     <use xlink:href="#Cf_0_63f8005b9a" x="158.382616" y="119.622026" style="fill: #fe6100; fill-opacity: 0.7; stroke: #000000; stroke-opacity: 0.7; stroke-width: 0.5"/>
    </g>
    <g clip-path="url(#p0893d93258)">
     <use xlink:href="#Cf_0_63f8005b9a" x="158.669509" y="114.422808" style="fill: #fe6100; fill-opacity: 0.7; stroke: #000000; stroke-opacity: 0.7; stroke-width: 0.5"/>
    </g>
    <g clip-path="url(#p0893d93258)">
     <use xlink:href="#Cf_0_63f8005b9a" x="158.108784" y="115.47362" style="fill: #fe6100; fill-opacity: 0.7; stroke: #000000; stroke-opacity: 0.7; stroke-width: 0.5"/>
    </g>
   </g>
   <g id="PathCollection_19">
    <defs>
     <path id="C10_0_58d8ff0e64" d="M 0 2.5 
C 0.663008 2.5 1.29895 2.236584 1.767767 1.767767 
C 2.236584 1.29895 2.5 0.663008 2.5 -0 
C 2.5 -0.663008 2.236584 -1.29895 1.767767 -1.767767 
C 1.29895 -2.236584 0.663008 -2.5 0 -2.5 
C -0.663008 -2.5 -1.29895 -2.236584 -1.767767 -1.767767 
C -2.236584 -1.29895 -2.5 -0.663008 -2.5 0 
C -2.5 0.663008 -2.236584 1.29895 -1.767767 1.767767 
C -1.29895 2.236584 -0.663008 2.5 0 2.5 
z
"/>
    </defs>
    <g clip-path="url(#p0893d93258)">
     <use xlink:href="#C10_0_58d8ff0e64" x="166.336042" y="79.281704" style="fill: #648fff; fill-opacity: 0.7; stroke: #000000; stroke-opacity: 0.7; stroke-width: 0.5"/>
    </g>
    <g clip-path="url(#p0893d93258)">
     <use xlink:href="#C10_0_58d8ff0e64" x="167.665749" y="76.809334" style="fill: #648fff; fill-opacity: 0.7; stroke: #000000; stroke-opacity: 0.7; stroke-width: 0.5"/>
    </g>
    <g clip-path="url(#p0893d93258)">
     <use xlink:href="#C10_0_58d8ff0e64" x="166.833331" y="71.449801" style="fill: #648fff; fill-opacity: 0.7; stroke: #000000; stroke-opacity: 0.7; stroke-width: 0.5"/>
    </g>
   </g>
   <g id="PathCollection_20">
    <defs>
     <path id="C11_0_83d77680a5" d="M 0 2.5 
C 0.663008 2.5 1.29895 2.236584 1.767767 1.767767 
C 2.236584 1.29895 2.5 0.663008 2.5 -0 
C 2.5 -0.663008 2.236584 -1.29895 1.767767 -1.767767 
C 1.29895 -2.236584 0.663008 -2.5 0 -2.5 
C -0.663008 -2.5 -1.29895 -2.236584 -1.767767 -1.767767 
C -2.236584 -1.29895 -2.5 -0.663008 -2.5 0 
C -2.5 0.663008 -2.236584 1.29895 -1.767767 1.767767 
C -1.29895 2.236584 -0.663008 2.5 0 2.5 
z
"/>
    </defs>
    <g clip-path="url(#p0893d93258)">
     <use xlink:href="#C11_0_83d77680a5" x="172.219925" y="67.06062" style="fill: #fe6100; fill-opacity: 0.7; stroke: #000000; stroke-opacity: 0.7; stroke-width: 0.5"/>
    </g>
    <g clip-path="url(#p0893d93258)">
     <use xlink:href="#C11_0_83d77680a5" x="172.474643" y="66.375313" style="fill: #fe6100; fill-opacity: 0.7; stroke: #000000; stroke-opacity: 0.7; stroke-width: 0.5"/>
    </g>
    <g clip-path="url(#p0893d93258)">
     <use xlink:href="#C11_0_83d77680a5" x="173.081013" y="75.213622" style="fill: #fe6100; fill-opacity: 0.7; stroke: #000000; stroke-opacity: 0.7; stroke-width: 0.5"/>
    </g>
   </g>
   <g id="PathCollection_21">
    <defs>
     <path id="C12_0_413bf6d78d" d="M 0 2.5 
C 0.663008 2.5 1.29895 2.236584 1.767767 1.767767 
C 2.236584 1.29895 2.5 0.663008 2.5 -0 
C 2.5 -0.663008 2.236584 -1.29895 1.767767 -1.767767 
C 1.29895 -2.236584 0.663008 -2.5 0 -2.5 
C -0.663008 -2.5 -1.29895 -2.236584 -1.767767 -1.767767 
C -2.236584 -1.29895 -2.5 -0.663008 -2.5 0 
C -2.5 0.663008 -2.236584 1.29895 -1.767767 1.767767 
C -1.29895 2.236584 -0.663008 2.5 0 2.5 
z
"/>
    </defs>
    <g clip-path="url(#p0893d93258)">
     <use xlink:href="#C12_0_413bf6d78d" x="181.05014" y="100.815211" style="fill: #648fff; fill-opacity: 0.7; stroke: #000000; stroke-opacity: 0.7; stroke-width: 0.5"/>
    </g>
    <g clip-path="url(#p0893d93258)">
     <use xlink:href="#C12_0_413bf6d78d" x="181.531658" y="100.121507" style="fill: #648fff; fill-opacity: 0.7; stroke: #000000; stroke-opacity: 0.7; stroke-width: 0.5"/>
    </g>
    <g clip-path="url(#p0893d93258)">
     <use xlink:href="#C12_0_413bf6d78d" x="181.438461" y="99.834132" style="fill: #648fff; fill-opacity: 0.7; stroke: #000000; stroke-opacity: 0.7; stroke-width: 0.5"/>
    </g>
   </g>
   <g id="PathCollection_22">
    <defs>
     <path id="C13_0_1a62bd9c7a" d="M 0 2.5 
C 0.663008 2.5 1.29895 2.236584 1.767767 1.767767 
C 2.236584 1.29895 2.5 0.663008 2.5 -0 
C 2.5 -0.663008 2.236584 -1.29895 1.767767 -1.767767 
C 1.29895 -2.236584 0.663008 -2.5 0 -2.5 
C -0.663008 -2.5 -1.29895 -2.236584 -1.767767 -1.767767 
C -2.236584 -1.29895 -2.5 -0.663008 -2.5 0 
C -2.5 0.663008 -2.236584 1.29895 -1.767767 1.767767 
C -1.29895 2.236584 -0.663008 2.5 0 2.5 
z
"/>
    </defs>
    <g clip-path="url(#p0893d93258)">
     <use xlink:href="#C13_0_1a62bd9c7a" x="188.054746" y="94.091178" style="fill: #fe6100; fill-opacity: 0.7; stroke: #000000; stroke-opacity: 0.7; stroke-width: 0.5"/>
    </g>
    <g clip-path="url(#p0893d93258)">
     <use xlink:href="#C13_0_1a62bd9c7a" x="188.122909" y="99.480047" style="fill: #fe6100; fill-opacity: 0.7; stroke: #000000; stroke-opacity: 0.7; stroke-width: 0.5"/>
    </g>
    <g clip-path="url(#p0893d93258)">
     <use xlink:href="#C13_0_1a62bd9c7a" x="187.225288" y="99.660135" style="fill: #fe6100; fill-opacity: 0.7; stroke: #000000; stroke-opacity: 0.7; stroke-width: 0.5"/>
    </g>
   </g>
   <g id="PathCollection_23">
    <defs>
     <path id="C14_0_291e421b9c" d="M 0 2.5 
C 0.663008 2.5 1.29895 2.236584 1.767767 1.767767 
C 2.236584 1.29895 2.5 0.663008 2.5 -0 
C 2.5 -0.663008 2.236584 -1.29895 1.767767 -1.767767 
C 1.29895 -2.236584 0.663008 -2.5 0 -2.5 
C -0.663008 -2.5 -1.29895 -2.236584 -1.767767 -1.767767 
C -2.236584 -1.29895 -2.5 -0.663008 -2.5 0 
C -2.5 0.663008 -2.236584 1.29895 -1.767767 1.767767 
C -1.29895 2.236584 -0.663008 2.5 0 2.5 
z
"/>
    </defs>
    <g clip-path="url(#p0893d93258)">
     <use xlink:href="#C14_0_291e421b9c" x="196.012073" y="75.663954" style="fill: #648fff; fill-opacity: 0.7; stroke: #000000; stroke-opacity: 0.7; stroke-width: 0.5"/>
    </g>
    <g clip-path="url(#p0893d93258)">
     <use xlink:href="#C14_0_291e421b9c" x="196.551908" y="72.879801" style="fill: #648fff; fill-opacity: 0.7; stroke: #000000; stroke-opacity: 0.7; stroke-width: 0.5"/>
    </g>
    <g clip-path="url(#p0893d93258)">
     <use xlink:href="#C14_0_291e421b9c" x="195.946871" y="75.71322" style="fill: #648fff; fill-opacity: 0.7; stroke: #000000; stroke-opacity: 0.7; stroke-width: 0.5"/>
    </g>
   </g>
   <g id="PathCollection_24">
    <defs>
     <path id="C15_0_018a49a0b4" d="M 0 2.5 
C 0.663008 2.5 1.29895 2.236584 1.767767 1.767767 
C 2.236584 1.29895 2.5 0.663008 2.5 -0 
C 2.5 -0.663008 2.236584 -1.29895 1.767767 -1.767767 
C 1.29895 -2.236584 0.663008 -2.5 0 -2.5 
C -0.663008 -2.5 -1.29895 -2.236584 -1.767767 -1.767767 
C -2.236584 -1.29895 -2.5 -0.663008 -2.5 0 
C -2.5 0.663008 -2.236584 1.29895 -1.767767 1.767767 
C -1.29895 2.236584 -0.663008 2.5 0 2.5 
z
"/>
    </defs>
    <g clip-path="url(#p0893d93258)">
     <use xlink:href="#C15_0_018a49a0b4" x="202.746982" y="77.29395" style="fill: #fe6100; fill-opacity: 0.7; stroke: #000000; stroke-opacity: 0.7; stroke-width: 0.5"/>
    </g>
    <g clip-path="url(#p0893d93258)">
     <use xlink:href="#C15_0_018a49a0b4" x="202.635324" y="75.689505" style="fill: #fe6100; fill-opacity: 0.7; stroke: #000000; stroke-opacity: 0.7; stroke-width: 0.5"/>
    </g>
    <g clip-path="url(#p0893d93258)">
     <use xlink:href="#C15_0_018a49a0b4" x="202.234591" y="72.204549" style="fill: #fe6100; fill-opacity: 0.7; stroke: #000000; stroke-opacity: 0.7; stroke-width: 0.5"/>
    </g>
   </g>
   <g id="PathCollection_25">
    <defs>
     <path id="C16_0_43a9c073e5" d="M 0 2.5 
C 0.663008 2.5 1.29895 2.236584 1.767767 1.767767 
C 2.236584 1.29895 2.5 0.663008 2.5 -0 
C 2.5 -0.663008 2.236584 -1.29895 1.767767 -1.767767 
C 1.29895 -2.236584 0.663008 -2.5 0 -2.5 
C -0.663008 -2.5 -1.29895 -2.236584 -1.767767 -1.767767 
C -2.236584 -1.29895 -2.5 -0.663008 -2.5 0 
C -2.5 0.663008 -2.236584 1.29895 -1.767767 1.767767 
C -1.29895 2.236584 -0.663008 2.5 0 2.5 
z
"/>
    </defs>
    <g clip-path="url(#p0893d93258)">
     <use xlink:href="#C16_0_43a9c073e5" x="211.572805" y="144.260093" style="fill: #648fff; fill-opacity: 0.7; stroke: #000000; stroke-opacity: 0.7; stroke-width: 0.5"/>
    </g>
    <g clip-path="url(#p0893d93258)">
     <use xlink:href="#C16_0_43a9c073e5" x="211.296052" y="143.980242" style="fill: #648fff; fill-opacity: 0.7; stroke: #000000; stroke-opacity: 0.7; stroke-width: 0.5"/>
    </g>
    <g clip-path="url(#p0893d93258)">
     <use xlink:href="#C16_0_43a9c073e5" x="211.74386" y="143.257136" style="fill: #648fff; fill-opacity: 0.7; stroke: #000000; stroke-opacity: 0.7; stroke-width: 0.5"/>
    </g>
   </g>
   <g id="PathCollection_26">
    <defs>
     <path id="C17_0_ced51c6c07" d="M 0 2.5 
C 0.663008 2.5 1.29895 2.236584 1.767767 1.767767 
C 2.236584 1.29895 2.5 0.663008 2.5 -0 
C 2.5 -0.663008 2.236584 -1.29895 1.767767 -1.767767 
C 1.29895 -2.236584 0.663008 -2.5 0 -2.5 
C -0.663008 -2.5 -1.29895 -2.236584 -1.767767 -1.767767 
C -2.236584 -1.29895 -2.5 -0.663008 -2.5 0 
C -2.5 0.663008 -2.236584 1.29895 -1.767767 1.767767 
C -1.29895 2.236584 -0.663008 2.5 0 2.5 
z
"/>
    </defs>
    <g clip-path="url(#p0893d93258)">
     <use xlink:href="#C17_0_ced51c6c07" x="217.484447" y="144.584798" style="fill: #fe6100; fill-opacity: 0.7; stroke: #000000; stroke-opacity: 0.7; stroke-width: 0.5"/>
    </g>
    <g clip-path="url(#p0893d93258)">
     <use xlink:href="#C17_0_ced51c6c07" x="217.015877" y="144.468352" style="fill: #fe6100; fill-opacity: 0.7; stroke: #000000; stroke-opacity: 0.7; stroke-width: 0.5"/>
    </g>
    <g clip-path="url(#p0893d93258)">
     <use xlink:href="#C17_0_ced51c6c07" x="217.071461" y="144.162659" style="fill: #fe6100; fill-opacity: 0.7; stroke: #000000; stroke-opacity: 0.7; stroke-width: 0.5"/>
    </g>
   </g>
   <g id="PathCollection_27">
    <defs>
     <path id="C18_0_c3a5ef7a7c" d="M 0 2.5 
C 0.663008 2.5 1.29895 2.236584 1.767767 1.767767 
C 2.236584 1.29895 2.5 0.663008 2.5 -0 
C 2.5 -0.663008 2.236584 -1.29895 1.767767 -1.767767 
C 1.29895 -2.236584 0.663008 -2.5 0 -2.5 
C -0.663008 -2.5 -1.29895 -2.236584 -1.767767 -1.767767 
C -2.236584 -1.29895 -2.5 -0.663008 -2.5 0 
C -2.5 0.663008 -2.236584 1.29895 -1.767767 1.767767 
C -1.29895 2.236584 -0.663008 2.5 0 2.5 
z
"/>
    </defs>
    <g clip-path="url(#p0893d93258)">
     <use xlink:href="#C18_0_c3a5ef7a7c" x="226.947835" y="114.724962" style="fill: #648fff; fill-opacity: 0.7; stroke: #000000; stroke-opacity: 0.7; stroke-width: 0.5"/>
    </g>
    <g clip-path="url(#p0893d93258)">
     <use xlink:href="#C18_0_c3a5ef7a7c" x="225.822801" y="111.013564" style="fill: #648fff; fill-opacity: 0.7; stroke: #000000; stroke-opacity: 0.7; stroke-width: 0.5"/>
    </g>
    <g clip-path="url(#p0893d93258)">
     <use xlink:href="#C18_0_c3a5ef7a7c" x="226.913743" y="109.023078" style="fill: #648fff; fill-opacity: 0.7; stroke: #000000; stroke-opacity: 0.7; stroke-width: 0.5"/>
    </g>
    <g clip-path="url(#p0893d93258)">
     <use xlink:href="#C18_0_c3a5ef7a7c" x="226.235932" y="113.875602" style="fill: #648fff; fill-opacity: 0.7; stroke: #000000; stroke-opacity: 0.7; stroke-width: 0.5"/>
    </g>
    <g clip-path="url(#p0893d93258)">
     <use xlink:href="#C18_0_c3a5ef7a7c" x="226.458032" y="116.131001" style="fill: #648fff; fill-opacity: 0.7; stroke: #000000; stroke-opacity: 0.7; stroke-width: 0.5"/>
    </g>
    <g clip-path="url(#p0893d93258)">
     <use xlink:href="#C18_0_c3a5ef7a7c" x="226.707721" y="117.570384" style="fill: #648fff; fill-opacity: 0.7; stroke: #000000; stroke-opacity: 0.7; stroke-width: 0.5"/>
    </g>
    <g clip-path="url(#p0893d93258)">
     <use xlink:href="#C18_0_c3a5ef7a7c" x="225.666072" y="117.206827" style="fill: #648fff; fill-opacity: 0.7; stroke: #000000; stroke-opacity: 0.7; stroke-width: 0.5"/>
    </g>
    <g clip-path="url(#p0893d93258)">
     <use xlink:href="#C18_0_c3a5ef7a7c" x="226.983771" y="110.103584" style="fill: #648fff; fill-opacity: 0.7; stroke: #000000; stroke-opacity: 0.7; stroke-width: 0.5"/>
    </g>
    <g clip-path="url(#p0893d93258)">
     <use xlink:href="#C18_0_c3a5ef7a7c" x="225.90915" y="113.123182" style="fill: #648fff; fill-opacity: 0.7; stroke: #000000; stroke-opacity: 0.7; stroke-width: 0.5"/>
    </g>
    <g clip-path="url(#p0893d93258)">
     <use xlink:href="#C18_0_c3a5ef7a7c" x="226.434038" y="110.823085" style="fill: #648fff; fill-opacity: 0.7; stroke: #000000; stroke-opacity: 0.7; stroke-width: 0.5"/>
    </g>
    <g clip-path="url(#p0893d93258)">
     <use xlink:href="#C18_0_c3a5ef7a7c" x="225.931145" y="112.170946" style="fill: #648fff; fill-opacity: 0.7; stroke: #000000; stroke-opacity: 0.7; stroke-width: 0.5"/>
    </g>
    <g clip-path="url(#p0893d93258)">
     <use xlink:href="#C18_0_c3a5ef7a7c" x="226.298965" y="109.846082" style="fill: #648fff; fill-opacity: 0.7; stroke: #000000; stroke-opacity: 0.7; stroke-width: 0.5"/>
    </g>
   </g>
   <g id="PathCollection_28">
    <path d="M 0 238.307063 
C 0.663008 238.307063 1.29895 238.043647 1.767767 237.574829 
C 2.236584 237.106012 2.5 236.47007 2.5 235.807063 
C 2.5 235.144055 2.236584 234.508113 1.767767 234.039296 
C 1.29895 233.570478 0.663008 233.307063 0 233.307063 
C -0.663008 233.307063 -1.29895 233.570478 -1.767767 234.039296 
C -2.236584 234.508113 -2.5 235.144055 -2.5 235.807063 
C -2.5 236.47007 -2.236584 237.106012 -1.767767 237.574829 
C -1.29895 238.043647 -0.663008 238.307063 0 238.307063 
" clip-path="url(#p0893d93258)" style="fill: none; stroke: #000000; stroke-opacity: 0.7; stroke-width: 0.5"/>
   </g>
   <g id="line2d_21">
    <path d="M 48.111911 109.003812 
L 48.111911 103.214795 
" clip-path="url(#p0893d93258)" style="fill: none; stroke: #000000; stroke-width: 0.5; stroke-linecap: round"/>
   </g>
   <g id="line2d_22">
    <path d="M 46.626739 109.003812 
L 49.597082 109.003812 
" clip-path="url(#p0893d93258)" style="fill: none; stroke: #000000; stroke-width: 0.5; stroke-linecap: round"/>
   </g>
   <g id="line2d_23">
    <path d="M 46.626739 103.214795 
L 49.597082 103.214795 
" clip-path="url(#p0893d93258)" style="fill: none; stroke: #000000; stroke-width: 0.5; stroke-linecap: round"/>
   </g>
   <g id="line2d_24">
    <path d="M 62.963622 92.220632 
L 62.963622 64.378035 
" clip-path="url(#p0893d93258)" style="fill: none; stroke: #000000; stroke-width: 0.5; stroke-linecap: round"/>
   </g>
   <g id="line2d_25">
    <path d="M 61.478451 92.220632 
L 64.448793 92.220632 
" clip-path="url(#p0893d93258)" style="fill: none; stroke: #000000; stroke-width: 0.5; stroke-linecap: round"/>
   </g>
   <g id="line2d_26">
    <path d="M 61.478451 64.378035 
L 64.448793 64.378035 
" clip-path="url(#p0893d93258)" style="fill: none; stroke: #000000; stroke-width: 0.5; stroke-linecap: round"/>
   </g>
   <g id="line2d_27">
    <path d="M 77.815333 81.762815 
L 77.815333 71.261949 
" clip-path="url(#p0893d93258)" style="fill: none; stroke: #000000; stroke-width: 0.5; stroke-linecap: round"/>
   </g>
   <g id="line2d_28">
    <path d="M 76.330162 81.762815 
L 79.300504 81.762815 
" clip-path="url(#p0893d93258)" style="fill: none; stroke: #000000; stroke-width: 0.5; stroke-linecap: round"/>
   </g>
   <g id="line2d_29">
    <path d="M 76.330162 71.261949 
L 79.300504 71.261949 
" clip-path="url(#p0893d93258)" style="fill: none; stroke: #000000; stroke-width: 0.5; stroke-linecap: round"/>
   </g>
   <g id="line2d_30">
    <path d="M 92.667044 71.440172 
L 92.667044 71.275414 
" clip-path="url(#p0893d93258)" style="fill: none; stroke: #000000; stroke-width: 0.5; stroke-linecap: round"/>
   </g>
   <g id="line2d_31">
    <path d="M 91.181873 71.440172 
L 94.152215 71.440172 
" clip-path="url(#p0893d93258)" style="fill: none; stroke: #000000; stroke-width: 0.5; stroke-linecap: round"/>
   </g>
   <g id="line2d_32">
    <path d="M 91.181873 71.275414 
L 94.152215 71.275414 
" clip-path="url(#p0893d93258)" style="fill: none; stroke: #000000; stroke-width: 0.5; stroke-linecap: round"/>
   </g>
   <g id="line2d_33">
    <path d="M 107.518755 59.335522 
L 107.518755 53.717359 
" clip-path="url(#p0893d93258)" style="fill: none; stroke: #000000; stroke-width: 0.5; stroke-linecap: round"/>
   </g>
   <g id="line2d_34">
    <path d="M 106.033584 59.335522 
L 109.003926 59.335522 
" clip-path="url(#p0893d93258)" style="fill: none; stroke: #000000; stroke-width: 0.5; stroke-linecap: round"/>
   </g>
   <g id="line2d_35">
    <path d="M 106.033584 53.717359 
L 109.003926 53.717359 
" clip-path="url(#p0893d93258)" style="fill: none; stroke: #000000; stroke-width: 0.5; stroke-linecap: round"/>
   </g>
   <g id="line2d_36">
    <path d="M 122.370466 80.919095 
L 122.370466 79.471065 
" clip-path="url(#p0893d93258)" style="fill: none; stroke: #000000; stroke-width: 0.5; stroke-linecap: round"/>
   </g>
   <g id="line2d_37">
    <path d="M 120.885295 80.919095 
L 123.855637 80.919095 
" clip-path="url(#p0893d93258)" style="fill: none; stroke: #000000; stroke-width: 0.5; stroke-linecap: round"/>
   </g>
   <g id="line2d_38">
    <path d="M 120.885295 79.471065 
L 123.855637 79.471065 
" clip-path="url(#p0893d93258)" style="fill: none; stroke: #000000; stroke-width: 0.5; stroke-linecap: round"/>
   </g>
   <g id="line2d_39">
    <path d="M 137.222177 80.304226 
L 137.222177 76.713497 
" clip-path="url(#p0893d93258)" style="fill: none; stroke: #000000; stroke-width: 0.5; stroke-linecap: round"/>
   </g>
   <g id="line2d_40">
    <path d="M 135.737006 80.304226 
L 138.707348 80.304226 
" clip-path="url(#p0893d93258)" style="fill: none; stroke: #000000; stroke-width: 0.5; stroke-linecap: round"/>
   </g>
   <g id="line2d_41">
    <path d="M 135.737006 76.713497 
L 138.707348 76.713497 
" clip-path="url(#p0893d93258)" style="fill: none; stroke: #000000; stroke-width: 0.5; stroke-linecap: round"/>
   </g>
   <g id="line2d_42">
    <path d="M 152.073888 125.134068 
L 152.073888 124.29779 
" clip-path="url(#p0893d93258)" style="fill: none; stroke: #000000; stroke-width: 0.5; stroke-linecap: round"/>
   </g>
   <g id="line2d_43">
    <path d="M 150.588717 125.134068 
L 153.559059 125.134068 
" clip-path="url(#p0893d93258)" style="fill: none; stroke: #000000; stroke-width: 0.5; stroke-linecap: round"/>
   </g>
   <g id="line2d_44">
    <path d="M 150.588717 124.29779 
L 153.559059 124.29779 
" clip-path="url(#p0893d93258)" style="fill: none; stroke: #000000; stroke-width: 0.5; stroke-linecap: round"/>
   </g>
   <g id="line2d_45">
    <path d="M 166.925599 79.850609 
L 166.925599 71.843283 
" clip-path="url(#p0893d93258)" style="fill: none; stroke: #000000; stroke-width: 0.5; stroke-linecap: round"/>
   </g>
   <g id="line2d_46">
    <path d="M 165.440428 79.850609 
L 168.41077 79.850609 
" clip-path="url(#p0893d93258)" style="fill: none; stroke: #000000; stroke-width: 0.5; stroke-linecap: round"/>
   </g>
   <g id="line2d_47">
    <path d="M 165.440428 71.843283 
L 168.41077 71.843283 
" clip-path="url(#p0893d93258)" style="fill: none; stroke: #000000; stroke-width: 0.5; stroke-linecap: round"/>
   </g>
   <g id="line2d_48">
    <path d="M 181.77731 100.761319 
L 181.77731 99.752582 
" clip-path="url(#p0893d93258)" style="fill: none; stroke: #000000; stroke-width: 0.5; stroke-linecap: round"/>
   </g>
   <g id="line2d_49">
    <path d="M 180.292139 100.761319 
L 183.262481 100.761319 
" clip-path="url(#p0893d93258)" style="fill: none; stroke: #000000; stroke-width: 0.5; stroke-linecap: round"/>
   </g>
   <g id="line2d_50">
    <path d="M 180.292139 99.752582 
L 183.262481 99.752582 
" clip-path="url(#p0893d93258)" style="fill: none; stroke: #000000; stroke-width: 0.5; stroke-linecap: round"/>
   </g>
   <g id="line2d_51">
    <path d="M 196.629021 76.374166 
L 196.629021 73.130484 
" clip-path="url(#p0893d93258)" style="fill: none; stroke: #000000; stroke-width: 0.5; stroke-linecap: round"/>
   </g>
   <g id="line2d_52">
    <path d="M 195.14385 76.374166 
L 198.114192 76.374166 
" clip-path="url(#p0893d93258)" style="fill: none; stroke: #000000; stroke-width: 0.5; stroke-linecap: round"/>
   </g>
   <g id="line2d_53">
    <path d="M 195.14385 73.130484 
L 198.114192 73.130484 
" clip-path="url(#p0893d93258)" style="fill: none; stroke: #000000; stroke-width: 0.5; stroke-linecap: round"/>
   </g>
   <g id="line2d_54">
    <path d="M 211.480732 144.350036 
L 211.480732 143.314944 
" clip-path="url(#p0893d93258)" style="fill: none; stroke: #000000; stroke-width: 0.5; stroke-linecap: round"/>
   </g>
   <g id="line2d_55">
    <path d="M 209.995561 144.350036 
L 212.965903 144.350036 
" clip-path="url(#p0893d93258)" style="fill: none; stroke: #000000; stroke-width: 0.5; stroke-linecap: round"/>
   </g>
   <g id="line2d_56">
    <path d="M 209.995561 143.314944 
L 212.965903 143.314944 
" clip-path="url(#p0893d93258)" style="fill: none; stroke: #000000; stroke-width: 0.5; stroke-linecap: round"/>
   </g>
   <g id="line2d_57">
    <path d="M 226.332443 115.916626 
L 226.332443 110.018757 
" clip-path="url(#p0893d93258)" style="fill: none; stroke: #000000; stroke-width: 0.5; stroke-linecap: round"/>
   </g>
   <g id="line2d_58">
    <path d="M 224.847272 115.916626 
L 227.817614 115.916626 
" clip-path="url(#p0893d93258)" style="fill: none; stroke: #000000; stroke-width: 0.5; stroke-linecap: round"/>
   </g>
   <g id="line2d_59">
    <path d="M 224.847272 110.018757 
L 227.817614 110.018757 
" clip-path="url(#p0893d93258)" style="fill: none; stroke: #000000; stroke-width: 0.5; stroke-linecap: round"/>
   </g>
   <g id="line2d_60">
    <path d="M 54.052595 96.019098 
L 54.052595 94.717604 
" clip-path="url(#p0893d93258)" style="fill: none; stroke: #000000; stroke-width: 0.5; stroke-linecap: round"/>
   </g>
   <g id="line2d_61">
    <path d="M 52.567424 96.019098 
L 55.537766 96.019098 
" clip-path="url(#p0893d93258)" style="fill: none; stroke: #000000; stroke-width: 0.5; stroke-linecap: round"/>
   </g>
   <g id="line2d_62">
    <path d="M 52.567424 94.717604 
L 55.537766 94.717604 
" clip-path="url(#p0893d93258)" style="fill: none; stroke: #000000; stroke-width: 0.5; stroke-linecap: round"/>
   </g>
   <g id="line2d_63">
    <path d="M 68.904306 95.262759 
L 68.904306 73.627338 
" clip-path="url(#p0893d93258)" style="fill: none; stroke: #000000; stroke-width: 0.5; stroke-linecap: round"/>
   </g>
   <g id="line2d_64">
    <path d="M 67.419135 95.262759 
L 70.389477 95.262759 
" clip-path="url(#p0893d93258)" style="fill: none; stroke: #000000; stroke-width: 0.5; stroke-linecap: round"/>
   </g>
   <g id="line2d_65">
    <path d="M 67.419135 73.627338 
L 70.389477 73.627338 
" clip-path="url(#p0893d93258)" style="fill: none; stroke: #000000; stroke-width: 0.5; stroke-linecap: round"/>
   </g>
   <g id="line2d_66">
    <path d="M 83.756017 72.988134 
L 83.756017 70.91959 
" clip-path="url(#p0893d93258)" style="fill: none; stroke: #000000; stroke-width: 0.5; stroke-linecap: round"/>
   </g>
   <g id="line2d_67">
    <path d="M 82.270846 72.988134 
L 85.241188 72.988134 
" clip-path="url(#p0893d93258)" style="fill: none; stroke: #000000; stroke-width: 0.5; stroke-linecap: round"/>
   </g>
   <g id="line2d_68">
    <path d="M 82.270846 70.91959 
L 85.241188 70.91959 
" clip-path="url(#p0893d93258)" style="fill: none; stroke: #000000; stroke-width: 0.5; stroke-linecap: round"/>
   </g>
   <g id="line2d_69">
    <path d="M 98.607728 32.391683 
L 98.607728 14.545663 
" clip-path="url(#p0893d93258)" style="fill: none; stroke: #000000; stroke-width: 0.5; stroke-linecap: round"/>
   </g>
   <g id="line2d_70">
    <path d="M 97.122557 32.391683 
L 100.092899 32.391683 
" clip-path="url(#p0893d93258)" style="fill: none; stroke: #000000; stroke-width: 0.5; stroke-linecap: round"/>
   </g>
   <g id="line2d_71">
    <path d="M 97.122557 14.545663 
L 100.092899 14.545663 
" clip-path="url(#p0893d93258)" style="fill: none; stroke: #000000; stroke-width: 0.5; stroke-linecap: round"/>
   </g>
   <g id="line2d_72">
    <path d="M 113.459439 57.709595 
L 113.459439 55.429605 
" clip-path="url(#p0893d93258)" style="fill: none; stroke: #000000; stroke-width: 0.5; stroke-linecap: round"/>
   </g>
   <g id="line2d_73">
    <path d="M 111.974268 57.709595 
L 114.94461 57.709595 
" clip-path="url(#p0893d93258)" style="fill: none; stroke: #000000; stroke-width: 0.5; stroke-linecap: round"/>
   </g>
   <g id="line2d_74">
    <path d="M 111.974268 55.429605 
L 114.94461 55.429605 
" clip-path="url(#p0893d93258)" style="fill: none; stroke: #000000; stroke-width: 0.5; stroke-linecap: round"/>
   </g>
   <g id="line2d_75">
    <path d="M 128.31115 81.304323 
L 128.31115 77.592822 
" clip-path="url(#p0893d93258)" style="fill: none; stroke: #000000; stroke-width: 0.5; stroke-linecap: round"/>
   </g>
   <g id="line2d_76">
    <path d="M 126.825979 81.304323 
L 129.796321 81.304323 
" clip-path="url(#p0893d93258)" style="fill: none; stroke: #000000; stroke-width: 0.5; stroke-linecap: round"/>
   </g>
   <g id="line2d_77">
    <path d="M 126.825979 77.592822 
L 129.796321 77.592822 
" clip-path="url(#p0893d93258)" style="fill: none; stroke: #000000; stroke-width: 0.5; stroke-linecap: round"/>
   </g>
   <g id="line2d_78">
    <path d="M 143.162861 50.823485 
L 143.162861 34.444036 
" clip-path="url(#p0893d93258)" style="fill: none; stroke: #000000; stroke-width: 0.5; stroke-linecap: round"/>
   </g>
   <g id="line2d_79">
    <path d="M 141.67769 50.823485 
L 144.648032 50.823485 
" clip-path="url(#p0893d93258)" style="fill: none; stroke: #000000; stroke-width: 0.5; stroke-linecap: round"/>
   </g>
   <g id="line2d_80">
    <path d="M 141.67769 34.444036 
L 144.648032 34.444036 
" clip-path="url(#p0893d93258)" style="fill: none; stroke: #000000; stroke-width: 0.5; stroke-linecap: round"/>
   </g>
   <g id="line2d_81">
    <path d="M 158.014572 119.255253 
L 158.014572 113.75705 
" clip-path="url(#p0893d93258)" style="fill: none; stroke: #000000; stroke-width: 0.5; stroke-linecap: round"/>
   </g>
   <g id="line2d_82">
    <path d="M 156.529401 119.255253 
L 159.499743 119.255253 
" clip-path="url(#p0893d93258)" style="fill: none; stroke: #000000; stroke-width: 0.5; stroke-linecap: round"/>
   </g>
   <g id="line2d_83">
    <path d="M 156.529401 113.75705 
L 159.499743 113.75705 
" clip-path="url(#p0893d93258)" style="fill: none; stroke: #000000; stroke-width: 0.5; stroke-linecap: round"/>
   </g>
   <g id="line2d_84">
    <path d="M 172.866283 74.466775 
L 172.866283 64.632928 
" clip-path="url(#p0893d93258)" style="fill: none; stroke: #000000; stroke-width: 0.5; stroke-linecap: round"/>
   </g>
   <g id="line2d_85">
    <path d="M 171.381112 74.466775 
L 174.351454 74.466775 
" clip-path="url(#p0893d93258)" style="fill: none; stroke: #000000; stroke-width: 0.5; stroke-linecap: round"/>
   </g>
   <g id="line2d_86">
    <path d="M 171.381112 64.632928 
L 174.351454 64.632928 
" clip-path="url(#p0893d93258)" style="fill: none; stroke: #000000; stroke-width: 0.5; stroke-linecap: round"/>
   </g>
   <g id="line2d_87">
    <path d="M 187.717994 100.90832 
L 187.717994 94.579254 
" clip-path="url(#p0893d93258)" style="fill: none; stroke: #000000; stroke-width: 0.5; stroke-linecap: round"/>
   </g>
   <g id="line2d_88">
    <path d="M 186.232823 100.90832 
L 189.203165 100.90832 
" clip-path="url(#p0893d93258)" style="fill: none; stroke: #000000; stroke-width: 0.5; stroke-linecap: round"/>
   </g>
   <g id="line2d_89">
    <path d="M 186.232823 94.579254 
L 189.203165 94.579254 
" clip-path="url(#p0893d93258)" style="fill: none; stroke: #000000; stroke-width: 0.5; stroke-linecap: round"/>
   </g>
   <g id="line2d_90">
    <path d="M 202.569705 77.664628 
L 202.569705 72.460708 
" clip-path="url(#p0893d93258)" style="fill: none; stroke: #000000; stroke-width: 0.5; stroke-linecap: round"/>
   </g>
   <g id="line2d_91">
    <path d="M 201.084534 77.664628 
L 204.054876 77.664628 
" clip-path="url(#p0893d93258)" style="fill: none; stroke: #000000; stroke-width: 0.5; stroke-linecap: round"/>
   </g>
   <g id="line2d_92">
    <path d="M 201.084534 72.460708 
L 204.054876 72.460708 
" clip-path="url(#p0893d93258)" style="fill: none; stroke: #000000; stroke-width: 0.5; stroke-linecap: round"/>
   </g>
   <g id="line2d_93">
    <path d="M 217.421416 144.623294 
L 217.421416 144.187245 
" clip-path="url(#p0893d93258)" style="fill: none; stroke: #000000; stroke-width: 0.5; stroke-linecap: round"/>
   </g>
   <g id="line2d_94">
    <path d="M 215.936245 144.623294 
L 218.906587 144.623294 
" clip-path="url(#p0893d93258)" style="fill: none; stroke: #000000; stroke-width: 0.5; stroke-linecap: round"/>
   </g>
   <g id="line2d_95">
    <path d="M 215.936245 144.187245 
L 218.906587 144.187245 
" clip-path="url(#p0893d93258)" style="fill: none; stroke: #000000; stroke-width: 0.5; stroke-linecap: round"/>
   </g>
   <g id="line2d_96">
    <path clip-path="url(#p0893d93258)" style="fill: none; stroke: #000000; stroke-width: 0.5; stroke-linecap: round"/>
   </g>
   <g id="line2d_97">
    <path clip-path="url(#p0893d93258)" style="fill: none; stroke: #000000; stroke-width: 0.5; stroke-linecap: round"/>
   </g>
   <g id="line2d_98">
    <path clip-path="url(#p0893d93258)" style="fill: none; stroke: #000000; stroke-width: 0.5; stroke-linecap: round"/>
   </g>
   <g id="patch_29">
    <path d="M 41.428641 145.8 
L 41.428641 7.2 
" style="fill: none; stroke: #000000; stroke-width: 0.5; stroke-linejoin: miter; stroke-linecap: square"/>
   </g>
   <g id="patch_30">
    <path d="M 236.728641 145.8 
L 236.728641 7.2 
" style="fill: none; stroke: #000000; stroke-width: 0.5; stroke-linejoin: miter; stroke-linecap: square"/>
   </g>
   <g id="patch_31">
    <path d="M 41.428641 145.8 
L 236.728641 145.8 
" style="fill: none; stroke: #000000; stroke-width: 0.5; stroke-linejoin: miter; stroke-linecap: square"/>
   </g>
   <g id="patch_32">
    <path d="M 41.428641 7.2 
L 236.728641 7.2 
" style="fill: none; stroke: #000000; stroke-width: 0.5; stroke-linejoin: miter; stroke-linecap: square"/>
   </g>
   <g id="legend_1">
    <g id="patch_33">
     <path d="M 170.322156 35.32425 
L 231.338641 35.32425 
Q 232.878641 35.32425 232.878641 33.78425 
L 232.878641 12.59 
Q 232.878641 11.05 231.338641 11.05 
L 170.322156 11.05 
Q 168.782156 11.05 168.782156 12.59 
L 168.782156 33.78425 
Q 168.782156 35.32425 170.322156 35.32425 
z
" style="fill: #ffffff; opacity: 0.8; stroke: #cccccc; stroke-linejoin: miter"/>
    </g>
    <g id="patch_34">
     <path d="M 171.862156 19.641516 
L 187.262156 19.641516 
L 187.262156 14.251516 
L 171.862156 14.251516 
z
" style="fill: #648fff; stroke: #000000; stroke-width: 0.5; stroke-linejoin: miter"/>
    </g>
    <g id="text_23">
     <!-- Non-target -->
     <g style="fill: #262626" transform="translate(193.422156 19.641516) scale(0.077 -0.077)">
      <defs>
       <path id="ArialMT-4e" d="M 488 0 
L 488 4581 
L 1109 4581 
L 3516 984 
L 3516 4581 
L 4097 4581 
L 4097 0 
L 3475 0 
L 1069 3600 
L 1069 0 
L 488 0 
z
" transform="scale(0.015625)"/>
       <path id="ArialMT-2d" d="M 203 1375 
L 203 1941 
L 1931 1941 
L 1931 1375 
L 203 1375 
z
" transform="scale(0.015625)"/>
       <path id="ArialMT-61" d="M 2588 409 
Q 2275 144 1986 34 
Q 1697 -75 1366 -75 
Q 819 -75 525 192 
Q 231 459 231 875 
Q 231 1119 342 1320 
Q 453 1522 633 1644 
Q 813 1766 1038 1828 
Q 1203 1872 1538 1913 
Q 2219 1994 2541 2106 
Q 2544 2222 2544 2253 
Q 2544 2597 2384 2738 
Q 2169 2928 1744 2928 
Q 1347 2928 1158 2789 
Q 969 2650 878 2297 
L 328 2372 
Q 403 2725 575 2942 
Q 747 3159 1072 3276 
Q 1397 3394 1825 3394 
Q 2250 3394 2515 3294 
Q 2781 3194 2906 3042 
Q 3031 2891 3081 2659 
Q 3109 2516 3109 2141 
L 3109 1391 
Q 3109 606 3145 398 
Q 3181 191 3288 0 
L 2700 0 
Q 2613 175 2588 409 
z
M 2541 1666 
Q 2234 1541 1622 1453 
Q 1275 1403 1131 1340 
Q 988 1278 909 1158 
Q 831 1038 831 891 
Q 831 666 1001 516 
Q 1172 366 1500 366 
Q 1825 366 2078 508 
Q 2331 650 2450 897 
Q 2541 1088 2541 1459 
L 2541 1666 
z
" transform="scale(0.015625)"/>
      </defs>
      <use xlink:href="#ArialMT-4e"/>
      <use xlink:href="#ArialMT-6f" x="72.216797"/>
      <use xlink:href="#ArialMT-6e" x="127.832031"/>
      <use xlink:href="#ArialMT-2d" x="183.447266"/>
      <use xlink:href="#ArialMT-74" x="216.748047"/>
      <use xlink:href="#ArialMT-61" x="244.53125"/>
      <use xlink:href="#ArialMT-72" x="300.146484"/>
      <use xlink:href="#ArialMT-67" x="333.447266"/>
      <use xlink:href="#ArialMT-65" x="389.0625"/>
      <use xlink:href="#ArialMT-74" x="444.677734"/>
     </g>
    </g>
    <g id="patch_35">
     <path d="M 171.862156 30.623641 
L 187.262156 30.623641 
L 187.262156 25.233641 
L 171.862156 25.233641 
z
" style="fill: #fe6100; stroke: #000000; stroke-width: 0.5; stroke-linejoin: miter"/>
    </g>
    <g id="text_24">
     <!-- Target -->
     <g style="fill: #262626" transform="translate(193.422156 30.623641) scale(0.077 -0.077)">
      <use xlink:href="#ArialMT-54"/>
      <use xlink:href="#ArialMT-61" x="49.958984"/>
      <use xlink:href="#ArialMT-72" x="105.574219"/>
      <use xlink:href="#ArialMT-67" x="138.875"/>
      <use xlink:href="#ArialMT-65" x="194.490234"/>
      <use xlink:href="#ArialMT-74" x="250.105469"/>
     </g>
    </g>
   </g>
  </g>
 </g>
 <defs>
  <clipPath id="p0893d93258">
   <rect x="41.428641" y="7.2" width="195.3" height="138.6"/>
  </clipPath>
 </defs>
</svg>
