<?xml version="1.0" encoding="utf-8" standalone="no"?>
<!DOCTYPE svg PUBLIC "-//W3C//DTD SVG 1.1//EN"
  "http://www.w3.org/Graphics/SVG/1.1/DTD/svg11.dtd">
<svg xmlns:xlink="http://www.w3.org/1999/xlink" width="365.099516pt" height="217.166336pt" viewBox="0 0 365.099516 217.166336" xmlns="http://www.w3.org/2000/svg" version="1.1">
 <metadata>
  <rdf:RDF xmlns:dc="http://purl.org/dc/elements/1.1/" xmlns:cc="http://creativecommons.org/ns#" xmlns:rdf="http://www.w3.org/1999/02/22-rdf-syntax-ns#">
   <cc:Work>
    <dc:type rdf:resource="http://purl.org/dc/dcmitype/StillImage"/>
    <dc:date>2024-10-04T16:15:03.293871</dc:date>
    <dc:format>image/svg+xml</dc:format>
    <dc:creator>
     <cc:Agent>
      <dc:title>Matplotlib v3.9.0, https://matplotlib.org/</dc:title>
     </cc:Agent>
    </dc:creator>
   </cc:Work>
  </rdf:RDF>
 </metadata>
 <defs>
  <style type="text/css">*{stroke-linejoin: round; stroke-linecap: butt}</style>
 </defs>
 <g id="figure_1">
  <g id="patch_1">
   <path d="M 0 217.166336 
L 365.099516 217.166336 
L 365.099516 -0 
L 0 -0 
z
" style="fill: #ffffff"/>
  </g>
  <g id="axes_1">
   <g id="patch_2">
    <path d="M 41.227828 148.555758 
L 236.527828 148.555758 
L 236.527828 9.955758 
L 41.227828 9.955758 
z
" style="fill: #ffffff"/>
   </g>
   <g id="patch_3">
    <path d="M 48.056499 148.555758 
L 55.340416 148.555758 
L 55.340416 65.395758 
L 48.056499 65.395758 
z
" clip-path="url(#p076900dbf6)" style="fill: #648fff; stroke: #000000; stroke-width: 0.5; stroke-linejoin: miter"/>
   </g>
   <g id="patch_4">
    <path d="M 75.371185 148.555758 
L 82.655101 148.555758 
L 82.655101 44.605758 
L 75.371185 44.605758 
z
" clip-path="url(#p076900dbf6)" style="fill: #648fff; stroke: #000000; stroke-width: 0.5; stroke-linejoin: miter"/>
   </g>
   <g id="patch_5">
    <path d="M 102.68587 148.555758 
L 109.969786 148.555758 
L 109.969786 30.745758 
L 102.68587 30.745758 
z
" clip-path="url(#p076900dbf6)" style="fill: #648fff; stroke: #000000; stroke-width: 0.5; stroke-linejoin: miter"/>
   </g>
   <g id="patch_6">
    <path d="M 130.000555 148.555758 
L 137.284471 148.555758 
L 137.284471 30.745758 
L 130.000555 30.745758 
z
" clip-path="url(#p076900dbf6)" style="fill: #648fff; stroke: #000000; stroke-width: 0.5; stroke-linejoin: miter"/>
   </g>
   <g id="patch_7">
    <path d="M 157.315241 148.555758 
L 164.599157 148.555758 
L 164.599157 30.745758 
L 157.315241 30.745758 
z
" clip-path="url(#p076900dbf6)" style="fill: #648fff; stroke: #000000; stroke-width: 0.5; stroke-linejoin: miter"/>
   </g>
   <g id="patch_8">
    <path d="M 184.629926 148.555758 
L 191.913842 148.555758 
L 191.913842 30.745758 
L 184.629926 30.745758 
z
" clip-path="url(#p076900dbf6)" style="fill: #648fff; stroke: #000000; stroke-width: 0.5; stroke-linejoin: miter"/>
   </g>
   <g id="patch_9">
    <path d="M 211.944611 148.555758 
L 219.228527 148.555758 
L 219.228527 16.885758 
L 211.944611 16.885758 
z
" clip-path="url(#p076900dbf6)" style="fill: #648fff; stroke: #000000; stroke-width: 0.5; stroke-linejoin: miter"/>
   </g>
   <g id="patch_10">
    <path d="M 55.340416 148.555758 
L 62.624332 148.555758 
L 62.624332 65.395758 
L 55.340416 65.395758 
z
" clip-path="url(#p076900dbf6)" style="fill: #fe6100; stroke: #000000; stroke-width: 0.5; stroke-linejoin: miter"/>
   </g>
   <g id="patch_11">
    <path d="M 82.655101 148.555758 
L 89.939017 148.555758 
L 89.939017 90.343758 
L 82.655101 90.343758 
z
" clip-path="url(#p076900dbf6)" style="fill: #fe6100; stroke: #000000; stroke-width: 0.5; stroke-linejoin: miter"/>
   </g>
   <g id="patch_12">
    <path d="M 109.969786 148.555758 
L 117.253702 148.555758 
L 117.253702 111.133758 
L 109.969786 111.133758 
z
" clip-path="url(#p076900dbf6)" style="fill: #fe6100; stroke: #000000; stroke-width: 0.5; stroke-linejoin: miter"/>
   </g>
   <g id="patch_13">
    <path d="M 137.284471 148.555758 
L 144.568388 148.555758 
L 144.568388 111.133758 
L 137.284471 111.133758 
z
" clip-path="url(#p076900dbf6)" style="fill: #fe6100; stroke: #000000; stroke-width: 0.5; stroke-linejoin: miter"/>
   </g>
   <g id="patch_14">
    <path d="M 164.599157 148.555758 
L 171.883073 148.555758 
L 171.883073 120.142758 
L 164.599157 120.142758 
z
" clip-path="url(#p076900dbf6)" style="fill: #fe6100; stroke: #000000; stroke-width: 0.5; stroke-linejoin: miter"/>
   </g>
   <g id="patch_15">
    <path d="M 191.913842 148.555758 
L 199.197758 148.555758 
L 199.197758 124.300758 
L 191.913842 124.300758 
z
" clip-path="url(#p076900dbf6)" style="fill: #fe6100; stroke: #000000; stroke-width: 0.5; stroke-linejoin: miter"/>
   </g>
   <g id="patch_16">
    <path d="M 219.228527 148.555758 
L 226.512444 148.555758 
L 226.512444 124.993758 
L 219.228527 124.993758 
z
" clip-path="url(#p076900dbf6)" style="fill: #fe6100; stroke: #000000; stroke-width: 0.5; stroke-linejoin: miter"/>
   </g>
   <g id="patch_17">
    <path d="M 62.624332 148.555758 
L 69.908248 148.555758 
L 69.908248 65.395758 
L 62.624332 65.395758 
z
" clip-path="url(#p076900dbf6)" style="fill: #785ef0; stroke: #000000; stroke-width: 0.5; stroke-linejoin: miter"/>
   </g>
   <g id="patch_18">
    <path d="M 89.939017 148.555758 
L 97.222933 148.555758 
L 97.222933 107.668758 
L 89.939017 107.668758 
z
" clip-path="url(#p076900dbf6)" style="fill: #785ef0; stroke: #000000; stroke-width: 0.5; stroke-linejoin: miter"/>
   </g>
   <g id="patch_19">
    <path d="M 117.253702 148.555758 
L 124.537618 148.555758 
L 124.537618 137.467758 
L 117.253702 137.467758 
z
" clip-path="url(#p076900dbf6)" style="fill: #785ef0; stroke: #000000; stroke-width: 0.5; stroke-linejoin: miter"/>
   </g>
   <g id="patch_20">
    <path d="M 144.568388 148.555758 
L 151.852304 148.555758 
L 151.852304 137.467758 
L 144.568388 137.467758 
z
" clip-path="url(#p076900dbf6)" style="fill: #785ef0; stroke: #000000; stroke-width: 0.5; stroke-linejoin: miter"/>
   </g>
   <g id="patch_21">
    <path d="M 171.883073 148.555758 
L 179.166989 148.555758 
L 179.166989 137.467758 
L 171.883073 137.467758 
z
" clip-path="url(#p076900dbf6)" style="fill: #785ef0; stroke: #000000; stroke-width: 0.5; stroke-linejoin: miter"/>
   </g>
   <g id="patch_22">
    <path d="M 199.197758 148.555758 
L 206.481674 148.555758 
L 206.481674 137.467758 
L 199.197758 137.467758 
z
" clip-path="url(#p076900dbf6)" style="fill: #785ef0; stroke: #000000; stroke-width: 0.5; stroke-linejoin: miter"/>
   </g>
   <g id="patch_23">
    <path d="M 226.512444 148.555758 
L 233.79636 148.555758 
L 233.79636 138.853758 
L 226.512444 138.853758 
z
" clip-path="url(#p076900dbf6)" style="fill: #785ef0; stroke: #000000; stroke-width: 0.5; stroke-linejoin: miter"/>
   </g>
   <g id="matplotlib.axis_1">
    <g id="xtick_1">
     <g id="line2d_1">
      <defs>
       <path id="m716a95322d" d="M 0 5 
L 0 -5 
" style="stroke: #262626; stroke-width: 0.5"/>
      </defs>
      <g>
       <use xlink:href="#m716a95322d" x="58.982374" y="148.555758" style="fill: #262626; stroke: #262626; stroke-width: 0.5"/>
      </g>
     </g>
     <g id="text_1">
      <!-- DBTL-0 -->
      <g style="fill: #262626" transform="translate(60.972944 187.083461) rotate(-90) scale(0.077 -0.077)">
       <defs>
        <path id="Arial-ItalicMT-44" d="M 284 0 
L 1241 4581 
L 2622 4581 
Q 3119 4581 3381 4509 
Q 3756 4413 4022 4164 
Q 4288 3916 4422 3544 
Q 4556 3172 4556 2709 
Q 4556 2156 4389 1701 
Q 4222 1247 3951 901 
Q 3681 556 3386 361 
Q 3091 166 2688 72 
Q 2381 0 1934 0 
L 284 0 
z
M 1006 519 
L 1731 519 
Q 2222 519 2603 609 
Q 2841 666 3009 775 
Q 3231 916 3413 1147 
Q 3650 1453 3792 1845 
Q 3934 2238 3934 2738 
Q 3934 3294 3740 3592 
Q 3547 3891 3247 3988 
Q 3025 4059 2556 4059 
L 1747 4059 
L 1006 519 
z
" transform="scale(0.015625)"/>
        <path id="Arial-ItalicMT-42" d="M 278 0 
L 1238 4581 
L 2656 4581 
Q 3044 4581 3231 4550 
Q 3538 4497 3748 4364 
Q 3959 4231 4075 4001 
Q 4191 3772 4191 3494 
Q 4191 3116 3983 2828 
Q 3775 2541 3347 2391 
Q 3719 2269 3903 2023 
Q 4088 1778 4088 1450 
Q 4088 1072 3870 725 
Q 3653 378 3295 189 
Q 2938 0 2497 0 
L 278 0 
z
M 1441 2625 
L 2369 2625 
Q 3034 2625 3326 2837 
Q 3619 3050 3619 3456 
Q 3619 3650 3528 3790 
Q 3438 3931 3286 3995 
Q 3134 4059 2716 4059 
L 1741 4059 
L 1441 2625 
z
M 1000 519 
L 2044 519 
Q 2459 519 2603 547 
Q 2894 597 3075 717 
Q 3256 838 3359 1034 
Q 3463 1231 3463 1447 
Q 3463 1769 3261 1936 
Q 3059 2103 2494 2103 
L 1331 2103 
L 1000 519 
z
" transform="scale(0.015625)"/>
        <path id="Arial-ItalicMT-54" d="M 1453 0 
L 2300 4059 
L 797 4059 
L 906 4581 
L 4513 4581 
L 4403 4059 
L 2913 4059 
L 2066 0 
L 1453 0 
z
" transform="scale(0.015625)"/>
        <path id="Arial-ItalicMT-4c" d="M 256 0 
L 1213 4581 
L 1825 4581 
L 978 519 
L 3356 519 
L 3247 0 
L 256 0 
z
" transform="scale(0.015625)"/>
        <path id="Arial-ItalicMT-2d" d="M 297 1375 
L 416 1941 
L 2141 1941 
L 2025 1375 
L 297 1375 
z
" transform="scale(0.015625)"/>
        <path id="Arial-ItalicMT-30" d="M 453 1503 
Q 453 2084 626 2684 
Q 800 3284 1012 3643 
Q 1225 4003 1453 4206 
Q 1681 4409 1901 4504 
Q 2122 4600 2391 4600 
Q 2916 4600 3267 4209 
Q 3619 3819 3619 3081 
Q 3619 2322 3375 1578 
Q 3088 697 2575 256 
Q 2181 -78 1678 -78 
Q 1163 -78 808 326 
Q 453 731 453 1503 
z
M 1000 1359 
Q 1000 938 1141 700 
Q 1331 372 1706 372 
Q 2034 372 2303 669 
Q 2691 1088 2886 1895 
Q 3081 2703 3081 3216 
Q 3081 3709 2892 3928 
Q 2703 4147 2394 4147 
Q 2169 4147 1973 4031 
Q 1778 3916 1600 3634 
Q 1347 3238 1159 2447 
Q 1000 1772 1000 1359 
z
" transform="scale(0.015625)"/>
       </defs>
       <use xlink:href="#Arial-ItalicMT-44"/>
       <use xlink:href="#Arial-ItalicMT-42" x="72.216797"/>
       <use xlink:href="#Arial-ItalicMT-54" x="138.916016"/>
       <use xlink:href="#Arial-ItalicMT-4c" x="200"/>
       <use xlink:href="#Arial-ItalicMT-2d" x="255.615234"/>
       <use xlink:href="#Arial-ItalicMT-30" x="288.916016"/>
      </g>
     </g>
    </g>
    <g id="xtick_2">
     <g id="line2d_2">
      <g>
       <use xlink:href="#m716a95322d" x="86.297059" y="148.555758" style="fill: #262626; stroke: #262626; stroke-width: 0.5"/>
      </g>
     </g>
     <g id="text_2">
      <!-- DBTL-1 -->
      <g style="fill: #262626" transform="translate(88.287629 187.083461) rotate(-90) scale(0.077 -0.077)">
       <defs>
        <path id="Arial-ItalicMT-31" d="M 1541 0 
L 2266 3459 
Q 1797 3091 947 2869 
L 1053 3381 
Q 1475 3550 1886 3822 
Q 2297 4094 2503 4297 
Q 2628 4422 2741 4600 
L 3069 4600 
L 2109 0 
L 1541 0 
z
" transform="scale(0.015625)"/>
       </defs>
       <use xlink:href="#Arial-ItalicMT-44"/>
       <use xlink:href="#Arial-ItalicMT-42" x="72.216797"/>
       <use xlink:href="#Arial-ItalicMT-54" x="138.916016"/>
       <use xlink:href="#Arial-ItalicMT-4c" x="200"/>
       <use xlink:href="#Arial-ItalicMT-2d" x="255.615234"/>
       <use xlink:href="#Arial-ItalicMT-31" x="288.916016"/>
      </g>
     </g>
    </g>
    <g id="xtick_3">
     <g id="line2d_3">
      <g>
       <use xlink:href="#m716a95322d" x="113.611744" y="148.555758" style="fill: #262626; stroke: #262626; stroke-width: 0.5"/>
      </g>
     </g>
     <g id="text_3">
      <!-- DBTL-2 -->
      <g style="fill: #262626" transform="translate(115.602315 187.083461) rotate(-90) scale(0.077 -0.077)">
       <defs>
        <path id="Arial-ItalicMT-32" d="M 375 0 
Q 463 409 617 686 
Q 772 963 1028 1211 
Q 1284 1459 2016 2044 
Q 2459 2397 2622 2566 
Q 2856 2809 2963 3044 
Q 3034 3203 3034 3391 
Q 3034 3706 2811 3926 
Q 2588 4147 2263 4147 
Q 1941 4147 1700 3923 
Q 1459 3700 1356 3206 
L 803 3288 
Q 884 3897 1276 4248 
Q 1669 4600 2253 4600 
Q 2644 4600 2961 4437 
Q 3278 4275 3437 3981 
Q 3597 3688 3597 3375 
Q 3597 2919 3272 2497 
Q 3072 2234 2097 1463 
Q 1678 1131 1473 918 
Q 1269 706 1166 519 
L 3216 519 
L 3106 0 
L 375 0 
z
" transform="scale(0.015625)"/>
       </defs>
       <use xlink:href="#Arial-ItalicMT-44"/>
       <use xlink:href="#Arial-ItalicMT-42" x="72.216797"/>
       <use xlink:href="#Arial-ItalicMT-54" x="138.916016"/>
       <use xlink:href="#Arial-ItalicMT-4c" x="200"/>
       <use xlink:href="#Arial-ItalicMT-2d" x="255.615234"/>
       <use xlink:href="#Arial-ItalicMT-32" x="288.916016"/>
      </g>
     </g>
    </g>
    <g id="xtick_4">
     <g id="line2d_4">
      <g>
       <use xlink:href="#m716a95322d" x="140.92643" y="148.555758" style="fill: #262626; stroke: #262626; stroke-width: 0.5"/>
      </g>
     </g>
     <g id="text_4">
      <!-- DBTL-3 -->
      <g style="fill: #262626" transform="translate(142.917 187.083461) rotate(-90) scale(0.077 -0.077)">
       <defs>
        <path id="Arial-ItalicMT-33" d="M 350 1200 
L 900 1269 
Q 963 788 1177 580 
Q 1391 372 1738 372 
Q 2156 372 2461 672 
Q 2766 972 2766 1359 
Q 2766 1697 2537 1917 
Q 2309 2138 1925 2138 
Q 1881 2138 1744 2125 
L 1841 2597 
Q 1922 2584 1997 2584 
Q 2481 2584 2742 2820 
Q 3003 3056 3003 3400 
Q 3003 3716 2789 3931 
Q 2575 4147 2266 4147 
Q 1963 4147 1720 3926 
Q 1478 3706 1409 3303 
L 853 3416 
Q 991 3981 1381 4290 
Q 1772 4600 2306 4600 
Q 2869 4600 3217 4259 
Q 3566 3919 3566 3422 
Q 3566 3059 3377 2789 
Q 3188 2519 2809 2341 
Q 3078 2181 3211 1956 
Q 3344 1731 3344 1441 
Q 3344 825 2883 373 
Q 2422 -78 1781 -78 
Q 1159 -78 776 270 
Q 394 619 350 1200 
z
" transform="scale(0.015625)"/>
       </defs>
       <use xlink:href="#Arial-ItalicMT-44"/>
       <use xlink:href="#Arial-ItalicMT-42" x="72.216797"/>
       <use xlink:href="#Arial-ItalicMT-54" x="138.916016"/>
       <use xlink:href="#Arial-ItalicMT-4c" x="200"/>
       <use xlink:href="#Arial-ItalicMT-2d" x="255.615234"/>
       <use xlink:href="#Arial-ItalicMT-33" x="288.916016"/>
      </g>
     </g>
    </g>
    <g id="xtick_5">
     <g id="line2d_5">
      <g>
       <use xlink:href="#m716a95322d" x="168.241115" y="148.555758" style="fill: #262626; stroke: #262626; stroke-width: 0.5"/>
      </g>
     </g>
     <g id="text_5">
      <!-- DBTL-4 -->
      <g style="fill: #262626" transform="translate(170.231685 187.083461) rotate(-90) scale(0.077 -0.077)">
       <defs>
        <path id="Arial-ItalicMT-34" d="M 1913 0 
L 2159 1169 
L 291 1169 
L 409 1728 
L 2975 4581 
L 3438 4581 
L 2828 1669 
L 3472 1669 
L 3369 1169 
L 2725 1169 
L 2478 0 
L 1913 0 
z
M 2263 1669 
L 2663 3581 
L 956 1669 
L 2263 1669 
z
" transform="scale(0.015625)"/>
       </defs>
       <use xlink:href="#Arial-ItalicMT-44"/>
       <use xlink:href="#Arial-ItalicMT-42" x="72.216797"/>
       <use xlink:href="#Arial-ItalicMT-54" x="138.916016"/>
       <use xlink:href="#Arial-ItalicMT-4c" x="200"/>
       <use xlink:href="#Arial-ItalicMT-2d" x="255.615234"/>
       <use xlink:href="#Arial-ItalicMT-34" x="288.916016"/>
      </g>
     </g>
    </g>
    <g id="xtick_6">
     <g id="line2d_6">
      <g>
       <use xlink:href="#m716a95322d" x="195.5558" y="148.555758" style="fill: #262626; stroke: #262626; stroke-width: 0.5"/>
      </g>
     </g>
     <g id="text_6">
      <!-- DBTL-5 -->
      <g style="fill: #262626" transform="translate(197.54637 187.083461) rotate(-90) scale(0.077 -0.077)">
       <defs>
        <path id="Arial-ItalicMT-35" d="M 447 1309 
L 1022 1366 
Q 1016 1244 1016 1219 
Q 1016 1013 1120 803 
Q 1225 594 1404 483 
Q 1584 372 1784 372 
Q 2047 372 2319 553 
Q 2591 734 2759 1081 
Q 2928 1428 2928 1769 
Q 2928 2153 2701 2384 
Q 2475 2616 2106 2616 
Q 1859 2616 1639 2497 
Q 1419 2378 1228 2141 
L 734 2175 
L 1425 4519 
L 3663 4519 
L 3553 4000 
L 1813 4000 
L 1469 2834 
Q 1663 2975 1867 3045 
Q 2072 3116 2288 3116 
Q 2813 3116 3150 2769 
Q 3488 2422 3488 1819 
Q 3488 1291 3256 845 
Q 3025 400 2620 161 
Q 2216 -78 1747 -78 
Q 1353 -78 1050 100 
Q 747 278 595 590 
Q 444 903 444 1216 
Q 444 1247 447 1309 
z
" transform="scale(0.015625)"/>
       </defs>
       <use xlink:href="#Arial-ItalicMT-44"/>
       <use xlink:href="#Arial-ItalicMT-42" x="72.216797"/>
       <use xlink:href="#Arial-ItalicMT-54" x="138.916016"/>
       <use xlink:href="#Arial-ItalicMT-4c" x="200"/>
       <use xlink:href="#Arial-ItalicMT-2d" x="255.615234"/>
       <use xlink:href="#Arial-ItalicMT-35" x="288.916016"/>
      </g>
     </g>
    </g>
    <g id="xtick_7">
     <g id="line2d_7">
      <g>
       <use xlink:href="#m716a95322d" x="222.870485" y="148.555758" style="fill: #262626; stroke: #262626; stroke-width: 0.5"/>
      </g>
     </g>
     <g id="text_7">
      <!-- DBTL-6 -->
      <g style="fill: #262626" transform="translate(224.861056 187.083461) rotate(-90) scale(0.077 -0.077)">
       <defs>
        <path id="Arial-ItalicMT-36" d="M 1288 2656 
Q 1525 2853 1761 2951 
Q 1997 3050 2228 3050 
Q 2750 3050 3090 2694 
Q 3431 2338 3431 1734 
Q 3431 956 2925 400 
Q 2488 -78 1863 -78 
Q 1294 -78 914 339 
Q 534 756 534 1528 
Q 534 2219 778 2956 
Q 966 3522 1242 3889 
Q 1519 4256 1830 4428 
Q 2141 4600 2531 4600 
Q 3000 4600 3297 4308 
Q 3594 4016 3634 3472 
L 3109 3422 
Q 3066 3794 2898 3959 
Q 2731 4125 2491 4125 
Q 2238 4125 1981 3928 
Q 1725 3731 1540 3345 
Q 1356 2959 1288 2656 
z
M 1091 1288 
Q 1091 900 1331 636 
Q 1572 372 1875 372 
Q 2088 372 2325 533 
Q 2563 694 2728 1022 
Q 2894 1350 2894 1675 
Q 2894 2094 2664 2345 
Q 2434 2597 2109 2597 
Q 1734 2597 1412 2230 
Q 1091 1863 1091 1288 
z
" transform="scale(0.015625)"/>
       </defs>
       <use xlink:href="#Arial-ItalicMT-44"/>
       <use xlink:href="#Arial-ItalicMT-42" x="72.216797"/>
       <use xlink:href="#Arial-ItalicMT-54" x="138.916016"/>
       <use xlink:href="#Arial-ItalicMT-4c" x="200"/>
       <use xlink:href="#Arial-ItalicMT-2d" x="255.615234"/>
       <use xlink:href="#Arial-ItalicMT-36" x="288.916016"/>
      </g>
     </g>
    </g>
    <g id="text_8">
     <!-- Cycle -->
     <g transform="translate(128.375859 208.198398) scale(0.084 -0.084)">
      <defs>
       <path id="ArialMT-43" d="M 3763 1606 
L 4369 1453 
Q 4178 706 3683 314 
Q 3188 -78 2472 -78 
Q 1731 -78 1267 223 
Q 803 525 561 1097 
Q 319 1669 319 2325 
Q 319 3041 592 3573 
Q 866 4106 1370 4382 
Q 1875 4659 2481 4659 
Q 3169 4659 3637 4309 
Q 4106 3959 4291 3325 
L 3694 3184 
Q 3534 3684 3231 3912 
Q 2928 4141 2469 4141 
Q 1941 4141 1586 3887 
Q 1231 3634 1087 3207 
Q 944 2781 944 2328 
Q 944 1744 1114 1308 
Q 1284 872 1643 656 
Q 2003 441 2422 441 
Q 2931 441 3284 734 
Q 3638 1028 3763 1606 
z
" transform="scale(0.015625)"/>
       <path id="ArialMT-79" d="M 397 -1278 
L 334 -750 
Q 519 -800 656 -800 
Q 844 -800 956 -737 
Q 1069 -675 1141 -563 
Q 1194 -478 1313 -144 
Q 1328 -97 1363 -6 
L 103 3319 
L 709 3319 
L 1400 1397 
Q 1534 1031 1641 628 
Q 1738 1016 1872 1384 
L 2581 3319 
L 3144 3319 
L 1881 -56 
Q 1678 -603 1566 -809 
Q 1416 -1088 1222 -1217 
Q 1028 -1347 759 -1347 
Q 597 -1347 397 -1278 
z
" transform="scale(0.015625)"/>
       <path id="ArialMT-63" d="M 2588 1216 
L 3141 1144 
Q 3050 572 2676 248 
Q 2303 -75 1759 -75 
Q 1078 -75 664 370 
Q 250 816 250 1647 
Q 250 2184 428 2587 
Q 606 2991 970 3192 
Q 1334 3394 1763 3394 
Q 2303 3394 2647 3120 
Q 2991 2847 3088 2344 
L 2541 2259 
Q 2463 2594 2264 2762 
Q 2066 2931 1784 2931 
Q 1359 2931 1093 2626 
Q 828 2322 828 1663 
Q 828 994 1084 691 
Q 1341 388 1753 388 
Q 2084 388 2306 591 
Q 2528 794 2588 1216 
z
" transform="scale(0.015625)"/>
       <path id="ArialMT-6c" d="M 409 0 
L 409 4581 
L 972 4581 
L 972 0 
L 409 0 
z
" transform="scale(0.015625)"/>
       <path id="ArialMT-65" d="M 2694 1069 
L 3275 997 
Q 3138 488 2766 206 
Q 2394 -75 1816 -75 
Q 1088 -75 661 373 
Q 234 822 234 1631 
Q 234 2469 665 2931 
Q 1097 3394 1784 3394 
Q 2450 3394 2872 2941 
Q 3294 2488 3294 1666 
Q 3294 1616 3291 1516 
L 816 1516 
Q 847 969 1125 678 
Q 1403 388 1819 388 
Q 2128 388 2347 550 
Q 2566 713 2694 1069 
z
M 847 1978 
L 2700 1978 
Q 2663 2397 2488 2606 
Q 2219 2931 1791 2931 
Q 1403 2931 1139 2672 
Q 875 2413 847 1978 
z
" transform="scale(0.015625)"/>
      </defs>
      <use xlink:href="#ArialMT-43"/>
      <use xlink:href="#ArialMT-79" x="72.216797"/>
      <use xlink:href="#ArialMT-63" x="122.216797"/>
      <use xlink:href="#ArialMT-6c" x="172.216797"/>
      <use xlink:href="#ArialMT-65" x="194.433594"/>
     </g>
    </g>
   </g>
   <g id="matplotlib.axis_2">
    <g id="ytick_1">
     <g id="line2d_8">
      <defs>
       <path id="m8fd4ed4302" d="M 0 0 
L 4 0 
" style="stroke: #262626; stroke-width: 0.5"/>
      </defs>
      <g>
       <use xlink:href="#m8fd4ed4302" x="41.227828" y="148.555758" style="fill: #262626; stroke: #262626; stroke-width: 0.5"/>
      </g>
     </g>
     <g id="text_9">
      <!-- 0 -->
      <g style="fill: #262626" transform="translate(33.445906 151.311516) scale(0.077 -0.077)">
       <defs>
        <path id="ArialMT-30" d="M 266 2259 
Q 266 3072 433 3567 
Q 600 4063 929 4331 
Q 1259 4600 1759 4600 
Q 2128 4600 2406 4451 
Q 2684 4303 2865 4023 
Q 3047 3744 3150 3342 
Q 3253 2941 3253 2259 
Q 3253 1453 3087 958 
Q 2922 463 2592 192 
Q 2263 -78 1759 -78 
Q 1097 -78 719 397 
Q 266 969 266 2259 
z
M 844 2259 
Q 844 1131 1108 757 
Q 1372 384 1759 384 
Q 2147 384 2411 759 
Q 2675 1134 2675 2259 
Q 2675 3391 2411 3762 
Q 2147 4134 1753 4134 
Q 1366 4134 1134 3806 
Q 844 3388 844 2259 
z
" transform="scale(0.015625)"/>
       </defs>
       <use xlink:href="#ArialMT-30"/>
      </g>
     </g>
    </g>
    <g id="ytick_2">
     <g id="line2d_9">
      <g>
       <use xlink:href="#m8fd4ed4302" x="41.227828" y="131.230758" style="fill: #262626; stroke: #262626; stroke-width: 0.5"/>
      </g>
     </g>
     <g id="text_10">
      <!-- 25 -->
      <g style="fill: #262626" transform="translate(29.163984 133.986516) scale(0.077 -0.077)">
       <defs>
        <path id="ArialMT-32" d="M 3222 541 
L 3222 0 
L 194 0 
Q 188 203 259 391 
Q 375 700 629 1000 
Q 884 1300 1366 1694 
Q 2113 2306 2375 2664 
Q 2638 3022 2638 3341 
Q 2638 3675 2398 3904 
Q 2159 4134 1775 4134 
Q 1369 4134 1125 3890 
Q 881 3647 878 3216 
L 300 3275 
Q 359 3922 746 4261 
Q 1134 4600 1788 4600 
Q 2447 4600 2831 4234 
Q 3216 3869 3216 3328 
Q 3216 3053 3103 2787 
Q 2991 2522 2730 2228 
Q 2469 1934 1863 1422 
Q 1356 997 1212 845 
Q 1069 694 975 541 
L 3222 541 
z
" transform="scale(0.015625)"/>
        <path id="ArialMT-35" d="M 266 1200 
L 856 1250 
Q 922 819 1161 601 
Q 1400 384 1738 384 
Q 2144 384 2425 690 
Q 2706 997 2706 1503 
Q 2706 1984 2436 2262 
Q 2166 2541 1728 2541 
Q 1456 2541 1237 2417 
Q 1019 2294 894 2097 
L 366 2166 
L 809 4519 
L 3088 4519 
L 3088 3981 
L 1259 3981 
L 1013 2750 
Q 1425 3038 1878 3038 
Q 2478 3038 2890 2622 
Q 3303 2206 3303 1553 
Q 3303 931 2941 478 
Q 2500 -78 1738 -78 
Q 1113 -78 717 272 
Q 322 622 266 1200 
z
" transform="scale(0.015625)"/>
       </defs>
       <use xlink:href="#ArialMT-32"/>
       <use xlink:href="#ArialMT-35" x="55.615234"/>
      </g>
     </g>
    </g>
    <g id="ytick_3">
     <g id="line2d_10">
      <g>
       <use xlink:href="#m8fd4ed4302" x="41.227828" y="113.905758" style="fill: #262626; stroke: #262626; stroke-width: 0.5"/>
      </g>
     </g>
     <g id="text_11">
      <!-- 50 -->
      <g style="fill: #262626" transform="translate(29.163984 116.661516) scale(0.077 -0.077)">
       <use xlink:href="#ArialMT-35"/>
       <use xlink:href="#ArialMT-30" x="55.615234"/>
      </g>
     </g>
    </g>
    <g id="ytick_4">
     <g id="line2d_11">
      <g>
       <use xlink:href="#m8fd4ed4302" x="41.227828" y="96.580758" style="fill: #262626; stroke: #262626; stroke-width: 0.5"/>
      </g>
     </g>
     <g id="text_12">
      <!-- 75 -->
      <g style="fill: #262626" transform="translate(29.163984 99.336516) scale(0.077 -0.077)">
       <defs>
        <path id="ArialMT-37" d="M 303 3981 
L 303 4522 
L 3269 4522 
L 3269 4084 
Q 2831 3619 2401 2847 
Q 1972 2075 1738 1259 
Q 1569 684 1522 0 
L 944 0 
Q 953 541 1156 1306 
Q 1359 2072 1739 2783 
Q 2119 3494 2547 3981 
L 303 3981 
z
" transform="scale(0.015625)"/>
       </defs>
       <use xlink:href="#ArialMT-37"/>
       <use xlink:href="#ArialMT-35" x="55.615234"/>
      </g>
     </g>
    </g>
    <g id="ytick_5">
     <g id="line2d_12">
      <g>
       <use xlink:href="#m8fd4ed4302" x="41.227828" y="79.255758" style="fill: #262626; stroke: #262626; stroke-width: 0.5"/>
      </g>
     </g>
     <g id="text_13">
      <!-- 100 -->
      <g style="fill: #262626" transform="translate(24.882062 82.011516) scale(0.077 -0.077)">
       <defs>
        <path id="ArialMT-31" d="M 2384 0 
L 1822 0 
L 1822 3584 
Q 1619 3391 1289 3197 
Q 959 3003 697 2906 
L 697 3450 
Q 1169 3672 1522 3987 
Q 1875 4303 2022 4600 
L 2384 4600 
L 2384 0 
z
" transform="scale(0.015625)"/>
       </defs>
       <use xlink:href="#ArialMT-31"/>
       <use xlink:href="#ArialMT-30" x="55.615234"/>
       <use xlink:href="#ArialMT-30" x="111.230469"/>
      </g>
     </g>
    </g>
    <g id="ytick_6">
     <g id="line2d_13">
      <g>
       <use xlink:href="#m8fd4ed4302" x="41.227828" y="61.930758" style="fill: #262626; stroke: #262626; stroke-width: 0.5"/>
      </g>
     </g>
     <g id="text_14">
      <!-- 125 -->
      <g style="fill: #262626" transform="translate(24.882062 64.686516) scale(0.077 -0.077)">
       <use xlink:href="#ArialMT-31"/>
       <use xlink:href="#ArialMT-32" x="55.615234"/>
       <use xlink:href="#ArialMT-35" x="111.230469"/>
      </g>
     </g>
    </g>
    <g id="ytick_7">
     <g id="line2d_14">
      <g>
       <use xlink:href="#m8fd4ed4302" x="41.227828" y="44.605758" style="fill: #262626; stroke: #262626; stroke-width: 0.5"/>
      </g>
     </g>
     <g id="text_15">
      <!-- 150 -->
      <g style="fill: #262626" transform="translate(24.882062 47.361516) scale(0.077 -0.077)">
       <use xlink:href="#ArialMT-31"/>
       <use xlink:href="#ArialMT-35" x="55.615234"/>
       <use xlink:href="#ArialMT-30" x="111.230469"/>
      </g>
     </g>
    </g>
    <g id="ytick_8">
     <g id="line2d_15">
      <g>
       <use xlink:href="#m8fd4ed4302" x="41.227828" y="27.280758" style="fill: #262626; stroke: #262626; stroke-width: 0.5"/>
      </g>
     </g>
     <g id="text_16">
      <!-- 175 -->
      <g style="fill: #262626" transform="translate(24.882062 30.036516) scale(0.077 -0.077)">
       <use xlink:href="#ArialMT-31"/>
       <use xlink:href="#ArialMT-37" x="55.615234"/>
       <use xlink:href="#ArialMT-35" x="111.230469"/>
      </g>
     </g>
    </g>
    <g id="ytick_9">
     <g id="line2d_16">
      <g>
       <use xlink:href="#m8fd4ed4302" x="41.227828" y="9.955758" style="fill: #262626; stroke: #262626; stroke-width: 0.5"/>
      </g>
     </g>
     <g id="text_17">
      <!-- 200 -->
      <g style="fill: #262626" transform="translate(24.882062 12.711516) scale(0.077 -0.077)">
       <use xlink:href="#ArialMT-32"/>
       <use xlink:href="#ArialMT-30" x="55.615234"/>
       <use xlink:href="#ArialMT-30" x="111.230469"/>
      </g>
     </g>
    </g>
    <g id="text_18">
     <!-- Counts -->
     <g transform="translate(13.212562 92.562539) rotate(-90) scale(0.084 -0.084)">
      <defs>
       <path id="ArialMT-6f" d="M 213 1659 
Q 213 2581 725 3025 
Q 1153 3394 1769 3394 
Q 2453 3394 2887 2945 
Q 3322 2497 3322 1706 
Q 3322 1066 3130 698 
Q 2938 331 2570 128 
Q 2203 -75 1769 -75 
Q 1072 -75 642 372 
Q 213 819 213 1659 
z
M 791 1659 
Q 791 1022 1069 705 
Q 1347 388 1769 388 
Q 2188 388 2466 706 
Q 2744 1025 2744 1678 
Q 2744 2294 2464 2611 
Q 2184 2928 1769 2928 
Q 1347 2928 1069 2612 
Q 791 2297 791 1659 
z
" transform="scale(0.015625)"/>
       <path id="ArialMT-75" d="M 2597 0 
L 2597 488 
Q 2209 -75 1544 -75 
Q 1250 -75 995 37 
Q 741 150 617 320 
Q 494 491 444 738 
Q 409 903 409 1263 
L 409 3319 
L 972 3319 
L 972 1478 
Q 972 1038 1006 884 
Q 1059 663 1231 536 
Q 1403 409 1656 409 
Q 1909 409 2131 539 
Q 2353 669 2445 892 
Q 2538 1116 2538 1541 
L 2538 3319 
L 3100 3319 
L 3100 0 
L 2597 0 
z
" transform="scale(0.015625)"/>
       <path id="ArialMT-6e" d="M 422 0 
L 422 3319 
L 928 3319 
L 928 2847 
Q 1294 3394 1984 3394 
Q 2284 3394 2536 3286 
Q 2788 3178 2913 3003 
Q 3038 2828 3088 2588 
Q 3119 2431 3119 2041 
L 3119 0 
L 2556 0 
L 2556 2019 
Q 2556 2363 2490 2533 
Q 2425 2703 2258 2804 
Q 2091 2906 1866 2906 
Q 1506 2906 1245 2678 
Q 984 2450 984 1813 
L 984 0 
L 422 0 
z
" transform="scale(0.015625)"/>
       <path id="ArialMT-74" d="M 1650 503 
L 1731 6 
Q 1494 -44 1306 -44 
Q 1000 -44 831 53 
Q 663 150 594 308 
Q 525 466 525 972 
L 525 2881 
L 113 2881 
L 113 3319 
L 525 3319 
L 525 4141 
L 1084 4478 
L 1084 3319 
L 1650 3319 
L 1650 2881 
L 1084 2881 
L 1084 941 
Q 1084 700 1114 631 
Q 1144 563 1211 522 
Q 1278 481 1403 481 
Q 1497 481 1650 503 
z
" transform="scale(0.015625)"/>
       <path id="ArialMT-73" d="M 197 991 
L 753 1078 
Q 800 744 1014 566 
Q 1228 388 1613 388 
Q 2000 388 2187 545 
Q 2375 703 2375 916 
Q 2375 1106 2209 1216 
Q 2094 1291 1634 1406 
Q 1016 1563 777 1677 
Q 538 1791 414 1992 
Q 291 2194 291 2438 
Q 291 2659 392 2848 
Q 494 3038 669 3163 
Q 800 3259 1026 3326 
Q 1253 3394 1513 3394 
Q 1903 3394 2198 3281 
Q 2494 3169 2634 2976 
Q 2775 2784 2828 2463 
L 2278 2388 
Q 2241 2644 2061 2787 
Q 1881 2931 1553 2931 
Q 1166 2931 1000 2803 
Q 834 2675 834 2503 
Q 834 2394 903 2306 
Q 972 2216 1119 2156 
Q 1203 2125 1616 2013 
Q 2213 1853 2448 1751 
Q 2684 1650 2818 1456 
Q 2953 1263 2953 975 
Q 2953 694 2789 445 
Q 2625 197 2315 61 
Q 2006 -75 1616 -75 
Q 969 -75 630 194 
Q 291 463 197 991 
z
" transform="scale(0.015625)"/>
      </defs>
      <use xlink:href="#ArialMT-43"/>
      <use xlink:href="#ArialMT-6f" x="72.216797"/>
      <use xlink:href="#ArialMT-75" x="127.832031"/>
      <use xlink:href="#ArialMT-6e" x="183.447266"/>
      <use xlink:href="#ArialMT-74" x="239.0625"/>
      <use xlink:href="#ArialMT-73" x="266.845703"/>
     </g>
    </g>
   </g>
   <g id="line2d_17">
    <path clip-path="url(#p076900dbf6)" style="fill: none; stroke: #424242; stroke-width: 2.7; stroke-linecap: round"/>
   </g>
   <g id="line2d_18">
    <path clip-path="url(#p076900dbf6)" style="fill: none; stroke: #424242; stroke-width: 2.7; stroke-linecap: round"/>
   </g>
   <g id="line2d_19">
    <path clip-path="url(#p076900dbf6)" style="fill: none; stroke: #424242; stroke-width: 2.7; stroke-linecap: round"/>
   </g>
   <g id="line2d_20">
    <path clip-path="url(#p076900dbf6)" style="fill: none; stroke: #424242; stroke-width: 2.7; stroke-linecap: round"/>
   </g>
   <g id="line2d_21">
    <path clip-path="url(#p076900dbf6)" style="fill: none; stroke: #424242; stroke-width: 2.7; stroke-linecap: round"/>
   </g>
   <g id="line2d_22">
    <path clip-path="url(#p076900dbf6)" style="fill: none; stroke: #424242; stroke-width: 2.7; stroke-linecap: round"/>
   </g>
   <g id="line2d_23">
    <path clip-path="url(#p076900dbf6)" style="fill: none; stroke: #424242; stroke-width: 2.7; stroke-linecap: round"/>
   </g>
   <g id="line2d_24">
    <path clip-path="url(#p076900dbf6)" style="fill: none; stroke: #424242; stroke-width: 2.7; stroke-linecap: round"/>
   </g>
   <g id="line2d_25">
    <path clip-path="url(#p076900dbf6)" style="fill: none; stroke: #424242; stroke-width: 2.7; stroke-linecap: round"/>
   </g>
   <g id="line2d_26">
    <path clip-path="url(#p076900dbf6)" style="fill: none; stroke: #424242; stroke-width: 2.7; stroke-linecap: round"/>
   </g>
   <g id="line2d_27">
    <path clip-path="url(#p076900dbf6)" style="fill: none; stroke: #424242; stroke-width: 2.7; stroke-linecap: round"/>
   </g>
   <g id="line2d_28">
    <path clip-path="url(#p076900dbf6)" style="fill: none; stroke: #424242; stroke-width: 2.7; stroke-linecap: round"/>
   </g>
   <g id="line2d_29">
    <path clip-path="url(#p076900dbf6)" style="fill: none; stroke: #424242; stroke-width: 2.7; stroke-linecap: round"/>
   </g>
   <g id="line2d_30">
    <path clip-path="url(#p076900dbf6)" style="fill: none; stroke: #424242; stroke-width: 2.7; stroke-linecap: round"/>
   </g>
   <g id="line2d_31">
    <path clip-path="url(#p076900dbf6)" style="fill: none; stroke: #424242; stroke-width: 2.7; stroke-linecap: round"/>
   </g>
   <g id="line2d_32">
    <path clip-path="url(#p076900dbf6)" style="fill: none; stroke: #424242; stroke-width: 2.7; stroke-linecap: round"/>
   </g>
   <g id="line2d_33">
    <path clip-path="url(#p076900dbf6)" style="fill: none; stroke: #424242; stroke-width: 2.7; stroke-linecap: round"/>
   </g>
   <g id="line2d_34">
    <path clip-path="url(#p076900dbf6)" style="fill: none; stroke: #424242; stroke-width: 2.7; stroke-linecap: round"/>
   </g>
   <g id="line2d_35">
    <path clip-path="url(#p076900dbf6)" style="fill: none; stroke: #424242; stroke-width: 2.7; stroke-linecap: round"/>
   </g>
   <g id="line2d_36">
    <path clip-path="url(#p076900dbf6)" style="fill: none; stroke: #424242; stroke-width: 2.7; stroke-linecap: round"/>
   </g>
   <g id="line2d_37">
    <path clip-path="url(#p076900dbf6)" style="fill: none; stroke: #424242; stroke-width: 2.7; stroke-linecap: round"/>
   </g>
   <g id="patch_24">
    <path d="M 41.227828 148.555758 
L 41.227828 9.955758 
" style="fill: none; stroke: #000000; stroke-width: 0.5; stroke-linejoin: miter; stroke-linecap: square"/>
   </g>
   <g id="patch_25">
    <path d="M 236.527828 148.555758 
L 236.527828 9.955758 
" style="fill: none; stroke: #000000; stroke-width: 0.5; stroke-linejoin: miter; stroke-linecap: square"/>
   </g>
   <g id="patch_26">
    <path d="M 41.227828 148.555758 
L 236.527828 148.555758 
" style="fill: none; stroke: #000000; stroke-width: 0.5; stroke-linejoin: miter; stroke-linecap: square"/>
   </g>
   <g id="patch_27">
    <path d="M 41.227828 9.955758 
L 236.527828 9.955758 
" style="fill: none; stroke: #000000; stroke-width: 0.5; stroke-linejoin: miter; stroke-linecap: square"/>
   </g>
   <g id="legend_1">
    <g id="patch_28">
     <path d="M 251.682828 49.062133 
L 356.359516 49.062133 
Q 357.899516 49.062133 357.899516 47.522133 
L 357.899516 15.345758 
Q 357.899516 13.805758 356.359516 13.805758 
L 251.682828 13.805758 
Q 250.142828 13.805758 250.142828 15.345758 
L 250.142828 47.522133 
Q 250.142828 49.062133 251.682828 49.062133 
z
" style="fill: #ffffff; opacity: 0.8; stroke: #cccccc; stroke-linejoin: miter"/>
    </g>
    <g id="patch_29">
     <path d="M 253.222828 22.397273 
L 268.622828 22.397273 
L 268.622828 17.007273 
L 253.222828 17.007273 
z
" style="fill: #648fff; stroke: #000000; stroke-width: 0.5; stroke-linejoin: miter"/>
    </g>
    <g id="text_19">
     <!-- Total gRNA units -->
     <g style="fill: #262626" transform="translate(274.782828 22.397273) scale(0.077 -0.077)">
      <defs>
       <path id="ArialMT-54" d="M 1659 0 
L 1659 4041 
L 150 4041 
L 150 4581 
L 3781 4581 
L 3781 4041 
L 2266 4041 
L 2266 0 
L 1659 0 
z
" transform="scale(0.015625)"/>
       <path id="ArialMT-61" d="M 2588 409 
Q 2275 144 1986 34 
Q 1697 -75 1366 -75 
Q 819 -75 525 192 
Q 231 459 231 875 
Q 231 1119 342 1320 
Q 453 1522 633 1644 
Q 813 1766 1038 1828 
Q 1203 1872 1538 1913 
Q 2219 1994 2541 2106 
Q 2544 2222 2544 2253 
Q 2544 2597 2384 2738 
Q 2169 2928 1744 2928 
Q 1347 2928 1158 2789 
Q 969 2650 878 2297 
L 328 2372 
Q 403 2725 575 2942 
Q 747 3159 1072 3276 
Q 1397 3394 1825 3394 
Q 2250 3394 2515 3294 
Q 2781 3194 2906 3042 
Q 3031 2891 3081 2659 
Q 3109 2516 3109 2141 
L 3109 1391 
Q 3109 606 3145 398 
Q 3181 191 3288 0 
L 2700 0 
Q 2613 175 2588 409 
z
M 2541 1666 
Q 2234 1541 1622 1453 
Q 1275 1403 1131 1340 
Q 988 1278 909 1158 
Q 831 1038 831 891 
Q 831 666 1001 516 
Q 1172 366 1500 366 
Q 1825 366 2078 508 
Q 2331 650 2450 897 
Q 2541 1088 2541 1459 
L 2541 1666 
z
" transform="scale(0.015625)"/>
       <path id="ArialMT-20" transform="scale(0.015625)"/>
       <path id="ArialMT-67" d="M 319 -275 
L 866 -356 
Q 900 -609 1056 -725 
Q 1266 -881 1628 -881 
Q 2019 -881 2231 -725 
Q 2444 -569 2519 -288 
Q 2563 -116 2559 434 
Q 2191 0 1641 0 
Q 956 0 581 494 
Q 206 988 206 1678 
Q 206 2153 378 2554 
Q 550 2956 876 3175 
Q 1203 3394 1644 3394 
Q 2231 3394 2613 2919 
L 2613 3319 
L 3131 3319 
L 3131 450 
Q 3131 -325 2973 -648 
Q 2816 -972 2473 -1159 
Q 2131 -1347 1631 -1347 
Q 1038 -1347 672 -1080 
Q 306 -813 319 -275 
z
M 784 1719 
Q 784 1066 1043 766 
Q 1303 466 1694 466 
Q 2081 466 2343 764 
Q 2606 1063 2606 1700 
Q 2606 2309 2336 2618 
Q 2066 2928 1684 2928 
Q 1309 2928 1046 2623 
Q 784 2319 784 1719 
z
" transform="scale(0.015625)"/>
       <path id="ArialMT-52" d="M 503 0 
L 503 4581 
L 2534 4581 
Q 3147 4581 3465 4457 
Q 3784 4334 3975 4021 
Q 4166 3709 4166 3331 
Q 4166 2844 3850 2509 
Q 3534 2175 2875 2084 
Q 3116 1969 3241 1856 
Q 3506 1613 3744 1247 
L 4541 0 
L 3778 0 
L 3172 953 
Q 2906 1366 2734 1584 
Q 2563 1803 2427 1890 
Q 2291 1978 2150 2013 
Q 2047 2034 1813 2034 
L 1109 2034 
L 1109 0 
L 503 0 
z
M 1109 2559 
L 2413 2559 
Q 2828 2559 3062 2645 
Q 3297 2731 3419 2920 
Q 3541 3109 3541 3331 
Q 3541 3656 3305 3865 
Q 3069 4075 2559 4075 
L 1109 4075 
L 1109 2559 
z
" transform="scale(0.015625)"/>
       <path id="ArialMT-4e" d="M 488 0 
L 488 4581 
L 1109 4581 
L 3516 984 
L 3516 4581 
L 4097 4581 
L 4097 0 
L 3475 0 
L 1069 3600 
L 1069 0 
L 488 0 
z
" transform="scale(0.015625)"/>
       <path id="ArialMT-41" d="M -9 0 
L 1750 4581 
L 2403 4581 
L 4278 0 
L 3588 0 
L 3053 1388 
L 1138 1388 
L 634 0 
L -9 0 
z
M 1313 1881 
L 2866 1881 
L 2388 3150 
Q 2169 3728 2063 4100 
Q 1975 3659 1816 3225 
L 1313 1881 
z
" transform="scale(0.015625)"/>
       <path id="ArialMT-69" d="M 425 3934 
L 425 4581 
L 988 4581 
L 988 3934 
L 425 3934 
z
M 425 0 
L 425 3319 
L 988 3319 
L 988 0 
L 425 0 
z
" transform="scale(0.015625)"/>
      </defs>
      <use xlink:href="#ArialMT-54"/>
      <use xlink:href="#ArialMT-6f" x="49.958984"/>
      <use xlink:href="#ArialMT-74" x="105.574219"/>
      <use xlink:href="#ArialMT-61" x="133.357422"/>
      <use xlink:href="#ArialMT-6c" x="188.972656"/>
      <use xlink:href="#ArialMT-20" x="211.189453"/>
      <use xlink:href="#ArialMT-67" x="238.972656"/>
      <use xlink:href="#ArialMT-52" x="294.587891"/>
      <use xlink:href="#ArialMT-4e" x="366.804688"/>
      <use xlink:href="#ArialMT-41" x="439.021484"/>
      <use xlink:href="#ArialMT-20" x="500.220703"/>
      <use xlink:href="#ArialMT-75" x="528.003906"/>
      <use xlink:href="#ArialMT-6e" x="583.619141"/>
      <use xlink:href="#ArialMT-69" x="639.234375"/>
      <use xlink:href="#ArialMT-74" x="661.451172"/>
      <use xlink:href="#ArialMT-73" x="689.234375"/>
     </g>
    </g>
    <g id="patch_30">
     <path d="M 253.222828 33.379398 
L 268.622828 33.379398 
L 268.622828 27.989398 
L 253.222828 27.989398 
z
" style="fill: #fe6100; stroke: #000000; stroke-width: 0.5; stroke-linejoin: miter"/>
    </g>
    <g id="text_20">
     <!-- Unique gRNA Positions -->
     <g style="fill: #262626" transform="translate(274.782828 33.379398) scale(0.077 -0.077)">
      <defs>
       <path id="ArialMT-55" d="M 3500 4581 
L 4106 4581 
L 4106 1934 
Q 4106 1244 3950 837 
Q 3794 431 3386 176 
Q 2978 -78 2316 -78 
Q 1672 -78 1262 144 
Q 853 366 678 786 
Q 503 1206 503 1934 
L 503 4581 
L 1109 4581 
L 1109 1938 
Q 1109 1341 1220 1058 
Q 1331 775 1601 622 
Q 1872 469 2263 469 
Q 2931 469 3215 772 
Q 3500 1075 3500 1938 
L 3500 4581 
z
" transform="scale(0.015625)"/>
       <path id="ArialMT-71" d="M 2538 -1272 
L 2538 353 
Q 2406 169 2170 47 
Q 1934 -75 1669 -75 
Q 1078 -75 651 397 
Q 225 869 225 1691 
Q 225 2191 398 2587 
Q 572 2984 901 3189 
Q 1231 3394 1625 3394 
Q 2241 3394 2594 2875 
L 2594 3319 
L 3100 3319 
L 3100 -1272 
L 2538 -1272 
z
M 803 1669 
Q 803 1028 1072 708 
Q 1341 388 1716 388 
Q 2075 388 2334 692 
Q 2594 997 2594 1619 
Q 2594 2281 2320 2615 
Q 2047 2950 1678 2950 
Q 1313 2950 1058 2639 
Q 803 2328 803 1669 
z
" transform="scale(0.015625)"/>
       <path id="ArialMT-50" d="M 494 0 
L 494 4581 
L 2222 4581 
Q 2678 4581 2919 4538 
Q 3256 4481 3484 4323 
Q 3713 4166 3852 3881 
Q 3991 3597 3991 3256 
Q 3991 2672 3619 2267 
Q 3247 1863 2275 1863 
L 1100 1863 
L 1100 0 
L 494 0 
z
M 1100 2403 
L 2284 2403 
Q 2872 2403 3119 2622 
Q 3366 2841 3366 3238 
Q 3366 3525 3220 3729 
Q 3075 3934 2838 4000 
Q 2684 4041 2272 4041 
L 1100 4041 
L 1100 2403 
z
" transform="scale(0.015625)"/>
      </defs>
      <use xlink:href="#ArialMT-55"/>
      <use xlink:href="#ArialMT-6e" x="72.216797"/>
      <use xlink:href="#ArialMT-69" x="127.832031"/>
      <use xlink:href="#ArialMT-71" x="150.048828"/>
      <use xlink:href="#ArialMT-75" x="205.664062"/>
      <use xlink:href="#ArialMT-65" x="261.279297"/>
      <use xlink:href="#ArialMT-20" x="316.894531"/>
      <use xlink:href="#ArialMT-67" x="344.677734"/>
      <use xlink:href="#ArialMT-52" x="400.292969"/>
      <use xlink:href="#ArialMT-4e" x="472.509766"/>
      <use xlink:href="#ArialMT-41" x="544.726562"/>
      <use xlink:href="#ArialMT-20" x="605.925781"/>
      <use xlink:href="#ArialMT-50" x="633.708984"/>
      <use xlink:href="#ArialMT-6f" x="700.408203"/>
      <use xlink:href="#ArialMT-73" x="756.023438"/>
      <use xlink:href="#ArialMT-69" x="806.023438"/>
      <use xlink:href="#ArialMT-74" x="828.240234"/>
      <use xlink:href="#ArialMT-69" x="856.023438"/>
      <use xlink:href="#ArialMT-6f" x="878.240234"/>
      <use xlink:href="#ArialMT-6e" x="933.855469"/>
      <use xlink:href="#ArialMT-73" x="989.470703"/>
     </g>
    </g>
    <g id="patch_31">
     <path d="M 253.222828 44.361523 
L 268.622828 44.361523 
L 268.622828 38.971523 
L 253.222828 38.971523 
z
" style="fill: #785ef0; stroke: #000000; stroke-width: 0.5; stroke-linejoin: miter"/>
    </g>
    <g id="text_21">
     <!-- Unique gRNAs -->
     <g style="fill: #262626" transform="translate(274.782828 44.361523) scale(0.077 -0.077)">
      <use xlink:href="#ArialMT-55"/>
      <use xlink:href="#ArialMT-6e" x="72.216797"/>
      <use xlink:href="#ArialMT-69" x="127.832031"/>
      <use xlink:href="#ArialMT-71" x="150.048828"/>
      <use xlink:href="#ArialMT-75" x="205.664062"/>
      <use xlink:href="#ArialMT-65" x="261.279297"/>
      <use xlink:href="#ArialMT-20" x="316.894531"/>
      <use xlink:href="#ArialMT-67" x="344.677734"/>
      <use xlink:href="#ArialMT-52" x="400.292969"/>
      <use xlink:href="#ArialMT-4e" x="472.509766"/>
      <use xlink:href="#ArialMT-41" x="544.726562"/>
      <use xlink:href="#ArialMT-73" x="611.425781"/>
     </g>
    </g>
   </g>
  </g>
 </g>
 <defs>
  <clipPath id="p076900dbf6">
   <rect x="41.227828" y="9.955758" width="195.3" height="138.6"/>
  </clipPath>
 </defs>
</svg>
